<svg width="24" height="24" viewBox="0 0 24 24" xmlns="http://www.w3.org/2000/svg">
<path d="M20.1603 4.60981C19.0986 3.54782 17.691 2.90214 16.1935 2.79019C14.696 2.67825 13.2081 3.10748 12.0003 3.99981C10.7279 3.05345 9.14427 2.62433 7.5682 2.79885C5.99212 2.97338 4.54072 3.73859 3.50625 4.9404C2.47178 6.14221 1.9311 7.69133 1.99308 9.27583C2.05506 10.8603 2.71509 12.3625 3.84028 13.4798L11.2903 20.9398C11.3832 21.0335 11.4938 21.1079 11.6157 21.1587C11.7376 21.2095 11.8683 21.2356 12.0003 21.2356C12.1323 21.2356 12.263 21.2095 12.3849 21.1587C12.5067 21.1079 12.6173 21.0335 12.7103 20.9398L20.1603 13.4798C20.7429 12.8975 21.2051 12.2062 21.5205 11.4452C21.8358 10.6842 21.9982 9.86854 21.9982 9.04481C21.9982 8.22108 21.8358 7.40542 21.5205 6.64445C21.2051 5.88347 20.7429 5.19209 20.1603 4.60981ZM18.7503 12.0598L12.0003 18.8098L5.25028 12.0598C4.47569 11.3033 4.01821 10.2803 3.97082 9.19861C3.92343 8.11694 4.28968 7.05781 4.99514 6.23648C5.70059 5.41514 6.69232 4.89324 7.76875 4.77684C8.84518 4.66044 9.92555 4.95827 10.7903 5.60981L9.08028 9.60981C9.02085 9.74009 8.9901 9.88162 8.9901 10.0248C8.9901 10.168 9.02085 10.3095 9.08028 10.4398C9.14378 10.5699 9.2348 10.6847 9.34703 10.7762C9.45926 10.8678 9.59002 10.9338 9.73027 10.9698L12.5003 11.6698L11.1003 14.5598C11.0423 14.678 11.0081 14.8064 10.9998 14.9378C10.9916 15.0691 11.0093 15.2008 11.052 15.3253C11.0948 15.4498 11.1617 15.5647 11.2489 15.6632C11.3361 15.7618 11.4419 15.8422 11.5603 15.8998C11.6974 15.9662 11.8479 16.0004 12.0003 15.9998C12.1877 16.0002 12.3714 15.9479 12.5306 15.8489C12.6897 15.7499 12.8178 15.6081 12.9003 15.4398L14.9003 11.4398C14.9642 11.3055 14.9974 11.1586 14.9974 11.0098C14.9974 10.861 14.9642 10.7141 14.9003 10.5798C14.8342 10.4457 14.7402 10.3273 14.6247 10.2324C14.5091 10.1376 14.3747 10.0685 14.2303 10.0298L11.4003 9.31981L12.8503 5.92981C13.6632 5.14477 14.7546 4.7148 15.8845 4.7345C17.0144 4.75419 18.0902 5.22193 18.8753 6.03481C19.6603 6.8477 20.0903 7.93915 20.0706 9.06906C20.0509 10.199 19.5832 11.2748 18.7703 12.0598H18.7503Z" fill="#EEE"/>
</svg>
