<svg width="12" height="14" viewBox="0 0 12 14" fill="none" xmlns="http://www.w3.org/2000/svg">
<path d="M6.00033 0.333008C4.58584 0.333008 3.22928 0.894911 2.22909 1.89511C1.2289 2.8953 0.666992 4.25185 0.666992 5.66634C0.666992 9.26634 5.36699 13.333 5.56699 13.5063C5.68775 13.6096 5.84142 13.6664 6.00033 13.6664C6.15923 13.6664 6.3129 13.6096 6.43366 13.5063C6.66699 13.333 11.3337 9.26634 11.3337 5.66634C11.3337 4.25185 10.7718 2.8953 9.77156 1.89511C8.77137 0.894911 7.41481 0.333008 6.00033 0.333008ZM6.00033 12.0997C4.58033 10.7663 2.00033 7.89301 2.00033 5.66634C2.00033 4.60548 2.42175 3.58806 3.1719 2.83791C3.92204 2.08777 4.93946 1.66634 6.00033 1.66634C7.06119 1.66634 8.07861 2.08777 8.82875 2.83791C9.5789 3.58806 10.0003 4.60548 10.0003 5.66634C10.0003 7.89301 7.42033 10.773 6.00033 12.0997ZM6.00033 2.99967C5.47291 2.99967 4.95734 3.15607 4.51881 3.44909C4.08027 3.74211 3.73848 4.15858 3.53665 4.64585C3.33481 5.13312 3.282 5.6693 3.3849 6.18658C3.48779 6.70386 3.74177 7.17902 4.11471 7.55196C4.48765 7.9249 4.9628 8.17887 5.48008 8.28177C5.99737 8.38466 6.53355 8.33185 7.02081 8.13002C7.50808 7.92819 7.92456 7.58639 8.21758 7.14786C8.51059 6.70933 8.66699 6.19376 8.66699 5.66634C8.66699 4.9591 8.38604 4.28082 7.88594 3.78072C7.38585 3.28063 6.70757 2.99967 6.00033 2.99967ZM6.00033 6.99967C5.73662 6.99967 5.47883 6.92148 5.25956 6.77497C5.0403 6.62846 4.8694 6.42022 4.76849 6.17659C4.66757 5.93295 4.64116 5.66486 4.69261 5.40622C4.74406 5.14758 4.87105 4.91 5.05752 4.72353C5.24399 4.53706 5.48156 4.41007 5.7402 4.35863C5.99885 4.30718 6.26693 4.33358 6.51057 4.4345C6.7542 4.53542 6.96244 4.70632 7.10895 4.92558C7.25546 5.14485 7.33366 5.40263 7.33366 5.66634C7.33366 6.01996 7.19318 6.3591 6.94313 6.60915C6.69309 6.8592 6.35395 6.99967 6.00033 6.99967Z" fill="#333333"/>
</svg>
