<svg width="63" height="64" viewBox="0 0 63 64" fill="none" xmlns="http://www.w3.org/2000/svg">
<path d="M6.83334 33.9996L3.48637 36.8754L0.815545 31.1554L7.50008 31.1554C-2.58169 14.1319 10.0065 -2.54102 22.45 3.66551C35.0907 9.97065 32.5 28.5 10 32.5L6.83334 33.9996Z" fill="#ED0A3F"/>
<path d="M52.0689 0.537522C53.1572 0.778511 54.2531 1.13658 55.3397 1.62329C68.7624 7.63659 63.2611 28.8446 42.5 31.6965L46.6363 35.9629L38.9744 37.8324L39.9675 31.6961L39.7548 29.0151C28.4352 10.2543 39.8287 -2.17327 52.0689 0.537522Z" fill="#3AA655"/>
<path d="M39.9675 31.6961C35.457 32.6098 32.411 33.8933 30.3951 35.418C27.9351 37.2789 26.87 39.4737 26.342 42.2669C26.2637 42.681 26.2009 43.1078 26.1493 43.5464C32.2147 43.6467 38.0071 48.0177 39.5255 52.1638C40.4127 54.5865 40.319 57.2747 38.9744 59.5C37.6298 61.7252 35.0778 63.3742 31.4729 63.9263L27.5 62.5L31.4729 61.5C34.4992 61.0363 35.8117 59.5837 36.6957 58.1209C37.5791 56.6583 37.6723 54.8637 37.0192 53.0803C35.8909 49.999 31.1405 46.2006 25.9685 46.1923C25.9274 47.5668 25.9453 49.0308 25.9641 50.5731C26.0119 54.4793 26.0658 58.8877 25.1823 63.6166L22.5718 63.0839C23.3372 58.9168 23.2903 54.9406 23.2462 51.2054C23.2269 49.5676 23.2081 47.9761 23.2586 46.4352C17.0109 47.4565 12.0092 45.3741 9.21412 41.8776C7.22368 39.3877 6.33785 37.1324 6.83334 33.9996L10 32.5C8.5 35 9.47259 37.9352 11.2949 40.2149C13.4712 42.9372 17.4117 44.7328 22.943 43.7922C23.1098 43.7637 23.2753 43.7398 23.4402 43.7161C23.5109 43.0573 23.6036 42.4063 23.724 41.7688C24.3336 38.5439 25.7874 35.562 28.7867 33.2933C31.2995 31.3926 34.8158 29.9779 39.7548 29.0151L39.9675 31.6961Z" fill="#333333"/>
</svg>
