<svg width="618" height="782" viewBox="0 0 618 782" fill="none" xmlns="http://www.w3.org/2000/svg">
<path fill-rule="evenodd" clip-rule="evenodd" d="M111.706 320.663C107.661 322.929 104.303 324.477 101.14 325.534L96.4875 327.089L100.863 329.305C103.835 330.81 106.661 332.73 109.502 335.174L111.695 337.062L112.754 334.371C114.144 330.838 114.82 326.818 114.764 322.424L114.72 318.975L111.706 320.663ZM306.029 332.076C302.243 338.903 297.673 345.624 293.253 352.124C283.498 366.47 273.411 381.304 270.305 399.043C269.943 401.249 269.787 409.015 269.787 409.015L272.679 407.838C282.334 403.908 292.579 400.985 302.486 398.158C306.315 397.065 310.274 395.936 314.155 394.761C315.735 394.338 317.307 393.844 318.827 393.366C322.516 392.208 326.001 391.113 329.665 390.926L330.781 390.869L331.339 389.903C336.387 381.166 332.601 372.838 328.266 365.056C325.662 359.383 322.313 354.053 319.073 348.897C315.715 343.554 312.243 338.029 309.706 332.247L308.04 328.45L306.029 332.076ZM119.711 404.451C125.45 410.461 130.78 416.568 135.555 422.601L139.181 420.936C137.428 412.024 131.987 405.746 122.056 401.176L119.711 404.451ZM311.703 538.716C311.129 538.716 310.59 538.938 310.186 539.342C309.777 539.752 309.552 540.305 309.553 540.897L311.703 540.891V538.716ZM72.8879 687.31C69.5161 681.527 69.0206 672.448 74.074 667.525C72.3743 656.893 75.7133 645.013 83.1082 636.548L83.1253 636.574C94.1049 620.134 94.9117 614.276 86.8896 595.9C72.5529 595.352 57.7855 595.188 43.7872 591.839L44.3107 588.711C43.7927 588.573 41.1459 587.879 40.5775 587.732C40.6535 588.315 41.048 590.97 41.0384 591.502C40.3845 592.218 38.804 592.882 38.5101 591.474C29.7041 553.841 21.8229 516.954 13.2595 479.378C4.29713 441.452 -13.7269 380.792 30.3925 359.89L29.4816 356.004C27.0453 356.005 26.0663 353.351 24.9495 349.601C19.9714 336.184 29.651 323.03 38.7027 314.732C51.0753 302.347 62.4894 288.597 73.5312 275.305C105.028 237.018 147.885 185.926 202.667 194.606L202.482 196.861C211.052 197.938 220 200.204 228.677 198.626C258.302 193.494 290.532 205.103 308.752 228.937L309.421 224.495C309.484 224.076 309.634 223.688 310.298 223.688C311.166 223.657 311.625 224.367 311.946 225.022C343.393 237.451 356.42 277.905 366.47 305.634C367.753 310.321 367.391 311.707 367.279 311.983L365.454 313.07C384.407 338.282 394.822 368.608 403.757 397.361C406.71 405.027 407.018 410.338 402.086 414.974C434.605 434.513 460.123 464.964 445.695 499.68C426.865 533.46 377.005 554.892 339.554 574.295C324.682 582.351 303.052 586.641 289.367 599.835C288.453 601.186 287.141 602.503 286.346 602.394C279.994 603.334 270.541 563.665 271.978 560.488C265.273 562.885 257.815 562.758 250.802 564.009C251.43 565.389 253.488 567.258 251.948 568.794C252.053 573.453 251.336 578.489 250.311 583.238C258.727 581.889 258.536 586.304 250.439 583.967C250.219 586.025 249.657 591.27 249.442 593.259C251.859 592.197 256.669 591.451 258.354 593.112C257.666 595.327 251.705 593.242 249.409 593.898C248.066 603.857 247.628 613.649 246.686 623.581C253.851 630.406 265.043 632.019 271.437 639.4C276.855 645.019 276.074 654.447 269.718 658.967C273.611 663.532 270.495 671.11 264.811 672.349C257.067 674.157 248.972 671.657 241.337 669.557C228.645 665.378 215.352 658.862 200.703 649.64C194.907 646.03 190.591 640.359 188.54 633.665C173.677 587.861 169.705 556.737 176.721 541.116C180.724 538.091 185.187 539.958 188.883 538.306C190.645 537.519 192.232 536.461 193.513 532.706C174.231 530.813 146.122 534.331 130.666 525.092L131.209 523.936C129.782 523.025 126.646 519.214 125.453 517.988C127.603 543.856 129.332 570.392 130.187 596.169C133.023 600.937 135.43 605.873 138.073 611.379C139.912 613.184 143.128 616.279 141.241 618.326C141.24 618.326 157.111 655.486 161.961 674.27C166.579 674.465 168.451 682.286 168.275 687.482C167.573 696.936 155.439 697.939 144.801 698.865C137.523 699.629 130.039 700.024 122.666 700.024C109.346 700.035 76.0391 699.118 72.8879 687.31Z" fill="white"/>
<path fill-rule="evenodd" clip-rule="evenodd" d="M137.728 208.333C160.338 193.319 189.692 185.413 215.913 195.244C216.225 195.353 216.101 195.808 215.776 195.736C211.633 194.827 207.424 194.318 203.191 194.144C211.77 195.191 220.095 197.441 228.782 195.925C257.8 191.135 288.571 200.974 307.85 223.508C308.349 220.197 312.465 220.32 313.808 222.661C339.447 231.687 353.969 265.594 363.654 289.125C364.791 293.319 372.693 310.736 368.899 312.996C386.961 337.724 397.123 367.004 406.141 395.968L406.399 396.672C408.446 402.341 410.008 408.756 405.673 413.8C423.658 424.789 440.287 439.549 448.148 459.549C460.668 489.051 444.714 514.046 419.839 530.03C395.188 547.866 368.481 562.717 340.874 575.47C331.591 579.753 322.191 583.773 312.737 587.667L311.796 588.052C304.369 591.103 296.875 594.69 291.32 600.561C280.517 616.315 270.539 569.125 270.43 562.549C265.364 564.071 259.785 564.105 254.556 564.899C255.22 566.037 255.271 567.516 254.463 568.728C254.475 572.578 254.067 576.458 253.313 580.272C261.339 579.561 261.061 587.65 252.694 585.785L252.277 589.696C256.097 588.513 264.165 590.403 259.439 594.953C256.964 596.175 254.327 595.048 251.688 595.178C250.551 604.117 250.118 613.063 249.286 622.042C256.455 628.268 267.097 629.918 273.461 637.391C279.022 643.467 279.16 652.972 272.794 658.691C276.214 664.525 272.08 672.125 265.755 673.658C257.604 675.593 249.067 673.015 241.2 670.837C226.895 666.132 213.357 659.018 200.62 651.039L200.067 650.691C193.765 646.766 189.203 640.656 187.036 633.582L186.572 632.149C178.874 608.26 165.183 561.405 175.454 539.272C180.293 533.914 188.093 540.153 190.913 533.841C172.719 532.418 143.403 535.584 128.578 525.196C130.034 546.091 132.193 566.973 132.107 587.93C131.737 590.686 133.601 592.41 132.852 595.192C135.558 599.814 137.895 604.632 140.213 609.455L140.359 609.592C142.766 611.869 145.86 616.49 142.693 619.2C153.47 634.964 159.316 653.57 164.093 671.868C169.175 673.031 171.094 682.475 170.779 686.989C169.353 699.119 154.948 699.197 145.482 700.221C139.952 700.801 134.406 701.163 128.849 701.314C117.605 701.618 106.347 701.023 95.1954 699.561C86.1109 698.766 76.0679 696.395 71.5432 687.61C67.8952 681.305 67.3258 671.843 72.3716 666.184C70.8967 655.348 74.3544 644.052 81.1108 635.508L81.3166 635.25L81.2993 635.243C81.1444 635.175 81.1582 634.919 81.7905 634.791L81.8606 634.778L82.1641 634.309C92.0917 618.948 93.3287 614.737 85.963 597.217L79.2699 596.978C66.867 596.525 54.3341 595.873 42.3316 592.794C40.6313 594.208 37.6403 594.044 36.973 591.271C28.2416 553.973 20.2301 516.502 11.717 479.15C2.8689 439.84 -16.1971 380.165 29.9412 357.371C25.2287 357.373 24.1785 351.728 23.0333 348.167C18.8344 334.325 28.0866 321.536 37.7638 312.549C71.7352 278.507 97.294 235.62 137.728 208.333ZM72.9431 670.351C72.3046 688.677 86.1988 693.072 101.837 693.54C111.582 694.465 121.4 694.749 131.182 694.367L135.79 694.1C143.487 693.648 151.241 693.083 158.731 691.33C163.663 690.318 164.9 685.914 163.118 681.609C162.348 681.951 161.438 681.975 160.726 681.476C159.929 680.919 159.351 680.328 158.913 679.632C133.571 690.888 101.684 689.656 77.1245 676.704C73.9775 676.55 73.5689 672.798 72.9431 670.351ZM134.546 612.345C125.336 606.784 106.683 604.367 97.7857 611.364C98.3955 614.88 96.97 618.133 95.6334 621.266C99.6927 620.299 135.003 615.55 130.015 624.214C127.223 626.461 123.422 624.914 120.195 624.61C111.54 623.892 102.825 624.12 94.1963 625.099C93.4441 627.204 93.1536 629.565 92.2181 631.55C100.958 628.672 110.101 627.295 119.271 626.802L119.781 626.776C123.784 626.564 128.469 625.679 131.449 628.944C133.989 632.411 128.352 634.797 125.448 634.457C113.078 634.087 100.683 634.544 88.3241 635.076L87.7808 635.97C79.0476 650.402 77.1671 656.086 80.6969 673.395C80.6767 673.378 80.6558 673.364 80.6387 673.347C80.625 674.283 80.3242 675.126 79.684 675.755C106.317 684.382 131.123 683.892 157.588 675.335C153.719 655.932 146.039 637.604 140.329 618.739C138.822 617.896 138.375 616.035 137.246 614.804C136.104 614.707 134.974 613.807 134.546 612.345ZM198.37 534.056C186.766 542.247 192.007 551.926 195.215 563.048C199.904 579.396 203.507 596.052 207.52 612.573C209.884 627.248 219.179 639.975 232.553 646.576C238.569 649.74 245.169 651.786 251.914 652.628C254.518 652.892 257.403 652.613 259.148 654.944C260.137 656.013 260.246 657.769 259.148 658.817C255.699 662.721 245.674 659.199 241.023 658.226C206.561 647.798 201.323 622.873 194.676 591.622C191.455 574.266 183.541 555.986 188.316 538.384C185.428 539.925 180.991 539.396 178.943 542.308C174.214 572.215 184.644 602.553 192.683 631.144C194.468 637.151 198.235 642.435 203.718 645.589C215.412 652.718 227.67 659.233 240.639 663.733L241.033 663.844C247.614 665.729 261.833 670.815 266.885 665.498C267.939 663.944 267.891 662.28 266.563 661.249L265.919 661.004C264.684 660.528 263.229 659.856 263.004 658.415L262.991 658.315L263.038 658.298C261.964 656.331 264.049 654.128 265.916 653.646C268.548 653.551 269.772 651.801 270.707 649.233C272.385 636.661 254.7 633.301 248.838 624.699C248.216 627.839 243.375 627.241 243.4 624.074C243.209 614.454 245.303 604.746 246.737 595.257C244.53 595.162 242.185 596.053 240.037 595.57C239.72 593.589 245.917 591.512 247.623 590.858C247.976 589.218 248.349 587.585 248.746 585.96C234.96 586.791 241.363 582.378 250.07 580.867C250.341 579.945 250.578 578.998 250.795 578.062L250.901 577.595C251.452 575.248 251.743 573.031 251.839 570.739C245.744 573.528 238.887 575.219 232.283 573.8C220.35 571.033 214.164 556.572 218.955 545.72C217.865 541.871 220.004 537.778 221.939 534.531C214.083 534.504 206.222 534.288 198.37 534.056ZM81.7032 634.966C81.6003 635.028 81.5034 635.097 81.4095 635.172L81.3166 635.25L81.34 635.256C81.453 635.279 81.6176 635.215 81.7169 634.976C81.6961 634.997 81.6961 634.987 81.7032 634.966ZM82.4287 634.724C82.2405 634.729 82.0808 634.744 81.9417 634.765L81.8606 634.778L81.8348 634.819C81.7865 634.892 81.7564 634.922 81.7203 634.973C81.9192 634.812 82.1888 634.738 82.4287 634.724ZM96.6736 623.261C96.031 623.346 95.3894 623.423 94.7434 623.504L94.6168 623.848C95.3012 623.643 95.9855 623.449 96.6736 623.261ZM125.194 595.444C113.729 596.61 102.174 595.891 90.7057 597.193C92.9545 600.294 94.5586 603.726 95.9037 607.348C105.323 598.468 120.434 601.184 131.767 604.455C131.005 602.231 130.302 599.986 129.673 597.723C127.977 597.995 126.041 597.044 125.194 595.444ZM404.834 414.886C389.163 430.829 365.477 435.211 345.206 442.249C340.285 445.326 342.69 451.424 343.318 456.054C344.491 463.656 345.423 471.294 346.099 478.956C348.604 476.065 355.164 475.687 358.835 474.512L359.324 474.402C364.222 473.28 369.312 471.598 374.309 472.688C376.324 473.126 376.461 475.91 374.859 476.9C370.803 479.415 365.84 479.487 361.19 480.037L360.001 480.179C355.886 480.668 351.739 481.114 347.605 480.94C347.085 481.022 346.561 480.824 346.233 480.472C346.748 488.483 347.78 496.607 347.43 504.631C347.239 506.055 346.78 507.606 345.767 508.661L345.734 508.783C345.16 510.81 343.296 514.427 341.148 511.749L340.745 511.025C337.591 505.344 334.601 499.403 333.076 493.059C332.569 505.889 332.158 518.713 331.645 531.539L331.629 531.847C331.498 534.024 331.072 536.643 329.654 538.319C329.779 539.314 328.885 539.894 328.087 539.538L327.981 539.587C327.216 539.929 325.984 540.245 325.517 539.313C322.824 533.025 319.956 526.836 317.329 520.53C317.467 523.766 317.311 527.009 317.414 530.248C317.466 533.943 318.154 538.288 316.388 541.707C314.88 544.702 311.124 545.485 309.109 542.879C307.494 540.39 306.579 537.313 305.11 534.674C300.97 555.1 290.486 525.076 288.561 518.888C282.645 522.341 276.407 525.258 269.957 527.59C271.731 530.273 271.302 533.921 271.86 537.004C272.363 541.601 272.759 546.202 273.156 550.81L273.303 551.692C275.719 566.103 279.238 580.833 286.984 593.378C293.542 586.968 302.146 583.186 310.56 579.791C320.693 575.62 330.742 571.259 340.655 566.596C367.45 554.019 393.25 539.273 417.3 522.012L418.118 521.441C431.483 512.052 445.41 499.74 445.752 482.221C446.905 453.502 422.849 433.91 404.834 414.886ZM109.495 398.608C86.6156 377.179 51.5859 349.473 19.9861 369.831C-9.53037 394.769 13.8556 454.565 19.8849 486.767C27.5514 520.617 35.6543 554.374 43.1699 588.255C69.9702 591.785 97.1736 593.635 124.106 590.454C123.802 566.565 122.187 542.707 121.659 518.809C121.169 506.496 121.339 494.136 119.491 481.941C117.922 472.025 119.936 460.047 114.405 451.386C112.358 448.232 109.028 445.471 108.284 441.668C108.267 441.49 108.499 441.432 108.612 441.531C110.231 442.952 111.531 444.646 113.249 446.009L114.512 446.986C116.566 448.582 118.612 450.286 119.884 452.557C120.014 451.589 117.563 442.965 119.031 443.994L119.308 444.75C121.282 450.172 123.062 455.657 123.569 461.458C125.507 481.23 126.59 501.099 128.25 520.899C132.253 522.701 135.93 525.349 140.302 526.306C147.461 527.013 154.631 526.613 161.803 526.519L162.475 526.511C183.401 526.199 204.262 527.372 225.172 527.041C246.546 527.869 268.396 522.279 286.638 511.049C276.644 465.982 310.961 433.84 326.828 395.316C308.55 399.918 290.36 404.862 272.133 409.712C274.593 415.716 266.638 432.731 263.643 438.761C247.624 470.292 215.228 490.899 186.096 460.806C186.109 460.898 186.119 460.99 186.13 461.086C185.152 460.194 184.071 459.41 182.982 458.657C181.518 470.648 177.561 482.734 170.092 492.362L169.277 493.383C166.947 496.283 163.574 500.097 159.844 497.906C157.097 496.423 156.58 493.536 157.113 490.624C148.139 500.374 138.362 502.577 144.493 485.798L144.29 486.008C140.858 489.527 131.747 497.304 130.82 488.11C131.224 483.532 134.048 479.446 135.484 475.158C133.95 476.104 132.226 476.572 130.47 475.899C125.762 474.096 128.185 468.72 129.235 465.335C131.894 456.779 134.607 448.236 137.366 439.711C136.41 434.643 139.438 429.6 136.599 425.195C135.385 425.83 133.749 425.697 132.575 424.132C125.691 414.979 117.79 406.498 109.495 398.608ZM43.4881 589.809C43.4953 589.86 43.4953 589.905 43.4984 589.956C43.7622 589.973 44.0223 589.996 44.2854 590.02C44.0172 589.956 43.7523 589.878 43.4881 589.809ZM269.502 556.9C265.279 513.487 276.237 533.932 231.732 534.425C231.932 535.512 230.501 535.387 231.007 535.085C230.362 532.685 226.708 539.716 226.199 540.628C225.238 542.663 224.799 545.198 224.461 547.424C222.076 559.896 230.964 570.823 243.924 565.52C242.256 565.381 240.381 565.984 238.997 564.919C239.004 564.916 239.007 564.909 239.014 564.902C237.774 562.685 244.574 562.589 245.926 561.996C251.196 560.896 256.479 559.875 261.717 558.641C264.27 558.04 266.885 557.098 269.502 556.9ZM312.289 540.126C311.909 539.904 312.103 540.631 312.23 540.262C312.248 540.214 312.271 540.17 312.289 540.126ZM360.211 308.324C341.163 309.681 328.831 319.074 315.313 331.119C314.304 331.99 313.281 332.844 312.234 333.671C318.14 344.011 324.508 354.077 330.663 364.274L331.817 366.192C333.612 369.184 335.365 372.229 336.434 375.56C340.074 387.061 327.36 407.304 322.74 418.596C300.632 457.551 279.865 484.595 299.98 530.733C301.06 527.821 298.675 517.657 302.242 517.262L302.17 516.539C301.03 504.811 300.979 490.686 304.537 480.329C302.568 500.369 304.703 521.37 312.309 540.078C314.299 522.342 311.662 502.53 312.275 484.312C312.251 481.511 316.494 481.542 316.614 484.312L316.758 489.016C317.256 504.957 318.114 521.65 327.399 535.135C328.293 514.606 324.543 492.982 331.748 473.3C332.337 471.882 334.458 471.992 334.52 473.676C334.652 480.375 337.49 503.054 342.386 506.988C343.732 502.886 343.594 498.397 343.378 494.101C342.712 478.53 340.463 463.337 337.703 447.984C337.203 444.95 338.098 441.216 341.244 440.046C343.581 437.826 346.808 436.251 349.477 434.988C366.438 426.62 389.772 428.232 401.245 411L401.802 410.161C403.14 408.14 404.393 406.145 404.958 403.721C403.412 397.955 401.189 392.335 399.301 386.674C397.614 381.672 395.882 376.688 394.066 371.732L393.457 370.081C385.347 347.977 375.023 326.76 360.211 308.324ZM228.872 534.497C228.438 534.638 228.094 535.071 227.724 535.395L227.645 535.462L227.87 535.283C228.11 535.09 228.325 534.911 228.657 534.658L228.872 534.497ZM128.417 523.109L128.52 524.448C129.177 524.582 129.821 524.749 130.464 524.913C129.718 524.373 129.023 523.775 128.417 523.109ZM225.46 492.864C225.385 492.601 225.761 492.448 225.902 492.679C231.438 502.402 242.335 506.273 252.828 507.814C254.614 508.231 254.395 510.694 252.828 511.213C246.963 513.153 240.191 510.54 235.39 507.06C230.47 503.497 227.113 498.684 225.46 492.864ZM330.999 487.314C329.96 494.798 330.055 502.431 329.965 509.987C330.307 502.431 330.591 494.869 330.999 487.314ZM178.164 500.495C179.252 500.87 180.378 501.116 181.486 501.212C180.31 501.772 178.964 501.492 178.164 500.495ZM92.8067 258.47C76.1664 277.279 61.5987 297.868 43.701 315.545C33.2138 325.006 23.292 337.937 31.4708 352.176C33.1957 352.856 33.4989 355.393 32.0114 356.586C32.3666 356.54 34.6493 355.436 34.1363 356.34C29.5515 358.294 25.5202 361.125 22.0471 364.551C43.6866 348.66 72.3798 361.382 91.2532 375.624C100.568 382.418 109.228 389.905 117.338 397.963C120.24 398.481 123.24 400.029 125.659 401.238C142.342 409.238 144.956 420.049 143.58 437.33C138.573 446.858 136.204 457.753 132.716 467.968C129.127 475.909 136.186 470.557 137.198 467.094C139.655 464.041 140.84 459.986 142.346 456.437L142.454 456.185C142.882 455.17 143.799 454.415 144.979 454.753C145.927 455.024 146.806 456.194 146.438 457.208L145.682 459.151C142.022 468.542 138.241 477.981 135.326 487.604C145.174 481.716 150.05 470.571 155.22 460.73C156.641 458.114 160.463 460.42 159.183 463.043C157.996 465.464 156.785 467.879 155.501 470.253C152.148 477.387 149.716 484.913 147.703 492.526C158.772 485.936 162.63 472.509 165.814 461.178C166.011 457.946 170.68 458.582 170.198 461.755C169.014 468.054 167.207 474.26 164.381 480.028L163.634 484.39C163.136 487.299 162.644 490.208 162.174 493.12C162.44 492.991 162.728 492.974 163.005 493.042C172.812 483.183 176.738 469.582 180.162 456.509C178.534 450.98 180.526 445.326 180.299 439.626C181.165 432.327 178.807 425.526 175.542 419.01C173.585 398.852 154.135 390.108 140.575 378.259C123.966 361.874 115.234 336.787 91.8896 328.667C89.4625 328.821 87.1227 328.301 84.851 327.519C84.7517 327.492 84.7346 327.321 84.851 327.304C87.1617 326.927 89.4711 326.339 91.7873 325.917C92.4114 323.885 94.907 323.637 96.7835 324.545C116.969 315.714 133.699 300.184 149.739 285.409C134.077 270.945 113.8 261.966 92.8067 258.47ZM185.689 463.49C186.024 463.862 186.318 464.265 186.537 464.706C186.597 464.819 186.59 464.954 186.609 465.079C186.321 464.539 186.017 464.006 185.689 463.49ZM121.656 402.355C127.232 408.195 132.587 414.281 137.626 420.649C135.818 411.459 129.899 406.147 121.656 402.355ZM308.285 332.387C296.178 354.219 277.22 373.398 272.787 398.714C272.431 400.879 272.407 403.072 272.363 405.258C285.878 399.757 300.107 396.33 314.05 392.108C319.335 390.698 324.468 388.48 330.02 388.197C334.596 380.277 330.921 372.524 326.893 365.299C321.644 353.831 313.342 343.912 308.285 332.387ZM113.17 321.767C109.669 323.729 106.059 325.523 102.251 326.795C105.529 328.455 108.526 330.552 111.302 332.94C112.696 329.395 113.218 325.556 113.17 321.767ZM202.182 195.91C200.364 211.905 200.452 228.409 204.707 244.019C211.052 268.346 234.544 291.09 261.125 286.321C287.945 280.725 301.127 252.998 306.656 228.618C292.533 210.73 270.423 199.54 247.637 198.639C232.821 198.035 216.071 202.803 202.182 195.91Z" fill="black"/>
<path fill-rule="evenodd" clip-rule="evenodd" d="M318.088 161.657C317.368 155.34 318.3 142.135 318.362 141.332C318.757 136.26 316.377 116.233 311.877 118.078C304.329 112.113 294.276 110.795 284.875 110.166C265.348 108.859 244.575 111.86 229.497 124.979C222.04 131.793 214.781 141.702 215.365 152.02C208.59 161.8 199.039 175.216 207.48 186.65C210.349 190.303 214.909 191.663 218.514 194.43C225.764 200.268 230.313 208.647 237.632 214.45C257.022 231.846 289.947 235.48 308.999 215.694C323.73 201.364 321.348 179.926 318.757 161.657C317.015 149.375 319.493 173.982 318.088 161.657Z" fill="white"/>
<path fill-rule="evenodd" clip-rule="evenodd" d="M257.984 68.5046C263.606 67.3437 269.38 66.6214 275.122 66.8388L275.564 66.8564C279.884 67.0331 285.355 67.4239 289.124 69.9942C289.341 69.7716 289.69 69.6574 290.006 69.8118C294.485 71.999 299.411 73.5804 304.126 75.1518C308.82 76.7155 313.69 77.7477 318.61 78.1638C320.461 78.3204 322.045 80.3654 320.873 82.1996C320.594 82.6367 320.323 83.0782 320.052 83.5208C320.504 83.4725 320.957 83.4227 321.409 83.3759C322.898 83.2226 324.385 84.8482 324.297 86.3312C324.242 87.2639 324.143 88.1856 323.998 89.0963C324.565 89.0841 325.129 89.1711 325.673 89.4066C328.431 90.598 328.239 93.9587 328.032 96.5155C327.746 100.064 326.449 103.822 324.041 106.478C325.839 108.388 327.112 110.67 327.871 113.381C328.422 115.36 328.729 117.468 328.577 119.528L328.529 120.144C328.342 122.38 327.97 124.855 326.398 126.463C325.591 127.293 324.597 127.595 323.65 127.499C324.223 132.651 324.59 137.833 324.936 142.996L325.098 145.463C325.869 157.396 325.25 178.13 325.098 190.083C324.957 201.253 324.105 206.733 317.409 215.803C311.31 224.061 303.394 229.649 293.488 231.963C288.15 233.213 283.168 233.427 277.765 232.631C275.146 232.244 272.389 231.563 269.903 230.627C267.151 229.588 265.19 228.801 263.339 226.509C262.463 225.421 262.884 223.107 264.628 223.324C267.265 223.652 267.877 224.318 270.405 225.116L272.201 225.951C274.719 226.777 277.474 227.861 280.107 228.122C285.499 228.657 291.668 227.624 296.834 225.951C305.244 223.224 312.008 216.182 316.65 208.546C322.161 199.495 321.478 185.579 321.398 175.172C321.313 163.752 320.95 152.325 320.358 140.917L320.257 139.016C319.943 133.145 319.641 127.271 319.375 121.396C319.292 119.553 319.166 117.696 318.938 115.857C316.86 114.611 314.998 112.894 313.784 110.775C311.346 111.807 308.781 112.551 306.422 113.145C300.956 114.52 295.282 114.854 289.719 113.993C288.218 114.627 286.688 115.185 285.134 115.664C284.714 115.855 284.294 116.042 283.874 116.226C280.128 117.866 276.328 119.255 272.373 120.272L271.402 120.52C269.321 121.045 267.06 121.562 264.845 121.724C264.481 121.868 264.089 121.989 263.66 122.096C261.643 122.598 259.55 122.756 257.483 122.579C255.469 122.406 254.014 120.324 255.123 118.374C255.934 116.952 256.752 115.533 257.577 114.118C254.706 115.341 251.741 116.358 248.752 117.221C245.734 118.09 242.672 118.824 239.606 119.498C237.967 119.856 236.322 120.173 234.686 120.53C233.516 120.784 242.964 125.675 242.009 126.463C240.954 127.329 240.655 129.349 240.255 130.595C239.729 132.213 239.235 133.838 238.785 135.481C237.888 138.761 237.154 142.089 236.585 145.45C236.015 148.815 235.633 152.213 235.421 155.622C235.209 159.027 235.302 162.454 234.96 165.845C234.776 167.643 232.889 168.568 231.495 167.311C231.332 167.164 231.167 167.015 231.004 166.864L230.76 166.637C229.568 165.531 228.412 164.359 227.457 163.04C227.284 162.797 227.119 162.543 226.964 162.285C226.939 162.285 226.917 162.277 226.892 162.259L226.627 162.055C223.714 159.837 218.847 156.944 216.007 160.63C215.102 161.804 214.638 163.299 214.254 164.741L213.579 167.323C213.142 169.008 212.731 170.702 212.491 172.427C211.947 176.289 212.221 180.741 214.818 183.836C215.856 185.075 217.286 185.959 218.881 186.191C219.771 186.317 220.65 186.162 221.532 186.048C222.429 185.933 223.293 186.118 224.19 186.029C225.617 185.885 226.24 187.632 225.707 188.73C225.419 189.32 225.08 189.829 224.695 190.26C225.004 190.533 225.3 190.827 225.584 191.137C226.427 191.413 227.183 192.007 227.749 192.792C228.207 193.426 228.444 194.115 228.484 194.841C228.534 195.021 228.577 195.206 228.617 195.393L229.39 196.677C229.56 196.958 229.729 197.236 229.899 197.509C231.866 200.678 234.049 203.361 236.761 205.889C239.372 208.322 242.207 210.5 244.66 213.109L244.949 213.419C247.236 215.884 249.647 218.869 248.752 222.455C248.521 223.376 247.264 224.039 246.443 223.417C243.803 221.412 242.473 218.235 240.233 215.803C237.928 213.297 235.374 211.045 233.062 208.546C230.875 206.188 229.15 203.516 227.85 200.575C227.331 201.161 226.575 201.577 225.527 201.74C223.726 202.016 222.047 200.936 221.262 199.34C220.757 199.569 220.243 199.775 219.724 199.937C216.993 200.792 215.276 197.686 216.306 195.39C216.857 194.159 217.545 193.09 218.399 192.191C215.729 191.815 213.013 190.404 211.259 188.642C206.858 184.216 206.253 177.564 207.243 171.649C207.769 168.513 208.677 165.34 209.855 162.395C210.06 161.883 210.28 161.367 210.521 160.858C210.388 160.855 210.251 160.796 210.164 160.682C209.368 159.569 208.4 158.658 207.809 157.413C207.265 156.27 206.66 155.113 206.231 153.923C205.349 151.487 204.917 148.737 204.628 146.161C204.034 140.888 202.434 130.595 202.434 126.463C201.84 118.374 200.792 108.628 203.176 100.686C202.916 100.546 202.666 100.377 202.434 100.178L202.319 100.075L202.133 99.9027C200.769 98.6397 200.886 96.2727 202.133 94.9935L202.526 94.5898C203.025 94.0832 203.455 93.6818 204.26 93.1302C204.378 93.0488 204.5 92.9721 204.623 92.9006C204.201 92.1038 204.055 91.1722 204.349 90.1444C205.372 86.5637 210.407 86.6905 213.599 88.252C217.13 85.0277 221.045 82.2287 225.289 79.9622C235.396 74.5669 246.825 70.8042 257.984 68.5046ZM217.656 167.943C219.543 167.312 222.05 168.635 223.747 169.431C225.897 170.441 227.727 171.934 229.499 173.511C230.381 174.3 230.539 175.59 230.32 176.692C230.298 176.802 230.277 176.916 230.251 177.031C230.017 178.206 228.735 179.131 227.6 179.098C225.227 179.032 224.096 176.935 222.752 175.158C222.594 175.446 222.396 175.711 222.151 175.91L221.985 176.043C221.427 176.477 220.813 176.825 220.076 176.791C219.554 176.765 219.053 176.629 218.592 176.382C217.439 175.759 216.932 174.233 217.245 172.991C217.439 172.21 217.886 171.598 218.469 171.175L218.252 171.022C217.787 170.691 217.362 170.342 217.031 169.826L216.957 169.704H216.985C216.625 169.07 216.86 168.208 217.656 167.943Z" fill="black"/>
<path fill-rule="evenodd" clip-rule="evenodd" d="M284.653 202.714C282.404 201.798 280.397 200.27 278.93 198.318C278.42 197.64 278.288 196.923 278.395 196.268C278.515 195.531 278.952 194.863 279.548 194.415C280.145 193.966 280.892 193.744 281.614 193.857C282.242 193.955 282.867 194.298 283.362 195.01L283.465 195.152C284.337 196.33 285.474 197.297 286.769 197.92C288.017 198.52 289.413 198.801 290.857 198.638C293.608 198.327 295.505 196.842 297.52 194.825C297.77 194.57 298.02 194.307 298.271 194.04C298.43 193.798 298.65 193.643 298.895 193.561C299.166 193.471 299.473 193.476 299.754 193.574C300.025 193.668 300.268 193.847 300.43 194.086C300.585 194.312 300.673 194.592 300.644 194.914C300.46 197.005 299.365 198.87 297.81 200.335C296.083 201.962 293.793 203.088 291.638 203.483C289.263 203.918 286.844 203.606 284.653 202.714ZM292.758 170.463C295.285 171.996 299.134 175.571 296.416 179.371C293.217 182.723 288.611 178.88 286.342 177.143C284.237 175.796 281.872 179.26 283.825 180.832C300.226 192.955 306.882 170.864 294.036 168.66C292.622 168.418 292.096 169.989 292.758 170.463ZM263.368 156.361C263.647 152.902 268.924 152.117 269.449 155.539C269.919 158.606 269.365 161.422 267.982 164.183C266.66 166.82 263.338 165.59 263.087 163.188C262.75 159.969 263.194 158.513 263.368 156.361ZM303.535 154.83C304.271 153.868 305.333 153.211 306.605 153.582C310.581 154.742 309.41 160.378 308.013 163.121C307.254 164.611 304.802 164.988 303.693 163.677C301.887 161.538 301.022 157.266 303.318 155.159C303.381 155.051 303.45 154.941 303.535 154.83ZM267.926 141.226L268.554 141.116C270.497 140.78 272.913 140.458 274.287 142.018C275.016 142.844 275.267 144.382 274.287 145.173C272.564 146.566 270.658 146.026 268.593 146.144C266.891 146.242 265.255 146.523 263.615 146.991C260.018 148.017 257.087 149.891 254.015 151.948C253.612 152.218 253.2 151.704 253.393 151.327C255.166 147.859 258.603 145.01 262.045 143.274C263.883 142.347 265.893 141.578 267.926 141.226ZM299.91 139.672L300.391 139.77C305.623 140.862 312.419 143.043 314.897 148.173C314.991 148.898 314.891 149.054 314.81 149.155L314.783 149.189C314.716 149.276 314.663 149.395 314.348 149.494C314.261 149.473 314.172 149.451 314.083 149.428C312.948 149.131 312.049 148.722 311.179 148.297L310.236 147.833C309.142 147.297 308.038 146.781 306.869 146.4C304.372 145.587 301.804 145.015 299.197 144.709C298.632 144.643 298.087 144.452 297.658 144.126C297.25 143.816 296.939 143.387 296.797 142.817C296.613 142.079 296.666 141.521 297.063 140.855C297.361 140.355 297.787 140.009 298.277 139.81C298.777 139.607 299.345 139.559 299.91 139.672Z" fill="black"/>
<path fill-rule="evenodd" clip-rule="evenodd" d="M291.551 185.533C287.83 183.86 284.79 184.702 278.62 186.217C271.576 189.044 271.074 188.543 268.063 192.05C266.088 197.201 270.572 196.726 271.074 196.726C275.089 196.225 277.039 194.531 281.129 193.899C284.45 193.381 288.055 193.489 291.166 191.728C293.437 192.975 298.674 192.229 302.522 192.563C306.703 192.885 306.445 193.647 309.714 193.219C311.554 192.718 311.926 191.371 307.559 188.038C302.779 184.39 295.734 184.034 291.551 185.533Z" fill="black"/>
<path fill-rule="evenodd" clip-rule="evenodd" d="M295.882 219.359C292.627 220.151 293.068 219.797 292.703 217.281C292.418 215.315 294.268 212.887 290.194 213.106C286.121 213.325 287.646 214.806 287.852 217.448C287.986 219.161 289.387 221.193 284.34 222.291C281.122 222.28 280.196 222.138 276.812 221.515C273.299 221.515 267.809 219.088 266.441 225.297C265.949 227.532 269.028 227.856 276.812 228.456C284.707 230.053 302.137 226.15 307.758 220.12C309.598 218.146 309.843 218.676 310.1 217.281C310.639 214.35 305.87 215.58 302.238 216.613C299.672 217.981 297.975 218.85 295.882 219.359Z" fill="black"/>
</svg>
