<svg width="361" height="718" viewBox="0 0 361 718" fill="none" xmlns="http://www.w3.org/2000/svg">
<path fill-rule="evenodd" clip-rule="evenodd" d="M258.181 660.549C258.698 658.465 257.856 655.762 257.371 653.054C256.616 648.843 254.833 642.74 251.436 640.831C250.834 639.243 234.122 626.518 225.406 620.123C220.929 616.839 217.262 610.643 216.355 610.716C214.628 606.483 214.407 602.304 213.347 597.403C217.285 596.887 224.011 597.814 227.115 595.579C227.671 595.616 227.663 589.559 227.744 588.704C225.406 582.388 219.659 427.856 225.406 354.25C226.014 346.057 227.599 336.89 226.033 328.438C228.598 327.876 230.135 325.227 230.145 325.121C236.278 313.115 226.869 272.293 220.972 260.99C225.655 260.869 231.823 260.234 234.722 256.335C236.095 255.885 236.96 255.1 237.626 253.839C238.393 252.639 239.105 251.379 239.746 250.087C242.866 243.624 244.791 236.448 243.751 229.328C243.949 229.265 244.97 229.259 245.021 228.974C245.121 227.224 244.799 225.681 244.272 224.028C238.914 205.406 232.464 187.072 223.938 169.54C219.666 160.157 210.827 156.733 201.669 153.21C197.263 151.484 192.855 149.492 188.256 148.362C188.198 148.041 188.473 147.065 187.87 147.145C187.126 147.299 187.273 148.493 186.997 149.162C176.364 140.484 183.107 136.012 176.696 131.259C170.062 127.825 166.129 127.686 158.815 128.429C156.116 128.507 153.957 129.719 153.321 132.428C151.001 138.031 145.566 142.156 139.637 143.42C139.147 142.55 137.8 140.056 137.045 140.844C128.482 141.135 111.933 147.88 103.918 150.225C95.8715 152.274 95.9734 154.457 93.8683 163.175C90.0486 178.708 90.7644 237.049 100.732 249.344C100.732 249.344 106.153 252.954 108.874 253.839C108.813 259.587 109.779 268.15 108.874 273.771C106.839 283.965 104.357 294.201 102.089 304.449C102.079 305.591 93.0043 322.516 97.2582 319.383C98.1361 319.813 99.6795 321.622 100.625 322.024C96.1058 332.293 96.9378 344.899 97.2582 357.585C97.3383 365.14 95.5679 373.419 93.8683 381.155C81.2937 446.707 72.7639 521.138 68.0948 586.801C67.9044 589.489 67.7794 591.541 67.6893 593.453C67.5965 594.108 68.4838 594.096 68.8132 593.763L69.2677 593.323C69.7738 593.467 70.5828 593.687 71.0958 593.825C71.161 595.976 70.9474 598.209 70.6868 600.169C70.4472 602.042 67.3936 610.226 68.0948 612.054C65.7671 611.93 61.3973 615.739 59.3125 619.86C58.2433 620.814 54.8231 622.382 54.0388 623.849C52.4512 625.373 41.4242 631.747 41.4242 631.747C37.3642 634.985 24.3033 647.845 25.369 650.456C25.369 650.456 25.249 651.272 25.2088 651.544C22.9671 664.549 26.6999 664.005 38.7771 665.918C56.4195 669.021 73.1062 659.61 88.0163 651.634C92.9711 648.302 97.7974 649.186 97.2582 645.162C96.2802 640.195 96.1065 622.41 90.451 622.812C91.3811 621.794 91.148 612.46 90.451 610.716C90.0083 606.222 94.0858 602.027 93.8683 597.403C96.2373 597.578 101.077 598.685 102.089 596.051C102.044 595.786 100.925 595.791 100.732 595.728L100.752 595.579L100.625 595.549C110.488 560.888 134.515 401.715 160.603 389.497C160.764 390.803 163.635 389.253 165.373 389.497C173.442 452.266 182.681 511.432 187.609 578.569C188.102 580.56 189.242 594.448 189.723 596.752C189.723 596.752 191.234 597.996 192.125 598.242C192.394 605.326 191.482 620.107 191.451 620.123L190.979 621.274C188.231 627.453 186.183 635.72 189.723 641.776C187.096 641.585 185.949 643.818 185.832 646.138C184.283 656.309 225.216 665.336 234.722 665.918C237.846 666.461 260.112 662.502 258.181 660.549Z" fill="white"/>
<path fill-rule="evenodd" clip-rule="evenodd" d="M254.439 661.39C249.279 662.569 244.244 664.519 239.149 665.672C222.555 664.453 206.265 658.886 191.709 652.015C187.489 650.174 185.015 646.907 186.901 642.714C193.076 650.324 215.932 655.617 226.395 658.895C232.903 660.319 240.292 663.538 246.863 660.534C251.027 659.824 255.766 657.833 257.369 654.095C257.479 655.688 257.315 657.272 257.176 658.86C257.34 660.81 256.386 661.074 254.439 661.39ZM192.817 597.269C192.68 596.945 192.247 596.938 192.082 597.233C191.767 597.207 191.43 597.175 191.095 597.161C191.67 595.35 191.751 593.454 191.465 591.583C191.105 586.424 190.692 581.269 190.255 576.116C185.749 526.737 180.558 477.208 171.707 428.371C171.814 428.297 171.883 428.181 171.865 428.033C171.421 424.572 170.483 421.199 169.828 417.774C169.168 414.319 168.611 410.846 168.002 407.383C167.82 406.349 167.635 405.314 167.442 404.28C167.581 401.767 166.972 399.125 166.651 396.691C166.426 394.983 166.1 393.235 165.652 391.527C165.841 390.952 165.742 390.271 165.279 389.837C165.273 389.832 165.266 389.826 165.26 389.82C165.294 389.707 165.332 389.598 165.373 389.497C165.692 388.712 166.381 388.361 166.88 387.802C168.312 387.544 169.776 387.473 171.22 387.702C171.436 387.742 171.596 387.445 171.378 387.328C165.576 383.944 158.353 387.207 154.073 391.619C140.922 410.255 136.165 433.916 128.898 455.297C115.742 501.804 106.515 549.375 95.9467 596.464C87.5874 596.076 79.2476 594.86 70.8702 595.07C70.5555 594.361 70.0146 593.603 69.3703 593.298C74.5754 521.515 83.5188 449.999 96.8343 379.258C98.3121 360.728 96.0001 341.837 101.512 323.718C140.631 339.07 184.372 341.355 225.405 333.099C217.733 419.859 213.68 507.526 224.219 594.268C220.85 595.596 217.233 596.167 213.651 596.583C206.763 597.414 199.742 597.519 192.817 597.269ZM88.7315 617.719C88.112 618.918 88.7691 620.167 90.0677 620.508C86.1832 621.53 85.4626 625.65 82.4008 627.529C82.1139 626.988 81.3027 626.897 80.76 626.74C79.1242 620.675 77.2359 613.539 69.5725 611.309C70.0601 610.687 69.9927 609.954 69.9699 609.218C70.5393 606.332 72.5895 599.889 71.3194 596.579C78.3607 598.179 85.5887 598.834 92.7282 599.871C91.2756 605.138 90.0447 613.09 88.7315 617.719ZM93.6293 643.368C93.8595 643.306 94.0897 643.243 94.3156 643.175C95.439 648.087 87.826 649.69 84.0711 651.433C78.4121 653.772 72.76 656.119 67.1212 658.483C55.7038 664.194 44.9805 665.803 32.2881 661.732C24.2109 660.189 25.7475 658.65 24.5635 652.437C32.6621 663.297 49.252 658.636 59.5508 653.941C68.9112 650.367 78.3395 646.934 88.0231 643.927C89.9578 644.41 91.8014 643.906 93.6293 643.368ZM175.853 246.368C170.976 247.685 166.031 248.367 161.073 249.344C161.505 246.171 162.14 242.998 162.152 239.784C166.491 242.424 171.104 244.581 175.853 246.368ZM129.839 214.271C140.261 212.105 151.296 212.896 161.143 217.011C164.524 218.132 169.092 221.054 172.603 219.701C169.999 227.942 173.279 236.432 176.671 243.931C168.885 241.343 162.029 236.789 154.939 232.796C157.594 229.312 133.453 225.09 130.833 225.182C130.089 221.579 129.203 218.006 128.426 214.408C128.859 214.57 129.397 214.354 129.839 214.271ZM183.692 218.168C183.748 218.209 183.789 218.262 183.808 218.332C194.008 219.741 204.252 224.369 214.726 223.028C221.803 222.117 218.544 226.151 213.831 226C203.198 227.062 193.339 220.795 183.446 218.658L183.692 218.168ZM189.259 150.058C189.235 150.169 189.209 150.281 189.186 150.393C189.081 150.393 188.976 150.382 188.867 150.351C188.799 150.285 188.734 150.218 188.668 150.151C188.862 150.097 189.062 150.063 189.259 150.058ZM261.157 659.31C261.01 656.85 259.715 654.385 257.861 652.729C259.099 647.679 256.62 641.245 251.331 639.071C249.893 636.721 246.772 635.687 244.517 634.011C246.409 633.896 248.142 632.552 246.69 631.107C243.617 632.036 240.644 633.291 237.718 634.548C236.928 634.714 235.049 636.276 234.902 634.882C235.458 633.773 239.75 632.652 241.149 631.883C240.112 631.229 239.073 630.573 238.04 629.915C239.875 629.87 242.234 628.496 240.436 626.937C235.59 628.012 230.551 628.96 226.28 631.406C222.757 630.535 233.013 627.404 233.961 627.255C232.352 626.163 230.794 625.022 229.33 623.789C230.936 623.759 234.283 622.149 232.142 620.711C229.447 620.021 225.705 622.236 223.03 622.947C223.028 622.945 223.028 622.947 223.028 622.947C221.013 623.691 219.017 624.495 217.039 625.326C216.24 625.662 215.901 624.563 216.689 624.23C219.762 622.94 222.873 621.719 226.052 620.667C225.186 619.724 224.369 618.744 223.551 617.761C223.768 616.219 222.172 614.865 221.58 613.47C221.705 612.756 221.346 611.636 220.496 611.488C219.821 610.835 218.803 610.793 217.862 610.941C216.369 608.08 215.08 603.623 214.607 600.072C218.562 599.546 223.151 599.53 226.57 597.354C227.587 597.29 228.601 596.554 228.629 595.332C228.731 590.923 228.293 586.579 227.9 582.191C227.508 577.809 227.139 573.425 226.793 569.038C220.957 498.679 222.009 427.952 227.559 357.611C228.152 349.365 228.449 340.931 227.075 332.742C228.78 332.217 235.154 331.122 234.663 328.819C240.194 314.776 232.014 278.807 226 264.673C230.476 264.412 235.848 263.455 238.788 259.775C241.619 258.78 242.612 255.47 244.023 253.086C247.058 246.731 249.025 239.58 248.257 232.506C251.391 231.677 247.505 223.092 247.159 220.781C241.962 203.687 236.007 186.687 228.204 170.591C225.418 164.705 220.535 160.056 214.559 157.457C207.375 154.334 200.156 151.103 192.644 148.817C192.689 147.542 191.351 147.042 190.438 147.503C190.379 147.484 190.321 147.465 190.261 147.451C189.337 147.232 187.939 147.592 187.196 148.362C184.761 144.805 184.131 140.304 183.232 136.126C179.611 139.903 182.955 152.548 188.595 153.637C184.921 180.059 154.121 173.791 144.749 154.537C142.715 150.817 141.344 147.16 139.315 143.374C145.169 144.569 151.156 141.347 153.278 135.749C153.714 134.841 154.09 134.335 154.894 133.768C155.88 133.07 155.629 131.294 154.235 131.34C148.737 132.57 152.348 141.297 138.976 142.826C138.492 142.08 137.921 141.373 137.319 141.009C137.065 140.73 136.262 140.652 135.829 140.972C125.767 141.575 115.952 144.111 106.302 146.843C98.014 148.874 89.3232 153.289 87.2708 162.281C83.3428 176.58 89.6086 247.643 100.424 256.43C102.208 258.152 104.348 259.336 106.665 260.17C104.447 275.971 100.99 291.673 98.0464 307.378C97.8263 310.086 93.1109 325.116 99.0961 322.643C99.2585 322.721 99.4231 322.797 99.587 322.873C99.2333 323.591 98.9005 324.318 98.5786 325.054C97.5451 327.417 96.7225 329.806 96.3452 332.365C95.9529 335.026 95.8754 337.716 95.7566 340.399C95.7124 341.396 95.676 342.377 95.6636 343.352C94.5075 352.769 94.5309 362.382 94.4375 371.845C89.2083 407.616 81.7007 443.118 77.4331 479.078C72.2427 517.495 68.1252 556.07 65.731 594.765C65.6491 596.541 67.7125 596.891 68.7158 595.906C68.8596 595.947 69.0038 595.985 69.1482 596.025C69.1506 597.577 69.0169 599.134 68.8364 600.675C68.4933 602.922 65.9124 608.578 66.5623 610.616C64.213 610.291 60.4307 610.768 59.7488 612.687C57.0594 616.1 57.2314 620.754 54.0387 623.849C57.1117 624.519 60.1642 625.418 63.1446 626.361C63.7606 626.691 63.3877 627.589 62.6087 627.357C60.9539 626.864 59.2948 626.356 57.6264 625.896V625.894C56.0132 625.447 54.393 625.047 52.7518 624.741C52.6951 624.788 52.7146 624.887 52.7859 624.927C51.6114 625.834 50.2781 626.624 48.9408 627.381C49.803 627.569 61.2583 630.626 57.831 631.584C54.5079 630.211 51.0445 628.898 47.4517 628.218C45.8971 629.095 44.3763 630.009 42.8412 630.91C43.5821 631.066 55.9311 633.74 51.6513 634.513C48.3318 633.309 44.8912 632.501 41.4241 631.747C37.1731 634.266 32.9153 636.777 28.7199 639.366C26.9653 640.442 25.0578 641.481 23.931 643.101C22.4342 645.255 22.4165 647.943 23.4452 650.406C20.4422 663.294 25.7416 663.792 38.0937 666.498C55.6031 670.965 70.7883 660.251 86.0044 654.43C89.1827 652.946 92.6958 651.831 95.5443 649.876C98.2342 647.967 100.007 643.956 97.5438 641.205C99.2463 638.033 96.9726 630.254 96.4293 626.536C95.9809 624.191 95.6791 620.408 92.1837 620.287C93.1184 619.681 93.0886 618.544 92.7776 617.629C92.3684 613.125 93.7727 605.128 94.1101 600.042C96.7818 600.234 100.744 601.014 102.13 598.064C102.666 597.211 101.975 596.296 101.099 596.18C101.1 596.178 101.1 596.177 101.1 596.176C101.287 596.19 101.235 596.169 101.11 596.139C115.274 537.857 124.409 478.145 144.849 421.549C149.528 410.617 151.613 396.519 162.068 389.462C162.211 390.344 162.361 391.361 162.917 391.995C162.947 392.109 162.979 392.223 163.008 392.337C163.373 393.759 163.784 395.166 164.147 396.587C172.327 459.341 181.772 521.963 186.31 585.137C186.998 588.063 185.879 598.477 189.988 598.009C190.496 598.294 191.16 598.431 191.711 598.568C190.862 602.322 191.099 607.992 191.125 611.416C191.066 614.836 190.499 618.379 190.882 621.766C191.322 623.993 195.499 622.651 194.817 620.413C194.721 613.995 194.331 606.077 193.225 598.951C199.627 600.196 206.189 600.498 212.708 600.2C212.359 603.962 213.477 608.668 214.778 611.754C210.875 613.06 207.094 614.819 204.077 617.472C201.22 620.06 198.595 625.993 193.558 624.032C192.162 623.413 190.633 622.339 190.151 620.955C189.685 620.609 189.929 621.443 190.02 621.641L189.829 621.707C188.671 620.97 186.543 628.61 186.365 629.563C185.476 633.654 184.445 638.314 186.551 642.138C182.026 644.011 182.513 650.104 185.869 652.656C199.191 661.257 221.405 668.278 237.941 669.456C240.867 669.658 243.945 668.804 246.729 667.885C250.001 667.013 253.283 666.082 256.518 665.057C259.367 664.405 261.511 661.97 261.157 659.31Z" fill="black"/>
<path fill-rule="evenodd" clip-rule="evenodd" d="M207.005 101.055C206.918 96.1677 206.822 91.1825 206.093 86.3426C205.381 81.6109 203.421 77.3339 200.052 73.8979C192.898 66.5995 182.528 64.8168 172.875 63.1831L156.371 60.3899C151.336 59.5379 145.964 58.1761 140.877 59.3843C138.371 59.9797 136.242 61.3629 134.296 62.9994C132.421 64.5768 130.404 66.2707 129.134 68.3928C127.861 70.518 127.423 73.0023 127.009 75.4059C126.542 78.1158 126.18 80.8469 125.922 83.5845C125.406 89.0693 125.335 94.5954 125.71 100.092C125.891 102.757 126.18 105.416 126.548 108.062C126.731 109.374 126.938 110.683 127.171 111.988C127.24 112.372 127.292 112.798 127.363 113.228C126.842 114.705 126.546 116.233 126.57 117.756C126.64 122.239 130.436 125.062 134.263 126.578C136.482 127.457 138.802 128.054 140.982 129.036C143.276 130.068 144.837 131.742 146.405 133.652C149.396 137.294 152.771 140.567 156.624 143.299C164.795 149.089 175.144 151.828 185.058 149.749C187.436 149.25 189.836 148.476 191.974 147.309C194.232 146.077 195.929 144.291 197.355 142.181C200.001 138.262 201.9 133.85 203.336 129.359C204.8 124.779 205.84 120.191 206.407 115.415C206.972 110.654 207.091 105.845 207.005 101.055Z" fill="white"/>
<path fill-rule="evenodd" clip-rule="evenodd" d="M158.383 43.8018C164.381 42.858 172.661 45.9255 175.649 52.1104C189.911 48.2645 207.901 48.1386 219.656 60.9414C231.922 76.1283 218.753 96.5875 208.537 101.102C208.537 111.08 209.748 119.304 206.225 133.602C202.702 147.9 185.967 154.988 173.306 150.933L167.361 147.945C166.609 146.564 168.791 145.424 169.563 146.452C178.591 150.079 190.547 150.118 197.747 142.824C210.039 128.317 205.111 99.0793 198.69 80.1663C180.406 77.8694 163.078 84.208 150.449 99.9505L151.303 105.831C151.448 106.833 151.614 107.833 151.74 108.839C151.82 109.483 151.829 110.124 151.439 110.645C150.151 112.366 147.98 109.78 146.193 108.751C145.666 108.666 145.137 108.633 144.619 108.675C136.035 109.94 138.598 128.715 148.032 125.377C148.825 124.812 149.506 124.985 149.813 125.804C152.062 128.16 152.953 133.121 156.689 137.168C158.007 138.686 158.468 140.432 159.95 141.65C160.821 142.657 161.75 143.464 161.75 144.958C159.678 146.985 153.765 135.674 151.439 132.367C146.293 134.691 139.719 134.17 134.386 133.602C108.784 127.245 110.583 97.901 130.82 76.5952C135.161 72.9402 139.95 69.9585 144.928 67.664C145.608 67.3508 145.311 66.0744 144.622 66.3921C141.328 67.9105 138.116 69.7178 135.055 71.8095L135.051 70.559C135.046 68.4526 135.075 66.2597 135.395 64.3352C135.555 63.0017 135.824 61.5774 136.238 60.5059C136.75 57.2208 144.768 45.9448 158.383 43.8018ZM143.135 114.722C143.57 114.264 144.382 114.811 144.769 114.797C145.759 114.947 146.7 115.411 147.433 115.984C147.918 116.285 148.257 116.568 148.541 116.828L148.548 116.826C148.546 116.826 148.543 116.828 148.541 116.829L148.568 116.849C148.981 117.175 150.493 119.009 149.537 118.516C149.466 118.413 149.393 118.314 149.32 118.218C149.312 118.231 149.301 118.244 149.288 118.256L149.342 118.345C150.153 119.7 148.752 118.272 148.536 117.893C148.526 117.902 148.514 117.908 148.503 117.915L148.784 118.294C148.823 118.348 148.854 118.391 148.88 118.427L148.939 118.491C149.877 119.515 149.907 120.437 148.816 118.923C148.859 118.994 148.894 119.069 148.898 119.137L148.963 119.228C149.819 120.453 149.123 120.018 148.697 119.495L148.662 119.45L148.669 119.462C149.065 120.139 148.28 119.664 148.141 119.302L148.135 119.285C147.984 119.148 147.891 118.995 147.859 118.956L147.853 118.949C147.117 118.112 146.05 117.404 145.143 117.082C145.012 117.054 144.879 117.032 144.744 117.016C144.199 116.881 143.648 116.789 143.091 116.739C143.023 116.73 142.954 116.674 142.903 116.602C142.061 116.571 142.321 116.188 142.67 116.117L142.676 116.116L142.607 116.109C142.066 116.051 141.697 115.835 142.244 115.703L142.313 115.688C142.304 115.673 142.297 115.659 142.29 115.644C141.822 115.587 142.127 115.082 142.387 115.204C142.278 114.807 142.777 115.005 142.839 114.946C142.887 114.888 142.946 114.836 142.98 114.833C143.13 114.716 143.058 114.726 143.135 114.722ZM147.232 107.342L147.122 107.414C147.034 107.471 146.942 107.509 146.851 107.532C146.98 107.593 147.108 107.659 147.234 107.729C147.232 107.643 147.231 107.557 147.231 107.471L147.232 107.342Z" fill="black"/>
<path fill-rule="evenodd" clip-rule="evenodd" d="M187.63 132.247C186.018 132.712 184.287 132.754 182.644 132.273C181.154 131.837 179.623 130.877 178.527 129.607C177.552 128.479 176.921 127.109 176.946 125.645C176.949 125.478 177.009 125.339 177.101 125.23C177.2 125.114 177.339 125.034 177.487 124.999C177.64 124.963 177.801 124.976 177.939 125.038C178.063 125.095 178.17 125.19 178.237 125.33C178.405 125.551 178.573 125.769 178.742 125.98C180.097 127.649 181.41 128.896 183.448 129.343C184.554 129.586 185.658 129.478 186.672 129.108C187.756 128.711 188.737 128.014 189.505 127.122C189.853 126.719 190.263 126.555 190.664 126.552C191.118 126.549 191.567 126.759 191.905 127.096C192.238 127.426 192.46 127.876 192.481 128.346C192.498 128.758 192.363 129.189 192.004 129.574C190.821 130.84 189.288 131.768 187.63 132.247ZM187.58 111.348C189.232 112.349 191.75 114.684 189.973 117.167C187.88 119.356 184.867 116.846 183.383 115.711C182.006 114.831 180.46 117.094 181.737 118.121C192.465 126.039 196.818 111.61 188.416 110.17C187.491 110.012 187.147 111.038 187.58 111.348ZM172.122 106.941C171.591 106.603 170.966 106.486 170.274 106.8C169.733 107.046 168.784 107.864 168.123 108.939C167.671 109.674 167.351 110.537 167.418 111.436C167.433 111.644 167.356 111.798 167.234 111.912C167.137 112.002 166.998 112.068 166.835 112.089C166.696 112.106 166.54 112.09 166.414 112.051C166.174 111.976 166.047 111.821 165.999 111.694C165.536 110.47 165.736 109.103 166.254 107.871C166.953 106.207 168.223 104.814 169.056 104.364C170.48 103.595 172.16 103.56 173.586 104.343C174.8 105.01 175.559 106.087 176.314 107.184C176.474 107.417 176.633 107.649 176.798 107.876C177.128 108.332 177.161 108.784 177.033 109.172C176.892 109.602 176.531 109.964 176.079 110.154C175.662 110.329 175.178 110.354 174.75 110.174C174.388 110.021 174.056 109.725 173.846 109.221C173.492 108.374 172.902 107.439 172.122 106.941ZM199.096 108.827C198.732 109.016 198.448 109.073 198.044 108.953C197.821 108.886 197.601 108.758 197.428 108.586C197.257 108.415 197.134 108.203 197.086 107.967C196.968 107.387 196.649 106.843 196.194 106.488C195.806 106.186 195.316 106.025 194.773 106.116C194.186 106.213 193.627 106.588 193.242 107.03C193.114 107.178 193.013 107.346 192.911 107.513C192.722 107.825 192.538 108.116 192.276 108.345C192.177 108.432 192.027 108.492 191.883 108.492C191.824 108.492 191.764 108.483 191.707 108.465C191.124 107.881 191.011 107.438 191.03 106.998C191.05 106.537 191.232 106.071 191.527 105.635C192.218 104.614 193.53 103.776 194.415 103.586C195.627 103.327 196.831 103.639 197.797 104.314C198.79 105.008 199.526 106.087 199.756 107.302C199.811 107.595 199.787 107.911 199.676 108.185C199.566 108.453 199.376 108.682 199.096 108.827ZM174.796 96.0507C174.068 96.7575 173.207 96.867 172.336 96.9643C171.852 97.0189 171.465 97.063 171.085 97.1485C170.04 97.3837 169.007 97.738 168.064 98.2482C167.079 98.7816 166.005 99.4249 165.233 100.249C165.049 100.445 164.876 100.651 164.702 100.857C164.544 101.045 164.392 101.226 164.231 101.401C164.047 101.601 163.872 101.811 163.698 102.021C163.59 102.198 163.569 102.241 163.547 102.286C163.515 102.354 163.477 102.431 163.433 102.512C163.374 102.624 163.304 102.747 163.232 102.858C163.11 103.061 163.045 103.116 162.989 103.141C162.896 103.183 162.808 103.203 162.722 103.192C162.641 103.182 162.566 103.143 162.491 103.08C162.117 102.766 162.007 102.249 162.018 101.701C162.035 100.869 162.343 99.9482 162.627 99.3821C163.287 98.0666 164.201 96.699 165.301 95.7172C166.557 94.5964 167.93 93.748 169.507 93.1633C170.487 92.7999 171.622 92.4663 172.69 92.5084C173.459 92.5388 174.193 92.7666 174.799 93.3355C175.171 93.6847 175.349 94.1814 175.349 94.6778C175.349 95.1841 175.164 95.6934 174.796 96.0507ZM200.576 102.523C200.53 102.598 200.466 102.65 200.394 102.682C200.32 102.715 200.236 102.724 200.156 102.711C200.077 102.697 200.001 102.661 199.941 102.606C199.883 102.553 199.839 102.483 199.82 102.398C199.337 100.282 198.399 98.7086 196.397 97.6938C195.412 97.1945 194.279 96.8773 193.207 96.6244C192.896 96.5509 192.567 96.5033 192.235 96.455C191.196 96.3038 190.15 96.1306 189.472 95.2933C189.064 94.7889 188.893 94.1439 188.99 93.554C189.081 92.9986 189.406 92.4893 189.998 92.1841C191.471 91.4247 193.302 92.1699 194.79 92.8047C194.9 92.8518 195.009 92.898 195.115 92.9426C196.57 93.5549 197.897 94.3631 198.987 95.5189C199.853 96.4359 200.655 97.7914 200.978 99.1859C201.246 100.346 201.183 101.53 200.576 102.523Z" fill="black"/>
<path fill-rule="evenodd" clip-rule="evenodd" d="M186.791 121.191C184.357 120.098 182.369 120.649 178.333 121.638C173.725 123.485 173.397 123.158 171.428 125.448C170.135 128.813 173.069 128.503 173.397 128.503C176.023 128.175 177.299 127.069 179.974 126.656C182.146 126.318 184.504 126.388 186.539 125.238C188.025 126.052 191.45 125.565 193.967 125.783C196.702 125.994 196.533 126.492 198.672 126.212C199.875 125.885 200.118 125.004 197.262 122.827C194.135 120.445 189.527 120.212 186.791 121.191Z" fill="black"/>
<path fill-rule="evenodd" clip-rule="evenodd" d="M189.623 143.287C187.494 143.804 187.783 143.573 187.544 141.929C187.358 140.645 188.568 139.059 185.903 139.202C183.239 139.345 184.236 140.313 184.371 142.039C184.459 143.158 185.375 144.485 182.074 145.202C179.969 145.195 179.363 145.102 177.15 144.695C174.852 144.695 171.261 143.11 170.366 147.166C170.044 148.625 172.058 148.837 177.15 149.229C182.314 150.273 193.715 147.722 197.392 143.784C198.595 142.495 198.756 142.841 198.923 141.929C199.276 140.015 196.157 140.818 193.781 141.493C192.102 142.387 190.992 142.954 189.623 143.287Z" fill="black"/>
</svg>
