<svg width="196" height="189" viewBox="0 0 196 189" fill="none" xmlns="http://www.w3.org/2000/svg" transform="scale(-1,1)">
<path fill-rule="evenodd" clip-rule="evenodd" d="M10.3183 121.027C8.60512 120.134 6.93241 119.164 5.28613 118.154C4.12656 117.462 5.15316 115.717 6.34217 116.348C6.95013 116.67 7.55576 116.996 8.16356 117.316C7.68521 116.905 7.24181 116.457 6.84425 115.969L6.87169 115.941C5.33898 114.57 7.30773 111.983 9.05085 113.11C10.5881 114.222 12.1393 115.357 13.9039 116.09C17.5587 117.637 21.59 117.893 25.5128 117.938C26.9483 117.83 28.3194 118.079 29.7123 118.355C29.1662 116.168 27.7996 114.516 27.0747 112.398C26.5399 110.259 29.6321 108.802 30.7279 110.858C30.9968 111.363 31.2532 111.874 31.504 112.387C33.8726 114.538 37.8278 114.348 40.2167 116.658C41.5774 117.864 42.2433 119.5 42.5063 121.142C42.6849 122.257 42.4073 123.375 43.0826 124.363C46.3472 128.973 51.5056 136.26 54.1253 141.334C55.9801 129.277 60.9327 114.365 66.0492 103.341C67.7411 99.8149 69.6767 96.3698 72.2176 93.3812C71.9296 92.3845 72.9462 90.6154 73.5926 91.1601C75.5824 88.7331 79.0998 88.1048 81.928 86.8983C85.7459 85.2683 88.9136 81.8802 90.4707 78.0294C92.4714 70.6964 97.3965 69.765 104.227 70.0891C110.764 70.0809 115.6 72.8724 117.027 79.5164C119.924 84.5592 126.766 83.7253 131.688 85.0602C135.295 85.883 138.796 87.1551 142.123 88.7701C145.824 85.2648 159.08 99.9759 160.285 103.762C159.576 103.899 158.871 104.064 158.172 104.266C157.55 104.445 157.811 105.384 158.439 105.234C159.22 105.046 160.005 104.917 160.795 104.828C160.819 104.903 160.84 104.978 160.856 105.052C160.945 105.046 161.033 105.039 161.122 105.033C160.925 105.135 160.736 105.253 160.552 105.406C160.106 105.776 160.686 106.489 161.16 106.194C161.606 105.861 162.19 105.914 162.725 105.802C162.757 106.9 166.683 105.671 167.293 105.307C170.003 104.969 172.791 105.332 175.321 104.027C178.688 103.319 182.08 102.536 185.409 101.635C186.29 101.978 187.118 103.205 186.418 104.106C186.025 104.516 186.531 105.185 187.026 104.894C188.689 103.917 189.975 102.391 191.065 100.748C191.578 100.231 192.489 100.342 193.179 100.128C193.271 100.293 193.325 100.478 193.324 100.667C196.249 101.147 194.163 104.336 192.692 105.33C193.472 105.837 193.502 106.83 193.434 107.659C193.599 107.954 193.654 108.32 193.51 108.651C192.96 109.916 191.771 110.982 190.867 112.007C189.868 113.139 188.978 114.278 187.763 115.195C183.132 118.72 177.544 120.69 171.81 121.461C169.775 121.773 166.847 122.251 165.586 123.97C165.895 126.009 166.463 127.965 166.978 129.954C167.699 132.594 167.65 135.358 167.659 138.05C167.76 137.969 167.953 137.986 167.982 138.14C168.15 139.255 168.274 140.396 168.954 141.334C169.549 143.077 169.945 144.937 170.168 146.768C171.06 155.451 171.273 164.39 169.262 172.937C168.486 176.108 167.224 179.122 165.505 181.897C164.992 182.725 164.168 182.967 163.428 182.805C160.951 184.089 157.83 184.501 155.16 184.175C146.058 181.602 149.23 187.797 136.468 185.9C114.439 183.098 92.1772 188.604 70.1955 185.372C69.6541 189.547 62.5669 188.349 60.1051 186.584C52.7236 181.105 49.0584 163.759 45.3539 154.959C42.8074 148.023 38.5435 135.739 32.9594 131.084C31.285 129.777 29.2611 129.088 27.236 128.533C19.6781 126.588 12.0912 124.749 4.51894 122.859C3.23476 122.543 3.46557 120.356 4.83872 120.497C6.66112 120.683 8.48971 120.851 10.3183 121.027Z" fill="white"/>
<path fill-rule="evenodd" clip-rule="evenodd" d="M178.566 119.726C179.078 119.663 179.58 119.481 180.078 119.337C180.839 119.115 181.585 118.856 182.32 118.561C183.835 117.955 185.305 117.238 186.683 116.361C188.909 114.944 190.876 113.127 192.36 110.939L192.462 110.787C193.309 109.499 194.871 106.638 193.119 105.661C194.248 104.719 195.315 103.027 195.255 101.721C195.17 99.8742 192.902 99.8994 191.729 100.682C190.962 101.195 190.386 101.913 189.809 102.62C189.17 103.404 188.488 104.153 187.779 104.872C187.591 105.063 187.401 105.249 187.207 105.433L187.013 105.615C187.043 105.544 187.07 105.47 187.093 105.395C187.484 104.178 187.018 102.593 185.799 102.035C185.052 101.694 184.277 101.902 183.554 102.192L183.444 102.237C182.47 102.639 181.485 102.995 180.472 103.281C176.34 104.445 172.029 104.639 167.795 105.22C166.165 105.445 164.504 105.729 162.881 106.146C162.263 103.523 160.746 101.008 159.1 98.9391C151.219 89.0413 138.222 85.7701 126.332 83.6526C125.248 83.4606 124.35 84.8933 123.719 84.5543C122.523 83.9131 121.471 83.0046 120.548 82.0177C118.579 79.9119 117.183 77.4354 115.542 75.0892C114.731 73.9302 112.864 74.9673 113.617 76.2113L113.986 76.8194C115.504 79.3098 117.185 81.8764 119.362 83.8079C120.519 84.8332 121.804 85.6431 123.272 86.1489C124.385 86.5315 125.945 86.8538 127.163 86.4829L127.309 86.2704C127.261 86.3415 127.212 86.4122 127.163 86.4829C123.985 91.0802 119.998 94.9713 115.796 98.6434C111.555 102.348 106.981 105.665 102.378 108.909L101.995 109.179C94.4966 103.719 88.1628 96.5962 83.7188 88.4587C84.6503 88.3467 85.5718 87.7507 86.368 87.3063C87.3263 86.7688 88.2278 86.1273 88.9303 85.2723C90.4607 83.4104 90.2616 81.0107 90.5376 78.7513C90.5543 78.611 90.3687 78.5759 90.2834 78.6461C89.4538 79.3341 89.1628 80.4613 88.8166 81.4349C88.4352 82.5053 88.0037 83.3872 87.129 84.1401C86.3144 84.8417 85.321 85.3575 84.3559 85.8167C83.8582 86.0524 81.3876 86.6579 81.1062 87.1595C76.8379 86.1591 72.6799 87.8875 69.5172 90.8032C66.4615 93.6204 64.2186 97.2825 62.2383 100.898C60.1259 104.755 58.3948 108.776 56.9029 112.91C55.391 117.105 54.2319 121.391 53.5946 125.807C53.0568 129.529 52.727 133.31 52.5135 137.074L52.4874 137.544C49.3297 132.596 46.0934 127.7 42.7901 122.847C43.5411 120.845 42.7098 118.801 41.3032 117.255C39.7444 115.543 37.5885 114.748 35.5263 113.823L35.2552 113.701C34.2613 113.248 33.2706 112.75 32.412 112.071C31.5858 111.417 30.9787 110.515 30.109 109.912C28.8445 109.034 26.5498 109.221 26.4913 111.14C26.4612 112.193 26.9144 113.349 27.3292 114.296C27.7992 115.366 28.4331 116.336 29.1857 117.228C29.2205 117.27 29.2585 117.302 29.2972 117.328L29.3262 117.347C28.2859 117.519 27.2372 117.657 26.1684 117.706C24.0125 117.804 21.8332 117.646 19.7225 117.191C17.5616 116.727 15.4676 115.972 13.5241 114.92C11.8633 114.022 10.3245 112.86 8.43791 112.586C8.26399 112.559 8.08837 112.542 7.90773 112.532C7.60668 112.516 7.30562 112.87 7.42437 113.167C7.4896 113.331 7.55817 113.493 7.63343 113.656C8.28571 115.091 9.28619 116.482 10.5341 117.538L10.6306 117.619C10.1907 117.467 9.7575 117.297 9.331 117.105C6.82387 115.977 4.54924 114.274 1.86147 113.589C1.73436 113.556 1.60557 113.526 1.47678 113.497C0.645531 113.319 0.20732 114.221 0.6957 114.838C0.774309 114.939 0.852927 115.037 0.934882 115.136C2.13409 116.622 3.45705 118.001 4.9155 119.24C5.41559 119.664 5.93075 120.075 6.45592 120.468C6.67724 120.634 6.89978 120.797 7.12463 120.957L7.23537 121.035C6.97278 120.85 6.71349 120.662 6.45592 120.468C4.81015 119.97 3.18782 119.381 1.60059 118.728C0.970042 118.469 0.479994 119.107 0.413092 119.631C0.188973 121.388 2.1425 122.659 3.41363 123.504C4.6881 124.352 6.09136 124.997 7.52806 125.514C10.2904 126.511 13.1918 126.964 16.0885 127.369L17.4955 127.565C23.0645 128.342 28.8811 129.272 32.877 133.599C35.1165 136.023 36.6318 139.036 38.0184 142C39.4032 144.961 40.6192 148 41.7732 151.056C42.9691 154.219 44.0111 157.44 45.1183 160.634C46.1352 163.568 47.3498 166.464 48.5528 169.33L48.7427 169.782C51.2966 175.874 54.3473 181.612 58.5989 186.699C59.2997 187.539 60.432 186.347 59.7847 185.515C55.3375 179.79 52.2433 173.036 49.6893 166.297C48.5269 163.231 47.5535 160.092 46.4362 157.009L45.7714 155.178C44.8837 152.737 43.9883 150.298 43.0544 147.876C41.8719 144.812 40.5723 141.784 39.0855 138.855L38.9277 138.547C37.472 135.721 35.7425 132.936 33.362 130.798C29.0775 126.947 23.3761 126.023 17.8637 125.292L16.1296 125.064C13.799 124.754 11.4619 124.413 9.19558 123.791C7.88765 123.434 6.60983 122.976 5.40895 122.345C4.93061 122.094 4.46398 121.819 4.01239 121.518C5.30024 121.896 6.60649 122.204 7.93615 122.447C8.58677 122.565 9.23071 122.654 9.87296 122.716C11.527 122.879 13.1678 122.872 14.8621 122.784C15.0059 122.776 15.0527 122.55 14.8989 122.522C13.719 122.312 12.5377 122.05 11.3613 121.766L11.0086 121.68C11.0019 121.485 10.9249 121.278 10.7644 121.081C10.179 120.369 9.06675 120.005 8.29571 119.503C7.48788 118.976 6.70513 118.409 5.95918 117.801C5.27679 117.245 4.62115 116.657 3.99061 116.043L3.80157 115.857C3.86431 115.919 3.92733 115.981 3.99061 116.043C5.69325 116.828 7.30724 117.834 9.08514 118.456C10.4984 118.951 11.9803 119.285 13.4755 119.404L13.5684 119.411L13.6612 119.417C15.2217 119.529 16.7922 119.484 18.3293 119.822C18.5015 119.86 18.555 119.629 18.4012 119.564C17.0581 119.007 15.6616 118.791 14.25 118.531C14.2199 118.42 14.1429 118.322 14.0091 118.258L13.6479 118.086C12.5724 117.571 11.5699 117.05 10.6758 116.213C9.88633 115.473 9.22901 114.608 8.73561 113.649C10.7109 114.082 12.4453 115.577 14.2416 116.417C16.1985 117.333 18.2691 117.991 20.3965 118.366L20.6389 118.407C24.6146 119.069 29.3955 118.985 32.9573 116.921C33.071 116.854 32.989 116.702 32.872 116.72C31.8618 116.886 30.8616 117.081 29.8614 117.255C30.0571 117.076 30.1441 116.756 29.9183 116.498C29.02 115.471 28.3096 114.296 27.8555 113.01L27.7686 112.759C27.5594 112.163 27.2061 111.237 27.5667 110.699C27.9112 110.186 28.7224 110.256 29.2075 110.473C30.216 110.927 30.8867 112.062 31.7363 112.746C32.6629 113.494 33.7166 114.049 34.7954 114.545L35.0232 114.648C36.8891 115.486 38.8828 116.191 40.3499 117.671C41.1393 118.466 41.8184 119.459 42.0458 120.573C42.1495 121.084 42.1495 121.61 42.0124 122.116C41.9037 122.512 41.6762 122.756 41.8067 123.158C41.9773 123.677 42.5811 124.299 42.8921 124.761C43.2534 125.296 43.613 125.832 43.9726 126.368C44.6901 127.44 45.4043 128.515 46.1185 129.589C47.5468 131.74 48.9601 133.901 50.3617 136.068C50.8177 136.774 51.2723 137.481 51.7254 138.188L52.4038 139.249L52.7623 139.809L53.3739 140.769C53.3521 140.858 53.3538 140.951 53.3823 141.033C53.4865 141.329 53.6818 141.532 53.9243 141.679L53.9677 141.704C57.5369 147.337 61.0492 153.006 64.5966 158.653C64.7856 160.376 64.9629 162.101 65.1168 163.826C65.4664 167.73 65.7055 171.645 65.7825 175.564C65.8193 177.461 65.6671 179.369 65.5851 181.265C65.545 182.169 65.4901 183.073 65.4183 183.976L65.3656 184.616C65.2949 185.496 65.2548 186.37 65.5717 187.208C65.8527 187.945 66.709 188.11 67.2158 187.549C73.8273 187.283 80.4439 187.081 87.0604 186.956C98.9037 186.729 110.752 186.764 122.597 186.993C128.546 187.108 134.497 187.27 140.444 187.47C143.375 187.567 146.307 187.704 149.239 187.744C150.818 187.766 153.304 187.191 153.432 185.417L153.435 185.363C153.632 185.416 153.836 185.46 154.045 185.491C154.139 185.506 154.228 185.502 154.311 185.482L154.352 185.471C156.706 186.188 159.685 185.166 161.922 184.57L162.107 184.521C164.243 183.965 165.959 183.17 167.359 181.403C169.809 178.309 170.645 174.154 171.08 170.325C171.488 166.721 171.512 163.051 171.015 159.454C171.308 156.523 171.022 153.499 170.689 150.585C170.525 149.144 170.333 147.704 170.102 146.271C169.973 145.472 169.804 144.68 169.632 143.89C169.563 143.575 169.506 143.235 169.419 142.906L169.379 142.766C169.647 142.801 169.94 142.743 170.222 142.588C170.895 142.219 171.09 141.472 171.102 140.758C171.139 138.603 170.881 136.387 170.654 134.246C170.425 132.109 170.11 129.963 169.699 127.852L169.592 127.308C169.28 125.729 168.924 124.099 168.295 122.615C170.655 122.215 173.009 121.789 175.298 121.064C176.416 120.708 177.516 120.266 178.566 119.726ZM55.391 142.145C55.4278 142.154 55.4629 142.164 55.498 142.174C56.4413 142.437 57.3947 142.661 58.3447 142.902C59.9871 143.314 61.5927 143.775 63.1198 144.491C63.4397 148.523 63.9139 152.541 64.3647 156.561L64.4545 157.365C63.762 156.082 63.0529 154.81 62.3119 153.553C60.0557 149.72 57.7476 145.917 55.391 142.145ZM168.804 142.544C168.799 143.023 168.899 143.521 168.953 143.982C169.04 144.73 169.11 145.482 169.199 146.23C169.379 147.733 169.533 149.237 169.645 150.747C169.717 151.711 169.764 152.677 169.806 153.644C168.857 150.106 167.601 146.644 166.407 143.177C166.607 143.156 166.811 143.107 167.021 143.052L167.376 142.956C167.585 142.903 168.262 142.736 168.804 142.544ZM52.4038 139.249L52.3971 139.408C52.372 139.971 52.7099 140.288 53.1196 140.37C52.8821 139.996 52.643 139.622 52.4038 139.249ZM160.918 112.577C159.919 112.666 158.941 112.878 158.008 113.245L157.918 113.281C157.227 113.547 156.218 113.881 155.992 114.616C155.929 114.825 156.099 114.997 156.295 115.014C157.044 115.074 157.927 114.272 158.622 114.002C159.394 113.701 160.204 113.477 161.023 113.359C162.865 113.09 164.785 113.294 166.518 113.964C166.62 114.004 166.683 113.841 166.591 113.793C164.845 112.845 162.903 112.402 160.918 112.577ZM182.077 117.353C182.193 117.251 182.308 117.145 182.422 117.038C183.318 116.191 184.113 115.202 184.7 114.116L184.855 113.822C185.334 112.897 185.922 111.578 184.797 110.911C184.124 110.512 183.315 110.612 182.566 110.854C182.517 110.869 182.469 110.886 182.42 110.902C182.086 111.019 181.763 111.16 181.475 111.293C180.226 111.866 179.123 112.699 177.969 113.434C176.719 114.231 175.484 114.74 174.041 115.038L173.905 115.066C172.55 115.333 171.082 115.505 170.137 116.617C169.899 116.898 170.117 117.423 170.527 117.285C173.139 116.405 175.904 116.211 178.302 114.767C179.296 114.169 180.236 113.483 181.251 112.916C181.789 112.616 182.346 112.353 182.938 112.172L183.262 112.077C183.451 112.022 183.678 111.967 183.83 112.021C184.12 112.122 184.027 112.276 183.938 112.547L183.929 112.574C183.225 114.748 181.217 116.568 179.358 117.772C178.931 118.05 178.495 118.304 178.05 118.539C175.038 120.142 171.669 120.888 168.359 121.773C168.359 121.773 166.446 122.306 165.812 122.507C165.106 122.448 164.301 122.697 163.77 122.994C163.253 123.283 162.836 123.671 162.522 124.127C162.522 124.127 162.219 124.379 162.164 124.77C162.005 125.132 161.898 125.523 161.844 125.93C161.814 126.169 161.875 126.353 161.988 126.483C161.646 131.725 163.064 136.938 164.663 141.92L164.822 142.411L164.924 142.723C166.648 148.005 168.627 153.249 169.51 158.756C170.1 162.435 170.082 166.242 169.649 169.938L169.618 170.193C169.191 173.687 168.37 177.606 166.145 180.418C165.009 181.853 163.665 182.491 161.945 182.953L161.851 182.978C160.296 183.387 158.69 183.967 157.086 184.142C155.598 184.304 154.35 183.751 153.01 183.234L153.008 183.232C150.187 180.739 148.906 177.108 147.959 173.444C145.505 163.963 145.81 154.12 147.201 144.5C147.927 139.473 148.914 134.49 149.898 129.509C150.389 127.019 150.919 124.534 151.359 122.036L151.621 120.566C151.765 119.749 151.904 118.931 152.023 118.11C152.184 117.006 152.232 115.921 152.288 114.81C153.639 112.574 155.601 110.732 157.874 109.411C159.501 108.464 161.224 107.808 163.002 107.332C168.085 105.964 173.626 106.061 178.74 105.009C180.459 104.656 182.09 104.132 183.72 103.504L183.942 103.418C184.69 103.127 185.452 102.965 185.824 103.845C186.088 104.472 185.931 105.123 185.534 105.649C184.563 106.938 182.609 107.536 181.139 108C180.254 108.281 179.351 108.503 178.438 108.668C177.525 108.833 176.608 108.875 175.732 109.197C175.394 109.321 175.327 109.857 175.732 109.952C176.842 110.211 177.959 109.989 179.063 109.774C180.276 109.535 181.47 109.196 182.631 108.767C182.845 108.688 183.066 108.605 183.292 108.516L183.462 108.449C183.286 108.576 183.111 108.702 182.933 108.827C182.887 108.86 182.915 108.949 182.977 108.927C185.706 107.91 188.19 106.076 190.113 103.906L190.209 103.797C190.886 103.022 192.43 100.677 193.731 101.33C194.953 101.943 192.87 104.303 192.079 105.269L191.987 105.382C191.087 105.405 190.216 105.964 189.486 106.415C188.22 107.199 186.897 107.873 185.549 108.504C182.87 109.762 180.025 110.649 177.374 111.969C177.339 111.988 177.366 112.033 177.399 112.028C179.087 111.759 180.756 111.33 182.387 110.797L182.459 110.775L182.532 110.75C183.551 110.416 184.556 110.039 185.544 109.637C186.643 109.189 187.717 108.687 188.759 108.117C189.702 107.603 190.749 106.676 191.843 106.539C191.96 106.524 192.064 106.522 192.154 106.531C193.41 106.636 192.372 108.713 192.02 109.334C191.447 110.355 190.754 111.297 189.96 112.157C188.349 113.903 186.397 115.288 184.285 116.365C183.564 116.732 182.826 117.056 182.077 117.353Z" fill="black"/>
<path fill-rule="evenodd" clip-rule="evenodd" d="M72.5058 46.1355C72.8676 42.8162 72.3994 35.8782 72.368 35.4567C72.1697 32.7919 73.3654 22.2693 75.6259 23.2389C79.4177 20.1045 84.4681 19.4124 89.1907 19.0818C99.0001 18.3949 109.436 19.9717 117.01 26.8647C120.756 30.4445 124.403 35.6509 124.11 41.072C127.513 46.2106 132.311 53.2593 128.071 59.2667C126.629 61.186 124.338 61.9007 122.528 63.3543C118.885 66.4218 116.6 70.824 112.924 73.8732C103.183 83.013 86.6424 84.9223 77.0719 74.5266C69.6713 66.9975 70.8679 55.7338 72.1697 46.1355C73.0448 39.6825 71.8 52.6111 72.5058 46.1355Z" fill="white"/>
<path fill-rule="evenodd" clip-rule="evenodd" d="M105.004 1.25068C102.193 0.670272 99.3064 0.309127 96.4359 0.417839L96.2146 0.426635C94.0547 0.514961 91.3195 0.710348 89.4354 1.99545C89.327 1.88416 89.1527 1.82704 88.9946 1.90424C86.7555 2.99781 84.2928 3.78846 81.9353 4.57414C79.5886 5.35594 77.154 5.87205 74.6943 6.08007C73.7689 6.15838 72.977 7.18083 73.5629 8.09788C73.7023 8.31641 73.8381 8.53715 73.9733 8.75844C73.7472 8.7343 73.521 8.70943 73.2948 8.68603C72.5506 8.60938 71.807 9.42214 71.8512 10.1636C71.8787 10.6299 71.9279 11.0908 72.0006 11.5461C71.7172 11.54 71.4354 11.5835 71.1631 11.7012C69.7845 12.2969 69.8804 13.9772 69.9836 15.2555C70.1266 17.0296 70.775 18.9086 71.979 20.2364C71.0801 21.1918 70.4437 22.3327 70.0641 23.6877C69.7888 24.6772 69.6355 25.7311 69.7112 26.7611L69.7353 27.0695C69.8288 28.1873 70.0148 29.4248 70.8006 30.2289C71.204 30.6434 71.701 30.7945 72.1747 30.7466C71.8883 33.3225 71.7046 35.9132 71.5317 38.4947L71.4506 39.7285C71.065 45.6947 71.3748 56.0612 71.4506 62.0372C71.5211 67.6221 71.9473 70.362 75.2949 74.8966C78.3437 79.0258 82.3015 81.8194 87.2535 82.9765C89.9222 83.6011 92.4133 83.7085 95.1144 83.3105C96.4238 83.117 97.8022 82.7766 99.0449 82.3085C100.42 81.7889 101.401 81.3953 102.327 80.2493C102.764 79.7057 102.554 78.5486 101.682 78.6573C100.364 78.8208 100.058 79.1542 98.794 79.5532L97.8961 79.9706C96.6372 80.3834 95.2598 80.9253 93.9437 81.0561C91.2478 81.3233 88.1634 80.8072 85.581 79.9706C81.3763 78.6071 77.9951 75.0864 75.6739 71.2685C72.9188 66.7432 73.2604 59.7856 73.3002 54.5822C73.3429 48.8723 73.5243 43.1592 73.8206 37.4552L73.871 36.5047C74.0277 33.5695 74.179 30.6324 74.312 27.6953C74.3535 26.774 74.4165 25.8454 74.5301 24.9259C75.569 24.3031 76.4999 23.4445 77.1068 22.385C78.3259 22.9009 79.608 23.2731 80.7877 23.5698C83.5201 24.2574 86.357 24.4244 89.1383 23.9938C89.8884 24.3109 90.6535 24.5897 91.4304 24.8296C91.6403 24.9248 91.8503 25.0184 92.0601 25.1102C93.933 25.9301 95.8328 26.6248 97.8098 27.1333L98.2955 27.2573C99.336 27.5197 100.466 27.7782 101.573 27.8593C101.755 27.9312 101.952 27.992 102.166 28.0454C103.174 28.296 104.221 28.3752 105.254 28.2868C106.261 28.2002 106.988 27.1591 106.434 26.1844C106.029 25.4732 105.62 24.7638 105.207 24.0562C106.642 24.668 108.124 25.1765 109.619 25.6077C111.128 26.0425 112.659 26.4092 114.191 26.7464C115.011 26.9251 115.833 27.0836 116.651 27.2623C117.236 27.3895 112.513 29.8346 112.99 30.2289C113.518 30.6619 113.667 31.6716 113.867 32.2944C114.13 33.1033 114.377 33.9159 114.602 34.7376C115.05 36.3775 115.417 38.0414 115.702 39.7218C115.987 41.4041 116.178 43.1029 116.284 44.8073C116.39 46.5099 116.343 48.2234 116.514 49.9186C116.606 50.8178 117.55 51.2803 118.246 50.652C118.328 50.5783 118.411 50.5037 118.492 50.4284L118.614 50.3148C119.21 49.762 119.788 49.1761 120.265 48.5164C120.351 48.3948 120.434 48.2677 120.512 48.1387C120.524 48.1387 120.535 48.135 120.548 48.1258L120.68 48.024C122.136 46.9148 124.57 45.4687 125.99 47.3114C126.442 47.8984 126.674 48.6459 126.866 49.367L127.204 50.6576C127.422 51.5002 127.627 52.3474 127.747 53.2095C128.019 55.1405 127.882 57.3663 126.584 58.9141C126.065 59.5332 125.35 59.9754 124.553 60.0915C124.108 60.1541 123.668 60.0767 123.227 60.0196C122.779 59.9625 122.347 60.0546 121.898 60.0104C121.185 59.9385 120.874 60.8119 121.14 61.361C121.284 61.6558 121.454 61.9101 121.646 62.1257C121.492 62.262 121.344 62.4094 121.201 62.5642C120.78 62.7024 120.402 62.9991 120.119 63.3915C119.891 63.7085 119.772 64.053 119.752 64.416C119.727 64.5063 119.705 64.5984 119.685 64.6924L119.299 65.334C119.214 65.4747 119.129 65.6137 119.044 65.75C118.061 67.3346 116.97 68.676 115.614 69.94C114.308 71.1561 112.891 72.2451 111.665 73.5497L111.52 73.7045C110.377 74.9374 109.172 76.4298 109.619 78.2224C109.734 78.6831 110.363 79.0147 110.773 78.7033C112.093 77.701 112.758 76.1127 113.878 74.8966C115.031 73.6436 116.307 72.5178 117.463 71.2685C118.556 70.0893 119.419 68.7534 120.069 67.2831C120.328 67.576 120.706 67.7842 121.23 67.8653C122.131 68.0035 122.97 67.4636 123.362 66.6658C123.615 66.78 123.872 66.8832 124.131 66.9643C125.496 67.3918 126.355 65.8385 125.84 64.6905C125.565 64.0751 125.221 63.5408 124.794 63.0912C126.128 62.9033 127.486 62.1975 128.363 61.3168C130.563 59.1039 130.866 55.778 130.371 52.8207C130.108 51.2526 129.654 49.6662 129.065 48.194C128.963 47.9379 128.853 47.6799 128.732 47.4256C128.799 47.4238 128.867 47.3943 128.911 47.3372C129.309 46.7807 129.793 46.3256 130.088 45.7028C130.36 45.1316 130.663 44.553 130.877 43.9579C131.318 42.74 131.534 41.3654 131.678 40.0774C131.975 37.4407 132.775 32.2944 132.775 30.2289C133.072 26.1844 133.596 21.3117 132.404 17.3408C132.534 17.2708 132.659 17.1864 132.775 17.0865L132.833 17.0353L132.926 16.9491C133.608 16.3176 133.549 15.1341 132.926 14.4946L132.729 14.2927C132.48 14.0394 132.265 13.8388 131.863 13.563C131.803 13.5222 131.742 13.4839 131.681 13.4482C131.892 13.0498 131.965 12.584 131.818 12.0701C131.307 10.2799 128.789 10.3432 127.194 11.1239C125.428 9.51187 123.471 8.11243 121.349 6.97925C116.296 4.28172 110.583 2.40045 105.004 1.25068ZM125.165 50.9676C124.222 50.6525 122.968 51.314 122.12 51.712C121.045 52.2168 120.13 52.9631 119.244 53.7517C118.803 54.146 118.724 54.7909 118.834 55.3418C118.845 55.3971 118.856 55.4542 118.868 55.5113C118.985 56.0991 119.626 56.5616 120.194 56.545C121.38 56.5119 121.946 55.4634 122.617 54.5753C122.696 54.719 122.796 54.8517 122.918 54.9512L123.001 55.0175C123.28 55.2347 123.587 55.4083 123.955 55.3916C124.216 55.3787 124.467 55.3105 124.697 55.1871C125.274 54.8757 125.527 54.1128 125.371 53.4919C125.274 53.1013 125.05 52.7954 124.758 52.5835L124.867 52.5074C125.1 52.3417 125.312 52.167 125.477 51.9093L125.515 51.8483H125.5C125.68 51.5314 125.563 51.1002 125.165 50.9676Z" fill="black"/>
<path fill-rule="evenodd" clip-rule="evenodd" d="M87.581 68.2242C88.8131 68.5805 90.1356 68.6123 91.3916 68.2444C92.5307 67.9106 93.7003 67.1761 94.5387 66.2041C95.2835 65.3407 95.7658 64.2914 95.7469 63.1713C95.7447 63.0434 95.6989 62.9366 95.6284 62.8538C95.5526 62.7645 95.4466 62.7033 95.3331 62.6767C95.2164 62.6493 95.0929 62.659 94.9879 62.7067C94.8927 62.7498 94.8112 62.8231 94.7603 62.9302C94.6314 63.0992 94.5031 63.2657 94.3742 63.4276C93.3383 64.7048 92.335 65.6593 90.7772 66.0016C89.932 66.1874 89.0879 66.105 88.3134 65.8216C87.4843 65.5181 86.7348 64.9846 86.1475 64.3019C85.882 63.9934 85.5687 63.8675 85.2623 63.8654C84.9151 63.863 84.5719 64.0241 84.3133 64.2815C84.0591 64.5346 83.889 64.8785 83.8736 65.2383C83.86 65.5541 83.9632 65.8839 84.2376 66.1782C85.1417 67.1475 86.3133 67.8576 87.581 68.2242ZM87.6191 52.2277C86.3561 52.9942 84.4317 54.7815 85.7904 56.6818C87.3897 58.3573 89.6923 56.4362 90.827 55.5673C91.8792 54.894 93.0613 56.6258 92.0851 57.4121C83.8857 63.4731 80.5583 52.4281 86.9803 51.3264C87.6874 51.205 87.95 51.9905 87.6191 52.2277ZM99.4338 48.8549C99.8397 48.5957 100.317 48.5067 100.846 48.7471C101.26 48.9349 101.985 49.5609 102.49 50.3838C102.835 50.9467 103.08 51.6072 103.029 52.2951C103.018 52.4548 103.077 52.5726 103.17 52.6597C103.244 52.7285 103.35 52.7791 103.475 52.7949C103.581 52.8083 103.7 52.7962 103.796 52.7661C103.98 52.7089 104.077 52.5899 104.114 52.4928C104.467 51.5556 104.315 50.5098 103.919 49.5663C103.384 48.2929 102.414 47.2263 101.777 46.8824C100.689 46.2938 99.405 46.2667 98.315 46.8664C97.3872 47.3768 96.807 48.2008 96.23 49.0408C96.1073 49.2194 95.9856 49.3966 95.8598 49.5707C95.6076 49.9197 95.5825 50.2657 95.6802 50.5625C95.7883 50.8912 96.0642 51.1686 96.4091 51.3138C96.7279 51.448 97.0979 51.4669 97.4254 51.329C97.702 51.2126 97.9558 50.9855 98.1164 50.6002C98.3869 49.9514 98.8376 49.2355 99.4338 48.8549ZM78.8171 50.2984C79.0951 50.4431 79.3126 50.4867 79.621 50.3944C79.7916 50.3433 79.9601 50.2452 80.0921 50.1135C80.2229 49.9829 80.3172 49.8205 80.3539 49.6404C80.4441 49.1958 80.6877 48.7796 81.0349 48.5083C81.3317 48.2764 81.7062 48.1535 82.1217 48.2229C82.57 48.2976 82.9971 48.5847 83.2913 48.9231C83.3896 49.0364 83.4667 49.165 83.5442 49.2928C83.6891 49.5317 83.83 49.7537 84.0299 49.9292C84.1057 49.996 84.2199 50.0422 84.3304 50.0422C84.3754 50.0422 84.421 50.0349 84.4645 50.0214C84.9107 49.5742 84.9965 49.235 84.9821 48.8985C84.967 48.5457 84.8277 48.1885 84.6026 47.8552C84.0744 47.0733 83.0717 46.4323 82.3951 46.2871C81.4684 46.0883 80.5481 46.3269 79.8103 46.8437C79.0511 47.3754 78.4885 48.2009 78.3131 49.1313C78.2709 49.3553 78.2889 49.5972 78.3743 49.8069C78.4578 50.0118 78.6034 50.1873 78.8171 50.2984ZM97.39 40.519C97.9462 41.06 98.6044 41.1438 99.2702 41.2183C99.6402 41.2601 99.9356 41.2938 100.226 41.3593C101.025 41.5394 101.815 41.8105 102.535 42.2011C103.288 42.6093 104.109 43.1017 104.699 43.7324C104.84 43.8825 104.972 44.04 105.105 44.1979C105.225 44.3418 105.342 44.4803 105.465 44.6139C105.605 44.7674 105.739 44.9282 105.872 45.0887C105.955 45.224 105.971 45.2573 105.988 45.292C106.012 45.344 106.041 45.4023 106.075 45.4648C106.12 45.5505 106.173 45.6442 106.229 45.7292C106.321 45.8845 106.371 45.9273 106.414 45.9464C106.485 45.9781 106.553 45.9937 106.618 45.9853C106.68 45.9773 106.738 45.9479 106.795 45.8996C107.081 45.6588 107.165 45.2635 107.156 44.8439C107.143 44.2072 106.908 43.5023 106.691 43.0689C106.187 42.062 105.488 41.0152 104.647 40.2637C103.687 39.4059 102.638 38.7565 101.432 38.309C100.683 38.0308 99.8157 37.7754 98.9995 37.8077C98.412 37.8309 97.8511 38.0053 97.388 38.4407C97.1035 38.708 96.967 39.0882 96.967 39.4682C96.967 39.8557 97.1088 40.2455 97.39 40.519ZM77.6861 45.4729C77.7215 45.5307 77.7704 45.5706 77.8249 45.5946C77.882 45.6197 77.9457 45.6269 78.0069 45.6166C78.0678 45.6064 78.1257 45.5788 78.1716 45.5367C78.2156 45.4963 78.2491 45.4428 78.2641 45.3772C78.6333 43.7581 79.3503 42.5535 80.8804 41.7767C81.6332 41.3945 82.4987 41.1517 83.3181 40.9581C83.5562 40.9019 83.8078 40.8654 84.0612 40.8285C84.8553 40.7127 85.6551 40.5801 86.1728 39.9393C86.4847 39.5532 86.6156 39.0595 86.5416 38.608C86.4719 38.1829 86.2231 37.7931 85.7708 37.5595C84.6448 36.9782 83.2455 37.5486 82.1084 38.0345C82.024 38.0705 81.9412 38.1059 81.8602 38.14C80.7482 38.6087 79.734 39.2273 78.9003 40.112C78.2388 40.8138 77.6259 41.8514 77.379 42.9188C77.1737 43.8068 77.222 44.7133 77.6861 45.4729Z" fill="black"/>
<path fill-rule="evenodd" clip-rule="evenodd" d="M88.2224 59.7622C90.0825 58.9258 91.6022 59.347 94.6868 60.1041C98.2086 61.5179 98.4596 61.2674 99.9647 63.0208C100.952 65.5963 98.7104 65.3587 98.4596 65.3587C96.4525 65.1082 95.4775 64.261 93.4324 63.9449C91.7723 63.6861 89.9703 63.7402 88.4148 62.8595C87.2792 63.4832 84.6611 63.11 82.7377 63.277C80.647 63.4383 80.7761 63.8194 79.1417 63.6053C78.2218 63.3548 78.0363 62.6811 80.2194 61.0147C82.6088 59.1909 86.1309 59.013 88.2224 59.7622Z" fill="black"/>
<path fill-rule="evenodd" clip-rule="evenodd" d="M86.0574 76.6747C87.6847 77.0708 87.464 76.8938 87.6463 75.6357C87.7887 74.6527 86.8642 73.4389 88.9007 73.5483C90.9371 73.6576 90.1748 74.3983 90.0715 75.7191C90.0045 76.5757 89.3043 77.5917 91.8277 78.1406C93.4365 78.1349 93.8993 78.0639 95.5909 77.7524C97.3471 77.7524 100.092 76.5392 100.776 79.6435C101.022 80.7607 99.4827 80.9228 95.5909 81.223C91.644 82.0216 82.93 80.0698 80.1199 77.0551C79.2001 76.0683 79.0775 76.3331 78.9492 75.6357C78.6796 74.1703 81.0636 74.7852 82.8796 75.3017C84.1625 75.9857 85.0109 76.4199 86.0574 76.6747Z" fill="black"/>
<path fill-rule="evenodd" clip-rule="evenodd" d="M78.4211 39.8089C74.4953 39.8089 72.255 40.6518 71.434 40.7175L71.4093 40.7192C71.0679 40.741 70.7615 40.7695 70.4402 40.8936C69.2584 41.348 69.0659 42.5855 69.7556 43.3654C69.8039 44.9792 69.5914 46.8648 69.9561 48.4837C70.406 55.3089 73.6208 56.4607 75.4481 56.8811C76.3656 57.0922 77.4529 57.1762 78.4274 56.9533C80.0899 56.8915 81.7334 56.3718 83.1396 55.467C85.098 54.2059 86.5526 52.2675 87.0246 49.967C87.2484 48.8705 87.3529 47.7291 87.2312 46.6146L87.2131 46.461C87.8497 46.157 88.5873 46.0995 89.3478 46.0726C89.711 46.0597 90.069 46.0481 90.4169 46.0636C90.7568 46.1015 91.0928 46.1519 91.4297 46.2207C91.7976 46.3315 92.1451 46.5145 92.466 46.8042L92.4881 47.2271C92.5483 48.2835 92.6873 49.3431 92.9015 50.3795C93.2179 51.9088 93.7267 53.3693 94.8097 54.454C95.1763 55.0007 95.6299 55.4886 96.1806 55.9112C98.181 57.449 100.899 58.0136 103.393 57.801C108.457 57.3695 111.384 53.3559 112.059 51.6403L112.099 51.5364C112.586 50.261 112.975 48.6062 114.514 48.3321L114.842 48.2734C115.545 48.1417 116.193 47.9584 116.605 47.2739C116.785 46.9751 116.878 46.6409 116.901 46.3002C117.141 46.3186 117.382 46.3362 117.621 46.3533C119.529 46.7562 130.974 47.0978 131.887 47.0978C131.887 47.0978 133.643 47.8358 134.384 47.264C134.898 46.8664 135.067 46.3366 134.784 45.7363C134.358 44.8331 132.389 44.2898 131.514 44.1177C131.514 44.1177 117.404 44.2348 116.388 44.0425C115.76 43.3956 114.636 43.4841 113.697 43.3818C112.919 42.8283 111.832 42.4576 110.972 42.2094C110.797 42.1432 110.624 42.0791 110.455 42.0188C108.88 41.4587 107.243 41.1621 105.581 41.0028C103.867 40.8401 102.148 40.9137 100.444 41.1468C99.7258 41.2441 99.0144 41.3698 98.308 41.5343C97.0432 41.7008 95.7858 41.975 94.5205 42.3003L94.2674 42.366C92.935 42.7148 91.5658 43.0165 90.1865 42.78C89.0637 42.5888 87.9838 42.1573 86.9485 41.6908L86.8137 41.6297C84.5373 40.5919 80.9822 39.8089 78.4211 39.8089ZM98.445 43.6033C99.2849 43.4189 99.6436 44.7119 98.801 44.8968C98.2043 45.0278 97.6986 45.3282 97.3569 45.8372L97.321 45.8925C96.8625 46.6209 95.7032 45.9485 96.1648 45.2154C96.6842 44.3904 97.4914 43.8126 98.445 43.6033ZM73.8443 42.8017C74.1404 42.5934 74.5885 42.748 74.7604 43.0423C74.9496 43.3663 74.8256 43.7271 74.5482 43.9391L74.52 43.9598C74.2656 44.1388 74.0179 44.4597 73.9868 44.7885L73.984 44.8296C73.9507 45.69 72.6115 45.6943 72.645 44.8296C72.6776 43.9836 73.1682 43.2769 73.8443 42.8017Z" fill="black"/>
</svg>
