<svg width="190" height="219" viewBox="0 0 190 219" fill="none" xmlns="http://www.w3.org/2000/svg">
<path fill-rule="evenodd" clip-rule="evenodd" d="M185.34 123.507C182.638 123.772 179.935 124.037 177.233 124.302C164.29 125.29 151.351 127.355 138.507 128.594C138.188 128.073 137.562 128.159 137.182 128.521C135.9 128.408 134.464 127.429 133.303 128.448C133.265 128.442 133.227 128.436 133.189 128.433C131.122 124.467 129.693 120.237 128.306 116.002C127.421 113.398 126.23 110.877 124.03 109.129C120.274 106.523 111.669 101.239 107.259 101.461C107.186 100.672 106.817 99.8584 106.213 99.3328C107.545 97.063 102.219 95.582 101.843 95.8451C102.084 88.2616 98.5153 81.6758 90.6458 80.1656C83.5958 78.6973 73.5683 78.4506 69.7766 85.8148C69.3598 85.7679 65.0993 85.7458 64.6871 85.7919C64.0462 84.9806 57.0077 92.6689 59.8925 95.3455C34.1014 106.749 19.4366 105.388 12.2981 137.447C11.333 140.459 11.2627 143.754 10.2437 146.699C6.61813 155.161 3.67746 164.171 2.94561 173.378C1.17802 173.831 0.974741 176.946 3.02215 177.397C3.8042 177.569 4.45819 177.804 5.02844 178.251C4.58266 185.796 6.40841 203.032 7.55876 202.979C9.90436 210.44 20.367 212.546 27.7742 209.924C26.4973 212.325 27.7742 213.835 27.7742 215.118C54.4272 216.126 83.5694 215.545 110.215 216.928C113.623 216.879 117.208 217.764 120.57 217.255C122.621 216.764 122.624 213.542 120.544 213.143L129.631 211.17C129.428 211.094 133.377 208.469 136.361 203.563C139.139 198.075 137.249 191.451 138.507 185.481C148.338 184.677 158.332 184.334 168.055 182.67C169.381 186.635 175.12 181.893 176.945 179.985C176.942 179.982 176.94 179.98 176.938 179.977C177.821 179.735 178.529 178.908 178.552 177.929C179.171 177.045 179.301 175.798 178.708 174.944C181.429 159.249 185.577 143.224 187.077 127.381C187.607 127.264 188.106 127.031 188.529 126.673L188.495 126.639C189.212 125.84 189.352 124.461 188.156 123.782C187.192 123.234 186.387 123.404 185.34 123.507Z" fill="white"/>
<path fill-rule="evenodd" clip-rule="evenodd" d="M70.2679 84.1045C71.071 82.0874 73.7855 82.8715 73.4829 84.9906C73.3018 86.2599 72.6062 87.6006 71.9815 88.7131C71.4728 89.6187 70.8925 90.5025 70.1057 91.1812C71.5063 92.4873 72.96 93.7456 74.4506 94.9404C76.0771 96.244 77.7874 97.4456 79.5553 98.55C81.1056 99.5186 82.7258 100.377 84.1871 101.482C85.5458 102.509 86.7836 103.745 87.4134 105.358C88.0844 107.076 87.7928 108.85 87.2987 110.566L87.242 110.76C86.7372 112.461 85.8634 114.511 87.075 116.113C87.6918 116.929 88.5885 117.507 89.3628 118.159C90.051 118.738 90.6969 119.369 91.2893 120.046C92.581 121.522 93.6316 123.182 94.2946 125.033L94.3538 125.201C94.9221 126.839 95.3374 128.846 94.5696 130.454C94.3493 130.915 93.6388 130.765 93.5154 130.316C93.2364 129.299 93.251 128.234 93.017 127.203C92.7737 126.13 92.3686 125.112 91.8397 124.149C90.8162 122.286 89.4301 120.694 87.7924 119.348L87.3022 118.95C86.0246 117.902 84.8509 116.79 84.5915 115.056C84.3141 113.2 85.0579 111.432 85.5362 109.676C85.8694 108.452 85.9783 107.279 85.6181 106.173C85.1781 106.891 84.5777 107.572 84.1029 108.18C83.1571 109.391 82.2025 110.594 81.2503 111.8C80.2741 113.037 79.322 114.292 78.4152 115.581C78.0096 116.157 77.6084 116.737 77.2085 117.318C76.9078 117.754 76.4884 118.19 76.1606 118.635C76.2402 118.873 76.2342 119.147 76.0898 119.342C74.3514 121.689 71.8783 116.791 71.2333 115.553C69.9199 113.033 68.9423 110.355 67.6245 107.836C66.259 105.224 64.704 102.681 62.971 100.296C61.9227 98.854 60.7477 97.4992 59.7888 96.011C57.5296 98.0585 54.5567 99.4312 51.826 100.676C48.8258 102.043 45.7088 103.16 42.6327 104.347L41.7241 104.699C36.4239 106.767 30.9941 109.038 26.5887 112.711C21.4118 117.026 18.3492 123.041 16.0692 129.27C13.4445 136.441 11.2731 143.805 9.249 151.164C8.21318 154.929 7.23035 158.712 6.30638 162.506C5.49218 165.849 4.81728 169.226 3.87476 172.534C5.78629 172.467 7.96638 173.207 9.59838 173.42C17.0361 174.393 24.3738 175.944 31.3959 178.63C32.2633 178.962 32.5142 179.828 32.3254 180.53C32.8256 180.388 33.3254 180.245 33.8256 180.105C33.2776 179.266 33.5392 177.765 33.5822 176.835L33.5849 176.771C33.6292 175.531 33.7637 174.29 33.851 173.053C34.0171 170.694 34.2334 168.353 34.521 166.007L34.5944 165.421C34.9203 162.869 35.1612 160.303 35.5169 157.756L35.5589 157.464C35.3883 156.813 35.1898 156.169 34.9814 155.528C34.4261 153.821 33.6424 152.214 32.9556 150.56C32.8746 150.365 33.152 150.254 33.2817 150.37C34.4449 151.416 35.3688 152.743 36.1111 154.131C36.124 154.065 36.1354 154 36.1488 153.934L36.2335 153.518C36.4424 152.501 36.6964 151.432 37.3201 150.608C37.3866 150.52 37.5179 150.502 37.5807 150.608C38.1777 151.618 38.2445 152.896 38.3363 154.045C38.4402 155.345 38.4532 156.661 38.4349 157.964C38.3991 160.511 38.2195 163.065 38.0764 165.607C37.936 168.106 37.6604 170.573 37.3051 173.047L37.2376 173.511C37.0639 174.689 36.9218 175.881 36.6927 177.05L36.628 177.369C36.5056 177.949 36.4302 178.767 36.1865 179.446C42.4582 177.697 48.7395 175.989 55.0328 174.31C59.5813 173.097 64.1346 171.902 68.6859 170.699C68.9261 170.266 69.2251 169.862 69.5983 169.501C70.8279 168.311 72.4575 167.78 73.9521 168.696C74.0736 168.771 74.0838 168.961 73.9521 169.033C73.6657 169.19 73.3788 169.35 73.097 169.517L75.8299 168.777C77.8726 168.224 79.9397 167.533 82.0305 167.147C85.8814 165.247 90.0231 163.872 94.0797 162.514L94.5578 162.352C96.6349 161.644 98.7833 160.852 100.929 160.459C102.5 160.172 104.344 160.519 104.976 162.128C105.776 162.654 106.529 163.274 107.255 163.882C107.78 164.323 108.283 164.79 108.795 165.246L108.889 165.329C109.307 165.691 109.639 165.934 109.742 166.512C109.795 166.81 109.605 167.214 109.237 167.174C108.111 167.054 107.195 165.749 106.431 164.969C105.841 164.367 105.246 163.744 104.707 163.082C104.393 163.253 103.963 163.223 103.763 162.844C102.727 160.883 99.8876 162.242 98.3167 162.707L96.0664 163.373C94.9414 163.706 93.8167 164.041 92.694 164.382C89.6083 165.319 86.5377 166.367 83.424 167.227C83.7026 167.533 83.6642 168.078 83.135 168.285C80.6977 169.241 78.0238 169.735 75.4917 170.391C73.893 170.805 72.2953 171.222 70.6981 171.642C70.4243 172.085 70.2272 172.587 70.1443 173.171C69.8395 175.318 70.4274 177.795 71 179.872L71.0863 180.182C71.557 181.851 72.2495 183.898 73.6907 184.953C74.0425 185.21 74.4905 185.389 74.9421 185.429C77.7634 183.978 80.5845 182.526 83.4073 181.078C83.9303 180.809 84.4135 181.173 84.5308 181.605C85.5261 181.441 86.5192 181.184 87.4236 180.877C88.9434 180.361 90.1301 179.378 91.5548 178.697C94.3116 177.381 97.1268 178.998 99.5951 180.227L100.164 180.506C101.271 181.043 103.574 182.074 104.105 180.606C104.618 179.186 102.994 177.668 101.945 177.029C100.695 176.267 99.2394 175.859 97.8264 175.519C97.0195 175.325 96.2029 175.167 95.3813 175.051C94.4494 174.92 93.4868 174.94 92.5895 174.637C92.1436 174.488 92.0751 173.78 92.5895 173.663C93.9708 173.349 95.6193 173.691 97.0607 174.042L97.814 174.227C99.2662 174.583 100.732 175.03 102.055 175.741C103.017 176.258 104.032 177.043 104.695 178.004C105.271 177.469 105.988 177.487 106.735 177.685L107.14 177.798C107.809 177.983 108.352 178.111 109.003 177.983C109.09 177.509 109.178 177.035 109.272 176.562C110.2 171.905 111.218 167.267 112.341 162.653C114.278 154.695 116.519 146.825 119.046 139.035L119.299 138.256C119.882 136.474 120.351 134.533 121.291 132.896C122.179 131.348 123.603 130.456 125.294 129.984C127.214 129.449 129.231 129.168 131.189 128.806C131.625 128.726 132.063 128.649 132.501 128.57C132.131 127.903 131.855 127.146 131.607 126.565L131.563 126.465C131.03 125.249 130.55 124.011 130.087 122.766L129.741 121.83C128.905 119.577 128.042 117.361 126.867 115.253C125.63 113.036 123.989 111.222 121.943 109.722C117.773 106.662 112.745 105.101 108.7 101.831C108.534 101.697 108.746 101.468 108.915 101.552C111.646 102.924 114.595 103.857 117.436 104.974L117.997 105.195C120.243 106.085 122.523 107.053 124.467 108.494C126.634 110.1 128.341 112.095 129.623 114.468C130.888 116.806 131.696 119.424 132.588 121.922L132.827 122.587C133.187 123.585 133.558 124.58 133.984 125.552C134.322 126.323 134.953 127.203 135.24 128.084C136.024 127.948 136.809 127.811 137.594 127.68C154.602 124.842 171.8 123.174 189.037 122.686C189.711 122.667 190.06 123.31 189.961 123.898C188.307 133.675 186.837 143.485 185.224 153.269C184.52 157.539 183.802 161.806 183.067 166.071C182.694 168.232 182.264 170.384 181.911 172.548C181.627 174.295 181.42 176.057 180.931 177.764C180.493 179.294 179.82 180.77 178.716 181.938C177.525 183.197 175.863 183.806 174.19 184.094C169.943 184.825 165.586 185.123 161.305 185.61L138.509 188.202C138.842 191.228 138.867 194.208 138.714 197.269L138.627 198.941C138.556 200.285 138.47 201.632 138.277 202.962C138.035 204.631 137.271 206.044 136.146 207.291C135.113 208.436 133.858 209.413 132.637 210.349C131.369 211.321 130.06 212.259 128.57 212.86L128.376 212.937C127.069 213.447 124.617 214.237 122.83 213.948C123.064 215.118 123.516 216.375 123.115 217.533C122.929 218.07 122.226 218.338 121.795 217.881C120.942 216.975 120.875 215.778 120.673 214.595C120.463 213.365 120.282 212.13 120.121 210.892C119.809 208.499 119.567 206.084 119.493 203.671C119.417 201.192 119.446 198.71 119.58 196.234C119.648 194.963 119.733 193.692 119.895 192.429C119.964 191.89 120.034 191.351 120.115 190.814C120.144 190.618 120.177 190.423 120.212 190.228L118.165 190.459C115.028 190.809 111.889 191.125 108.73 191.174C108.356 191.18 108.068 191.009 107.88 190.761C107.679 191.088 107.33 191.321 106.83 191.319C102.418 191.303 98.3093 189.861 94.2963 188.161C92.2734 187.304 90.282 186.377 88.2562 185.527C86.3653 184.734 84.3438 184.168 82.4985 183.275L77.6497 185.817C77.6141 185.942 77.5685 186.06 77.52 186.159C77.2043 186.803 76.5819 187.153 75.9461 187.416C75.3359 187.669 74.704 187.748 74.0883 187.684C70.411 189.61 66.7327 191.534 63.0521 193.454L59.3705 195.372C52.0355 199.189 44.7295 203.069 37.3483 206.797L36.8049 207.07C34.2554 208.348 31.5178 209.643 28.6885 210.61C28.6382 211.326 28.67 212.022 28.73 212.78L28.7444 212.945C28.8288 213.84 29.0096 214.962 28.2911 215.599C27.9173 215.931 27.2496 215.932 26.9954 215.432C26.5342 214.526 26.9483 213.097 27.0944 212.112C27.1462 211.762 27.2094 211.402 27.3029 211.053C24.0594 212.018 20.7176 212.486 17.4169 211.944C14.2033 211.417 11.7143 209.393 9.70777 206.918C7.59013 204.306 6.08532 201.262 5.27794 197.999C4.35908 194.286 4.29908 190.452 4.32066 186.649C4.34356 182.599 4.49345 178.529 4.98629 174.506C4.44633 174.379 3.8475 174.269 3.30187 174.307C3.0316 174.739 2.50735 174.921 2.03363 174.865C1.00349 176.001 3.61642 177.161 4.45144 177.452C4.74138 177.553 4.71034 178.023 4.37592 178.009L4.16527 177.999C2.87501 177.931 1.542 177.71 0.783376 176.512C0.175472 175.551 0.358108 174.413 1.08279 173.63C1.56143 169.106 2.7057 164.702 3.77066 160.289C4.81576 155.958 5.97801 151.655 7.20991 147.373L7.76218 145.457C9.70177 138.743 11.7291 131.976 14.4046 125.529C15.7406 122.31 17.2797 119.15 19.3659 116.344C21.3106 113.727 23.6065 111.488 26.2455 109.576C31.1654 106.011 36.9383 103.857 42.6104 101.805L42.8643 101.713C45.8037 100.65 48.7359 99.5748 51.6418 98.4233C54.2118 97.405 56.6739 96.1139 59.2318 95.0802C59.1487 94.9295 59.0684 94.777 58.9912 94.6228L58.9439 94.6626C58.9358 94.669 58.9276 94.6752 58.9189 94.6811C58.6617 94.8593 58.283 94.7717 58.071 94.5717C57.4725 94.0072 57.6751 93.3806 58.0747 92.7952L58.1267 92.7207C58.6153 92.0365 59.0512 91.3131 59.5022 90.6041L59.7846 90.1607C60.5417 88.9761 61.3372 87.7837 62.3466 86.8047C62.8141 86.3511 63.3259 86.0117 63.8681 85.7588C63.8217 85.6608 64.2282 85.4605 64.3435 85.5613C66.0614 84.9329 68.0379 85.0645 69.9108 85.2378M137.406 188.327L135.017 188.599C132.389 188.897 129.761 189.186 127.132 189.473L121.421 190.093C121.407 190.418 121.367 190.736 121.36 190.982C121.323 192.249 121.295 193.516 121.269 194.784C121.216 197.324 121.274 199.867 121.441 202.402C121.603 204.858 121.817 207.315 122.149 209.755L122.217 210.243L122.256 210.5C122.527 210.526 122.793 210.654 123.014 210.919C123.497 211.495 125.246 210.935 125.929 210.692C127.052 210.292 128.11 209.617 129.086 208.941C130.039 208.28 130.898 207.509 131.722 206.697L132.397 206.03C133.068 205.363 133.74 204.653 134.152 203.814C134.709 202.677 134.782 201.281 134.945 200.042C135.146 198.519 135.386 196.995 135.64 195.479M68.0691 172.334L67.8214 172.399C58.8218 174.789 49.8357 177.25 40.8086 179.535C36.3413 180.666 31.8528 181.714 27.38 182.823L26.6558 183.004C23.1273 183.896 19.5563 184.969 16.8542 187.527C16.7545 187.621 16.6097 187.476 16.7036 187.376C19.6157 184.277 23.7575 182.966 27.7343 181.829C28.4694 181.618 29.2054 181.413 29.9407 181.204C24.5324 179.277 19.0387 177.6 13.4182 176.405C11.9709 176.097 10.5068 175.871 9.06069 175.562C8.05214 175.346 7.06719 175.034 6.0693 174.775L5.28437 174.578L5.27395 177.058C5.26088 180.57 5.26712 184.079 5.44638 187.59L5.48031 188.241C5.68946 192.148 6.01591 196.137 7.40333 199.822C8.53076 202.816 10.3278 205.637 12.6778 207.818C13.867 208.921 15.1454 209.78 16.7257 210.205C18.1931 210.598 19.7304 210.644 21.2388 210.539C28.4741 210.035 34.9146 206.106 41.1996 202.854C51.4797 197.534 61.7609 192.216 72.0513 186.917C71.7731 186.726 71.5112 186.507 71.2729 186.261C69.893 184.837 69.1651 182.887 68.687 180.998C68.1781 178.988 67.8738 176.834 67.8384 174.759M81.1627 188.97C81.2536 188.921 81.3588 188.983 81.363 189.085C81.3948 189.871 80.9604 190.645 80.6359 191.353L80.6016 191.429C80.2073 192.305 79.7756 193.17 79.3292 194.022C78.4368 195.722 77.5094 197.405 76.5416 199.064C74.5952 202.401 72.4323 205.598 69.8758 208.503C69.2984 209.16 68.3487 208.318 68.7192 207.611C70.5059 204.204 72.5887 200.988 74.7326 197.799C75.8059 196.202 76.8784 194.604 77.9623 193.015C78.4145 192.351 78.8725 191.691 79.3428 191.04L79.6265 190.65M187.897 124.638C178.866 124.91 169.846 125.499 160.858 126.421C152.499 127.279 144.171 128.421 135.889 129.845C134.16 130.142 132.432 130.452 130.707 130.774L129.672 130.968C127.946 131.295 125.838 131.43 124.302 132.351C122.682 133.323 122.244 135.353 121.705 137.027C121.071 138.996 120.454 140.971 119.853 142.95C117.467 150.809 115.287 158.736 113.342 166.715C112.377 170.675 111.521 174.658 110.618 178.633C109.817 182.165 108.932 185.657 108.008 189.154C108.122 189.065 108.262 188.998 108.43 188.962C113.019 187.986 117.704 187.562 122.362 187.022L122.812 186.97C127.631 186.404 132.449 185.841 137.27 185.3L169.191 181.712C171.073 181.5 173.09 181.471 174.922 180.966C178.037 180.108 178.767 176.627 179.29 173.855L179.305 173.771C180.881 165.396 182.135 156.948 183.605 148.551M108.751 179.418C107.512 179.336 105.815 178.201 104.875 178.283C105.369 179.111 105.592 180.055 105.307 181.063C104.515 183.869 100.935 182.417 99.2106 181.56C97.7966 180.857 96.4313 179.997 94.8659 179.667C93.0926 179.294 91.8911 179.999 90.393 180.812C89.1624 181.479 87.8222 181.958 86.444 182.206C85.7112 182.338 85.0151 182.352 84.3203 182.301C84.2785 182.335 84.2314 182.366 84.1776 182.395L83.8101 182.587C85.472 182.663 87.1647 183.176 88.7114 183.645C90.314 184.132 91.8874 184.718 93.4523 185.317L94.9919 185.908C98.7895 187.362 102.721 188.742 106.83 188.73C107.126 188.729 107.368 188.811 107.559 188.945M101.817 170.626C103.041 170.476 104.172 170.637 105.15 171.433C106.33 172.394 107.122 173.987 108.818 174.092C109.313 174.122 109.428 174.817 108.936 174.963C107.674 175.336 106.652 174.654 105.791 173.767L105.213 173.163C104.363 172.283 103.579 171.603 102.137 171.656C100.592 171.712 99.0445 172.069 97.5098 172.25C95.7712 172.456 94.0331 172.631 92.289 172.782C92.208 172.789 92.1942 172.662 92.2701 172.643L94.2235 172.157M100.635 165.623L100.837 165.603C102.615 165.43 104.241 165.424 105.829 166.38L106.133 166.564C107.565 167.433 109.123 168.458 110.018 169.866C110.165 170.097 109.923 170.368 109.678 170.309C107.957 169.896 106.699 168.635 105.252 167.69C103.628 166.631 101.951 166.805 100.1 166.97C98.3069 167.129 96.5151 167.348 94.7401 167.647C93.0721 167.928 91.3989 168.37 89.7141 168.511L89.7144 168.508C89.522 168.508 89.4122 168.219 89.6084 168.121C91.3182 167.267 93.2985 166.863 95.1583 166.474M154.644 148.06C154.472 147.238 155.483 146.857 155.951 147.509L156.051 147.646C157.063 149.033 158.528 150.772 158.453 152.535C159.343 152.555 160.266 153.095 160.612 153.898C160.773 154.269 160.827 154.709 160.792 155.165C161.6 155.228 162.483 155.758 162.977 156.275C163.797 157.132 163.862 158.343 163.274 159.344C161.991 161.526 159.191 162.32 156.826 162.497L156.742 162.503C154.3 162.672 150.78 162.626 149.106 160.532C147.491 158.512 149.276 156.876 151.107 155.988C150.63 155.553 150.383 154.929 150.615 154.272C151.023 153.116 152.461 152.669 153.274 151.865C154.265 150.885 154.92 149.541 154.659 148.136M155.986 149.836C155.717 151.006 155.055 152.076 154.133 152.924C153.781 153.248 153.395 153.537 152.986 153.785L152.937 153.813C152.573 154.017 151.68 154.399 151.749 154.857C151.819 155.327 153.275 156.063 153.672 156.064C153.762 156.064 153.813 156.205 153.721 156.245C153.002 156.563 152.374 156.699 151.671 156.363C151.201 156.843 150.745 157.339 150.293 157.831C149.493 158.701 149.767 159.619 150.711 160.267C152.229 161.308 154.536 161.282 156.306 161.207C158.088 161.131 159.993 160.733 161.385 159.547L161.446 159.494C162.202 158.822 162.893 157.682 161.735 157.034C161.281 156.781 160.791 156.796 160.36 156.672C159.957 157.462 159.303 158.095 158.505 158.217C157.86 158.315 157.416 157.505 158.003 157.118L158.135 157.036C158.871 156.566 159.5 155.842 159.483 154.899C159.472 154.245 158.558 153.419 157.962 154.034L157.935 154.063C157.436 154.624 156.559 153.917 156.886 153.295L156.902 153.267M39.7573 117.303C39.7551 117.162 39.9529 117.109 40.022 117.231C41.1787 119.265 41.7834 121.759 42.3996 124C43.045 126.347 43.566 128.719 44.0341 131.108C44.9821 135.945 45.4872 140.754 45.5215 145.685C45.5262 146.389 44.3789 146.576 44.2667 145.855C43.5216 141.059 42.8077 136.258 42.0569 131.464C41.6791 129.053 41.2395 126.65 40.8187 124.246M51.2091 120.846C51.124 120.565 51.5324 120.471 51.6369 120.728C53.9583 126.424 54.7445 132.878 53.2541 138.887C53.026 139.807 51.6791 139.408 51.8511 138.501M81.1535 115.785C81.1417 115.575 81.4145 115.541 81.5172 115.686C82.6172 117.235 83.0735 119.31 85.0034 120.11C85.9669 120.51 87.0512 120.44 87.9025 121.116C88.4716 121.567 88.908 122.28 88.4809 122.964C88.3431 123.185 87.9574 123.295 87.7704 123.055C87.4975 122.706 87.3531 122.287 86.9823 122.025C86.4594 121.655 85.7542 121.632 85.1546 121.458C84.379 121.233 83.6954 120.84 83.1356 120.256M99.5303 89.9468C99.6437 89.8891 99.7525 89.926 99.825 90.0239C99.9285 90.1635 99.9158 90.2994 99.789 90.3951C99.9584 90.7411 100.158 91.6079 100.187 91.7341C100.303 92.2456 100.426 92.7541 100.555 93.2622C100.815 94.2869 101.043 95.3196 101.303 96.3447C101.579 97.4313 101.908 98.5064 102.274 99.5659C102.297 99.6346 102.323 99.7046 102.35 99.7757L102.392 99.883L102.402 99.8667C102.477 99.7493 102.632 99.8314 102.613 99.9555C102.596 100.069 102.573 100.181 102.554 100.294L102.592 100.396C102.832 101.039 102.995 101.717 102.556 102.285C102.392 102.498 102.211 102.624 101.986 102.661C101.625 103.851 101.172 105.019 100.687 106.14L100.545 106.468C99.8312 108.104 99.0702 109.719 97.9341 111.112C96.6937 112.633 94.9875 113.672 93.907 115.338C93.4043 116.113 93.0546 116.928 92.7707 117.804L92.6639 118.136C92.4624 118.756 92.2299 119.356 91.6488 119.719C91.4633 119.835 91.1854 119.798 91.0359 119.64C89.8441 118.38 91.0918 116.027 91.8104 114.807C92.8093 113.11 94.2551 112.025 95.7027 110.745C97.2632 109.366 98.2585 107.52 99.2213 105.702C99.811 104.588 100.38 103.45 100.98 102.331C100.353 101.778 100.153 100.679 99.9409 99.9155L99.9215 99.8471C99.5708 98.6239 99.2922 97.3689 99.1162 96.1085C98.9468 94.8965 98.8762 93.702 98.921 92.4833L98.9339 92.1728M101.859 95.7149C101.72 95.5254 101.949 95.3107 102.139 95.3502C103.293 95.5888 104.422 96.287 105.458 96.8517L105.568 96.9116C106.395 97.3573 107.227 97.9033 107.661 98.7691C108.133 99.7102 108.095 100.794 108.03 101.817L108.024 101.912C107.945 103.139 107.932 104.413 107.673 105.617C107.54 106.234 106.981 106.407 106.504 106.262C105.936 108.055 104.34 109.376 103.174 110.791C101.687 112.595 101.967 115.03 102.122 117.203C102.185 118.083 101.091 118.333 100.527 117.864L99.2275 116.785C99.0111 116.605 98.795 116.424 98.5795 116.243C98.3949 116.088 98.212 115.932 98.0306 115.773L97.7597 115.534C97.6395 115.427 97.1094 114.835 96.9544 114.81C96.5789 114.75 95.6869 115.739 95.3817 116.05L95.343 116.088C94.7684 116.652 94.2493 117.257 93.7657 117.9C93.6767 118.018 93.5028 117.92 93.5664 117.784C93.9997 116.856 94.5035 115.969 95.1017 115.139L95.2226 114.974C95.6206 114.437 96.1549 113.491 96.8575 113.332C97.7153 113.139 98.5719 113.999 99.196 114.476L99.2355 114.506C99.5325 114.729 99.826 114.956 100.119 115.184C100.088 113.566 100.293 111.932 101.128 110.538C101.717 109.555 102.6 108.826 103.356 107.982C104.196 107.041 104.635 105.885 105.397 104.905C105.495 104.779 105.63 104.711 105.776 104.689C105.805 103.902 105.921 103.106 106.011 102.327L106.037 102.094C106.128 101.247 106.342 100.213 105.927 99.4206C105.536 98.6718 104.637 98.1432 103.971 97.6351L103.428 97.2138M64.4012 86.7637C64.0538 86.9646 63.729 87.2145 63.4343 87.5268C62.5067 88.5103 61.8436 89.7342 61.1982 90.9117C60.8507 91.5458 60.5157 92.1869 60.1654 92.8194C60.013 93.0947 59.8563 93.3669 59.6979 93.6387C59.6247 93.764 59.407 94.0129 59.2991 94.1663C59.419 94.3342 59.543 94.4995 59.6694 94.663C59.7176 94.7254 63.0449 98.3483 64.2048 99.7662C65.9808 101.938 67.5683 104.232 68.9255 106.688C70.2545 109.092 71.2663 111.638 72.4974 114.089C73.1137 115.316 73.8018 116.535 74.679 117.597C74.7129 117.638 74.7487 117.677 74.7833 117.718C75.1181 116.814 75.976 115.846 76.3973 115.29L76.4367 115.238C77.3923 113.95 78.4014 112.702 79.4325 111.474C80.3743 110.353 81.3399 109.257 82.329 108.178L82.701 107.774C83.3901 107.03 84.2655 105.917 85.2742 105.386C85.1661 105.193 85.041 105.002 84.8972 104.814C83.952 103.58 82.616 102.684 81.2976 101.876L80.4427 101.356C77.22 99.3928 74.0475 97.3389 71.2496 94.7883C69.7694 93.4388 68.3097 92.0251 67.0655 90.451L66.6254 89.8945M69.7785 85.7919C68.2693 85.9185 66.6396 85.8884 65.245 86.3799C66.4848 87.5514 67.6633 88.8164 68.874 90.0076C68.9817 89.2019 69.202 88.4061 69.3886 87.6204" fill="black"/>
<path fill-rule="evenodd" clip-rule="evenodd" d="M118.928 52.6457C118.518 48.8855 119.048 41.0261 119.084 40.5486C119.308 37.5299 117.955 25.6097 115.397 26.7081C111.106 23.1574 105.391 22.3734 100.047 21.9989C88.9472 21.2208 77.1387 23.007 68.5675 30.8155C64.3287 34.8707 60.202 40.7686 60.5337 46.9097C56.6824 52.7307 51.2531 60.7156 56.0515 67.5209C57.6826 69.6951 60.275 70.5047 62.324 72.1513C66.4454 75.6262 69.0312 80.6131 73.1917 84.0673C84.2144 94.421 102.931 96.5839 113.761 84.8074C122.135 76.2785 120.781 63.5188 119.308 52.6457C118.318 45.3356 119.726 59.9813 118.928 52.6457Z" fill="white"/>
<path fill-rule="evenodd" clip-rule="evenodd" d="M82.1536 1.79959C85.3344 1.1421 88.6006 0.732986 91.8489 0.856136L92.0993 0.8661C94.5433 0.966157 97.6384 1.18749 99.7705 2.64328C99.8931 2.5172 100.09 2.4525 100.269 2.53995C102.803 3.77876 105.59 4.67442 108.257 5.56444C110.913 6.45008 113.668 7.03473 116.451 7.27039C117.498 7.3591 118.394 8.51733 117.731 9.55618C117.574 9.80373 117.42 10.0538 117.267 10.3045C117.523 10.2771 117.779 10.249 118.035 10.2224C118.877 10.1356 119.718 11.0563 119.668 11.8962C119.637 12.4245 119.582 12.9466 119.499 13.4623C119.82 13.4554 120.139 13.5047 120.447 13.6381C122.007 14.3129 121.898 16.2163 121.782 17.6645C121.62 19.6741 120.886 21.8027 119.524 23.3068C120.541 24.3891 121.261 25.6816 121.691 27.2166C122.002 28.3374 122.176 29.5314 122.09 30.6982L122.063 31.0475C121.957 32.3137 121.746 33.7155 120.857 34.6264C120.401 35.0961 119.838 35.2672 119.302 35.213C119.626 38.131 119.834 41.0657 120.03 43.99L120.122 45.3877C120.558 52.1463 120.207 63.8896 120.122 70.6594C120.042 76.986 119.56 80.0898 115.772 85.2266C112.322 89.9042 107.843 93.0688 102.239 94.3796C99.2196 95.0872 96.4007 95.2088 93.3442 94.758C91.8626 94.5388 90.3028 94.1531 88.8966 93.6229C87.34 93.0343 86.2304 92.5885 85.183 91.2902C84.6877 90.6744 84.9261 89.3636 85.9125 89.4867C87.4044 89.672 87.7502 90.0496 89.1805 90.5016L90.1965 90.9745C91.621 91.4421 93.1797 92.056 94.669 92.2042C97.7196 92.5068 101.21 91.9222 104.132 90.9745C108.89 89.43 112.716 85.4416 115.343 81.1167C118.46 75.9903 118.074 68.1087 118.029 62.2142C117.98 55.746 117.775 49.2741 117.44 42.8126L117.383 41.7358C117.205 38.4107 117.034 35.0836 116.884 31.7564C116.837 30.7128 116.766 29.6608 116.637 28.6192C115.461 27.9137 114.408 26.941 113.721 25.7408C112.342 26.3253 110.891 26.7469 109.556 27.083C106.464 27.8619 103.254 28.051 100.107 27.5632C99.2578 27.9225 98.3921 28.2383 97.513 28.51C97.2754 28.618 97.0378 28.724 96.8004 28.8279C94.681 29.7568 92.5313 30.5437 90.2941 31.1198L89.7445 31.2602C88.5672 31.5575 87.2884 31.8502 86.0354 31.9422C85.8296 32.0236 85.6075 32.0925 85.3648 32.153C84.2239 32.4369 83.0398 32.5266 81.8704 32.4264C80.7311 32.3283 79.9079 31.149 80.5355 30.0448C80.994 29.2391 81.4567 28.4355 81.9233 27.634C80.2993 28.327 78.6223 28.9031 76.931 29.3915C75.2235 29.8841 73.4914 30.2995 71.7572 30.6815C70.83 30.8839 69.899 31.0634 68.9739 31.2659C68.3116 31.4099 73.6565 34.1798 73.1163 34.6264C72.5194 35.117 72.3503 36.2608 72.1239 36.9663C71.8264 37.8826 71.5473 38.8031 71.2926 39.734C70.7854 41.5917 70.3697 43.4766 70.0477 45.3802C69.7258 47.2859 69.5096 49.2104 69.3894 51.1411C69.2693 53.0698 69.3221 55.0109 69.1287 56.9312C69.0246 57.9498 67.9571 58.4738 67.1685 57.762C67.076 57.6785 66.9828 57.5941 66.8904 57.5087L66.7528 57.38C66.0781 56.7538 65.424 56.0901 64.8843 55.3428C64.7864 55.2051 64.6927 55.061 64.6051 54.9149C64.5908 54.9149 64.5786 54.9107 64.5643 54.9003L64.4147 54.7849C62.7667 53.5284 60.0134 51.8903 58.4065 53.9777C57.8944 54.6427 57.6323 55.4895 57.4147 56.3064L57.0329 57.7684C56.7859 58.7228 56.5535 59.6826 56.4175 60.6591C56.1098 62.8466 56.2647 65.3681 57.7341 67.1214C58.3209 67.8227 59.1299 68.3237 60.0323 68.4552C60.5359 68.5262 61.0331 68.4385 61.5323 68.3738C62.0397 68.3091 62.5285 68.4134 63.0361 68.3633C63.843 68.2819 64.1955 69.2713 63.894 69.8933C63.7309 70.2273 63.5392 70.5153 63.3214 70.7596C63.4964 70.914 63.6637 71.081 63.8247 71.2563C64.3015 71.4129 64.7292 71.7489 65.0493 72.1935C65.3081 72.5525 65.4424 72.9429 65.465 73.3541C65.4933 73.4563 65.5178 73.5607 65.5404 73.6672L65.9776 74.3939C66.0737 74.5533 66.1695 74.7108 66.2656 74.8653C67.3782 76.6603 68.6132 78.1799 70.1476 79.6118C71.6249 80.9894 73.2283 82.223 74.6162 83.7008L74.7797 83.8762C76.0736 85.2728 77.4374 86.9634 76.931 88.9941C76.8006 89.516 76.0892 89.8917 75.6249 89.5389C74.1312 88.4034 73.3791 86.6042 72.1119 85.2266C70.8076 83.8072 69.3629 82.5319 68.0549 81.1167C66.8178 79.7808 65.8418 78.2675 65.1064 76.6019C64.8127 76.9338 64.385 77.1696 63.7921 77.2615C62.7732 77.418 61.8235 76.8064 61.3795 75.9026C61.094 76.0321 60.8028 76.1489 60.5092 76.2408C58.9646 76.725 57.9928 74.9654 58.5756 73.6651C58.8872 72.9679 59.2764 72.3626 59.7595 71.8533C58.2494 71.6404 56.713 70.841 55.7206 69.8432C53.2308 67.3364 52.8885 63.5688 53.4488 60.2187C53.7463 58.4424 54.2596 56.6453 54.9261 54.9775C55.0421 54.6874 55.1666 54.3952 55.3029 54.1071C55.2275 54.1051 55.1501 54.0717 55.1012 54.0069C54.6508 53.3766 54.1029 52.861 53.7685 52.1555C53.4608 51.5085 53.1187 50.8531 52.876 50.1789C52.377 48.7992 52.1325 47.242 51.9695 45.783C51.6333 42.7961 50.7281 36.9663 50.7281 34.6264C50.3918 30.0448 49.7994 24.525 51.1479 20.0267C51.0006 19.9474 50.8595 19.8517 50.7281 19.7386L50.6631 19.6806L50.5576 19.5829C49.7859 18.8676 49.8525 17.5269 50.5576 16.8024L50.7802 16.5738C51.0622 16.2868 51.3054 16.0595 51.7608 15.7471C51.8281 15.701 51.8967 15.6575 51.9662 15.6171C51.7278 15.1658 51.6451 14.6381 51.8111 14.056C52.3898 12.028 55.2385 12.0998 57.0441 12.9841C59.0416 11.158 61.2566 9.57267 63.6574 8.28898C69.3753 5.23319 75.8407 3.10206 82.1536 1.79959ZM59.3393 58.1195C60.407 57.7626 61.8252 58.5119 62.785 58.9628C64.0015 59.5347 65.0366 60.38 66.0392 61.2734C66.5384 61.7201 66.6278 62.4506 66.5037 63.0747C66.4913 63.1373 66.4793 63.202 66.4648 63.2668C66.3324 63.9326 65.607 64.4565 64.9651 64.4377C63.6223 64.4001 62.9826 63.2125 62.2224 62.2064C62.1329 62.3692 62.0209 62.5195 61.8821 62.6322L61.7884 62.7073C61.4729 62.9534 61.1252 63.15 60.7084 63.1311C60.4129 63.1165 60.1299 63.0392 59.8689 62.8994C59.2168 62.5466 58.9297 61.6825 59.1068 60.9791C59.2168 60.5366 59.4695 60.1901 59.7996 59.95L59.6765 59.8638C59.4133 59.6761 59.1731 59.4783 58.986 59.1863L58.9438 59.1172H58.9601C58.7563 58.7582 58.889 58.2698 59.3393 58.1195Z" fill="black"/>
<path fill-rule="evenodd" clip-rule="evenodd" d="M97.2404 77.8132C95.9682 77.2945 94.833 76.4291 94.003 75.3237C93.7145 74.9394 93.6397 74.5336 93.7002 74.1624C93.7683 73.7451 94.0153 73.3668 94.3522 73.1131C94.6901 72.8586 95.1128 72.7331 95.5215 72.7971C95.8766 72.8527 96.2301 73.047 96.5099 73.4501L96.5683 73.5307C97.0617 74.1979 97.7047 74.7453 98.4373 75.0981C99.1434 75.4382 99.9331 75.597 100.75 75.5047C102.307 75.3289 103.38 74.4876 104.52 73.345C104.661 73.2008 104.803 73.052 104.945 72.9008C105.034 72.7638 105.159 72.6757 105.297 72.6295C105.451 72.5782 105.624 72.5811 105.784 72.6366C105.937 72.6901 106.074 72.7916 106.166 72.9266C106.254 73.0548 106.303 73.2133 106.287 73.3956C106.183 74.5797 105.563 75.6364 104.684 76.4661C103.707 77.3877 102.411 78.0252 101.192 78.2488C99.8487 78.4951 98.4799 78.3186 97.2404 77.8132ZM101.826 59.5469C103.255 60.4152 105.433 62.44 103.895 64.5926C102.085 66.4907 99.4797 64.3144 98.1957 63.3302C97.0051 62.5674 95.6674 64.5292 96.7721 65.4199C106.05 72.2859 109.816 59.774 102.549 58.526C101.749 58.3885 101.451 59.2783 101.826 59.5469ZM85.199 51.56C85.3569 49.6009 88.3421 49.156 88.639 51.0946C88.905 52.8312 88.5919 54.4265 87.8093 55.99C87.0616 57.4837 85.1821 56.7868 85.04 55.4267C84.8494 53.6035 85.1008 52.7787 85.199 51.56ZM107.922 50.6926C108.339 50.1478 108.939 49.7759 109.659 49.9861C111.909 50.6431 111.246 53.835 110.456 55.3886C110.027 56.2323 108.639 56.4463 108.012 55.7034C106.99 54.492 106.501 52.0727 107.8 50.8794C107.835 50.8177 107.874 50.7555 107.922 50.6926ZM87.7776 42.9875L88.133 42.9253C89.2321 42.7353 90.5989 42.5527 91.3764 43.436C91.7888 43.9044 91.9308 44.775 91.3764 45.2233C90.4014 46.0122 89.3233 45.7065 88.1548 45.7732C87.1919 45.8285 86.2664 45.9878 85.3388 46.2528C83.3039 46.8341 81.6458 47.8954 79.9078 49.0607C79.6798 49.2135 79.447 48.922 79.5558 48.7088C80.5591 46.7446 82.5033 45.1312 84.4508 44.1477C85.4902 43.6227 86.6277 43.1873 87.7776 42.9875ZM105.872 42.1076L106.144 42.1633C109.103 42.7816 112.948 44.0168 114.35 46.9223C114.403 47.3332 114.347 47.4212 114.301 47.4788L114.286 47.4979C114.248 47.547 114.218 47.6148 114.04 47.6707C113.99 47.6589 113.94 47.6464 113.89 47.6332C113.247 47.465 112.739 47.2331 112.247 46.9926L111.714 46.7299C111.095 46.4265 110.47 46.1342 109.808 45.9184C108.396 45.458 106.943 45.1336 105.468 44.9604C105.148 44.9229 104.841 44.8151 104.598 44.6302C104.367 44.4547 104.191 44.2118 104.111 43.8889C104.007 43.471 104.037 43.1546 104.261 42.7776C104.43 42.4945 104.671 42.2983 104.948 42.1856C105.231 42.0707 105.552 42.0436 105.872 42.1076Z" fill="black"/>
<path fill-rule="evenodd" clip-rule="evenodd" d="M101.143 68.0822C99.0383 67.1347 97.3186 67.6118 93.828 68.4695C89.8429 70.071 89.5589 69.7873 87.8557 71.7736C86.7381 74.6912 89.275 74.422 89.5589 74.422C91.8301 74.1382 92.9334 73.1785 95.2475 72.8204C97.1261 72.5272 99.1652 72.5885 100.925 71.5908C102.21 72.2974 105.173 71.8746 107.349 72.0637C109.715 72.2465 109.569 72.6782 111.419 72.4357C112.459 72.1519 112.669 71.3887 110.199 69.501C107.495 67.435 103.51 67.2334 101.143 68.0822Z" fill="black"/>
<path fill-rule="evenodd" clip-rule="evenodd" d="M103.593 87.2408C101.752 87.6896 102.001 87.489 101.795 86.0638C101.634 84.9504 102.68 83.5753 100.376 83.6992C98.0711 83.8231 98.9338 84.6621 99.0507 86.1584C99.1265 87.1287 99.9188 88.2796 97.0634 88.9014C95.2429 88.895 94.7192 88.8145 92.8051 88.4617C90.8178 88.4617 87.7118 87.0874 86.9379 90.604C86.6594 91.8696 88.4012 92.0531 92.8051 92.3933C97.2713 93.2979 107.132 91.0868 110.312 87.6718C111.353 86.5539 111.491 86.8539 111.636 86.0638C111.941 84.4038 109.244 85.1004 107.189 85.6855C105.737 86.4603 104.777 86.9522 103.593 87.2408Z" fill="black"/>
</svg>
