<svg width="137" height="205" viewBox="0 0 137 205" fill="none" xmlns="http://www.w3.org/2000/svg">
<path fill-rule="evenodd" clip-rule="evenodd" d="M17.3464 113.255C18.8886 107.257 20.3069 104.715 23.0465 102.63C25.6091 100.681 29.3498 99.0431 34.8079 97.8469C40.4928 96.8504 40.6539 93.8881 42.0793 89.1269C42.4952 87.6956 44.5558 87.3147 45.4452 88.3464C45.5706 88.2107 45.7013 88.0864 45.8366 87.9741C45.7155 87.2915 46.7069 85.335 46.6737 84.682C46.328 77.8664 48.5516 74.4439 54.1013 73.1716C55.3082 72.8948 63.5061 72.7319 64.6829 73.0581C69.8274 74.4841 74.8919 79.0119 74.1169 84.4663C75.7318 86.5822 77.3123 87.8736 79.8037 88.5553C85.3483 89.2612 90.8923 89.8888 96.4383 90.4261C107.294 92.1332 117.473 97.8944 124.43 106.297C125.071 107.072 125.257 108.125 124.691 108.952C125.134 110.857 127.631 115.478 125.666 116.784C128.897 124.532 136.332 139.507 136.346 143.785C136.404 161.758 134.468 185.152 116.778 195.098C116.07 195.796 115.969 196.569 115.662 197.607C114.884 200.879 112.06 203.218 108.968 203.027C93.7393 203.366 78.989 201.504 63.7597 201.413C57.0436 201.374 48.9668 202.379 43.1325 203.048C37.2983 203.718 31.4089 203.126 25.81 201.413C25.3379 202.159 24.3834 202.593 23.4151 202.379C17.6109 201.222 12.9172 197.636 8.82924 193.717C7.57996 191.438 2.70127 184.947 4.64046 182.687C2.88256 175.236 2.97392 167.23 6.09774 160.136C5.65492 158.835 6.46205 157.406 6.09774 156.063C5.83411 155.091 5.15893 154.689 4.81908 153.727C4.34085 152.372 4.86094 150.556 5.39937 149.174C5.62002 148.485 4.99325 147.743 4.81908 147.041C3.99293 143.726 5.88467 144.018 7.24846 141.802C7.22816 141.795 6.8735 140.213 6.8751 140.221C6.66629 139.091 7.1894 137.644 7.64571 136.702C7.95412 136.064 8.61477 135.666 9.27119 135.739C8.61013 133.489 7.77408 131.616 6.8751 129.449C5.28514 125.628 3.27257 121.969 0.989498 118.51C0.0545408 117.094 1.31023 115.453 2.82326 115.356C7.72048 115.044 12.5641 114.338 17.3464 113.255Z" fill="white"/>
<path fill-rule="evenodd" clip-rule="evenodd" d="M31.6389 142.151C33.5976 141.38 35.7066 140.955 37.8263 140.79C36.6851 140.589 35.5405 140.396 34.3867 140.296C33.5816 140.227 32.8351 140.234 32.23 140.847C31.8264 141.255 31.6371 141.78 31.3717 142.262C31.4584 142.223 31.5486 142.186 31.6389 142.151ZM10.6153 134.95C13.8231 135.114 17.0345 135.879 19.9363 137.264C21.1235 137.832 22.1993 138.652 22.5143 140C22.6735 140.689 22.6346 141.4 22.5498 142.096C22.4859 142.623 22.47 143.295 22.0135 143.652C21.9357 143.712 21.8525 143.758 21.7658 143.792C22.8363 144.276 23.8556 144.858 24.7615 145.458C25.5894 146.006 26.4405 146.851 26.8227 147.803C26.8545 147.695 26.8864 147.594 26.9182 147.498C27.5693 145.568 28.5726 143.987 30.1526 142.924C29.873 142.798 29.6802 142.5 29.7704 142.089C30.1455 140.369 31.7293 138.875 33.5179 138.982C35.4766 139.097 37.5804 139.812 39.3517 140.715C39.9974 140.701 40.6416 140.71 41.2784 140.738C41.3881 140.742 41.3828 140.891 41.2784 140.903C40.7617 140.969 40.2451 141.042 39.7284 141.127C38.5005 141.324 37.2761 141.574 36.0784 141.884C34.6415 142.257 33.1552 142.631 31.8123 143.283C29.2079 144.548 27.5959 147.855 27.9267 150.733C27.9816 151.205 28.1638 152.631 28.8169 152.484C29.3688 152.36 29.5882 151.205 29.781 150.777C30.2977 149.642 31.2284 148.9 32.3449 148.398C33.656 147.807 35.0591 147.408 36.4181 146.943C37.1876 146.679 37.9573 146.414 38.7287 146.152C39.5179 145.88 40.2681 145.506 41.1085 145.696C41.6163 145.811 41.6747 146.418 41.3899 146.766C40.9564 147.296 40.3123 147.452 39.6877 147.67C38.8632 147.958 38.0404 148.245 37.2177 148.533C35.9457 148.976 34.6132 149.351 33.373 149.894L33.4118 149.982C33.5128 149.954 33.6314 150.055 33.6117 150.179C33.4259 151.327 33.1676 152.654 33.4544 153.804C33.6807 154.716 34.4789 155.726 35.5156 155.458C35.3528 155.309 35.2926 155.051 35.4023 154.814C35.813 153.934 41.1917 150.46 41.6712 151.75C41.6871 151.796 41.6377 151.829 41.5986 151.822C41.1899 151.737 40.5052 152.436 40.178 152.658C39.7056 152.977 39.2261 153.29 38.7588 153.618C38.2475 153.976 37.7485 154.353 37.2619 154.741C36.8797 155.046 36.5913 155.364 36.1527 155.518C36.3825 155.628 36.565 155.832 36.6426 156.093C36.8408 156.773 37.223 157.349 37.8865 157.649C38.5819 157.961 39.3657 157.764 40.0982 157.841C41.0961 157.942 41.9667 158.418 42.6939 159.097C44.2208 160.527 44.987 163.047 47.1226 163.722C48.3983 164.125 49.8138 163.872 51.1054 163.689C52.5475 163.485 53.9524 163.323 55.405 163.536C56.7957 163.74 58.1104 164.223 59.3808 164.812C60.5715 165.364 61.888 165.988 62.9443 166.812C63.1619 166.139 63.3813 165.474 63.5478 164.787C63.9404 163.164 64.1527 161.51 64.2042 159.842C64.2518 158.254 64.1634 156.659 64.0273 155.078C63.9599 154.289 63.8537 153.503 63.7865 152.713C63.769 152.514 63.7334 152.301 63.7069 152.089C61.8207 150.972 59.8392 150.117 57.8416 149.237C57.8361 149.235 57.8308 149.232 57.8255 149.23C57.7636 149.202 57.7034 149.175 57.6415 149.149C57.6432 149.145 57.645 149.141 57.6486 149.138C57.4203 148.998 57.2611 148.811 57.1655 148.602C54.2868 146.687 51.8804 144.074 50.0863 141.026C49.3343 139.748 48.6106 138.423 47.6269 137.303C46.5794 136.109 45.3355 135.399 43.7962 135.03C41.9967 134.598 40.1424 134.338 38.2988 134.191C37.292 134.111 36.1669 133.987 35.0697 133.993C34.3053 133.998 33.557 134.063 32.8704 134.253C31.853 134.533 31.2585 135.309 30.6197 136.093C30.0093 136.846 29.4024 137.6 28.8327 138.384C28.2932 139.127 27.7834 139.895 27.3411 140.701C27.0757 141.184 26.8297 141.681 26.6227 142.193C26.5502 142.374 26.4546 142.58 26.4104 142.768C26.3662 142.958 26.4476 143.159 26.2352 143.159C27.1111 143.171 27.1022 144.574 26.2317 144.523C22.8239 144.324 27.7056 137.653 28.4188 136.723C29.4291 135.406 30.4711 133.689 32.0883 133.077C32.1113 133.068 32.1361 133.059 32.1591 133.052C31.6884 132.605 31.3169 132.069 30.9612 131.524C30.5949 130.964 30.1581 130.321 30.0376 129.656C29.9615 129.232 30.487 128.991 30.7365 129.361C31.0992 129.903 31.2744 130.587 31.5451 131.182C31.8211 131.785 32.1573 132.355 32.4227 132.963C33.0614 132.766 33.7515 132.676 34.4539 132.646C33.5675 131.443 32.0531 129.122 31.8707 128.824C31.032 127.443 30.234 126.021 29.4714 124.596C28.6471 123.052 27.9409 121.444 27.1518 119.883C26.7041 118.998 26.2529 118.105 25.7557 117.246C25.5841 116.952 25.4001 116.657 25.1913 116.39C25.1506 116.336 25.0993 116.292 25.0515 116.242C24.9967 116.212 24.9401 116.178 24.9082 116.161C24.6217 115.996 24.5207 115.613 24.3192 115.369C23.997 114.977 23.6183 114.931 23.1335 114.926C22.1004 114.915 21.0634 114.956 20.0318 114.984C18.5155 115.027 17.0009 115.087 15.4863 115.167C15.0281 115.192 14.5716 115.217 14.1133 115.245C11.9104 115.377 9.70935 115.548 7.51357 115.76C5.57081 115.946 3.62804 116.25 1.68351 116.395C4.31633 122.667 7.23578 128.826 10.5411 134.77C10.5746 134.83 10.5995 134.89 10.6153 134.95ZM25.2231 151.109C25.6478 151.304 26.0601 151.547 26.444 151.824C26.3803 151.393 26.3644 150.939 26.3821 150.483C26.0654 150.823 25.6602 151.018 25.2231 151.109ZM7.09598 140.32C7.12606 140.323 7.15437 140.339 7.16853 140.369C7.75596 141.585 7.51019 142.942 6.55102 143.895C6.04852 144.391 4.95328 144.952 4.98884 145.768C5.01892 146.428 5.73534 146.982 6.04144 147.527C6.32631 148.034 6.43247 148.591 6.20422 149.141C5.91228 149.846 5.0966 150.126 4.81704 150.818C4.46317 151.696 5.03821 152.756 5.44163 153.52C5.81673 154.228 6.30171 154.936 6.62356 155.685C8.78042 156.805 10.7108 158.522 12.3705 160.266C14.1876 162.174 15.7464 164.418 18.6323 164.361C18.9207 164.356 19.1401 164.509 19.271 164.72C20.0743 164.757 20.8794 164.773 21.6826 164.777C23.0946 164.784 24.5066 164.769 25.9167 164.725C26.0158 164.383 25.9433 163.918 25.9488 163.628C25.9663 162.697 25.9751 161.767 26.0141 160.836C26.0247 160.577 26.0353 160.316 26.0459 160.057C25.5381 160.978 24.5473 161.396 23.4184 161.332C21.603 161.226 19.777 160.928 17.9795 160.66C17.0327 160.52 16.0879 160.36 15.1448 160.19C14.3699 160.051 13.2764 160.087 12.735 159.464C12.6076 159.319 12.6005 159.053 12.8004 158.955C13.3365 158.691 13.6745 158.838 14.2639 158.952C14.9821 159.092 15.7022 159.225 16.4243 159.349C17.8097 159.59 19.1985 159.814 20.5909 160.011C21.3836 160.122 22.1781 160.232 22.9725 160.319C23.6661 160.394 24.4482 160.495 25.0073 159.972C26.1344 158.914 25.5027 157.142 24.7897 156.073C24.7755 156.052 24.7755 156.033 24.7808 156.015C24.1084 155.857 23.4379 155.672 22.769 155.543C21.4827 155.295 20.1875 155.085 18.8906 154.899C16.2259 154.517 13.5436 154.265 10.8649 154.012C10.2014 153.948 10.1943 152.901 10.8649 152.963C14.7133 153.316 18.5809 153.652 22.378 154.395C23.3299 154.58 24.2749 154.789 25.2143 155.025C25.6584 155.135 26.1344 155.307 26.5997 155.312C26.628 155.312 26.6565 155.312 26.6846 155.311C27.5959 155.282 27.7286 154.5 27.2278 153.849C27.1659 153.769 27.1022 153.689 27.0367 153.613C26.1521 152.555 25.0499 151.849 23.914 151.118C22.6416 150.944 21.373 150.557 20.1274 150.273C17.0522 149.571 13.9771 148.868 10.9001 148.167C10.2969 148.029 10.5533 147.099 11.1567 147.236C13.4922 147.766 15.8278 148.297 18.1636 148.827L21.5818 149.605C22.2648 149.759 23.1178 150.069 23.9211 150.181C24.3172 150.236 24.7012 150.243 25.048 150.162C26.168 149.896 26.2246 148.492 25.7416 147.658C25.2001 146.721 24.1775 146.136 23.2698 145.605C21.6968 144.684 20.023 144.022 18.3881 143.259C18.0979 143.196 17.8077 143.132 17.5176 143.068C15.8296 142.695 13.901 142.513 12.3121 141.83C11.8361 141.627 12.0964 140.875 12.5669 140.885C13.8001 140.912 15.09 141.352 16.2949 141.613C17.5989 141.897 18.9047 142.179 20.2088 142.461C20.3397 142.489 21.1147 142.738 21.2315 142.683C21.3058 142.647 21.3323 142.388 21.3571 142.218C21.4369 141.657 21.4951 141.068 21.4084 140.506C21.2173 139.244 20.1681 138.652 19.1064 138.167C16.7426 137.09 14.1504 136.416 11.5707 136.146C10.9762 136.084 10.3817 136.045 9.78365 136.026C9.08139 136.004 8.50263 135.88 8.14699 136.574C7.58787 137.667 7.28 139.072 7.09598 140.32ZM10.3789 179.948C10.8939 178.161 10.7538 176.254 11.1066 174.432C11.2887 173.492 11.5373 172.559 11.8087 171.642C12.0278 170.9 12.3931 170.112 12.4345 169.338C12.437 169.286 12.3763 169.257 12.3346 169.28C11.6079 169.698 11.0498 170.6 10.6354 171.308C10.1393 172.155 9.76049 173.042 9.45492 173.975C8.8459 175.833 8.34588 178.075 9.1313 179.948C9.36504 180.505 10.186 180.617 10.3789 179.948ZM26.2972 156.286C25.8619 156.244 25.4266 156.16 24.9914 156.063C25.4779 156.539 25.9274 157.111 26.177 157.747C26.2158 157.259 26.2655 156.773 26.3308 156.288C26.3202 156.288 26.3078 156.288 26.2972 156.286ZM77.817 179.922C78.13 180.075 78.4512 180.213 78.7675 180.358C79.4011 180.648 80.0344 180.939 80.6675 181.231C81.9864 181.838 83.3045 182.447 84.6215 183.058C87.2578 184.282 89.9145 185.462 92.5573 186.673C95.2522 187.907 97.94 189.158 100.625 190.416C101.889 191.008 103.164 191.578 104.435 192.155C105.523 192.648 106.867 193.509 108.061 193.59C108.122 193.595 108.143 193.517 108.108 193.477C107.657 192.963 106.937 192.663 106.345 192.329C105.739 191.987 105.122 191.666 104.508 191.34C103.228 190.66 101.947 189.985 100.654 189.329C98.0694 188.018 95.4794 186.715 92.8888 185.415C90.2468 184.088 87.6082 182.752 84.943 181.473C83.6881 180.87 82.4321 180.27 81.1753 179.671C80.4944 179.347 79.8132 179.023 79.132 178.7C78.8378 178.56 78.5465 178.409 78.2457 178.284C77.846 178.118 77.5422 178.152 77.13 178.05C76.4576 177.884 76.1666 178.741 76.6827 179.114C77.1077 179.422 77.3313 179.685 77.817 179.922ZM113.039 168.694C114.358 169.082 115.897 169.439 116.796 170.567C116.84 170.622 116.913 170.551 116.887 170.496C115.736 168.103 112.435 167.264 110.149 166.425C108.532 165.832 106.874 165.34 105.201 164.901C105.368 162.987 104.907 160.936 104.747 159.032C104.576 156.999 104.436 154.961 104.365 152.922C104.292 150.841 104.274 148.747 104.342 146.666C104.41 144.593 104.679 142.545 104.796 140.478C104.807 140.279 104.53 140.269 104.47 140.434C103.776 142.352 103.479 144.476 103.253 146.498C103.02 148.58 102.943 150.657 102.972 152.752C103.003 154.906 103.128 157.055 103.299 159.202C103.381 160.22 103.475 161.236 103.564 162.253C103.632 163.029 103.663 163.799 103.821 164.551C102.812 164.302 101.801 164.067 100.793 163.839C97.5789 163.112 94.3512 162.437 91.1504 161.65C89.5792 161.264 88.0305 160.802 86.4664 160.391C84.9936 160.005 83.439 159.536 81.9269 159.364C81.3873 159.302 81.3186 160.042 81.6758 160.293C82.9048 161.159 84.5371 161.761 85.9566 162.246C87.3813 162.732 88.8623 163.081 90.3225 163.441C93.3678 164.192 96.4419 164.806 99.5114 165.446C102.577 166.085 105.648 166.719 108.678 167.507C110.138 167.887 111.593 168.268 113.039 168.694ZM7.34016 114.355C9.65273 114.133 11.9688 113.955 14.2885 113.822C14.3966 113.817 14.5026 113.81 14.6107 113.804C14.6229 113.78 14.6388 113.756 14.6549 113.732C15.412 112.617 15.9694 111.503 16.4524 110.243C16.9142 109.044 17.3619 107.807 18.0731 106.725C18.8844 105.492 19.9796 104.527 21.18 103.691C21.9081 104.182 22.5838 104.757 23.202 105.366C23.8526 106.007 24.8537 105.003 24.2029 104.362C23.6535 103.821 23.0672 103.321 22.4474 102.869C23.1631 102.433 23.8933 102.023 24.6056 101.615C27.2758 100.087 30.0093 98.6749 32.7996 97.3834C34.0965 96.7817 35.4094 96.2477 36.7311 95.7065C37.4426 95.4157 38.1448 95.0411 38.8561 94.7042C38.8048 94.2001 38.9552 93.6359 39.3409 93.3041C39.6258 93.061 39.847 92.9705 40.1867 92.7986C40.2628 92.7718 40.3088 92.7559 40.33 92.747C40.3141 92.7505 40.2681 92.7647 40.1922 92.7896C40.0115 92.8731 39.9974 92.8481 40.1495 92.7168C40.1584 92.4296 40.723 91.8227 40.852 91.5264C41.3014 90.5096 41.4412 89.4344 42.1047 88.5082C43.0194 87.2325 44.5552 86.75 45.9868 87.1828C46.1353 85.648 46.1742 84.046 46.751 82.6761C46.7669 82.639 46.8183 82.6228 46.8413 82.6636C47.4428 83.6911 47.4942 84.8354 47.5402 86.0206C47.5844 87.1331 47.5421 88.2704 47.3968 89.3758C47.4888 89.4468 47.5826 89.5144 47.6799 89.5799C48.1364 89.8815 48.6283 90.1139 49.145 90.2862C50.1287 90.6125 51.1603 90.7544 52.1918 90.8041C54.8547 90.9319 57.599 90.6622 60.2177 90.2044C62.8664 89.7413 66.9271 89.0458 69.2839 87.7168C70.8393 86.8405 72.2741 85.7704 73.7287 84.7342C73.2013 83.0309 73.0668 81.1998 73.5976 79.7609C73.6613 79.5888 73.9303 79.5568 73.9816 79.7609C74.3142 81.1342 74.4115 82.5146 74.8539 83.8719C74.8609 83.8915 74.868 83.9129 74.8751 83.9323C75.0131 83.8384 75.1511 83.746 75.2891 83.6537C75.6076 83.4426 76.0411 83.6006 76.2322 83.9021C79.2881 88.73 84.1271 89.0068 89.2087 89.8692C94.77 90.813 100.359 91.8314 105.706 93.6785C110.82 95.4459 115.707 98.0186 119.578 101.862C120.455 102.732 121.274 103.659 122.048 104.627C121.299 104.721 120.557 104.869 119.824 105.099C118.957 105.373 119.33 106.743 120.201 106.468C121.142 106.171 122.094 106.025 123.056 105.952C125.687 109.56 127.738 113.652 129.511 117.679C132.913 125.401 135.128 133.625 136.147 141.997C135.587 141.661 135.018 141.341 134.434 141.043C133.623 140.629 132.907 141.854 133.719 142.269C134.621 142.728 135.497 143.235 136.346 143.785C136.716 147.45 136.86 151.138 136.773 154.821C136.566 163.6 135.384 172.637 132.71 181.013C131.399 185.124 129.662 189.202 127.073 192.676C125.902 194.249 124.571 195.669 123.004 196.852C122.245 197.427 121.441 197.94 120.594 198.373C119.502 198.933 118.079 199.118 117.138 199.911C116.829 200.172 116.59 200.516 116.409 200.905C116.514 201.643 116.526 202.383 116.324 203.121C116.261 203.352 116.087 203.54 115.873 203.63C115.87 203.694 115.87 203.756 115.87 203.816C115.87 203.845 115.827 203.852 115.822 203.824C115.813 203.768 115.804 203.713 115.795 203.657C115.726 203.68 115.654 203.691 115.579 203.691C112.892 203.701 110.201 203.635 107.509 203.543C107.718 202.904 107.943 202.27 108.159 201.631C108.453 200.763 107.086 200.394 106.794 201.254C106.541 202.001 106.277 202.742 106.041 203.492C103.158 203.384 100.275 203.255 97.3974 203.16C91.2771 202.956 85.1587 202.888 79.0368 202.759C69.5298 202.557 59.9537 202.143 50.432 202.548C50.1027 201.847 49.7342 201.162 49.3847 200.471C48.9725 199.655 47.7516 200.374 48.1625 201.188C48.4054 201.668 48.657 202.142 48.896 202.621C46.9676 202.722 45.0411 202.855 43.1187 203.036C39.8383 203.344 36.5896 203.893 33.3127 204.233C29.9811 204.581 26.7218 204.519 23.4166 203.967C22.8221 203.868 22.4718 203.508 22.3267 203.06C22.3216 203.059 22.3178 203.055 22.3145 203.05C22.1446 202.851 21.9852 202.686 21.8208 202.542C21.6243 202.415 21.4119 202.306 21.1625 202.211C20.6971 202.033 20.2123 201.925 19.7204 201.852C19.179 201.771 18.6305 201.763 18.0891 201.696C17.6327 201.638 17.1867 201.551 16.741 201.444C15.9393 201.253 15.1785 201.002 14.4212 200.67C13.7612 200.381 13.1651 199.966 12.6023 199.514C11.438 198.66 10.4297 197.571 9.54833 196.439C9.03521 195.777 8.55218 195.09 8.11338 194.375C7.34901 193.137 6.69789 191.85 6.03968 190.553C5.80082 190.169 5.58283 189.776 5.3836 189.374C6.66993 188.994 7.96864 188.684 9.33229 188.662C10.2439 188.647 10.2437 187.228 9.33229 187.242C7.76835 187.267 6.28899 187.634 4.81917 188.07C4.74751 187.88 4.67886 187.687 4.61534 187.493C4.44017 187.087 4.29508 186.669 4.17477 186.247C4.10417 186.056 4.03321 185.864 3.96244 185.672C3.8032 185.009 3.64396 184.343 3.48295 183.678C3.16269 182.613 2.90984 181.533 2.72388 180.438C2.56818 179.718 2.44787 178.992 2.36648 178.258C2.11877 176.478 1.91706 174.702 1.90291 172.903C1.92414 171.794 1.9949 170.687 2.11522 169.585C2.16653 168.836 2.25323 168.091 2.37001 167.351C2.52218 166.251 2.67257 165.162 2.92559 164.076C3.11492 163.341 3.30424 162.606 3.49356 161.872C3.96599 160.341 4.52333 158.84 5.16579 157.372C5.201 157.28 5.37988 157.078 5.48763 157.076C5.56902 157.074 5.68245 157.149 5.64529 157.248C5.64158 157.257 5.63821 157.268 5.63449 157.276C5.67165 157.193 5.70704 157.108 5.74419 157.025C5.77604 156.946 5.89991 156.79 5.99545 156.792C6.00076 156.792 6.00624 156.792 6.01314 156.794C5.98837 156.776 5.96536 156.753 5.94236 156.727C5.30716 155.973 4.8949 154.98 4.44017 154.108C4.0633 153.387 3.70766 152.628 3.60504 151.813C3.51497 151.099 3.63688 150.394 4.08453 149.816C4.5941 149.157 5.55311 148.849 5.02053 147.898C4.41541 146.815 3.52541 145.877 4.41187 144.647C4.86305 144.021 5.57787 143.677 6.10868 143.132C6.71911 142.502 7.00947 141.659 6.99337 140.799C6.95621 140.82 6.90667 140.809 6.88898 140.756C6.37586 139.202 6.74743 137.495 7.27293 135.981C7.55957 135.16 8.16663 134.934 8.87243 134.894C5.81514 128.906 2.95408 122.821 0.404247 116.597C0.319318 116.393 0.236157 116.189 0.153173 115.985C0.0291407 115.68 0.291009 115.274 0.593571 115.206C2.7982 114.722 5.09484 114.567 7.34016 114.355Z" fill="black"/>
<path fill-rule="evenodd" clip-rule="evenodd" d="M28.8351 49.0815C29.2178 45.5547 28.7225 38.1831 28.6893 37.7352C28.4795 34.9039 29.7445 23.7236 32.1358 24.7538C36.1472 21.4235 41.49 20.6882 46.4859 20.3369C56.8633 19.6071 67.9029 21.2824 75.916 28.6063C79.8788 32.4097 83.7368 37.9416 83.4266 43.7015C87.0271 49.1613 92.1029 56.6505 87.6169 63.0334C86.092 65.0726 83.6685 65.832 81.7529 67.3764C77.8998 70.6356 75.4825 75.313 71.5929 78.5528C61.288 88.2639 43.7901 90.2925 33.6656 79.247C25.8364 71.2474 27.1024 59.2797 28.4795 49.0815C29.4053 42.2251 28.0884 55.9618 28.8351 49.0815Z" fill="white"/>
<path fill-rule="evenodd" clip-rule="evenodd" d="M63.2145 1.39135C60.2409 0.774663 57.1873 0.390947 54.1506 0.506454L53.9165 0.515799C51.6316 0.609646 48.738 0.817244 46.7448 2.18267C46.6301 2.06442 46.4457 2.00373 46.2785 2.08576C43.9098 3.24768 41.3045 4.08774 38.8105 4.92252C36.3279 5.75319 33.7524 6.30155 31.1503 6.52258C30.1714 6.60578 29.3335 7.69213 29.9534 8.66649C30.1009 8.89868 30.2445 9.13322 30.3876 9.36834C30.1483 9.3427 29.909 9.31627 29.6698 9.2914C28.8824 9.20996 28.0959 10.0735 28.1425 10.8613C28.1717 11.3568 28.2237 11.8464 28.3007 12.3302C28.0008 12.3237 27.7027 12.3699 27.4146 12.495C25.9562 13.128 26.0577 14.9132 26.1669 16.2715C26.3181 18.1564 27.0041 20.1529 28.2778 21.5637C27.3268 22.5788 26.6536 23.791 26.252 25.2307C25.9608 26.282 25.7986 27.4018 25.8786 28.4962L25.9042 28.8239C26.0031 30.0115 26.1998 31.3263 27.0312 32.1807C27.4579 32.6212 27.9837 32.7817 28.4849 32.7308C28.1818 35.4677 27.9875 38.2203 27.8046 40.9631L27.7188 42.274C27.3109 48.6131 27.6386 59.6275 27.7188 65.9771C27.7933 71.911 28.2443 74.8221 31.7857 79.6401C35.011 84.0274 39.1979 86.9956 44.4366 88.225C47.2598 88.8887 49.8952 89.0028 52.7526 88.5799C54.1378 88.3743 55.596 88.0126 56.9107 87.5153C58.3659 86.9632 59.4032 86.545 60.3824 85.3273C60.8455 84.7498 60.6226 83.5204 59.7004 83.6359C58.3057 83.8097 57.9824 84.1638 56.6452 84.5877L55.6954 85.0313C54.3636 85.4698 52.9064 86.0456 51.5141 86.1846C48.6621 86.4685 45.3992 85.9201 42.6673 85.0313C38.2191 83.5826 34.6422 79.8418 32.1866 75.7853C29.272 70.9771 29.6334 63.5847 29.6755 58.0561C29.7206 51.9894 29.9126 45.9191 30.226 39.8587L30.2794 38.8487C30.4451 35.73 30.6051 32.6094 30.7459 29.4888C30.7897 28.5099 30.8564 27.5232 30.9766 26.5463C32.0756 25.8846 33.0605 24.9723 33.7024 23.8466C34.9921 24.3948 36.3485 24.7902 37.5964 25.1054C40.4871 25.836 43.4882 26.0134 46.4305 25.5559C47.2241 25.8928 48.0335 26.189 48.8553 26.4439C49.0774 26.5451 49.2995 26.6446 49.5215 26.7421C51.5029 27.6133 53.5126 28.3513 55.6041 28.8917L56.1179 29.0233C57.2186 29.3022 58.4141 29.5768 59.5855 29.663C59.7779 29.7394 59.9856 29.804 60.2125 29.8607C61.2791 30.127 62.3861 30.2112 63.4793 30.1172C64.5444 30.0252 65.314 28.9191 64.7273 27.8834C64.2987 27.1278 63.8661 26.374 63.4298 25.6223C64.9481 26.2722 66.5159 26.8126 68.097 27.2707C69.6934 27.7327 71.3127 28.1223 72.934 28.4805C73.8008 28.6704 74.6712 28.8388 75.536 29.0287C76.1552 29.1638 71.1584 31.7617 71.6634 32.1807C72.2214 32.6407 72.3795 33.7136 72.5911 34.3753C72.8693 35.2347 73.1302 36.0981 73.3684 36.9712C73.8425 38.7136 74.2311 40.4815 74.5321 42.2669C74.8331 44.0543 75.0352 45.8594 75.1476 47.6703C75.2598 49.4792 75.2105 51.2999 75.3913 53.101C75.4886 54.0564 76.4866 54.5478 77.2239 53.8802C77.3104 53.8019 77.3975 53.7227 77.4838 53.6427L77.6125 53.522C78.2432 52.9346 78.8547 52.3121 79.3594 51.6112C79.4508 51.482 79.5384 51.3469 79.6203 51.2099C79.6337 51.2099 79.6451 51.206 79.6584 51.1962L79.7984 51.0879C81.3391 49.9094 83.913 48.373 85.4153 50.3308C85.894 50.9546 86.1391 51.7488 86.3426 52.515L86.6995 53.8862C86.9304 54.7814 87.1477 55.6816 87.2748 56.5976C87.5624 58.6493 87.4177 61.0142 86.044 62.6587C85.4953 63.3165 84.7391 63.7864 83.8953 63.9097C83.4246 63.9763 82.9598 63.894 82.4931 63.8333C82.0187 63.7727 81.5617 63.8705 81.0872 63.8236C80.3328 63.7472 80.0033 64.6752 80.2852 65.2586C80.4376 65.5718 80.6169 65.842 80.8205 66.071C80.6569 66.2159 80.5005 66.3725 80.35 66.537C79.9042 66.6838 79.5043 66.999 79.2051 67.416C78.9631 67.7527 78.8376 68.1188 78.8164 68.5045C78.79 68.6004 78.7671 68.6983 78.746 68.7982L78.3373 69.4798C78.2474 69.6293 78.1578 69.777 78.068 69.9219C77.0278 71.6056 75.8732 73.0308 74.4388 74.3738C73.0577 75.6659 71.5586 76.8229 70.2611 78.209L70.1083 78.3736C68.8987 79.6835 67.6237 81.2692 68.0971 83.1738C68.219 83.6633 68.884 84.0157 69.3182 83.6848C70.7145 82.6198 71.4177 80.9322 72.6024 79.6401C73.8218 78.3089 75.1724 77.1127 76.3952 75.7853C77.5517 74.5324 78.4642 73.113 79.1517 71.5507C79.4262 71.862 79.8261 72.0832 80.3804 72.1694C81.3329 72.3162 82.2209 71.7426 82.636 70.8949C82.9028 71.0163 83.1751 71.1259 83.4496 71.2121C84.8936 71.6662 85.802 70.0159 85.2572 68.7962C84.9659 68.1423 84.6021 67.5746 84.1504 67.0969C85.5622 66.8972 86.9986 66.1474 87.9263 65.2116C90.254 62.8604 90.574 59.3266 90.0502 56.1845C89.772 54.5184 89.2922 52.8328 88.6691 51.2686C88.5607 50.9965 88.4443 50.7224 88.3168 50.4522C88.3873 50.4503 88.4597 50.4189 88.5054 50.3582C88.9264 49.767 89.4387 49.2834 89.7513 48.6217C90.0389 48.0148 90.3588 47.4001 90.5857 46.7678C91.0522 45.4737 91.2808 44.0132 91.4332 42.6448C91.7475 39.8432 92.5938 34.3753 92.5938 32.1807C92.9081 27.8834 93.462 22.7062 92.2013 18.4871C92.3389 18.4127 92.4708 18.323 92.5938 18.2169L92.6545 18.1625L92.7532 18.0709C93.4746 17.4 93.4123 16.1425 92.7532 15.463L92.545 15.2485C92.2814 14.9794 92.0541 14.7662 91.6283 14.4731C91.5654 14.4299 91.5012 14.3892 91.4362 14.3512C91.6591 13.9279 91.7365 13.433 91.5812 12.887C91.0402 10.9848 88.377 11.0522 86.689 11.8817C84.8215 10.1689 82.7508 8.68196 80.5063 7.47795C75.1608 4.61183 69.1164 2.61298 63.2145 1.39135ZM84.5433 54.2155C83.5451 53.8808 82.2192 54.5836 81.3219 55.0065C80.1847 55.5429 79.2169 56.3358 78.2797 57.1737C77.8129 57.5926 77.7293 58.2778 77.8453 58.8632C77.857 58.9219 77.8682 58.9826 77.8817 59.0433C78.0055 59.6678 78.6837 60.1592 79.2838 60.1416C80.5392 60.1064 81.1372 58.9924 81.8479 58.0488C81.9315 58.2015 82.0363 58.3424 82.166 58.4482L82.2536 58.5186C82.5485 58.7494 82.8737 58.9339 83.2633 58.9161C83.5395 58.9023 83.8041 58.8299 84.0482 58.6987C84.6578 58.3679 84.9262 57.5574 84.7606 56.8976C84.6578 56.4826 84.4215 56.1576 84.1129 55.9325L84.228 55.8516C84.4741 55.6756 84.6986 55.49 84.8736 55.2161L84.913 55.1513H84.8978C85.0883 54.8146 84.9643 54.3565 84.5433 54.2155Z" fill="black"/>
<path fill-rule="evenodd" clip-rule="evenodd" d="M49.1101 72.6869C50.2995 72.2003 51.3608 71.3887 52.1367 70.3519C52.4064 69.9914 52.4764 69.6108 52.4198 69.2627C52.3562 68.8712 52.1252 68.5165 51.8103 68.2785C51.4943 68.0398 51.0992 67.9221 50.7171 67.9821C50.3851 68.0342 50.0546 68.2165 49.7931 68.5945L49.7385 68.6701C49.2772 69.2959 48.6761 69.8094 47.9912 70.1403C47.3311 70.4593 46.5928 70.6082 45.8288 70.5216C44.3737 70.3568 43.3708 69.5677 42.3048 68.496C42.1726 68.3607 42.0404 68.2212 41.9075 68.0794C41.8236 67.9509 41.7072 67.8683 41.5779 67.825C41.4344 67.7768 41.272 67.7796 41.1233 67.8316C40.9798 67.8818 40.8516 67.9769 40.7656 68.1035C40.6839 68.2239 40.6376 68.3725 40.6526 68.5435C40.7502 69.654 41.3292 70.6452 42.1516 71.4234C43.065 72.2878 44.2759 72.8857 45.4158 73.0954C46.6717 73.3264 47.9514 73.1609 49.1101 72.6869ZM44.8234 55.5544C43.4872 56.3688 41.4514 58.2678 42.8888 60.2869C44.5807 62.0671 47.0166 60.0259 48.217 59.1028C49.3301 58.3874 50.5807 60.2274 49.548 61.0628C40.8739 67.5027 37.3537 55.7673 44.1476 54.5968C44.8956 54.4678 45.1734 55.3024 44.8234 55.5544ZM60.3674 48.0632C60.2198 46.2256 57.429 45.8084 57.1514 47.6267C56.9028 49.2555 57.1955 50.7518 57.9271 52.2182C58.6262 53.6192 60.3832 52.9656 60.5161 51.6898C60.6942 49.9798 60.4592 49.2062 60.3674 48.0632ZM39.1237 47.2497C38.7347 46.7387 38.1729 46.3898 37.4998 46.587C35.3969 47.2032 36.0167 50.1969 36.7553 51.6542C37.1566 52.4455 38.4537 52.6462 39.0399 51.9494C39.9953 50.8132 40.4529 48.544 39.2382 47.4248C39.2053 47.3669 39.1687 47.3086 39.1237 47.2497ZM57.9567 40.0228L57.6245 39.9645C56.5969 39.7862 55.3192 39.615 54.5923 40.4434C54.2067 40.8828 54.074 41.6993 54.5923 42.1198C55.5038 42.8597 56.5117 42.573 57.6041 42.6356C58.5043 42.6874 59.3696 42.8368 60.2367 43.0854C62.1391 43.6306 63.6893 44.626 65.3141 45.719C65.5273 45.8623 65.7449 45.5889 65.6432 45.389C64.7053 43.5467 62.8876 42.0334 61.0669 41.1109C60.0952 40.6186 59.0318 40.2101 57.9567 40.0228ZM41.0407 39.1975L40.7865 39.2497C38.0197 39.8296 34.4249 40.9881 33.1147 43.7134C33.0648 44.0987 33.1175 44.1813 33.1604 44.2353L33.1747 44.2532C33.2101 44.2993 33.2383 44.3628 33.4048 44.4153C33.4511 44.4042 33.4977 44.3925 33.5449 44.3801C34.1455 44.2223 34.6207 44.0049 35.0807 43.7793L35.5795 43.5328C36.1581 43.2483 36.7419 42.9741 37.3606 42.7717C38.6809 42.3399 40.039 42.0357 41.4181 41.8732C41.717 41.838 42.0049 41.7369 42.2319 41.5635C42.4475 41.3989 42.6121 41.1711 42.6872 40.8682C42.7845 40.4763 42.7566 40.1795 42.5468 39.8259C42.3892 39.5604 42.1635 39.3763 41.9044 39.2706C41.6403 39.1629 41.3396 39.1375 41.0407 39.1975Z" fill="black"/>
<path fill-rule="evenodd" clip-rule="evenodd" d="M45.4616 63.5599C47.4293 62.6711 49.0371 63.1186 52.3003 63.9231C56.0259 65.4252 56.2914 65.1591 57.8838 67.0221C58.9286 69.7586 56.5568 69.5061 56.2914 69.5061C54.1682 69.24 53.1367 68.3399 50.9733 68.004C49.217 67.729 47.3107 67.7865 45.6652 66.8507C44.4638 67.5134 41.6941 67.1168 39.6593 67.2943C37.4476 67.4657 37.5842 67.8706 35.8552 67.6431C34.8821 67.377 34.6857 66.6611 36.9953 64.8906C39.523 62.9529 43.249 62.7638 45.4616 63.5599Z" fill="black"/>
<path fill-rule="evenodd" clip-rule="evenodd" d="M43.1712 81.5293C44.8928 81.9502 44.6593 81.7621 44.8521 80.4254C45.0028 79.381 44.0248 78.0913 46.1792 78.2075C48.3335 78.3237 47.527 79.1107 47.4177 80.5141C47.3468 81.4242 46.6061 82.5036 49.2756 83.0868C50.9776 83.0808 51.4671 83.0054 53.2567 82.6745C55.1145 82.6745 58.0183 81.3854 58.7418 84.6837C59.0021 85.8708 57.3738 86.043 53.2567 86.362C49.0813 87.2105 39.8628 85.1366 36.89 81.9335C35.917 80.8851 35.7872 81.1665 35.6515 80.4254C35.3663 78.8684 37.8883 79.5218 39.8095 80.0705C41.1666 80.7973 42.0641 81.2587 43.1712 81.5293Z" fill="black"/>
</svg>
