<svg width="362" height="723" viewBox="0 0 362 723" fill="none" xmlns="http://www.w3.org/2000/svg">
<path fill-rule="evenodd" clip-rule="evenodd" d="M266.72 660.737C268.266 653.54 261.195 651.107 256.738 649.506C253.545 647.435 241.715 640.262 232.561 631.408C225.071 624.162 219.972 614.876 217.849 613.991C217.849 613.991 215.664 612.724 215.438 611.782C214.108 606.265 215.217 601.123 215.438 597.778C219.699 596.66 223.114 595.264 225.667 593.312C226.412 593.56 227.528 593.878 227.861 592.789C230.169 577.389 231.165 562.172 233.043 546.761C240.151 488.064 240.953 419.491 228.725 365.88C228.596 363.222 228.828 360.822 229.065 358.539C230.718 358.361 231.718 356.76 233.068 355.803C235.164 354.138 237.645 352.858 237.543 349.947C238.04 349.57 237.982 349.358 237.737 348.878C239.335 342.004 232.206 334.76 230.189 329.093C233.855 293.241 228.868 259.361 231.65 223.501C235.164 222.03 232.801 212.839 232.561 209.047C230.614 184.624 217.919 160.476 195.057 152.497C193.75 152.232 191.786 150.738 190.704 151.741C188.614 150.913 185.834 152.546 184.216 150.666L184.233 150.654C182.871 148.765 182.26 146.364 181.812 144.094C181.887 144.734 182.012 145.368 182.166 145.988C178.225 134.88 177.232 131.91 164.544 131.387C158.829 131.31 151.295 131.482 147.962 136.933C146.597 139.467 147.014 142.377 146.166 145.044C144.611 149.939 137.895 147.574 134.369 150.116C106.152 159.167 83.0073 177.641 75.3996 207.293C73.8443 210.867 72.0803 214.424 70.78 218.112C70.5788 218.66 70.0252 220.512 71.3547 221.365L71.9977 221.777C63.5282 261.366 62.9663 294.724 91.4205 321.116C93.5557 332.457 88.0627 347.944 90.1742 358.955C88.9711 360.662 90.4967 362.037 92.0349 362.147C92.1832 362.229 92.7825 362.491 92.9459 362.566C90.4981 397.126 100.775 443.701 105.306 462.084C105.922 473.122 102.155 482.188 94.4066 488.204C85.8451 493.477 68.9189 517.294 72.0568 542.277C68.3897 542.997 64.7492 543.391 61.2311 544.77C45.8374 542.053 45.99 571.73 45.0092 582.165C43.348 599.637 42.3155 624.961 58.9128 636.145C63.2853 639.318 72.151 643.031 76.6942 637.954C78.1829 636.165 78.5557 634.438 77.9701 632.611C85.472 622.012 83.4504 608.147 84.1395 595.714C86.3149 595.583 88.591 596.604 90.6953 596.232C92.8552 594.329 84.9758 594.847 84.1586 594.736C84.2423 592.818 84.3965 590.8 84.5955 588.867C85.8314 589.114 87.4147 589.708 88.6031 589.753C89.3065 589.924 89.8036 588.956 89.379 588.454C88.4515 587.569 86.0867 587.706 84.7559 587.58C84.9806 585.962 85.2554 584.261 85.5608 582.696C87.1888 582.638 88.87 583.675 90.4115 583.463C89.2448 582.684 87.0548 582.921 85.6326 582.407C86.5575 577.367 88.4419 572.583 90.1938 567.869C94.4925 569.642 98.2008 569.712 102.397 569.18C104.114 569.445 104.951 569.093 105.229 566.946L105.119 566.81C108.445 546.906 119.178 527.931 139.115 506.412C143.053 502.005 147.503 496.815 150.468 491.013C156.426 478.939 157.443 465.615 162.034 453.075C166.32 440.471 172.18 428.415 177.682 416.466C178.489 422.59 179.573 428.872 180.7 434.876C185.659 456.154 185.178 478.856 181.529 500.251C176.129 530.218 178.732 560.326 177.531 590.505C177.547 592.245 177.763 593.826 177.508 595.639C177.474 595.778 177.54 595.943 177.705 595.939L178.017 595.947C180.612 597.848 184.196 598.191 187.246 599.222C188.526 600.236 188.166 601.842 188.283 603.094C188.618 608.492 189.046 613.911 188.515 619.475C186.162 623.984 183.239 623.052 182.641 629.409C182.118 636.666 181.192 644.382 184.726 650.844L183.389 651.075C181.405 655.239 182.616 657.942 187.28 659.703C210.301 668.73 242.696 676.926 266.72 670.112C267.157 670.545 267.792 670.096 268.288 669.415C268.765 668.762 269.115 667.894 269.037 667.391C268.626 665.18 269.191 661.145 266.72 660.737Z" fill="white"/>
<path fill-rule="evenodd" clip-rule="evenodd" d="M267.707 667.965C247.02 677.255 209.455 665.533 189.128 658.751C183.647 656.773 181.822 656.386 183.357 650.067C186.23 655.612 192.41 656.951 198.33 658.063C218.385 662.635 238.83 671.076 260.277 666.958C263.425 666.462 266.54 664.758 267.456 661.612C268.021 662.945 267.672 664.75 267.898 666.216C267.94 666.801 267.953 667.433 267.707 667.965ZM184.038 633.41C184.411 629.685 185.009 625.751 187.129 622.46C186.898 627.783 190.095 636.83 197.098 633.816C199.082 632.764 200.193 630.647 201.469 628.947C205.711 623.354 211.151 618.497 217.295 614.967C220.713 615.555 222.183 621.806 224.386 624.422C221.93 625.517 217.48 628.011 217.029 630.591C220.096 629.559 222.919 627.638 226.135 626.963C227.165 628.385 228.257 629.764 229.404 631.096C227.905 631.756 221.864 634.81 221.904 636.334C225.171 635.803 228.336 634.204 231.62 633.547C233.081 634.996 234.41 636.555 235.864 638.009C233.668 638.914 231.348 639.924 230.148 642.033C230.091 642.128 230.232 642.235 230.309 642.143C231.954 640.159 234.786 639.795 237.24 639.348C241.005 642.894 245.221 646.021 249.939 648.361C254.66 650.943 261.835 651.534 263.713 657.133C265.216 662.732 260.53 663.33 256.207 663.725C251.833 664.348 247.428 664.442 243.083 664.079C229.5 663.513 216.66 659.513 203.824 656.02C188.131 653.131 183.039 650.792 184.038 633.41ZM213.996 613.173C207.983 617.62 202.113 622.576 197.937 628.778C195.174 633.825 191.496 630.753 190.582 626.71C189.842 617.684 190.479 609.89 189.611 600.81C197.926 601.944 206.467 601.245 214.589 599.239C213.611 603.293 213.163 604.831 213.132 608.99C213.185 610.36 213.165 612.033 213.996 613.173ZM183.983 349.026C183.184 349.318 182.843 348.044 183.633 347.755C184.176 347.557 184.725 347.38 185.276 347.213C185.344 347.065 185.467 346.939 185.657 346.869C192.129 344.512 199.359 344.741 206.119 345.305C209.753 345.608 213.378 346.015 216.969 346.654C220.406 347.266 223.816 348.018 227.255 348.619C227.957 348.707 228.659 348.792 229.36 348.871C230.195 348.965 230.202 350.284 229.36 350.189C229.206 350.171 229.051 350.151 228.897 350.133C228.794 350.17 228.68 350.185 228.552 350.165C228.017 350.081 227.483 349.991 226.95 349.898C224.603 349.597 222.262 349.252 219.921 348.909C213.762 348.006 207.585 347.104 201.357 346.87C195.505 346.65 189.529 347.003 183.983 349.026ZM228.318 223.868C226.888 243.587 227.257 261.202 227.565 280.952C227.743 294.237 227.826 307.526 227.365 320.806C215.672 290.581 219.25 257.784 217.589 226.014C221.045 224.863 224.758 224.36 228.318 223.868ZM168.632 369.668C169.726 371.757 171.563 373.437 173.74 374.488C173.472 375.015 173.379 375.608 173.351 376.164C169.429 376.966 170.532 378.826 167.883 379.714C166.15 380.193 164.482 380.397 162.984 381.447C157.885 386.197 156.62 385.848 151.148 381.669C151.223 381.291 143.776 374.017 141.469 369.951C139.547 366.559 137.534 363.143 134.589 360.52C120.162 345.748 104.794 331.806 90.8288 316.626C62.8421 288.736 68.1822 257.112 74.6102 222.275C84.9854 223.514 95.4179 226.003 104.761 230.573C101.466 245.949 101.255 259.886 99.8356 275.489C99.4072 277.418 99.8905 281.133 102.624 280.276C127.743 300.221 130.663 341.209 163.628 353.061C177.063 358.523 171.393 362.956 175.833 373.268C173.39 372.82 171.211 370.773 170.161 368.813C169.641 367.84 168.125 368.697 168.632 369.668ZM106.622 357.275C105.814 357.37 105.003 357.439 104.192 357.505C104.098 357.582 103.981 357.637 103.839 357.655C102.575 357.812 101.286 358.019 100.008 358.299C98.1135 358.97 96.1986 359.584 94.2925 360.223C94.1255 360.305 93.9594 360.388 93.7953 360.475C93.638 360.559 93.4858 360.572 93.3483 360.541C93.2927 360.56 93.2367 360.578 93.1811 360.597C93.1668 360.602 93.1523 360.607 93.1383 360.612C93.0877 360.61 93.037 360.609 92.9854 360.606C92.9105 360.603 92.7815 360.597 92.6288 360.588C92.6255 360.529 92.6266 360.472 92.6249 360.414C92.0869 360.43 91.6047 359.758 92.1111 359.314C93.9671 357.686 96.4607 357.091 98.844 356.731C101.424 356.341 104.033 356.26 106.622 355.957C107.465 355.859 107.455 357.178 106.622 357.275ZM82.9204 581.315C80.6096 581.137 70.7261 580.796 69.5401 582.347C70.8757 582.912 72.712 582.6 74.1487 582.664C76.9388 582.778 79.7221 583.024 82.4835 583.415C82.2767 584.492 82.09 585.566 81.9365 586.645C79.151 586.91 73.7269 587.031 71.9587 588.98C75.1131 589.483 78.3972 589.03 81.5628 589.659C81.409 591.135 81.297 592.613 81.2137 594.092C79.9526 594.226 72.5365 595.454 72.543 596.621C75.3196 596.99 78.261 596.504 81.0907 596.779C80.4776 605.639 82.556 632.395 70.4471 634.032C59.8608 633.474 55.2168 616.316 53.7782 608.084C50.5882 588.905 51.1355 568.456 57.4578 549.969C59.7158 544.829 65.8626 543.937 71.0602 543.671C71.2577 544.541 71.4532 545.396 71.6729 546.257C69.419 551.367 68.7009 557.12 68.6392 562.65C69.1159 570.598 78.9223 576.508 86.0442 571.257C84.713 574.509 83.6851 577.892 82.9204 581.315ZM68.9118 638.494C47.9433 633.986 44.5032 609.701 45.9445 591.845C47.1195 579.415 45.7072 553.208 57.1808 545.905C42.3525 559.442 43.64 651.602 76.5014 635.517C75.682 638.114 71.4686 638.863 68.9118 638.494ZM73.0198 551.848C73.0571 551.527 73.0986 551.208 73.1426 550.888C75.4689 557.208 79.4539 563.215 85.3876 566.875C83.1159 569.709 78.6916 570.552 75.7062 568.232C70.4998 564.328 72.6705 557.265 73.0198 551.848ZM144.494 148.071C144.452 148.143 144.408 148.216 144.364 148.286C144.074 148.306 143.782 148.332 143.486 148.365C143.822 148.264 144.158 148.169 144.494 148.071ZM269.743 664.118C269.686 662.546 269.664 660.515 267.823 659.957C268.658 653.182 263.034 649.326 257.129 647.448C252.094 644.368 246.385 642.216 241.758 638.503C243.907 638.099 246.055 637.612 247.964 636.677C249.405 635.972 248.711 633.624 247.149 633.841C244.384 634.206 241.899 635.613 239.3 636.59C237.824 635.377 236.394 634.111 235.043 632.77C236.726 632.445 238.865 632.565 239.845 630.894C240.151 630.372 240.014 629.83 239.645 629.427C237.941 627.701 234.562 629.424 232.444 629.927C231.427 628.755 230.445 627.559 229.481 626.349C231.08 626.201 235.241 626.494 234.426 623.854C232.864 621.789 229.505 623.028 227.246 623.453C224.382 619.93 223.459 614.526 218.982 612.588C218.822 611.733 217.706 611.799 216.961 612.053C215.865 606.818 215.949 604.158 216.269 598.793C219.593 597.873 222.89 596.665 225.654 594.683C226.924 595.056 228.463 594.626 228.727 593.134C231.025 577.857 232.047 562.391 233.916 547.059C240.732 490.596 242.217 421.679 229.599 365.898C229.5 363.784 229.65 361.669 229.863 359.571C231.368 359.169 232.264 357.699 233.509 356.849C235.825 354.962 238.18 353.905 238.393 350.612C238.861 350.166 238.916 349.491 238.659 348.907C239.259 345.526 238.375 342.169 236.576 339.247C234.604 335.919 232.741 332.56 231.095 329.067C234.694 293.859 229.813 259.737 232.481 224.354C235.904 222.541 233.755 212.471 233.437 209.114C231.438 187.068 221.146 162.726 199.264 153.556C197.728 152.26 195.584 151.821 193.708 151.107C192.441 150.483 190.378 149.942 189.51 151.395C188.59 150.966 185.626 150.639 184.611 149.896C184.422 149.758 184.302 149.606 184.273 149.437C184.198 149.439 184.111 149.424 184.016 149.404C183.08 148.082 182.188 138.87 181.035 139.527C179.776 142.69 180.648 146.265 181.852 149.459C182.683 152.284 183.821 159.552 188.232 157.693C188.992 157.315 188.522 156.333 187.841 156.254C185.75 155.657 185.284 152.583 184.475 150.782C185.433 151.577 189.796 152.77 190.273 153.022C199.736 174.745 142.517 173.605 138.018 158.629C134.81 153.455 137.579 150.652 143.297 149.822C139.094 154.492 144.415 155.529 146.438 150.949C148.373 147.669 149.254 143.683 148.593 139.909C148.934 138.584 149.222 136.814 147.24 137.17C147.172 136.994 147.064 137.132 147.106 137.257C146.383 138.409 146.886 140.063 146.629 141.392C146.412 143.567 145.794 145.698 144.747 147.622C142.803 147.994 140.867 148.391 138.941 148.826C137.785 146.478 130.29 151.162 128.277 151.713C101.545 159.611 81.2157 180.644 74.1203 207.174C72.5365 210.706 70.8271 214.257 69.531 217.899C68.9511 219.476 68.9511 221.434 70.5438 222.455C62.7825 258.061 60.8889 295.158 90.2095 321.863C90.8749 324.754 90.4314 327.821 90.4116 330.765C90.6036 336 87.1553 351.153 88.8003 358.961C88.6217 359.302 88.4954 359.668 88.446 360.059C88.2157 361.874 89.6922 363.043 91.3211 363.34C91.3705 363.349 91.4215 363.358 91.4718 363.366C91.5087 363.385 91.5445 363.405 91.5825 363.422C89.6381 393.19 96.9295 433.694 103.996 462.412C104.519 472.283 101.543 481.261 93.5308 487.49C78.2984 498.878 71.8816 517.888 70.1 536.004C69.8474 537.86 70.0956 539.749 70.5132 541.573C67.2112 542.188 64.1206 542.588 60.9153 543.798C43.2378 540.411 44.499 578.393 43.1458 589.663C42.0867 606.324 42.7479 626.296 58.0573 637.206C63.2043 640.871 72.2902 644.39 77.3057 638.841C78.7246 637.142 79.498 635.156 78.9398 632.986C86.1299 622.456 84.4318 608.998 84.97 597.016C86.8526 597.082 88.9044 597.921 90.7587 597.46C92.1866 597.082 92.369 595.25 91.1607 594.52C89.4163 593.532 87.0459 593.907 85.0952 593.842C85.1547 592.695 85.2404 591.548 85.3503 590.401C87.2019 590.854 89.8556 591.941 90.407 589.353C90.6291 586.996 87.6523 586.816 85.7984 586.715C85.928 585.825 86.073 584.94 86.2378 584.057C87.6569 584.199 89.1549 585.104 90.55 584.672C91.3406 584.36 91.6152 583.56 91.0375 582.912C89.9635 581.86 88.1268 582.071 86.7057 581.743C87.5688 577.514 89.1287 573.47 90.6313 569.425C93.3509 570.37 96.2966 570.994 99.1987 570.757C100.703 570.44 102.347 570.35 103.867 570.554C105.558 570.106 105.949 568.298 106.171 566.822C106.138 566.769 106.105 566.719 106.068 566.672C109.976 543.913 123.996 524.25 139.716 507.31C144.046 502.464 148.292 497.424 151.234 491.668C157.209 479.638 158.281 466.103 162.852 453.605C166.703 442.255 171.85 431.372 176.896 420.473C178.92 434.828 182.698 448.947 183.131 463.504C183.79 481.92 179.732 500.069 178.001 518.338C174.888 542.384 177.716 566.578 176.213 590.641C176.224 592.343 176.444 593.947 176.202 595.65C176.068 596.592 176.745 597.183 177.457 597.203C180.071 598.919 183.355 599.527 186.36 600.261C187.193 600.898 186.833 602.467 186.98 603.427C187.302 608.82 187.729 612.89 187.204 618.328C184.264 622.674 182.147 621.98 181.329 628.587C180.879 635.483 179.888 642.941 182.902 649.202C181.553 649.509 181.042 653.625 181.244 654.715C181.586 657.787 184.295 658.759 186.914 659.819C206.05 666.99 246.71 678.794 266.373 670.676C267.782 671.473 269.352 669.911 269.807 668.654C270.409 667.122 269.855 665.639 269.743 664.118Z" fill="black"/>
<path fill-rule="evenodd" clip-rule="evenodd" d="M207.703 101.759C207.616 96.8374 207.519 91.8174 206.788 86.9438C206.072 82.1792 204.105 77.8724 200.723 74.4125C193.541 67.0632 183.131 65.2681 173.44 63.6231L156.873 60.8104C151.818 59.9525 146.426 58.5812 141.319 59.7978C138.802 60.3974 136.665 61.7902 134.712 63.4381C132.83 65.0265 130.805 66.7321 129.53 68.8691C128.252 71.0091 127.812 73.5107 127.397 75.931C126.928 78.6598 126.564 81.4098 126.306 84.1665C125.788 89.6895 125.717 95.2541 126.093 100.788C126.275 103.473 126.565 106.15 126.934 108.814C127.118 110.136 127.325 111.454 127.559 112.768C127.628 113.155 127.681 113.584 127.752 114.017C127.229 115.503 126.932 117.043 126.956 118.575C127.027 123.091 130.837 125.933 134.679 127.459C136.907 128.344 139.235 128.946 141.424 129.934C143.726 130.974 145.294 132.66 146.868 134.583C149.87 138.25 153.258 141.546 157.127 144.296C165.329 150.127 175.718 152.885 185.671 150.792C188.058 150.289 190.467 149.51 192.614 148.334C194.88 147.094 196.584 145.296 198.015 143.171C200.672 139.225 202.578 134.782 204.019 130.26C205.489 125.648 206.533 121.027 207.102 116.218C207.67 111.425 207.789 106.582 207.703 101.759Z" fill="white"/>
<path fill-rule="evenodd" clip-rule="evenodd" d="M158.892 44.1077C164.914 43.1573 173.226 46.2461 176.225 52.4741C190.543 48.6015 208.602 48.4746 220.403 61.3666C232.717 76.6593 219.496 97.2609 209.24 101.807C209.24 111.855 210.456 120.135 206.919 134.533C203.383 148.931 186.584 156.068 173.874 151.985L167.905 148.976C167.151 147.586 169.341 146.438 170.116 147.472C179.179 151.125 191.181 151.164 198.409 143.819C210.749 129.211 205.802 99.7701 199.356 80.7254C181 78.4125 163.605 84.7953 150.927 100.647L151.785 106.569C151.931 107.577 152.097 108.585 152.223 109.598C152.304 110.246 152.313 110.891 151.922 111.416C150.628 113.15 148.449 110.545 146.655 109.509C146.126 109.424 145.595 109.391 145.075 109.433C136.458 110.706 139.031 129.613 148.501 126.251C149.297 125.682 149.981 125.856 150.289 126.681C152.547 129.053 153.442 134.049 157.192 138.124C158.515 139.653 158.977 141.411 160.466 142.637C161.34 143.651 162.272 144.464 162.272 145.968C160.192 148.009 154.257 136.62 151.922 133.289C146.756 135.629 140.156 135.105 134.803 134.533C109.101 128.132 110.907 98.5836 131.222 77.1295C135.58 73.449 140.388 70.4465 145.385 68.1361C146.068 67.8206 145.77 66.5353 145.078 66.8552C141.771 68.3842 138.547 70.2041 135.474 72.3104L135.47 71.0512C135.465 68.9302 135.494 66.722 135.815 64.7841C135.976 63.4413 136.246 62.007 136.661 60.928C137.175 57.6201 145.224 46.2656 158.892 44.1077ZM143.586 115.522C144.022 115.06 144.837 115.611 145.226 115.597C146.22 115.749 147.164 116.216 147.9 116.793C148.386 117.096 148.727 117.381 149.012 117.643L149.019 117.64C149.017 117.64 149.015 117.643 149.012 117.643L149.039 117.663C149.454 117.991 150.971 119.839 150.012 119.342C149.941 119.238 149.868 119.139 149.794 119.042C149.786 119.055 149.775 119.068 149.762 119.081L149.816 119.17C150.631 120.535 149.224 119.097 149.007 118.715C148.997 118.724 148.985 118.73 148.974 118.737L149.256 119.119C149.295 119.173 149.326 119.216 149.352 119.253L149.412 119.317C150.354 120.348 150.383 121.276 149.289 119.752C149.332 119.823 149.366 119.899 149.371 119.967L149.436 120.059C150.295 121.292 149.596 120.854 149.169 120.328L149.133 120.282L149.141 120.295C149.538 120.976 148.75 120.498 148.61 120.133L148.605 120.117C148.453 119.979 148.359 119.824 148.327 119.785L148.321 119.779C147.582 118.936 146.511 118.222 145.601 117.898C145.469 117.87 145.336 117.848 145.201 117.832C144.654 117.696 144.101 117.603 143.542 117.553C143.473 117.543 143.404 117.488 143.352 117.415C142.507 117.384 142.768 116.998 143.118 116.926L143.125 116.925L143.055 116.918C142.512 116.86 142.142 116.643 142.69 116.51L142.76 116.494C142.751 116.48 142.744 116.465 142.737 116.45C142.267 116.393 142.573 115.884 142.834 116.007C142.724 115.608 143.226 115.807 143.288 115.748C143.336 115.689 143.395 115.637 143.43 115.634C143.581 115.515 143.508 115.526 143.586 115.522ZM147.698 108.091L147.588 108.162C147.499 108.22 147.407 108.259 147.315 108.281C147.445 108.343 147.573 108.409 147.7 108.48C147.698 108.394 147.697 108.307 147.697 108.22L147.698 108.091Z" fill="black"/>
<path fill-rule="evenodd" clip-rule="evenodd" d="M182.88 133.336C181.403 132.733 180.086 131.728 179.122 130.445C178.788 129.998 178.701 129.527 178.771 129.096C178.85 128.611 179.137 128.172 179.528 127.877C179.92 127.582 180.411 127.436 180.885 127.51C181.297 127.575 181.707 127.801 182.032 128.269L182.1 128.362C182.673 129.137 183.419 129.773 184.269 130.183C185.089 130.578 186.006 130.762 186.954 130.655C188.761 130.451 190.006 129.474 191.329 128.147C191.493 127.979 191.658 127.806 191.823 127.631C191.927 127.472 192.071 127.369 192.232 127.316C192.41 127.256 192.612 127.26 192.796 127.324C192.974 127.386 193.134 127.504 193.24 127.661C193.342 127.81 193.399 127.994 193.381 128.206C193.26 129.581 192.541 130.808 191.52 131.771C190.385 132.842 188.882 133.582 187.467 133.842C185.908 134.128 184.319 133.923 182.88 133.336ZM188.202 112.123C189.861 113.131 192.389 115.482 190.604 117.982C188.504 120.187 185.479 117.659 183.989 116.516C182.607 115.63 181.054 117.909 182.337 118.943C193.106 126.917 197.476 112.386 189.041 110.937C188.113 110.777 187.768 111.811 188.202 112.123ZM168.904 102.847C169.087 100.572 172.552 100.055 172.896 102.307C173.205 104.323 172.842 106.176 171.933 107.992C171.065 109.727 168.884 108.917 168.719 107.338C168.498 105.22 168.79 104.262 168.904 102.847ZM195.279 101.84C195.762 101.207 196.459 100.775 197.295 101.019C199.906 101.782 199.136 105.489 198.219 107.294C197.721 108.273 196.111 108.522 195.383 107.659C194.197 106.252 193.629 103.443 195.137 102.057C195.178 101.985 195.223 101.913 195.279 101.84ZM171.897 92.8917L172.309 92.8195C173.585 92.5989 175.171 92.3868 176.074 93.4126C176.552 93.9566 176.717 94.9676 176.074 95.4882C174.942 96.4043 173.691 96.0493 172.334 96.1269C171.217 96.191 170.142 96.376 169.066 96.6838C166.704 97.3589 164.779 98.5914 162.762 99.9446C162.497 100.122 162.227 99.7836 162.353 99.536C163.518 97.255 165.775 95.3812 168.035 94.2391C169.242 93.6294 170.562 93.1237 171.897 92.8917ZM192.899 91.8699L193.215 91.9345C196.65 92.6526 201.113 94.087 202.739 97.4613C202.801 97.9385 202.736 98.0408 202.683 98.1076L202.665 98.1298C202.621 98.1868 202.586 98.2655 202.379 98.3304C202.322 98.3168 202.264 98.3023 202.205 98.2869C201.46 98.0915 200.87 97.8223 200.299 97.5429L199.679 97.2378C198.961 96.8855 198.236 96.5461 197.468 96.2954C195.829 95.7607 194.142 95.3841 192.43 95.1829C192.059 95.1394 191.702 95.0141 191.42 94.7994C191.152 94.5957 190.948 94.3135 190.855 93.9385C190.734 93.4532 190.768 93.0858 191.029 92.648C191.225 92.3192 191.505 92.0913 191.826 91.9604C192.154 91.827 192.528 91.7956 192.899 91.8699Z" fill="black"/>
<path fill-rule="evenodd" clip-rule="evenodd" d="M187.41 122.035C184.967 120.935 182.971 121.489 178.92 122.485C174.294 124.345 173.964 124.015 171.987 126.322C170.69 129.71 173.635 129.398 173.964 129.398C176.6 129.068 177.881 127.954 180.567 127.538C182.748 127.197 185.114 127.268 187.157 126.11C188.649 126.93 192.088 126.439 194.614 126.659C197.36 126.871 197.19 127.373 199.337 127.091C200.545 126.761 200.789 125.875 197.922 123.683C194.783 121.284 190.157 121.049 187.41 122.035Z" fill="black"/>
<path fill-rule="evenodd" clip-rule="evenodd" d="M190.255 144.285C188.117 144.806 188.407 144.573 188.168 142.918C187.981 141.625 189.195 140.028 186.52 140.172C183.845 140.316 184.847 141.29 184.982 143.028C185.07 144.154 185.99 145.491 182.676 146.213C180.563 146.206 179.955 146.112 177.733 145.703C175.426 145.703 171.821 144.107 170.923 148.19C170.6 149.66 172.621 149.873 177.733 150.268C182.917 151.319 194.362 148.751 198.053 144.785C199.261 143.487 199.422 143.835 199.591 142.918C199.945 140.99 196.814 141.799 194.428 142.478C192.743 143.378 191.629 143.95 190.255 144.285Z" fill="black"/>
</svg>
