<svg width="382" height="478" viewBox="0 0 382 478" fill="none" xmlns="http://www.w3.org/2000/svg">
<path fill-rule="evenodd" clip-rule="evenodd" d="M362.722 287.597C365.914 285.93 369.03 284.119 372.098 282.233C374.258 280.94 372.345 277.683 370.13 278.86C368.997 279.462 367.869 280.07 366.736 280.668C367.628 279.9 368.454 279.064 369.195 278.153L369.143 278.102C371.999 275.542 368.331 270.711 365.083 272.814C362.219 274.891 359.329 277.011 356.041 278.379C349.232 281.268 341.721 281.746 334.412 281.83C331.737 281.629 329.183 282.092 326.588 282.609C327.605 278.525 330.151 275.441 331.502 271.485C332.498 267.492 326.737 264.771 324.695 268.61C324.194 269.553 323.717 270.506 323.25 271.465C318.836 275.481 311.467 275.127 307.016 279.44C304.481 281.691 303.24 284.746 302.75 287.812C302.418 289.894 302.935 291.981 301.677 293.826C295.594 302.434 285.983 316.04 281.102 325.514C277.647 303.002 268.419 275.158 258.886 254.573C255.734 247.99 252.128 241.558 247.394 235.978C247.93 234.117 246.036 230.813 244.832 231.83C241.124 227.299 234.571 226.126 229.302 223.873C222.188 220.829 216.286 214.503 213.385 207.313C209.658 193.621 200.481 191.882 187.755 192.487C175.576 192.471 166.565 197.684 163.907 210.089C158.508 219.505 145.761 217.948 136.591 220.441C129.87 221.977 123.347 224.352 117.148 227.368C110.253 220.823 85.5551 248.291 83.3102 255.36C84.6318 255.617 85.9453 255.925 87.2469 256.301C88.4061 256.637 87.9194 258.389 86.7502 258.108C85.2952 257.758 83.8309 257.518 82.3598 257.351C82.3149 257.491 82.2756 257.631 82.2463 257.77C82.0812 257.758 81.9163 257.744 81.7512 257.733C82.1173 257.924 82.4698 258.145 82.8132 258.431C83.6433 259.12 82.5626 260.452 81.6804 259.902C80.8493 259.28 79.7608 259.378 78.764 259.169C78.7048 261.22 71.3901 258.926 70.254 258.246C65.2042 257.614 60.0091 258.292 55.295 255.855C49.0224 254.534 42.7027 253.072 36.5005 251.389C34.8586 252.029 33.3155 254.321 34.6196 256.003C35.3532 256.768 34.4102 258.018 33.4866 257.474C30.3888 255.649 27.993 252.801 25.9619 249.733C25.0058 248.768 23.3088 248.976 22.0243 248.575C21.8526 248.884 21.7513 249.228 21.7528 249.581C16.3042 250.478 20.191 256.433 22.9301 258.288C21.4771 259.235 21.4219 261.089 21.549 262.637C21.2412 263.188 21.1383 263.872 21.4063 264.49C22.4309 266.852 24.6468 268.842 26.3318 270.756C28.1921 272.87 29.8509 274.995 32.1145 276.709C40.7426 283.29 51.1548 286.969 61.8365 288.408C65.6292 288.991 71.0847 289.883 73.4331 293.092C72.8569 296.9 71.799 300.553 70.8392 304.266C69.497 309.196 69.5883 314.357 69.5706 319.382C69.383 319.232 69.0227 319.263 68.9691 319.55C68.6569 321.633 68.4247 323.764 67.1593 325.514C66.0499 328.769 65.3117 332.241 64.8969 335.661C63.2353 351.873 62.8386 368.564 66.5849 384.524C68.0305 390.445 70.3817 396.072 73.5852 401.253C74.5403 402.799 76.0759 403.251 77.4549 402.948C82.07 405.347 87.8838 406.116 92.8582 405.506C109.817 400.703 103.908 412.27 127.685 408.728C168.728 403.496 210.206 413.777 251.161 407.741C252.17 415.537 265.374 413.301 269.961 410.005C283.714 399.775 290.543 367.386 297.445 350.955C302.189 338.004 310.134 315.067 320.538 306.376C323.658 303.935 327.428 302.65 331.202 301.612C345.283 297.981 359.419 294.548 373.527 291.018C375.92 290.428 375.49 286.345 372.931 286.607C369.536 286.955 366.129 287.27 362.722 287.597Z" fill="white"/>
<path fill-rule="evenodd" clip-rule="evenodd" d="M49.2494 285.169C48.2959 285.05 47.361 284.711 46.4324 284.442C45.0145 284.028 43.6247 283.544 42.2567 282.993C39.4334 281.861 36.6943 280.523 34.1265 278.886C29.9788 276.239 26.3142 272.846 23.5501 268.762L23.3604 268.477C21.7824 266.072 18.8716 260.731 22.1354 258.905C20.0319 257.147 18.0437 253.988 18.1559 251.55C18.3148 248.101 22.5404 248.148 24.7248 249.61C26.1552 250.568 27.2272 251.908 28.3022 253.228C29.4926 254.693 30.764 256.09 32.0853 257.434C32.4359 257.789 32.79 258.138 33.1502 258.48L33.5125 258.821C33.4564 258.687 33.4066 258.55 33.3629 258.409C32.6338 256.137 33.5032 253.178 35.7749 252.136C37.1651 251.498 38.6089 251.888 39.956 252.429L40.1625 252.513C41.9761 253.265 43.8116 253.929 45.7 254.462C53.397 256.636 61.4305 256.997 69.3176 258.082C72.3559 258.503 75.4503 259.033 78.473 259.813C79.6259 254.914 82.4523 250.219 85.5187 246.355C100.202 227.874 124.418 221.766 146.571 217.813C148.59 217.454 150.264 220.129 151.439 219.496C153.667 218.299 155.627 216.603 157.347 214.76C161.015 210.828 163.617 206.204 166.674 201.823C168.185 199.659 171.663 201.595 170.261 203.918L169.574 205.054C166.745 209.704 163.613 214.496 159.557 218.102C157.4 220.017 155.007 221.529 152.271 222.474C150.199 223.188 147.291 223.79 145.023 223.097L144.75 222.7C144.84 222.833 144.931 222.965 145.023 223.097C150.943 231.681 158.372 238.947 166.2 245.803C174.101 252.72 182.625 258.914 191.2 264.971L191.915 265.475C205.885 255.279 217.686 241.981 225.966 226.786C224.23 226.577 222.513 225.464 221.03 224.635C219.244 223.631 217.565 222.433 216.256 220.837C213.404 217.36 213.775 212.88 213.261 208.661C213.23 208.399 213.576 208.333 213.735 208.464C215.28 209.749 215.823 211.854 216.468 213.672C217.178 215.67 217.982 217.317 219.612 218.723C221.129 220.033 222.98 220.996 224.779 221.853C225.706 222.293 230.309 223.424 230.833 224.36C238.786 222.493 246.533 225.72 252.425 231.164C258.119 236.424 262.298 243.262 265.987 250.013C269.923 257.215 273.148 264.723 275.928 272.441C278.745 280.274 280.904 288.278 282.092 296.522C283.094 303.472 283.708 310.532 284.106 317.56L284.155 318.439C290.038 309.2 296.068 300.058 302.222 290.997C300.823 287.258 302.372 283.441 304.992 280.554C307.897 277.358 311.914 275.874 315.756 274.147L316.261 273.918C318.113 273.073 319.959 272.142 321.558 270.876C323.098 269.653 324.229 267.97 325.849 266.844C328.205 265.204 332.48 265.553 332.59 269.136C332.646 271.104 331.801 273.261 331.028 275.029C330.153 277.028 328.972 278.839 327.569 280.504C327.505 280.582 327.434 280.643 327.362 280.692L327.308 280.726C329.246 281.047 331.2 281.306 333.191 281.396C337.208 281.58 341.268 281.284 345.201 280.436C349.227 279.569 353.128 278.16 356.749 276.195C359.844 274.518 362.711 272.347 366.226 271.836C366.55 271.786 366.877 271.755 367.214 271.736C367.775 271.705 368.335 272.366 368.114 272.921C367.993 273.227 367.865 273.529 367.725 273.835C366.509 276.513 364.645 279.111 362.32 281.083L362.14 281.234C362.96 280.95 363.767 280.632 364.562 280.274C369.233 278.169 373.471 274.988 378.479 273.71C378.716 273.648 378.956 273.592 379.195 273.539C380.744 273.205 381.561 274.889 380.651 276.042C380.504 276.229 380.358 276.413 380.205 276.597C377.971 279.372 375.506 281.948 372.789 284.261C371.857 285.053 370.897 285.82 369.919 286.554C369.506 286.864 369.092 287.168 368.673 287.467L368.466 287.613C368.956 287.268 369.439 286.915 369.918 286.554C372.985 285.624 376.008 284.523 378.965 283.305C380.14 282.821 381.053 284.012 381.177 284.991C381.595 288.272 377.955 290.644 375.587 292.222C373.212 293.806 370.598 295.01 367.921 295.976C362.774 297.837 357.369 298.682 351.971 299.44L349.35 299.805C338.974 301.257 328.137 302.992 320.692 311.071C316.519 315.598 313.696 321.223 311.113 326.758C308.532 332.286 306.267 337.961 304.117 343.667C301.889 349.573 299.947 355.587 297.884 361.552C295.99 367.029 293.727 372.436 291.485 377.788L291.132 378.633C286.373 390.008 280.689 400.721 272.768 410.219C271.462 411.787 269.353 409.561 270.559 408.008C278.844 397.32 284.609 384.707 289.368 372.126C291.534 366.401 293.347 360.539 295.429 354.783L296.668 351.363C298.321 346.805 299.99 342.253 301.73 337.73C303.933 332.008 306.354 326.355 309.125 320.886L309.418 320.31C312.131 315.034 315.353 309.834 319.788 305.842C327.771 298.652 338.393 296.927 348.664 295.561L351.895 295.135C356.237 294.557 360.592 293.92 364.814 292.758C367.251 292.091 369.632 291.237 371.869 290.058C372.76 289.59 373.63 289.076 374.471 288.515C372.072 289.219 369.638 289.796 367.161 290.248C365.948 290.47 364.749 290.635 363.552 290.75C360.47 291.056 357.413 291.043 354.257 290.878C353.989 290.862 353.901 290.442 354.188 290.389C356.386 289.997 358.587 289.508 360.779 288.978L361.436 288.817C361.449 288.452 361.592 288.065 361.891 287.698C362.982 286.37 365.054 285.69 366.491 284.751C367.996 283.769 369.454 282.709 370.844 281.574C372.115 280.536 373.337 279.438 374.512 278.291L374.864 277.944C374.747 278.06 374.63 278.176 374.512 278.29C371.34 279.756 368.332 281.636 365.02 282.796C362.387 283.722 359.626 284.346 356.84 284.567L356.667 284.581L356.494 284.592C353.587 284.801 350.66 284.717 347.797 285.347C347.476 285.418 347.376 284.988 347.663 284.867C350.165 283.825 352.767 283.423 355.397 282.936C355.453 282.731 355.596 282.547 355.846 282.428L356.519 282.107C358.523 281.144 360.39 280.172 362.056 278.608C363.527 277.227 364.752 275.612 365.671 273.822C361.991 274.63 358.759 277.421 355.413 278.989C351.767 280.701 347.909 281.929 343.945 282.628L343.493 282.705C336.086 283.942 327.178 283.784 320.542 279.931C320.33 279.806 320.483 279.522 320.701 279.556C322.583 279.865 324.447 280.23 326.31 280.554C325.946 280.221 325.784 279.622 326.204 279.142C327.878 277.223 329.202 275.029 330.048 272.629L330.21 272.159C330.599 271.046 331.258 269.317 330.586 268.313C329.944 267.355 328.433 267.486 327.529 267.892C325.65 268.74 324.4 270.857 322.817 272.135C321.091 273.532 319.128 274.567 317.118 275.494L316.693 275.686C313.217 277.251 309.502 278.568 306.769 281.331C305.298 282.815 304.033 284.67 303.609 286.75C303.416 287.704 303.416 288.686 303.671 289.631C303.874 290.37 304.298 290.825 304.055 291.577C303.737 292.546 302.612 293.706 302.032 294.57C301.359 295.568 300.689 296.569 300.019 297.569C298.682 299.571 297.352 301.579 296.021 303.584C293.36 307.6 290.727 311.635 288.115 315.682C287.265 317 286.419 318.32 285.574 319.64L284.31 321.622L283.642 322.667L282.503 324.459C282.543 324.625 282.54 324.8 282.487 324.952C282.293 325.506 281.929 325.884 281.477 326.159L281.397 326.206C274.747 336.723 268.203 347.309 261.593 357.851C261.241 361.069 260.911 364.29 260.624 367.511C259.973 374.801 259.527 382.11 259.384 389.428C259.315 392.97 259.599 396.534 259.752 400.073C259.826 401.762 259.929 403.449 260.062 405.135L260.161 406.331C260.292 407.974 260.367 409.604 259.776 411.17C259.253 412.545 257.657 412.854 256.713 411.806C244.395 411.31 232.067 410.933 219.74 410.699C197.674 410.275 175.599 410.341 153.53 410.768C142.445 410.983 131.358 411.285 120.277 411.66C114.817 411.84 109.355 412.096 103.892 412.171C100.949 412.211 96.3166 411.139 96.0791 407.826L96.0733 407.725C95.7056 407.824 95.3254 407.905 94.9359 407.965C94.7625 407.991 94.5959 407.984 94.4421 407.948L94.3656 407.927C89.9784 409.265 84.4288 407.356 80.26 406.244L79.9159 406.153C75.9365 405.115 72.7393 403.63 70.131 400.332C65.5658 394.554 64.0077 386.796 63.1975 379.646C62.4371 372.917 62.3935 366.064 63.319 359.348C62.7736 353.876 63.3065 348.229 63.9266 342.788C64.232 340.097 64.5904 337.409 65.0204 334.734C65.2604 333.24 65.5751 331.762 65.8961 330.287C66.0242 329.698 66.1309 329.064 66.2934 328.45L66.3666 328.189C65.868 328.254 65.3227 328.145 64.796 327.855C63.5433 327.166 63.1787 325.772 63.1569 324.438C63.0883 320.415 63.5682 316.278 63.992 312.281C64.419 308.29 65.0048 304.283 65.7714 300.341L65.9698 299.325C66.5506 296.377 67.2153 293.333 68.3859 290.563C63.989 289.815 59.6045 289.02 55.3385 287.666C53.2568 287.002 51.2064 286.176 49.2494 285.169ZM278.745 327.029C278.676 327.045 278.611 327.063 278.545 327.082C276.788 327.575 275.012 327.993 273.242 328.442C270.181 329.212 267.19 330.072 264.345 331.41C263.749 338.937 262.865 346.44 262.025 353.946L261.858 355.447C263.148 353.052 264.469 350.676 265.85 348.329C270.054 341.173 274.354 334.073 278.745 327.029ZM67.4386 327.774C67.4479 328.669 67.261 329.598 67.1613 330.459C66.9992 331.856 66.8683 333.259 66.7032 334.656C66.3666 337.462 66.0799 340.271 65.8711 343.09C65.7371 344.889 65.6499 346.695 65.572 348.5C67.3389 341.893 69.6792 335.429 71.9041 328.956C71.5322 328.917 71.152 328.826 70.7599 328.721L70.0996 328.544C69.7103 328.443 68.4475 328.132 67.4386 327.774ZM284.31 321.622L284.323 321.919C284.37 322.969 283.74 323.562 282.977 323.715C283.419 323.016 283.865 322.318 284.31 321.622ZM82.1314 271.821C83.9918 271.986 85.8148 272.382 87.5536 273.068L87.7214 273.133C89.0075 273.63 90.8879 274.254 91.3086 275.628C91.427 276.018 91.1092 276.338 90.7446 276.37C89.3485 276.482 87.7032 274.985 86.41 274.48C84.9703 273.919 83.462 273.501 81.9351 273.28C78.5042 272.778 74.9268 273.158 71.6984 274.409C71.5083 274.483 71.3899 274.181 71.5613 274.09C74.8146 272.319 78.4325 271.493 82.1314 271.821ZM42.7085 280.738C42.4934 280.548 42.2784 280.348 42.0665 280.149C40.3957 278.568 38.9162 276.722 37.8208 274.694L37.5325 274.145C36.6403 272.416 35.5447 269.954 37.6415 268.709C38.8942 267.964 40.4024 268.15 41.7985 268.603C41.8888 268.631 41.9792 268.662 42.0696 268.693C42.6928 268.912 43.2942 269.173 43.8302 269.423C46.158 270.492 48.2116 272.048 50.3618 273.42C52.6916 274.908 54.992 275.859 57.6809 276.415L57.9341 276.466C60.4582 276.966 63.1943 277.286 64.9549 279.363C65.3974 279.887 64.9923 280.869 64.2288 280.61C59.3613 278.967 54.2103 278.605 49.7416 275.908C47.8906 274.792 46.1393 273.511 44.2478 272.453C43.2444 271.892 42.2084 271.401 41.1043 271.064L40.5012 270.886C40.1479 270.783 39.7262 270.681 39.4426 270.782C38.9028 270.969 39.0751 271.258 39.2421 271.763L39.2588 271.814C40.5707 275.874 44.3101 279.273 47.7753 281.521C48.57 282.038 49.3833 282.513 50.2122 282.952C55.8231 285.945 62.1012 287.337 68.2673 288.991C68.2673 288.991 71.8325 289.986 73.0135 290.361C74.3285 290.251 75.8274 290.716 76.8184 291.271C77.7813 291.81 78.5572 292.534 79.1431 293.385C79.1431 293.385 79.7071 293.856 79.8099 294.586C80.106 295.262 80.3054 295.992 80.4051 296.753C80.4612 297.199 80.349 297.541 80.1371 297.784C80.7745 307.573 78.1321 317.306 75.1531 326.609L74.8579 327.526L74.6682 328.108C71.4554 337.97 67.7689 347.761 66.1236 358.044C65.0236 364.913 65.0578 372.023 65.8649 378.923L65.9218 379.399C66.7171 385.923 68.2471 393.242 72.3934 398.492C74.5082 401.172 77.0138 402.363 80.2172 403.225L80.3927 403.272C83.2907 404.036 86.2823 405.118 89.2707 405.445C92.0441 405.748 94.3688 404.716 96.8649 403.749L96.8679 403.746C102.125 399.091 104.512 392.312 106.276 385.471C110.847 367.767 110.28 349.389 107.687 331.426C106.335 322.04 104.496 312.736 102.664 303.435C101.748 298.786 100.76 294.146 99.9405 289.481L99.4538 286.736C99.1852 285.211 98.9254 283.684 98.7034 282.151C98.4042 280.09 98.3139 278.063 98.211 275.989C95.6932 271.814 92.0378 268.375 87.8029 265.909C84.7709 264.141 81.5612 262.915 78.2487 262.027C68.7785 259.473 58.4546 259.654 48.9252 257.689C45.7239 257.03 42.6852 256.052 39.648 254.879L39.2339 254.718C37.8409 254.175 36.4199 253.873 35.7281 255.516C35.2358 256.685 35.5287 257.901 36.2672 258.884C38.0777 261.291 41.7175 262.407 44.4566 263.274C46.1051 263.798 47.7878 264.212 49.4893 264.521C51.1907 264.83 52.8984 264.908 54.5313 265.51C55.1607 265.74 55.2854 266.741 54.5313 266.919C52.4621 267.402 50.3805 266.987 48.3238 266.585C46.0646 266.139 43.8396 265.506 41.677 264.705C41.2781 264.558 40.8652 264.403 40.4448 264.238L40.1282 264.113C40.4554 264.35 40.7826 264.584 41.1129 264.818C41.2002 264.88 41.1472 265.045 41.0319 265.004C35.9469 263.106 31.3201 259.681 27.7358 255.629L27.5575 255.426C26.2954 253.979 23.4192 249.601 20.9948 250.82C18.7182 251.964 22.5989 256.372 24.0738 258.174L24.245 258.385C25.9215 258.429 27.5451 259.473 28.9037 260.315C31.2627 261.777 33.7276 263.037 36.2393 264.215C41.2314 266.563 46.5321 268.219 51.4712 270.685C51.5367 270.72 51.4868 270.804 51.4245 270.795C48.2802 270.292 45.1703 269.491 42.132 268.497L41.9964 268.454L41.8609 268.409C39.9631 267.786 38.0903 267.081 36.2486 266.329C34.2013 265.494 32.2007 264.556 30.2593 263.492C28.5017 262.532 26.551 260.801 24.513 260.546C24.2949 260.518 24.1017 260.514 23.9334 260.53C21.5932 260.726 23.5283 264.605 24.1827 265.765C25.2516 267.67 26.5417 269.429 28.0219 271.035C31.0228 274.296 34.6594 276.881 38.5951 278.892C39.9382 279.578 41.3125 280.183 42.7085 280.738Z" fill="black"/>
<path fill-rule="evenodd" clip-rule="evenodd" d="M246.361 144.426C246.237 137.441 246.1 130.316 245.062 123.399C244.048 116.637 241.257 110.524 236.46 105.613C226.272 95.1826 211.505 92.6348 197.759 90.3L174.257 86.3079C167.086 85.0903 159.437 83.144 152.193 84.8708C148.623 85.7217 145.592 87.6986 142.821 90.0374C140.151 92.2918 137.279 94.7127 135.47 97.7456C133.657 100.783 133.034 104.333 132.444 107.769C131.78 111.642 131.263 115.545 130.897 119.457C130.161 127.296 130.061 135.194 130.594 143.049C130.853 146.859 131.264 150.658 131.788 154.44C132.049 156.316 132.343 158.187 132.675 160.051C132.773 160.601 132.847 161.209 132.948 161.824C132.206 163.934 131.785 166.119 131.819 168.294C131.919 174.702 137.325 178.737 142.774 180.903C145.934 182.159 149.238 183.012 152.342 184.415C155.608 185.891 157.831 188.284 160.064 191.013C164.323 196.218 169.129 200.897 174.617 204.8C186.253 213.076 200.99 216.99 215.107 214.019C218.495 213.306 221.912 212.199 224.957 210.531C228.171 208.77 230.589 206.219 232.619 203.202C236.388 197.602 239.091 191.295 241.135 184.878C243.221 178.332 244.702 171.774 245.509 164.948C246.314 158.145 246.483 151.272 246.361 144.426Z" fill="white"/>
<path fill-rule="evenodd" clip-rule="evenodd" d="M177.121 62.6015C185.664 61.2526 197.454 65.6366 201.708 74.476C222.019 68.9796 247.636 68.7995 264.376 87.0971C281.844 108.802 263.09 138.042 248.542 144.494C248.542 158.755 250.266 170.508 245.25 190.943C240.233 211.378 216.402 221.507 198.373 215.712L189.907 211.442C188.836 209.469 191.943 207.839 193.043 209.307C205.898 214.492 222.924 214.548 233.178 204.122C250.681 183.389 243.664 141.603 234.52 114.573C208.483 111.29 183.807 120.35 165.823 142.848L167.039 151.252C167.246 152.684 167.482 154.115 167.661 155.552C167.776 156.472 167.789 157.388 167.234 158.133C165.399 160.593 162.307 156.896 159.763 155.426C159.012 155.305 158.259 155.258 157.521 155.317C145.298 157.125 148.947 183.959 162.382 179.188C163.51 178.381 164.48 178.627 164.918 179.798C168.12 183.165 169.39 190.256 174.71 196.04C176.587 198.209 177.242 200.704 179.354 202.445C180.594 203.884 181.916 205.037 181.916 207.172C178.965 210.07 170.546 193.905 167.234 189.177C159.906 192.499 150.544 191.755 142.95 190.943C106.492 181.857 109.053 139.919 137.871 109.469C144.052 104.246 150.872 99.9843 157.962 96.7051C158.929 96.2573 158.507 94.4331 157.525 94.8871C152.834 97.0573 148.261 99.6402 143.902 102.63L143.896 100.842C143.889 97.8321 143.931 94.6981 144.386 91.9476C144.614 90.0417 144.997 88.006 145.586 86.4747C146.315 81.7797 157.733 65.6642 177.121 62.6015ZM155.409 163.96C156.028 163.305 157.184 164.086 157.735 164.067C159.145 164.282 160.484 164.945 161.529 165.764C162.218 166.194 162.702 166.598 163.106 166.97L163.117 166.967C163.114 166.967 163.11 166.97 163.106 166.971L163.145 166.999C163.733 167.465 165.885 170.087 164.525 169.382C164.424 169.235 164.32 169.094 164.215 168.955C164.204 168.974 164.189 168.993 164.17 169.011L164.246 169.137C165.402 171.074 163.406 169.034 163.099 168.492C163.085 168.505 163.068 168.513 163.052 168.523L163.452 169.065C163.508 169.142 163.552 169.204 163.588 169.256L163.673 169.346C165.009 170.81 165.051 172.127 163.498 169.963C163.559 170.065 163.608 170.173 163.615 170.269L163.707 170.4C164.927 172.15 163.935 171.528 163.329 170.781L163.278 170.716L163.289 170.734C163.852 171.701 162.734 171.022 162.536 170.505L162.528 170.482C162.313 170.286 162.18 170.066 162.135 170.011L162.126 170.002C161.078 168.805 159.558 167.793 158.268 167.333C158.081 167.293 157.891 167.261 157.7 167.239C156.924 167.046 156.139 166.913 155.346 166.842C155.249 166.829 155.151 166.75 155.077 166.647C153.878 166.602 154.248 166.055 154.746 165.953L154.754 165.951L154.656 165.942C153.886 165.858 153.361 165.551 154.139 165.362L154.237 165.34C154.225 165.319 154.215 165.298 154.204 165.277C153.538 165.196 153.973 164.474 154.343 164.649C154.187 164.082 154.898 164.365 154.987 164.281C155.055 164.197 155.139 164.123 155.187 164.119C155.402 163.951 155.298 163.966 155.409 163.96ZM161.242 153.413L161.086 153.515C160.96 153.597 160.83 153.651 160.699 153.683C160.883 153.771 161.065 153.865 161.245 153.966C161.242 153.843 161.24 153.72 161.24 153.597L161.242 153.413Z" fill="black"/>
<path fill-rule="evenodd" clip-rule="evenodd" d="M211.149 189.243C209.054 188.388 207.185 186.962 205.818 185.14C205.343 184.507 205.22 183.838 205.32 183.226C205.432 182.538 205.839 181.915 206.393 181.496C206.95 181.077 207.646 180.87 208.319 180.975C208.903 181.067 209.485 181.387 209.946 182.052L210.042 182.185C210.855 183.284 211.913 184.187 213.119 184.768C214.282 185.329 215.582 185.59 216.928 185.438C219.491 185.149 221.257 183.762 223.134 181.879C223.367 181.641 223.6 181.396 223.834 181.147C223.982 180.921 224.187 180.775 224.414 180.699C224.667 180.615 224.953 180.62 225.215 180.711C225.468 180.799 225.694 180.966 225.845 181.189C225.989 181.4 226.071 181.662 226.044 181.962C225.872 183.914 224.853 185.655 223.404 187.023C221.795 188.542 219.663 189.593 217.655 189.961C215.443 190.367 213.19 190.077 211.149 189.243ZM218.699 159.136C221.052 160.567 224.637 163.904 222.106 167.452C219.126 170.581 214.836 166.994 212.722 165.371C210.761 164.114 208.559 167.348 210.378 168.816C225.654 180.133 231.854 159.51 219.889 157.453C218.571 157.226 218.082 158.693 218.699 159.136ZM191.322 145.971C191.582 142.742 196.498 142.008 196.986 145.204C197.424 148.066 196.909 150.696 195.62 153.273C194.389 155.735 191.295 154.586 191.061 152.344C190.747 149.339 191.161 147.98 191.322 145.971ZM228.737 144.541C229.422 143.643 230.411 143.03 231.597 143.377C235.3 144.46 234.209 149.721 232.908 152.282C232.201 153.672 229.917 154.025 228.884 152.8C227.202 150.804 226.396 146.816 228.535 144.849C228.593 144.747 228.658 144.645 228.737 144.541ZM195.568 131.841L196.153 131.739C197.963 131.425 200.213 131.124 201.494 132.58C202.173 133.352 202.406 134.787 201.494 135.526C199.888 136.827 198.113 136.323 196.189 136.433C194.604 136.524 193.08 136.786 191.553 137.223C188.202 138.181 185.472 139.931 182.61 141.851C182.235 142.103 181.852 141.623 182.031 141.271C183.683 138.034 186.884 135.374 190.091 133.753C191.802 132.888 193.675 132.17 195.568 131.841ZM225.361 130.391L225.808 130.483C230.681 131.502 237.012 133.538 239.32 138.327C239.408 139.004 239.315 139.149 239.239 139.244L239.214 139.275C239.152 139.356 239.102 139.468 238.809 139.56C238.727 139.541 238.645 139.52 238.562 139.498C237.504 139.221 236.667 138.839 235.857 138.443L234.979 138.01C233.96 137.51 232.932 137.028 231.842 136.672C229.517 135.913 227.125 135.378 224.696 135.093C224.169 135.031 223.662 134.853 223.263 134.549C222.883 134.259 222.593 133.859 222.461 133.327C222.289 132.638 222.339 132.117 222.708 131.495C222.986 131.028 223.383 130.705 223.839 130.519C224.305 130.33 224.834 130.285 225.361 130.391Z" fill="black"/>
<path fill-rule="evenodd" clip-rule="evenodd" d="M217.576 173.204C214.11 171.642 211.279 172.429 205.532 173.842C198.97 176.482 198.502 176.015 195.698 179.288C193.858 184.097 198.035 183.654 198.502 183.654C202.242 183.186 204.058 181.604 207.869 181.014C210.962 180.531 214.319 180.632 217.217 178.987C219.333 180.152 224.211 179.455 227.795 179.767C231.69 180.068 231.449 180.78 234.495 180.38C236.208 179.912 236.554 178.654 232.487 175.543C228.035 172.137 221.473 171.805 217.576 173.204Z" fill="black"/>
<path fill-rule="evenodd" clip-rule="evenodd" d="M221.609 204.783C218.578 205.523 218.989 205.192 218.649 202.843C218.384 201.008 220.106 198.741 216.312 198.945C212.518 199.15 213.938 200.533 214.131 202.999C214.255 204.598 215.56 206.495 210.858 207.52C207.861 207.51 206.999 207.377 203.847 206.795C200.575 206.795 195.461 204.53 194.187 210.326C193.728 212.412 196.596 212.715 203.847 213.276C211.201 214.767 227.436 211.122 232.672 205.493C234.386 203.651 234.614 204.145 234.853 202.843C235.355 200.107 230.914 201.255 227.53 202.219C225.14 203.497 223.559 204.307 221.609 204.783Z" fill="black"/>
</svg>
