<svg width="236" height="52" viewBox="0 0 236 52" fill="none" xmlns="http://www.w3.org/2000/svg">
<path d="M24.0703 24.0625C25.6663 24.0623 27.2464 24.3797 28.7185 24.9961C30.1907 25.6125 31.5255 26.5156 32.6452 27.6529C33.7649 28.7903 34.6472 30.139 35.2406 31.6206C35.834 33.1022 36.1266 34.687 36.1015 36.2828C36.0975 36.547 36.1545 36.8086 36.2679 37.0472C36.3814 37.2859 36.5484 37.4951 36.7559 37.6587C36.9634 37.8223 37.2059 37.9359 37.4644 37.9906C37.7229 38.0453 37.9906 38.0396 38.2465 37.9741C39.0088 37.7788 39.8055 37.7602 40.576 37.9197C41.3465 38.0792 42.0704 38.4125 42.6924 38.8943C43.3145 39.3761 43.8183 39.9936 44.1654 40.6997C44.5125 41.4059 44.6937 42.1819 44.6953 42.9688C44.6953 44.3363 44.1521 45.6478 43.1851 46.6148C42.2181 47.5818 40.9066 48.125 39.539 48.125H10.3203C9.40627 48.1198 8.50245 47.9325 7.66171 47.5738C6.82096 47.2152 6.06017 46.6925 5.42383 46.0364C4.78749 45.3802 4.28837 44.6038 3.95569 43.7524C3.623 42.9011 3.46342 41.992 3.48627 41.0782C3.50913 40.1644 3.71396 39.2644 4.0888 38.4308C4.46363 37.5971 5.00093 36.8466 5.66928 36.2231C6.33763 35.5996 7.1236 35.1156 7.98123 34.7994C8.83885 34.4833 9.75091 34.3413 10.664 34.3819C11.0601 34.4023 11.4511 34.2851 11.7706 34.0501C12.0901 33.8152 12.3185 33.477 12.4172 33.0928C13.0839 30.5089 14.5904 28.2198 16.6997 26.5852C18.8091 24.9506 21.4017 24.0632 24.0703 24.0625ZM39.4462 34.375C39.0595 30.8899 37.5001 27.6395 35.0237 25.1569C32.5474 22.6742 29.301 21.1066 25.8168 20.7111C22.3327 20.3155 18.8175 21.1155 15.8476 22.9798C12.8778 24.8441 10.6294 27.6621 9.47123 30.9719C6.81728 31.1891 4.35022 32.4245 2.58648 34.4195C0.822745 36.4144 -0.100945 39.0143 0.00876453 41.6749C0.118474 44.3354 1.25308 46.8505 3.17508 48.6934C5.09708 50.5364 7.65747 51.5645 10.3203 51.5625H39.539C41.8183 51.5625 44.0041 50.6571 45.6157 49.0454C47.2274 47.4338 48.1328 45.248 48.1328 42.9688C48.1328 40.6895 47.2274 38.5037 45.6157 36.8921C44.0041 35.2804 41.8183 34.375 39.539 34.375H39.4462Z" fill="black"/>
<path d="M36.1015 1.71875C36.1015 1.26291 35.9205 0.825738 35.5981 0.50341C35.2758 0.181082 34.8386 0 34.3828 0C33.927 0 33.4898 0.181082 33.1675 0.50341C32.8451 0.825738 32.664 1.26291 32.664 1.71875V5.15625C32.664 5.61209 32.8451 6.04926 33.1675 6.37159C33.4898 6.69392 33.927 6.875 34.3828 6.875C34.8386 6.875 35.2758 6.69392 35.5981 6.37159C35.9205 6.04926 36.1015 5.61209 36.1015 5.15625V1.71875ZM48.9681 8.47C49.1323 8.31145 49.2632 8.1218 49.3533 7.9121C49.4434 7.70241 49.4908 7.47687 49.4928 7.24866C49.4947 7.02044 49.4513 6.79412 49.3648 6.58289C49.2784 6.37166 49.1508 6.17976 48.9894 6.01838C48.828 5.85701 48.6361 5.72938 48.4249 5.64296C48.2137 5.55654 47.9874 5.51306 47.7591 5.51504C47.5309 5.51702 47.3054 5.56444 47.0957 5.65451C46.886 5.74459 46.6963 5.87553 46.5378 6.03969L44.104 8.47C43.7813 8.79274 43.6 9.23046 43.6 9.68688C43.6 10.1433 43.7813 10.581 44.104 10.9038C44.4268 11.2265 44.8645 11.4078 45.3209 11.4078C45.7773 11.4078 46.2151 11.2265 46.5378 10.9038L48.9681 8.47ZM22.2278 6.03969C21.9036 5.7266 21.4695 5.55336 21.0188 5.55728C20.5682 5.5612 20.1371 5.74195 19.8184 6.06062C19.4998 6.37929 19.319 6.81038 19.3151 7.26103C19.3112 7.71168 19.4844 8.14584 19.7975 8.47L22.2278 10.9038C22.3876 11.0636 22.5773 11.1903 22.7861 11.2768C22.9949 11.3633 23.2187 11.4078 23.4447 11.4078C23.6707 11.4078 23.8944 11.3633 24.1032 11.2768C24.312 11.1903 24.5017 11.0636 24.6615 10.9038C24.8213 10.7439 24.9481 10.5542 25.0346 10.3454C25.1211 10.1367 25.1656 9.91287 25.1656 9.68688C25.1656 9.46088 25.1211 9.2371 25.0346 9.02831C24.9481 8.81952 24.8213 8.6298 24.6615 8.47L22.2278 6.03969ZM28.1884 17.6378C28.6157 16.7524 29.2278 15.969 29.9835 15.3403C30.7393 14.7116 31.6211 14.2524 32.5694 13.9934C33.5178 13.7345 34.5106 13.682 35.481 13.8394C36.4514 13.9968 37.3767 14.3604 38.1946 14.9059C39.0125 15.4513 39.7039 16.1658 40.2221 17.0011C40.7404 17.8364 41.0735 18.7732 41.199 19.7482C41.3245 20.7232 41.2394 21.7138 40.9495 22.6532C40.6595 23.5925 40.1716 24.4587 39.5184 25.1934C40.2025 26.1594 40.7972 27.1941 41.2922 28.2803C42.4571 27.2278 43.3664 25.9231 43.9506 24.4658C44.5348 23.0085 44.7785 21.4371 44.6632 19.8713C44.5479 18.3055 44.0767 16.7867 43.2853 15.4307C42.4939 14.0746 41.4034 12.9172 40.0969 12.0466C38.7903 11.1761 37.3022 10.6153 35.7461 10.4071C34.1899 10.1989 32.6067 10.3488 31.1173 10.8453C29.6278 11.3418 28.2714 12.1719 27.1514 13.2722C26.0315 14.3725 25.1775 15.714 24.6547 17.1944C25.8647 17.2322 27.0472 17.3834 28.1884 17.6378ZM43.6022 31.6422C45.6647 32.3813 47.4694 33.6703 48.834 35.3272C49.0212 35.1756 49.1744 34.9865 49.2837 34.7719C49.3931 34.5573 49.4561 34.3222 49.4687 34.0817C49.4814 33.8412 49.4434 33.6008 49.3571 33.3759C49.2709 33.1511 49.1383 32.9469 48.9681 32.7766L46.5378 30.3463C46.2928 30.0998 45.9788 29.9334 45.6372 29.869C45.2957 29.8046 44.9427 29.8453 44.6247 29.9856C44.3068 30.126 44.0389 30.3594 43.8563 30.6552C43.6738 30.9509 43.5851 31.2951 43.6022 31.6422ZM49.8515 18.9063C49.3957 18.9063 48.9585 19.0873 48.6362 19.4097C48.3139 19.732 48.1328 20.1692 48.1328 20.625C48.1328 21.0808 48.3139 21.518 48.6362 21.8403C48.9585 22.1627 49.3957 22.3438 49.8515 22.3438H53.289C53.7449 22.3438 54.1821 22.1627 54.5044 21.8403C54.8267 21.518 55.0078 21.0808 55.0078 20.625C55.0078 20.1692 54.8267 19.732 54.5044 19.4097C54.1821 19.0873 53.7449 18.9063 53.289 18.9063H49.8515Z" fill="#FED85D"/>
<path d="M70.7058 3.0645C71.0725 3.0645 71.3805 3.22583 71.6298 3.5485C71.8791 3.87117 72.2018 4.5385 72.5978 5.5505C73.5218 7.94117 74.4238 11.6885 75.3038 16.7925C75.3185 16.8512 75.3258 16.9392 75.3258 17.0565C75.3258 17.1592 75.2525 17.2765 75.1058 17.4085C74.9738 17.5258 74.7758 17.5845 74.5118 17.5845C74.2625 17.5845 74.0498 17.5258 73.8738 17.4085C73.6978 17.2765 73.5805 17.0712 73.5218 16.7925C73.4631 16.4992 73.3531 15.9345 73.1918 15.0985C72.8398 13.2358 72.6051 12.2678 72.4878 12.1945C72.3118 12.0918 71.7251 11.9818 70.7278 11.8645C69.7451 11.7472 69.0925 11.6885 68.7698 11.6885C68.4471 11.6885 68.2565 11.7178 68.1978 11.7765C67.9338 12.0112 67.5745 13.7932 67.1198 17.1225C67.0611 17.4012 66.7825 17.5405 66.2838 17.5405C65.7851 17.5405 65.5358 17.3278 65.5358 16.9025C65.5358 15.8465 65.9245 13.8298 66.7018 10.8525C67.4791 7.87517 68.1245 5.9025 68.6378 4.9345C69.2831 3.68783 69.9725 3.0645 70.7058 3.0645ZM70.6178 5.5065C70.3978 5.5065 70.0165 6.15917 69.4738 7.4645C68.9311 8.75517 68.6598 9.5545 68.6598 9.8625C68.6598 9.93583 68.6745 9.98717 68.7038 10.0165C68.8211 10.1338 69.2831 10.2365 70.0898 10.3245C70.8965 10.4125 71.4318 10.4565 71.6958 10.4565C71.9598 10.4565 72.1065 10.4418 72.1358 10.4125C72.1651 10.3685 72.1798 10.2512 72.1798 10.0605C72.1798 9.85517 71.9818 9.0485 71.5858 7.6405C71.1898 6.21783 70.8671 5.5065 70.6178 5.5065Z" fill="black"/>
<path d="M80.062 17.5405C79.5633 17.5405 79.1013 17.3718 78.676 17.0345C78.676 17.0345 78.5807 16.9538 78.39 16.7925V23.3925C78.302 23.6858 78.148 23.9278 77.928 24.1185C77.708 24.3238 77.4733 24.4265 77.224 24.4265C76.8427 24.4265 76.652 24.1698 76.652 23.6565V8.3225C76.74 7.94117 76.8427 7.66983 76.96 7.5085C77.092 7.34717 77.29 7.2665 77.554 7.2665C77.8326 7.2665 78.0087 7.3325 78.082 7.4645C78.17 7.58183 78.2727 7.91917 78.39 8.4765C78.4487 8.18317 78.6833 7.91183 79.094 7.6625C79.5047 7.41317 80.0547 7.2885 80.744 7.2885C82.24 7.2885 83.3033 7.83117 83.934 8.9165C84.5647 10.0018 84.88 11.2852 84.88 12.7665C84.88 14.2332 84.4473 15.3992 83.582 16.2645C82.7313 17.1152 81.558 17.5405 80.062 17.5405ZM78.39 10.9405V15.0325C78.478 15.0765 78.5807 15.1498 78.698 15.2525C79.1233 15.6338 79.5853 15.8245 80.084 15.8245C82.108 15.8245 83.12 14.7832 83.12 12.7005C83.12 10.9258 82.6653 9.80383 81.756 9.3345C81.3746 9.12917 80.9053 9.0265 80.348 9.0265C79.8053 9.09983 79.3433 9.34183 78.962 9.7525C78.5807 10.1485 78.39 10.5445 78.39 10.9405Z" fill="black"/>
<path d="M88.8341 14.3505L88.8561 16.6165C88.8561 16.8805 88.7315 17.1225 88.4821 17.3425C88.2475 17.5625 88.0128 17.6725 87.7781 17.6725C87.4408 17.6725 87.2281 17.4085 87.1401 16.8805C87.1255 16.7632 87.0668 15.6925 86.9641 13.6685C86.8615 11.6298 86.6635 10.0312 86.3701 8.8725C86.2381 8.31517 86.1721 7.98517 86.1721 7.8825C86.1721 7.3985 86.4655 7.1565 87.0521 7.1565C87.3015 7.1565 87.4995 7.25183 87.6461 7.4425C87.7928 7.63317 87.8808 7.83117 87.9101 8.0365C87.9541 8.22717 87.9908 8.49117 88.0201 8.8285C88.0495 9.16583 88.0715 9.3785 88.0861 9.4665C88.3941 8.73317 88.8561 8.18317 89.4721 7.8165C90.0881 7.44983 90.7628 7.2665 91.4961 7.2665C92.6988 7.2665 93.3001 7.5745 93.3001 8.1905C93.3001 8.4985 93.1901 8.74783 92.9701 8.9385C92.7648 9.1145 92.5228 9.2025 92.2441 9.2025C90.9975 9.2025 90.1175 9.5985 89.6041 10.3905C89.0908 11.1825 88.8341 12.5025 88.8341 14.3505Z" fill="black"/>
<path d="M95.913 3.6585C96.177 3.6585 96.4263 3.78317 96.661 4.0325C96.8957 4.28183 97.013 4.54583 97.013 4.8245C97.013 5.0885 96.881 5.35983 96.617 5.6385C96.3676 5.91717 96.1036 6.0565 95.825 6.0565C95.5463 6.0565 95.2896 5.93917 95.055 5.7045C94.835 5.46983 94.725 5.16917 94.725 4.8025C94.725 4.0985 95.1063 3.71717 95.869 3.6585C95.8836 3.6585 95.8983 3.6585 95.913 3.6585ZM96.837 15.1865L96.859 16.7265C96.859 17.0052 96.749 17.2398 96.529 17.4305C96.309 17.6065 96.0743 17.6945 95.825 17.6945C95.4583 17.6945 95.2676 17.5112 95.253 17.1445C95.0623 12.4658 94.967 9.87717 94.967 9.3785C94.967 8.87983 94.989 8.27117 95.033 7.5525C95.0623 7.2885 95.231 7.1565 95.539 7.1565C96.3163 7.1565 96.7563 7.47183 96.859 8.1025C96.903 8.42517 96.925 8.68183 96.925 8.8725L96.837 10.2585V15.1865Z" fill="black"/>
<path d="M99.3149 3.3285C99.3589 2.77117 99.4469 2.41183 99.5789 2.2505C99.7256 2.0745 99.9529 1.9865 100.261 1.9865C100.892 1.9865 101.207 2.24317 101.207 2.7565C101.207 3.1525 101.17 4.1865 101.097 5.8585C101.038 7.5305 101.009 9.0265 101.009 10.3465C101.009 11.6665 101.06 12.7298 101.163 13.5365C101.339 14.9445 101.588 15.6485 101.911 15.6485C102.234 15.6485 102.476 15.4212 102.637 14.9665C102.71 14.7905 102.828 14.6365 102.989 14.5045C103.15 14.3578 103.356 14.2845 103.605 14.2845C104.118 14.2845 104.375 14.7172 104.375 15.5825C104.375 16.0518 104.118 16.5212 103.605 16.9905C103.106 17.4452 102.608 17.6725 102.109 17.6725C101.61 17.6725 101.207 17.5918 100.899 17.4305C100.606 17.2545 100.364 16.9978 100.173 16.6605C99.9969 16.3232 99.8502 16.0005 99.7329 15.6925C99.6302 15.3698 99.5569 14.9812 99.5129 14.5265C99.4249 13.7932 99.3589 12.6198 99.3149 11.0065C99.2856 9.3785 99.2709 7.83117 99.2709 6.3645C99.2709 4.88317 99.2856 3.87117 99.3149 3.3285Z" fill="black"/>
<path d="M111.747 3.6585C112.011 3.6585 112.26 3.78317 112.495 4.0325C112.73 4.28183 112.847 4.54583 112.847 4.8245C112.847 5.0885 112.715 5.35983 112.451 5.6385C112.202 5.91717 111.938 6.0565 111.659 6.0565C111.38 6.0565 111.124 5.93917 110.889 5.7045C110.669 5.46983 110.559 5.16917 110.559 4.8025C110.559 4.0985 110.94 3.71717 111.703 3.6585C111.718 3.6585 111.732 3.6585 111.747 3.6585ZM112.671 15.1865L112.693 16.7265C112.693 17.0052 112.583 17.2398 112.363 17.4305C112.143 17.6065 111.908 17.6945 111.659 17.6945C111.292 17.6945 111.102 17.5112 111.087 17.1445C110.896 12.4658 110.801 9.87717 110.801 9.3785C110.801 8.87983 110.823 8.27117 110.867 7.5525C110.896 7.2885 111.065 7.1565 111.373 7.1565C112.15 7.1565 112.59 7.47183 112.693 8.1025C112.737 8.42517 112.759 8.68183 112.759 8.8725L112.671 10.2585V15.1865Z" fill="black"/>
<path d="M116.051 16.8805L115.809 7.9485C115.809 7.66983 115.904 7.4425 116.095 7.2665C116.286 7.0905 116.476 7.0025 116.667 7.0025C117.136 7.0025 117.408 7.2005 117.481 7.5965C117.54 7.9925 117.569 8.40317 117.569 8.8285C118.361 7.78717 119.351 7.2665 120.539 7.2665C122.358 7.2665 123.267 9.34183 123.267 13.4925C123.267 13.8738 123.267 14.4532 123.267 15.2305C123.267 15.9932 123.223 16.5505 123.135 16.9025C123.032 17.3425 122.717 17.5625 122.189 17.5625C121.837 17.5625 121.661 17.3278 121.661 16.8585L121.683 15.6265C121.683 13.9252 121.624 12.7665 121.507 12.1505C121.404 11.5198 121.302 11.0212 121.199 10.6545C120.95 9.8625 120.546 9.4665 119.989 9.4665C119.256 9.4665 118.742 9.7305 118.449 10.2585C118.126 10.8305 117.936 11.5052 117.877 12.2825C117.774 13.6465 117.723 15.0912 117.723 16.6165C117.723 16.9098 117.613 17.1445 117.393 17.3205C117.173 17.4965 116.909 17.5845 116.601 17.5845C116.234 17.5845 116.051 17.3498 116.051 16.8805Z" fill="black"/>
<path d="M135.886 17.1445C135.285 15.3698 134.662 13.7492 134.016 12.2825C133.371 10.8012 132.542 8.94583 131.53 6.7165C131.178 5.93917 130.958 5.4625 130.87 5.2865C130.782 5.09583 130.738 4.8905 130.738 4.6705C130.738 4.43583 130.848 4.2085 131.068 3.9885C131.303 3.7685 131.56 3.6585 131.838 3.6585C132.117 3.6585 132.352 3.79783 132.542 4.0765L133.598 6.4965C135.08 9.91383 136.136 12.3998 136.766 13.9545L137.162 12.4145C137.485 11.0652 137.822 9.7305 138.174 8.4105C139.172 4.8025 140.154 2.9985 141.122 2.9985C141.298 2.9985 141.445 3.04983 141.562 3.1525C141.694 3.25517 141.76 3.3945 141.76 3.5705C141.76 3.7465 141.665 4.00317 141.474 4.3405C141.298 4.67783 141.071 5.2865 140.792 6.1665C140.514 7.0465 140.338 7.56717 140.264 7.7285C140.206 7.87517 139.854 9.10717 139.208 11.4245C138.578 13.7418 138.035 15.5605 137.58 16.8805C137.507 17.1152 137.368 17.3132 137.162 17.4745C136.957 17.6212 136.722 17.6945 136.458 17.6945C136.209 17.6945 136.018 17.5112 135.886 17.1445Z" fill="black"/>
<path d="M148.724 7.2885C149.369 7.2885 149.692 7.8385 149.692 8.9385C149.692 9.05583 149.692 9.1805 149.692 9.3125L149.648 10.8525C149.633 11.3365 149.626 11.8132 149.626 12.2825L149.956 17.2545C149.956 17.6212 149.582 17.8045 148.834 17.8045C148.79 17.8045 148.68 17.8045 148.504 17.8045C148.343 17.8045 148.225 17.7385 148.152 17.6065C148.093 17.4745 148.086 17.3132 148.13 17.1225C148.189 16.9318 148.174 16.7192 148.086 16.4845C147.411 17.2032 146.517 17.5625 145.402 17.5625C143.334 17.5625 142.3 15.9638 142.3 12.7665C142.3 10.9918 142.63 9.64983 143.29 8.7405C143.965 7.83117 144.925 7.3765 146.172 7.3765C146.759 7.3765 147.345 7.47917 147.932 7.6845C148.123 7.4205 148.387 7.2885 148.724 7.2885ZM146.436 9.2905C145.6 9.2905 144.977 9.5325 144.566 10.0165C144.155 10.5005 143.95 11.3878 143.95 12.6785C143.95 14.8492 144.537 15.9345 145.71 15.9345C146.018 15.9345 146.355 15.7952 146.722 15.5165C147.103 15.2378 147.367 14.9225 147.514 14.5705C147.793 13.7785 147.932 12.9132 147.932 11.9745C147.932 11.0358 147.815 10.3538 147.58 9.9285C147.36 9.50317 146.979 9.2905 146.436 9.2905Z" fill="black"/>
<path d="M151.135 3.3285C151.179 2.77117 151.267 2.41183 151.399 2.2505C151.546 2.0745 151.773 1.9865 152.081 1.9865C152.712 1.9865 153.027 2.24317 153.027 2.7565C153.027 3.1525 152.991 4.1865 152.917 5.8585C152.859 7.5305 152.829 9.0265 152.829 10.3465C152.829 11.6665 152.881 12.7298 152.983 13.5365C153.159 14.9445 153.409 15.6485 153.731 15.6485C154.054 15.6485 154.296 15.4212 154.457 14.9665C154.531 14.7905 154.648 14.6365 154.809 14.5045C154.971 14.3578 155.176 14.2845 155.425 14.2845C155.939 14.2845 156.195 14.7172 156.195 15.5825C156.195 16.0518 155.939 16.5212 155.425 16.9905C154.927 17.4452 154.428 17.6725 153.929 17.6725C153.431 17.6725 153.027 17.5918 152.719 17.4305C152.426 17.2545 152.184 16.9978 151.993 16.6605C151.817 16.3232 151.671 16.0005 151.553 15.6925C151.451 15.3698 151.377 14.9812 151.333 14.5265C151.245 13.7932 151.179 12.6198 151.135 11.0065C151.106 9.3785 151.091 7.83117 151.091 6.3645C151.091 4.88317 151.106 3.87117 151.135 3.3285Z" fill="black"/>
<path d="M160.213 7.3765C160.99 7.3765 161.731 7.60383 162.435 8.0585C163.139 8.51317 163.491 9.07783 163.491 9.7525C163.491 10.4125 163.205 11.0578 162.633 11.6885C162.061 12.3045 161.298 12.6785 160.345 12.8105C159.934 12.8692 159.318 12.8985 158.497 12.8985C158.658 14.1452 158.974 14.9665 159.443 15.3625C159.59 15.5238 159.788 15.6045 160.037 15.6045C160.946 15.6045 161.709 15.3185 162.325 14.7465C162.941 14.1598 163.381 13.8665 163.645 13.8665C163.762 13.8665 163.938 13.9765 164.173 14.1965C164.408 14.4165 164.525 14.6218 164.525 14.8125C164.525 15.1938 164.063 15.7438 163.139 16.4625C162.728 16.7998 162.23 17.0858 161.643 17.3205C161.071 17.5405 160.536 17.6505 160.037 17.6505C158.761 17.6505 157.822 16.8292 157.221 15.1865C156.84 14.1745 156.649 13.0598 156.649 11.8425C156.649 10.6252 156.935 9.5765 157.507 8.6965C158.079 7.8165 158.981 7.3765 160.213 7.3765ZM160.323 8.8945C159.766 8.8945 159.289 9.20983 158.893 9.8405C158.746 10.0605 158.607 10.5592 158.475 11.3365C160.528 11.3365 161.555 10.8305 161.555 9.8185C161.555 9.2025 161.144 8.8945 160.323 8.8945Z" fill="black"/>
<path d="M166.647 16.8805L166.405 7.9485C166.405 7.66983 166.5 7.4425 166.691 7.2665C166.881 7.0905 167.072 7.0025 167.263 7.0025C167.732 7.0025 168.003 7.2005 168.077 7.5965C168.135 7.9925 168.165 8.40317 168.165 8.8285C168.957 7.78717 169.947 7.2665 171.135 7.2665C172.953 7.2665 173.863 9.34183 173.863 13.4925C173.863 13.8738 173.863 14.4532 173.863 15.2305C173.863 15.9932 173.819 16.5505 173.731 16.9025C173.628 17.3425 173.313 17.5625 172.785 17.5625C172.433 17.5625 172.257 17.3278 172.257 16.8585L172.279 15.6265C172.279 13.9252 172.22 12.7665 172.103 12.1505C172 11.5198 171.897 11.0212 171.795 10.6545C171.545 9.8625 171.142 9.4665 170.585 9.4665C169.851 9.4665 169.338 9.7305 169.045 10.2585C168.722 10.8305 168.531 11.5052 168.473 12.2825C168.37 13.6465 168.319 15.0912 168.319 16.6165C168.319 16.9098 168.209 17.1445 167.989 17.3205C167.769 17.4965 167.505 17.5845 167.197 17.5845C166.83 17.5845 166.647 17.3498 166.647 16.8805Z" fill="black"/>
<path d="M175.45 12.4145C175.45 11.4318 175.707 10.5372 176.22 9.7305C176.748 8.92383 177.415 8.3225 178.222 7.9265C179.029 7.51583 179.813 7.3105 180.576 7.3105C181.339 7.3105 181.947 7.40583 182.402 7.5965C182.871 7.7725 183.106 8.0145 183.106 8.3225C183.106 8.61583 183.018 8.9165 182.842 9.2245C182.681 9.51783 182.461 9.6645 182.182 9.6645C182.079 9.6645 181.793 9.58383 181.324 9.4225C180.869 9.2465 180.576 9.1585 180.444 9.1585C179.593 9.1585 178.867 9.47383 178.266 10.1045C177.665 10.7205 177.364 11.5418 177.364 12.5685C177.364 13.5952 177.525 14.3652 177.848 14.8785C178.185 15.3772 178.757 15.6265 179.564 15.6265C179.887 15.6265 180.437 15.4432 181.214 15.0765C182.006 14.6952 182.497 14.5045 182.688 14.5045C182.879 14.5045 183.033 14.5632 183.15 14.6805C183.267 14.7978 183.326 14.9445 183.326 15.1205C183.326 15.4725 183.099 15.8465 182.644 16.2425C182.204 16.6238 181.654 16.9465 180.994 17.2105C180.334 17.4598 179.74 17.5845 179.212 17.5845C178.039 17.5845 177.115 17.1225 176.44 16.1985C175.78 15.2745 175.45 14.0132 175.45 12.4145Z" fill="black"/>
<path d="M185.739 3.6585C186.003 3.6585 186.252 3.78317 186.487 4.0325C186.722 4.28183 186.839 4.54583 186.839 4.8245C186.839 5.0885 186.707 5.35983 186.443 5.6385C186.194 5.91717 185.93 6.0565 185.651 6.0565C185.372 6.0565 185.116 5.93917 184.881 5.7045C184.661 5.46983 184.551 5.16917 184.551 4.8025C184.551 4.0985 184.932 3.71717 185.695 3.6585C185.71 3.6585 185.724 3.6585 185.739 3.6585ZM186.663 15.1865L186.685 16.7265C186.685 17.0052 186.575 17.2398 186.355 17.4305C186.135 17.6065 185.9 17.6945 185.651 17.6945C185.284 17.6945 185.094 17.5112 185.079 17.1445C184.888 12.4658 184.793 9.87717 184.793 9.3785C184.793 8.87983 184.815 8.27117 184.859 7.5525C184.888 7.2885 185.057 7.1565 185.365 7.1565C186.142 7.1565 186.582 7.47183 186.685 8.1025C186.729 8.42517 186.751 8.68183 186.751 8.8725L186.663 10.2585V15.1865Z" fill="black"/>
<path d="M195.345 7.2885C195.99 7.2885 196.313 7.8385 196.313 8.9385C196.313 9.05583 196.313 9.1805 196.313 9.3125L196.269 10.8525C196.254 11.3365 196.247 11.8132 196.247 12.2825L196.577 17.2545C196.577 17.6212 196.203 17.8045 195.455 17.8045C195.411 17.8045 195.301 17.8045 195.125 17.8045C194.964 17.8045 194.846 17.7385 194.773 17.6065C194.714 17.4745 194.707 17.3132 194.751 17.1225C194.81 16.9318 194.795 16.7192 194.707 16.4845C194.032 17.2032 193.138 17.5625 192.023 17.5625C189.955 17.5625 188.921 15.9638 188.921 12.7665C188.921 10.9918 189.251 9.64983 189.911 8.7405C190.586 7.83117 191.546 7.3765 192.793 7.3765C193.38 7.3765 193.966 7.47917 194.553 7.6845C194.744 7.4205 195.008 7.2885 195.345 7.2885ZM193.057 9.2905C192.221 9.2905 191.598 9.5325 191.187 10.0165C190.776 10.5005 190.571 11.3878 190.571 12.6785C190.571 14.8492 191.158 15.9345 192.331 15.9345C192.639 15.9345 192.976 15.7952 193.343 15.5165C193.724 15.2378 193.988 14.9225 194.135 14.5705C194.414 13.7785 194.553 12.9132 194.553 11.9745C194.553 11.0358 194.436 10.3538 194.201 9.9285C193.981 9.50317 193.6 9.2905 193.057 9.2905Z" fill="black"/>
<path d="M77.0301 46.5285C77.0301 47.2472 76.6414 47.6065 75.8641 47.6065C75.7028 47.6065 75.5561 47.5405 75.4241 47.4085C75.3068 47.2618 75.2481 47.0418 75.2481 46.7485L75.1821 41.1605C75.1821 39.3125 75.2041 37.5745 75.2481 35.9465C74.7494 36.3865 74.2654 36.8925 73.7961 37.4645C73.3268 38.0365 73.0041 38.4178 72.8281 38.6085C72.6668 38.7992 72.4468 38.9898 72.1681 39.1805C71.9041 39.3565 71.6548 39.4445 71.4201 39.4445C71.1854 39.4445 70.9948 39.3638 70.8481 39.2025C70.7161 39.0412 70.6501 38.8432 70.6501 38.6085C70.6501 38.3738 70.8188 38.0585 71.1561 37.6625C71.5081 37.2518 72.7841 35.8805 74.9841 33.5485C75.3214 33.2405 75.7468 33.0865 76.2601 33.0865C76.5094 33.0865 76.7148 33.1598 76.8761 33.3065C77.0374 33.4532 77.1181 33.6218 77.1181 33.8125L76.9641 39.7305L77.0301 46.5285Z" fill="black"/>
<path d="M82.8883 32.9325C83.959 32.9325 84.8536 33.1892 85.5723 33.7025C86.291 34.2158 86.6503 34.9418 86.6503 35.8805C86.6503 37.2152 85.9316 38.3665 84.4943 39.3345C85.3303 40.2292 85.9243 40.9992 86.2763 41.6445C86.6576 42.3485 86.8483 43.1845 86.8483 44.1525C86.8483 45.1205 86.489 45.9198 85.7703 46.5505C84.993 47.2252 84.0176 47.5625 82.8443 47.5625C81.671 47.5625 80.7543 47.2692 80.0943 46.6825C79.405 46.0665 79.0603 45.2232 79.0603 44.1525C79.0603 42.4072 79.9036 40.8672 81.5903 39.5325C80.9596 39.1952 80.417 38.6745 79.9623 37.9705C79.493 37.2518 79.2583 36.4965 79.2583 35.7045C79.2583 34.8978 79.581 34.2452 80.2263 33.7465C80.9303 33.2038 81.8176 32.9325 82.8883 32.9325ZM80.8203 35.9905C80.8203 36.2838 80.9083 36.5625 81.0843 36.8265C81.2603 37.0905 81.4363 37.2885 81.6123 37.4205C81.7883 37.5525 82.0303 37.7212 82.3383 37.9265C82.6463 38.1318 82.8516 38.2712 82.9543 38.3445C83.4236 37.9925 83.739 37.7578 83.9003 37.6405C84.0616 37.5085 84.245 37.3325 84.4503 37.1125C84.6703 36.8778 84.8023 36.6798 84.8463 36.5185C84.905 36.3425 84.927 36.0858 84.9123 35.7485C84.9123 35.4112 84.707 35.1178 84.2963 34.8685C83.9003 34.6045 83.4823 34.4725 83.0423 34.4725C82.9983 34.4725 82.9543 34.4725 82.9103 34.4725C81.517 34.5898 80.8203 35.0958 80.8203 35.9905ZM80.6883 43.8885C80.6883 43.9618 80.6883 44.0278 80.6883 44.0865C80.703 44.6585 80.945 45.0985 81.4143 45.4065C81.8983 45.7145 82.4923 45.8685 83.1963 45.8685C83.8563 45.8685 84.333 45.6852 84.6263 45.3185C84.9196 44.9518 85.059 44.5045 85.0443 43.9765C85.0443 43.4485 84.8683 42.9205 84.5163 42.3925C84.179 41.8645 83.6363 41.2192 82.8883 40.4565C82.1403 40.9698 81.583 41.5272 81.2163 42.1285C80.8643 42.7298 80.6883 43.3165 80.6883 43.8885Z" fill="black"/>
<path d="M90.3159 31.8765C91.0639 31.8765 91.5479 32.2432 91.7679 32.9765C91.8559 33.2258 91.8999 33.5045 91.8999 33.8125C91.8265 34.4138 91.5259 34.8685 90.9979 35.1765C90.7192 35.3525 90.3892 35.4405 90.0079 35.4405C89.6265 35.4405 89.2379 35.2865 88.8419 34.9785C88.4605 34.6558 88.2699 34.2232 88.2699 33.6805C88.2699 33.1378 88.4605 32.7052 88.8419 32.3825C89.2379 32.0452 89.7292 31.8765 90.3159 31.8765ZM90.8439 33.5485C90.8439 33.2552 90.7705 33.0572 90.6239 32.9545C90.4772 32.8518 90.3085 32.8005 90.1179 32.8005C89.9419 32.8005 89.7659 32.8812 89.5899 33.0425C89.4285 33.1892 89.3479 33.3652 89.3479 33.5705C89.3479 34.0398 89.5972 34.2745 90.0959 34.2745C90.5945 34.2745 90.8439 34.0325 90.8439 33.5485Z" fill="black"/>
<path d="M100.093 33.1745C101.076 33.1745 102.161 33.3652 103.349 33.7465C103.613 33.9518 103.745 34.1792 103.745 34.4285C103.745 34.6632 103.62 34.8758 103.371 35.0665C103.136 35.2425 102.865 35.3305 102.557 35.3305C101.765 35.1252 101.024 35.0225 100.335 35.0225C98.7512 35.0225 97.5485 35.4918 96.7272 36.4305C95.9058 37.3692 95.4952 38.7625 95.4952 40.6105C95.4952 42.4585 95.9792 43.9032 96.9472 44.9445C97.4458 45.4872 98.0398 45.7585 98.7292 45.7585C99.4185 45.7585 100.518 45.3918 102.029 44.6585C102.557 44.4092 102.909 44.2845 103.085 44.2845C103.466 44.2845 103.657 44.4825 103.657 44.8785C103.657 45.2745 103.474 45.6045 103.107 45.8685C101.846 46.5285 100.863 46.9758 100.159 47.2105C99.4552 47.4305 98.8465 47.5405 98.3332 47.5405C97.2772 47.5405 96.3752 47.1518 95.6272 46.3745C94.2925 44.9372 93.6252 42.9792 93.6252 40.5005C93.6252 38.0072 94.2558 36.1665 95.5172 34.9785C96.7932 33.7758 98.3185 33.1745 100.093 33.1745Z" fill="black"/>
<path d="M111.144 40.5005C111.144 38.7992 111.232 37.5012 111.408 36.6065C111.599 35.6972 111.878 34.8978 112.244 34.2085C112.611 33.5045 113.051 32.7565 113.564 31.9645C114.092 31.1725 114.554 30.6518 114.95 30.4025C115.112 30.3145 115.28 30.2705 115.456 30.2705C115.632 30.2705 115.816 30.3438 116.006 30.4905C116.197 30.6372 116.292 30.7765 116.292 30.9085C116.292 31.0258 115.955 31.5612 115.28 32.5145C114.62 33.4532 114.18 34.0912 113.96 34.4285C113.74 34.7658 113.535 35.1838 113.344 35.6825C113.168 36.1665 113.036 36.7825 112.948 37.5305C112.875 38.2638 112.838 39.1438 112.838 40.1705C112.838 41.1972 113 42.3412 113.322 43.6025C113.645 44.8638 114.004 45.7072 114.4 46.1325C115.647 47.4818 116.27 48.3178 116.27 48.6405C116.27 48.8018 116.168 48.9265 115.962 49.0145C115.757 49.1172 115.522 49.1685 115.258 49.1685C115.009 49.1685 114.789 49.0805 114.598 48.9045C113.293 47.5992 112.391 46.3012 111.892 45.0105C111.394 43.7052 111.144 42.2018 111.144 40.5005Z" fill="black"/>
<path d="M122.474 47.5625C121.975 46.5212 121.183 45.5532 120.098 44.6585V43.8885C120.567 44.1085 120.978 44.3285 121.33 44.5485C121.682 44.7538 121.975 44.9592 122.21 45.1645V32.3385H123.134V45.1645C123.383 44.9592 123.684 44.7538 124.036 44.5485C124.388 44.3285 124.791 44.1085 125.246 43.8885V44.6585C124.175 45.5532 123.383 46.5212 122.87 47.5625H122.474Z" fill="black"/>
<path d="M135.124 46.5285C135.124 47.2472 134.735 47.6065 133.958 47.6065C133.797 47.6065 133.65 47.5405 133.518 47.4085C133.401 47.2618 133.342 47.0418 133.342 46.7485L133.276 41.1605C133.276 39.3125 133.298 37.5745 133.342 35.9465C132.843 36.3865 132.359 36.8925 131.89 37.4645C131.421 38.0365 131.098 38.4178 130.922 38.6085C130.761 38.7992 130.541 38.9898 130.262 39.1805C129.998 39.3565 129.749 39.4445 129.514 39.4445C129.279 39.4445 129.089 39.3638 128.942 39.2025C128.81 39.0412 128.744 38.8432 128.744 38.6085C128.744 38.3738 128.913 38.0585 129.25 37.6625C129.602 37.2518 130.878 35.8805 133.078 33.5485C133.415 33.2405 133.841 33.0865 134.354 33.0865C134.603 33.0865 134.809 33.1598 134.97 33.3065C135.131 33.4532 135.212 33.6218 135.212 33.8125L135.058 39.7305L135.124 46.5285Z" fill="black"/>
<path d="M142.61 47.6065L139.376 47.5625C139.229 47.5625 139.083 47.5625 138.936 47.5625C137.484 47.5625 136.758 47.2838 136.758 46.7265C136.758 46.3305 136.831 45.9565 136.978 45.6045C137.125 45.2525 137.264 44.9885 137.396 44.8125C137.528 44.6365 137.792 44.3432 138.188 43.9325C138.584 43.5218 138.87 43.2138 139.046 43.0085C139.222 42.8032 139.75 42.2825 140.63 41.4465C141.525 40.6105 142.192 39.8552 142.632 39.1805C143.087 38.5058 143.314 37.7945 143.314 37.0465C143.314 35.8878 142.852 35.1398 141.928 34.8025C141.664 34.7145 141.393 34.6705 141.114 34.6705C140.483 34.6705 139.853 34.9418 139.222 35.4845C138.973 35.7192 138.709 35.8365 138.43 35.8365C138.342 35.8365 138.261 35.8292 138.188 35.8145C137.821 35.7265 137.638 35.4698 137.638 35.0445C137.638 34.4725 138.041 33.9958 138.848 33.6145C139.713 33.2038 140.652 32.9985 141.664 32.9985C142.691 32.9985 143.527 33.3725 144.172 34.1205C144.832 34.8538 145.162 35.7705 145.162 36.8705C145.162 38.4398 144.678 39.7892 143.71 40.9185C143.255 41.4465 142.793 41.9378 142.324 42.3925C140.843 43.8005 139.853 44.8712 139.354 45.6045C140.014 45.6485 140.828 45.6705 141.796 45.6705C142.779 45.6705 143.989 45.6118 145.426 45.4945C145.646 45.5385 145.822 45.6412 145.954 45.8025C146.101 45.9492 146.174 46.1178 146.174 46.3085C146.174 46.8072 145.91 47.1518 145.382 47.3425C144.854 47.5185 143.93 47.6065 142.61 47.6065Z" fill="black"/>
<path d="M149.183 31.8765C149.931 31.8765 150.415 32.2432 150.635 32.9765C150.723 33.2258 150.767 33.5045 150.767 33.8125C150.694 34.4138 150.393 34.8685 149.865 35.1765C149.586 35.3525 149.256 35.4405 148.875 35.4405C148.494 35.4405 148.105 35.2865 147.709 34.9785C147.328 34.6558 147.137 34.2232 147.137 33.6805C147.137 33.1378 147.328 32.7052 147.709 32.3825C148.105 32.0452 148.596 31.8765 149.183 31.8765ZM149.711 33.5485C149.711 33.2552 149.638 33.0572 149.491 32.9545C149.344 32.8518 149.176 32.8005 148.985 32.8005C148.809 32.8005 148.633 32.8812 148.457 33.0425C148.296 33.1892 148.215 33.3652 148.215 33.5705C148.215 34.0398 148.464 34.2745 148.963 34.2745C149.462 34.2745 149.711 34.0325 149.711 33.5485Z" fill="black"/>
<path d="M158.96 33.1745C159.943 33.1745 161.028 33.3652 162.216 33.7465C162.48 33.9518 162.612 34.1792 162.612 34.4285C162.612 34.6632 162.488 34.8758 162.238 35.0665C162.004 35.2425 161.732 35.3305 161.424 35.3305C160.632 35.1252 159.892 35.0225 159.202 35.0225C157.618 35.0225 156.416 35.4918 155.594 36.4305C154.773 37.3692 154.362 38.7625 154.362 40.6105C154.362 42.4585 154.846 43.9032 155.814 44.9445C156.313 45.4872 156.907 45.7585 157.596 45.7585C158.286 45.7585 159.386 45.3918 160.896 44.6585C161.424 44.4092 161.776 44.2845 161.952 44.2845C162.334 44.2845 162.524 44.4825 162.524 44.8785C162.524 45.2745 162.341 45.6045 161.974 45.8685C160.713 46.5285 159.73 46.9758 159.026 47.2105C158.322 47.4305 157.714 47.5405 157.2 47.5405C156.144 47.5405 155.242 47.1518 154.494 46.3745C153.16 44.9372 152.492 42.9792 152.492 40.5005C152.492 38.0072 153.123 36.1665 154.384 34.9785C155.66 33.7758 157.186 33.1745 158.96 33.1745Z" fill="black"/>
<path d="M172.035 43.2285L170.209 43.2725C170.004 43.2725 169.828 43.1992 169.681 43.0525C169.549 42.9058 169.483 42.7005 169.483 42.4365C169.483 42.1578 169.571 41.9305 169.747 41.7545C169.923 41.5785 170.173 41.4905 170.495 41.4905H174.873C175.328 41.4905 175.695 41.4905 175.973 41.4905C176.516 41.5198 176.787 41.7985 176.787 42.3265C176.787 42.5758 176.699 42.7958 176.523 42.9865C176.362 43.1625 176.12 43.2505 175.797 43.2505L172.035 43.2285Z" fill="black"/>
<path d="M187.694 47.5625V34.7365C187.225 35.1325 186.521 35.5578 185.582 36.0125V35.2425C186.125 34.7732 186.594 34.2965 186.99 33.8125C187.386 33.3285 187.709 32.8372 187.958 32.3385H188.354C188.604 32.8372 188.926 33.3285 189.322 33.8125C189.718 34.2965 190.188 34.7732 190.73 35.2425V36.0125C190.276 35.7925 189.872 35.5798 189.52 35.3745C189.168 35.1545 188.868 34.9418 188.618 34.7365V47.5625H187.694Z" fill="black"/>
<path d="M200.102 47.6065L196.868 47.5625C196.722 47.5625 196.575 47.5625 196.428 47.5625C194.976 47.5625 194.25 47.2838 194.25 46.7265C194.25 46.3305 194.324 45.9565 194.47 45.6045C194.617 45.2525 194.756 44.9885 194.888 44.8125C195.02 44.6365 195.284 44.3432 195.68 43.9325C196.076 43.5218 196.362 43.2138 196.538 43.0085C196.714 42.8032 197.242 42.2825 198.122 41.4465C199.017 40.6105 199.684 39.8552 200.124 39.1805C200.579 38.5058 200.806 37.7945 200.806 37.0465C200.806 35.8878 200.344 35.1398 199.42 34.8025C199.156 34.7145 198.885 34.6705 198.606 34.6705C197.976 34.6705 197.345 34.9418 196.714 35.4845C196.465 35.7192 196.201 35.8365 195.922 35.8365C195.834 35.8365 195.754 35.8292 195.68 35.8145C195.314 35.7265 195.13 35.4698 195.13 35.0445C195.13 34.4725 195.534 33.9958 196.34 33.6145C197.206 33.2038 198.144 32.9985 199.156 32.9985C200.183 32.9985 201.019 33.3725 201.664 34.1205C202.324 34.8538 202.654 35.7705 202.654 36.8705C202.654 38.4398 202.17 39.7892 201.202 40.9185C200.748 41.4465 200.286 41.9378 199.816 42.3925C198.335 43.8005 197.345 44.8712 196.846 45.6045C197.506 45.6485 198.32 45.6705 199.288 45.6705C200.271 45.6705 201.481 45.6118 202.918 45.4945C203.138 45.5385 203.314 45.6412 203.446 45.8025C203.593 45.9492 203.666 46.1178 203.666 46.3085C203.666 46.8072 203.402 47.1518 202.874 47.3425C202.346 47.5185 201.422 47.6065 200.102 47.6065Z" fill="black"/>
<path d="M209.491 42.7005C208.963 42.7885 208.215 42.8325 207.247 42.8325C206.279 42.8325 205.619 42.6712 205.267 42.3485C204.915 42.0258 204.739 41.3292 204.739 40.2585C204.739 39.1732 204.82 37.9852 204.981 36.6945C205.143 35.4038 205.319 34.4578 205.509 33.8565C205.715 33.2405 206.111 32.9325 206.697 32.9325C207.093 32.9325 207.321 33.1012 207.379 33.4385C207.379 33.5265 207.379 33.6658 207.379 33.8565C207.379 34.0472 207.335 34.3185 207.247 34.6705C206.895 37.2518 206.719 39.0925 206.719 40.1925C206.719 40.4565 206.727 40.6765 206.741 40.8525C207.005 40.9112 207.357 40.9405 207.797 40.9405C208.252 40.9405 208.824 40.8965 209.513 40.8085C209.543 40.5005 209.557 40.0898 209.557 39.5765C209.557 39.0485 209.565 38.6085 209.579 38.2565C209.594 37.9045 209.645 37.6552 209.733 37.5085C209.821 37.3618 210.071 37.2885 210.481 37.2885C210.907 37.2885 211.171 37.3618 211.273 37.5085C211.391 37.6552 211.449 37.8605 211.449 38.1245C211.449 38.3738 211.427 38.9092 211.383 39.7305C211.339 40.5372 211.317 42.8252 211.317 46.5945C211.317 47.2545 210.995 47.5845 210.349 47.5845C210.32 47.5845 210.291 47.5845 210.261 47.5845C209.719 47.5845 209.447 47.1372 209.447 46.2425V45.0325L209.491 42.7005Z" fill="black"/>
<path d="M214.925 31.8765C215.673 31.8765 216.157 32.2432 216.377 32.9765C216.465 33.2258 216.509 33.5045 216.509 33.8125C216.436 34.4138 216.135 34.8685 215.607 35.1765C215.329 35.3525 214.999 35.4405 214.617 35.4405C214.236 35.4405 213.847 35.2865 213.451 34.9785C213.07 34.6558 212.879 34.2232 212.879 33.6805C212.879 33.1378 213.07 32.7052 213.451 32.3825C213.847 32.0452 214.339 31.8765 214.925 31.8765ZM215.453 33.5485C215.453 33.2552 215.38 33.0572 215.233 32.9545C215.087 32.8518 214.918 32.8005 214.727 32.8005C214.551 32.8005 214.375 32.8812 214.199 33.0425C214.038 33.1892 213.957 33.3652 213.957 33.5705C213.957 34.0398 214.207 34.2745 214.705 34.2745C215.204 34.2745 215.453 34.0325 215.453 33.5485Z" fill="black"/>
<path d="M224.703 33.1745C225.685 33.1745 226.771 33.3652 227.959 33.7465C228.223 33.9518 228.355 34.1792 228.355 34.4285C228.355 34.6632 228.23 34.8758 227.981 35.0665C227.746 35.2425 227.475 35.3305 227.167 35.3305C226.375 35.1252 225.634 35.0225 224.945 35.0225C223.361 35.0225 222.158 35.4918 221.337 36.4305C220.515 37.3692 220.105 38.7625 220.105 40.6105C220.105 42.4585 220.589 43.9032 221.557 44.9445C222.055 45.4872 222.649 45.7585 223.339 45.7585C224.028 45.7585 225.128 45.3918 226.639 44.6585C227.167 44.4092 227.519 44.2845 227.695 44.2845C228.076 44.2845 228.267 44.4825 228.267 44.8785C228.267 45.2745 228.083 45.6045 227.717 45.8685C226.455 46.5285 225.473 46.9758 224.769 47.2105C224.065 47.4305 223.456 47.5405 222.943 47.5405C221.887 47.5405 220.985 47.1518 220.237 46.3745C218.902 44.9372 218.235 42.9792 218.235 40.5005C218.235 38.0072 218.865 36.1665 220.127 34.9785C221.403 33.7758 222.928 33.1745 224.703 33.1745Z" fill="black"/>
<path d="M235.853 39.2905C235.853 41.2265 235.67 42.7518 235.303 43.8665C234.951 44.9812 234.247 46.2645 233.191 47.7165C232.663 48.4352 232.304 48.8605 232.113 48.9925C231.923 49.1245 231.717 49.1905 231.497 49.1905C231.292 49.1905 231.101 49.1098 230.925 48.9485C230.749 48.8018 230.661 48.6478 230.661 48.4865C230.661 48.4425 231.057 47.8485 231.849 46.7045C232.656 45.5605 233.199 44.7098 233.477 44.1525C233.756 43.5952 233.947 42.8912 234.049 42.0405C234.152 41.1752 234.203 40.2218 234.203 39.1805C234.203 38.1245 234.035 36.9658 233.697 35.7045C233.375 34.4285 233.015 33.5778 232.619 33.1525C231.329 31.8178 230.683 30.9598 230.683 30.5785C230.683 30.4465 230.786 30.3365 230.991 30.2485C231.211 30.1605 231.453 30.1165 231.717 30.1165C231.996 30.1165 232.187 30.1825 232.289 30.3145C233.683 31.7078 234.621 33.0718 235.105 34.4065C235.604 35.7265 235.853 37.3545 235.853 39.2905Z" fill="black"/>
<path d="M58.6358 42.5865C58.4158 42.5865 58.1811 42.5132 57.9318 42.3665C57.6971 42.2052 57.5798 42.0072 57.5798 41.7725C57.5798 41.3178 57.9905 40.8118 58.8118 40.2545C59.6478 39.6825 60.3298 39.3965 60.8578 39.3965C61.4005 39.3965 62.0678 39.6165 62.8598 40.0565C63.6665 40.4965 64.2605 40.7825 64.6418 40.9145C64.8765 40.9145 65.2871 40.6798 65.8738 40.2105C66.4605 39.7412 66.8785 39.5065 67.1278 39.5065C67.3918 39.5065 67.5971 39.5945 67.7438 39.7705C67.9051 39.9318 67.9858 40.0932 67.9858 40.2545C67.9858 40.7092 67.5678 41.2152 66.7318 41.7725C65.9105 42.3152 65.2431 42.5865 64.7298 42.5865C63.9378 42.5865 63.2118 42.3665 62.5518 41.9265C61.9065 41.4718 61.4005 41.2445 61.0338 41.2445C60.6671 41.2445 60.2785 41.4718 59.8678 41.9265C59.4571 42.3665 59.0465 42.5865 58.6358 42.5865Z" fill="black"/>
</svg>
