<svg width="149" height="217" viewBox="0 0 149 217" fill="none" xmlns="http://www.w3.org/2000/svg" transform="scale(-1,1)">
<path fill-rule="evenodd" clip-rule="evenodd" d="M70.0656 83.935C74.7375 80.3669 86.4665 78.7623 91.4528 82.1979C96.3777 85.6479 96.9146 91.2271 99.2096 96.3596C101.375 95.3355 104.951 96.8022 105.579 98.8174C106.357 99.7678 106.392 102.438 106.929 103.716C130.292 107.446 133.839 125.714 136.651 146.454C140.371 167.499 148.816 188.499 145.15 210.155C145.627 210.849 146.004 211.522 146.352 212.323C147.187 213.747 146.112 215.763 144.429 215.685C142.25 215.493 140.093 215.231 137.904 215.149C131.837 214.937 125.764 214.963 119.694 215.04L118.866 215.051C88.2751 215.433 57.6861 216.185 27.094 216.385C25.9842 216.387 25.4408 215.388 25.589 214.404C25.8874 212.421 26.1643 210.437 26.4533 208.454C19.2175 210.37 11.5252 210.853 4.30984 208.655C3.80509 208.139 5.48591 208.419 5.75258 208.341C-0.887818 203.79 1.09525 194.202 1.68348 187.297C5.34113 163.635 6.63056 137.455 20.7625 117.264C26.8761 109.024 35.8393 102.5 46.1387 101.032L46.4244 100.993C49.436 100.59 52.7923 100.461 55.4253 98.8174C58.3867 96.4462 59.6487 92.065 62.7642 92.0239C63.793 92.0104 65.1925 93.3157 66.6985 94.202C66.8109 92.2524 67.8584 90.6071 68.0897 89.0954L68.1084 88.9662C68.3498 87.2038 68.0192 85.6182 70.0656 83.935ZM120.274 147.079C113.709 142.504 96.7484 144.803 96.3602 145.059C95.5053 145.623 95.1371 145.673 94.6748 146.405C94.2183 146.466 93.7621 146.529 93.3064 146.594C92.3921 146.893 93.0696 148.021 94.1257 147.619C93.4905 150.367 95.3599 152.321 96.1041 155.037C96.3457 155.919 96.1128 157.505 96.1041 158.406C96.1762 159.555 97.4428 160.912 97.2317 162.065C96.4812 166.163 92.4087 170.161 94.1257 174.135C95.2632 176.38 98.6842 177.524 100.959 178.288C105.671 180.101 113.882 178.219 116.62 174.135C118.081 171.957 119.773 166.462 120.643 164.757L120.836 162.054C121.312 155.333 121.736 148.097 120.274 147.079Z" fill="white"/>
<path fill-rule="evenodd" clip-rule="evenodd" d="M61.6203 91.6276C62.0736 91.225 62.7443 91.7309 62.4563 92.2747C61.809 93.497 61.1451 94.6551 60.2764 95.7356C59.7497 96.3907 59.1855 97.0102 58.6137 97.623C60.081 98.8961 61.3394 100.477 62.5278 101.958C64.0474 103.853 65.4841 105.828 67.1899 107.561C68.8722 109.271 70.7323 110.466 72.9814 111.263L73.4357 111.422C75.6951 112.217 78.11 113.292 79.3835 115.437C79.6347 115.86 79.129 116.383 78.7039 116.119C76.4909 114.745 73.8906 114.468 71.4817 113.56C69.1548 112.683 67.1263 111.333 65.334 109.61C63.5447 107.89 62.0424 105.933 60.4753 104.017C58.9256 102.123 57.2571 100.505 55.4241 98.9022C52.5955 100.811 49.3667 101.641 46.0836 102.457L45.7253 102.546C42.4382 103.362 39.1687 104.31 36.0849 105.732C33.366 106.985 30.6917 108.481 28.477 110.52C26.126 112.684 24.2962 115.448 22.6215 118.151C18.8752 124.198 16.2415 130.823 13.9229 137.528C11.5113 144.502 9.49416 151.617 7.86577 158.815C7.03756 162.477 6.36493 166.165 5.8121 169.878C5.546 171.667 5.30961 173.459 5.10199 175.255C4.88037 177.174 4.82946 179.147 4.24275 180.991C3.99122 181.782 3.39733 182.11 2.80286 182.082L2.68211 183.596C2.522 185.616 2.37274 187.636 2.32232 189.668C2.23869 193.046 2.27661 196.415 2.51891 199.786L2.55322 200.246C2.74362 202.706 3.16908 205.471 5.0138 207.273C6.9242 209.139 9.86209 209.725 12.437 209.759C18.4341 209.837 24.2069 206.995 29.5138 204.502C34.9792 201.934 40.2954 199.084 45.4841 195.993C48.1266 194.419 50.7405 192.792 53.321 191.118C54.5874 190.296 55.8448 189.461 57.0928 188.612C57.8077 188.125 58.485 187.592 59.2127 187.161C58.8562 186.828 58.697 186.304 58.9956 185.847C56.892 184.016 56.0165 180.747 55.9141 178.103C55.8314 175.968 56.1446 173.84 56.3918 171.725C56.5165 170.659 56.6706 169.595 56.8305 168.533C56.8937 168.114 56.942 167.666 57.0158 167.223C51.3355 170.354 45.4961 173.142 39.502 175.619C36.4295 176.889 33.3177 178.03 30.1629 179.076L29.5235 179.287C26.5343 180.269 23.4737 181.196 20.3835 181.757C20.2182 181.787 20.084 181.542 20.2604 181.464C23.272 180.131 26.3878 179.007 29.4445 177.78L29.9468 177.575C29.8891 177.571 29.8293 177.563 29.7668 177.548C27.9741 177.114 26.1955 176.446 24.4372 175.883C22.8054 175.36 20.9721 175.032 19.4468 174.243C19.3295 174.182 19.3951 174.019 19.5095 174.011C21.2238 173.892 23.0848 174.393 24.7656 174.688L25.397 174.798C26.4548 174.986 27.5361 175.187 28.5887 175.449C28.6267 175.095 28.8237 174.74 29.104 174.532C32.1884 172.241 31.8752 167.614 32.2051 164.202L32.4497 161.668C32.8799 157.235 33.3351 152.802 34.0267 148.402C34.0636 148.167 34.426 148.234 34.4275 148.456C34.4632 153.911 34.0527 159.34 33.8469 164.786L33.815 165.68C33.7013 169.04 33.6121 172.529 31.502 175.115C31.797 174.942 32.196 174.942 32.435 175.227C32.7287 175.578 32.8983 175.972 32.893 176.358C34.7998 175.556 36.6983 174.733 38.5875 173.894C44.6614 171.195 50.608 168.175 56.3973 164.907C57.0203 164.555 57.6125 164.831 57.9206 165.295L57.9651 165.289C57.9725 165.288 57.9801 165.287 57.9878 165.287L58.0319 165.285C58.0336 165.285 58.0353 165.285 58.0368 165.285C58.8518 164.836 59.962 165.156 60.6613 165.811C60.682 165.831 60.6996 165.852 60.7179 165.873C61.6033 165.474 62.43 164.936 63.1802 164.254C64.7155 162.858 66.0159 161.133 67.1496 159.402C69.2373 156.215 71.0107 152.671 73.8308 150.047C76.1222 147.916 78.963 146.589 81.9433 145.756C81.9308 145.668 81.9641 145.575 82.0243 145.513C82.1774 145.356 82.2866 145.302 82.4844 145.397C82.5001 145.405 82.5096 145.416 82.516 145.427L82.8068 144.929C82.9656 144.658 83.1286 144.386 83.185 144.314C83.5234 143.887 83.8717 143.463 84.2252 143.048C84.8246 142.345 85.5076 141.651 86.2986 141.164C88.0303 140.097 89.8508 140.7 91.6312 141.284C92.7069 141.636 93.7791 142 94.8529 142.358L94.9637 142.394C95.7645 142.652 96.7015 142.878 97.0595 143.729C97.2013 144.065 97.2232 144.415 97.1572 144.754C104.762 142.814 113.21 143.705 120.631 145.983C120.916 146.07 121.2 146.305 121.26 146.614C122.111 150.987 122.489 155.473 122.105 159.921C121.773 163.761 120.924 167.524 119.326 171.039L119.235 171.237C117.733 174.495 115.352 178.511 111.715 179.532C109.52 180.149 107.091 179.785 104.852 179.672C102.676 179.563 100.451 179.547 98.2956 179.203C96.3757 178.898 94.6936 178.035 93.5071 176.469C92.4836 175.118 91.9446 173.486 91.503 171.862C91.3009 171.926 91.1001 171.995 90.9025 172.072C90.0684 172.399 89.3617 172.927 88.7228 173.547C87.3736 174.858 86.3269 176.449 84.9153 177.7C83.6374 178.832 82.1812 179.712 80.6192 180.389C77.3826 181.792 73.9105 182.352 70.4869 183.096L70.2481 183.148C67.6708 183.715 65.0401 184.412 62.7651 185.757C62.7207 186.154 62.5407 186.526 62.2523 186.771C62.6535 187.148 62.8234 187.747 62.4708 188.309C61.486 189.876 59.7895 190.768 58.2665 191.771L58.1674 191.836C56.6693 192.832 55.158 193.809 53.6345 194.765C50.5372 196.71 47.3752 198.548 44.1686 200.305C39.0111 203.131 33.7428 205.797 28.3792 208.215C28.7011 209.803 28.5835 211.441 28.8254 213.04L28.8625 213.269C28.9659 213.862 28.8263 214.359 28.4187 214.746L28.3756 214.786L28.3763 214.781L28.3381 214.816L28.3253 214.827L28.3296 214.823C28.2826 214.866 28.2341 214.907 28.1847 214.941L28.1218 214.982C27.7292 215.221 27.2238 215.218 26.8218 215.007L26.7759 214.982L26.6987 214.937C26.1676 214.631 25.8014 213.872 26.0217 213.269C26.5632 211.786 26.7678 210.205 27.2678 208.713L26.8711 208.891L26.3483 209.119C20.6936 211.572 14.4123 213.637 8.2511 211.965C5.52878 211.226 2.98436 209.663 1.62225 207.115C0.281907 204.608 0.0924571 201.698 0.0212951 198.909C-0.0665218 195.468 0.117439 191.973 0.569961 188.561C0.873725 186.271 1.24108 183.937 1.80773 181.67C1.51626 181.412 1.30202 181.042 1.24543 180.584C0.978007 178.419 1.44605 176.169 1.73259 174.015C2.01251 171.912 2.32176 169.813 2.67151 167.721C3.37764 163.496 4.19809 159.279 5.15328 155.104C6.85322 147.672 9.09804 140.372 11.8007 133.247L12.0374 132.626C14.5347 126.114 17.4263 119.74 21.4528 114.018C23.3789 111.281 25.415 108.799 28.1365 106.827C30.6862 104.979 33.5622 103.648 36.5302 102.631C39.5014 101.613 42.5553 100.931 45.6632 100.507C48.8195 100.076 52.151 99.8119 55.0954 98.5135C54.7229 97.8438 55.0426 96.9396 55.6694 96.5243C57.7789 95.1264 59.7296 93.3079 61.6203 91.6276ZM129.15 152.413C129.238 152.279 129.448 152.364 129.409 152.523C128.383 156.739 127.42 160.963 126.791 165.259C125.656 173.014 125.865 180.869 125.957 188.681L125.962 189.085C126.01 193.292 126.076 197.5 126.215 201.706C126.285 203.832 126.423 205.979 126.348 208.105C126.307 209.259 126 210.35 125.892 211.49C125.796 212.487 125.881 213.499 125.929 214.497C125.961 215.161 124.984 215.133 124.918 214.497L124.833 213.675C124.722 212.635 124.586 211.602 124.246 210.606C123.837 209.409 123.641 208.233 123.5 206.976C123.282 205.05 123.186 203.105 123.102 201.165L123.045 199.823C122.695 191.717 122.707 183.573 123.274 175.475L123.315 174.897C123.876 167.242 124.849 158.972 129.15 152.413ZM107.28 104.17C107.012 104.06 107.105 103.653 107.402 103.724L107.942 103.853C111.896 104.803 115.779 105.832 119.47 107.6C123.164 109.369 126.291 112.01 128.775 115.257C133.605 121.569 135.612 129.239 137.197 136.903C138.958 145.419 140.561 153.965 142.337 162.479L142.667 164.064C144.31 171.993 145.862 179.927 147.006 187.949L147.088 188.531C148.241 196.781 148.934 205.317 147.676 213.588C147.427 215.225 144.712 214.817 144.818 213.201C145.125 208.527 145.344 203.877 145.132 199.193C144.92 194.507 144.482 189.842 143.829 185.198C143.279 181.289 142.46 177.429 141.735 173.552L141.621 172.94C141.014 169.642 140.388 166.347 139.763 163.052L138.83 158.119C137.431 150.732 136.005 143.339 134.393 135.999L134.298 135.567C132.721 128.505 130.396 121.108 125.665 115.5C120.865 109.809 113.992 106.943 107.28 104.17ZM89.836 179.074C89.9514 178.816 90.3553 178.845 90.4795 179.074C90.9659 179.974 91.02 181.124 91.112 182.14L91.1216 182.244C91.2386 183.485 91.3421 184.729 91.4055 185.973C91.5257 188.334 91.5832 190.692 91.5759 193.057C91.5683 195.48 91.5197 197.9 91.3894 200.319L91.3541 200.967C91.2352 203.07 91.0359 205.415 90.0398 207.253C89.6778 207.921 88.693 207.725 88.4833 207.049C87.7963 204.836 88.1491 202.213 88.3253 199.947L88.4621 198.178C88.5976 196.41 88.7268 194.641 88.8293 192.87C88.9697 190.448 89.0856 188.024 89.197 185.6C89.2333 184.813 89.2724 184.026 89.3138 183.238L89.3774 182.058C89.4317 181.071 89.4272 179.987 89.836 179.074ZM12.5897 182.21L12.8938 181.915C13.8275 180.999 15.0073 179.588 16.3875 179.675C16.9378 179.71 17.2885 180.168 17.1744 180.711C16.9306 181.872 15.7499 182.475 14.8999 183.184C13.9687 183.96 13.0911 184.79 12.2152 185.627C11.4382 186.37 10.6909 187.134 9.96148 187.922L9.68878 188.218C9.42733 188.504 7.56556 190.193 7.76686 190.632L7.77782 190.651C7.83384 190.735 7.74053 190.85 7.64761 190.821C6.84363 190.566 6.89378 189.875 7.19773 189.175C7.78179 187.829 8.80456 186.585 9.69768 185.436C10.5884 184.29 11.5524 183.222 12.5897 182.21ZM92.7493 148.468C92.1276 146.994 89.8374 147.025 88.5371 147.113C85.2629 147.335 81.7203 148.166 78.8071 149.701C75.7867 151.292 73.7522 153.842 71.9318 156.662L71.8466 156.794C70.0723 159.56 68.3635 162.835 65.5851 164.737C64.17 165.706 62.5176 166.591 60.8006 166.974C60.6827 167.182 60.4917 167.346 60.2414 167.406L60.125 167.433C59.6359 167.541 58.8762 167.661 58.2201 167.589C58.2244 167.911 58.221 168.231 58.2291 168.536C58.2522 169.41 58.2621 170.288 58.2621 171.163C58.2624 172.995 58.1642 174.832 58.2405 176.664C58.3081 178.285 58.5363 179.979 59.3123 181.428C59.8814 182.491 60.6326 183.194 61.5393 183.866C63.7699 182.502 66.2922 181.671 68.8521 181.046C71.9481 180.291 75.118 179.786 78.1435 178.762C79.5997 178.268 80.9996 177.623 82.2681 176.746C83.6143 175.815 84.6425 174.555 85.7005 173.323L85.8659 173.132C86.9456 171.89 88.1237 170.701 89.6496 170.028C90.9636 169.448 92.6956 169.345 93.8446 168.447C94.4453 167.977 94.4956 167.296 94.5588 166.598C93.823 166.704 93.044 166.535 92.3106 166.448L91.9306 166.404C91.2371 166.321 90.5596 166.23 89.8769 166.053C89.7501 166.02 89.7501 165.829 89.8769 165.796C90.6837 165.587 91.4834 165.498 92.3106 165.401L92.5049 165.376C93.2533 165.278 94.0399 165.129 94.774 165.294C94.9058 164.792 95.096 164.312 95.3628 163.831C95.7374 163.156 96.4461 162.391 96.5419 161.602C96.5705 161.366 96.5158 161.089 96.4051 160.88L96.3669 160.809C96.3204 160.725 96.2653 160.641 96.1846 160.589C96.1757 160.599 96.1568 160.611 96.1157 160.624C95.5507 160.803 95.0579 160.525 94.7964 160.098C93.686 160.236 92.4741 160.19 91.4328 160.236L90.38 160.287C89.255 160.338 88.0789 160.361 87.0217 160.133C86.8741 160.101 86.8294 159.855 86.9772 159.792C88.2769 159.234 89.8534 159.056 91.2449 158.842C92.022 158.722 92.8048 158.631 93.5841 158.526C94.1031 158.456 94.6538 158.34 95.1915 158.312C96.5396 156.629 95.8133 153.973 93.9371 153.249C93.2537 153.55 92.6392 153.375 91.8925 153.31C91.1472 153.246 90.4 153.203 89.6517 153.206C88.1522 153.213 86.5631 153.608 85.0782 153.438C84.8367 153.41 84.6122 153.088 84.8524 152.891C85.9891 151.961 87.6181 151.657 89.061 151.459L89.36 151.419C89.8438 151.355 90.432 151.262 91.0422 151.207C91.1802 150.937 91.4277 150.733 91.7996 150.683C91.9101 150.667 92.0212 150.658 92.1321 150.649L92.1304 150.638C93.0374 150.594 92.998 149.058 92.7493 148.468ZM30.6588 177.212C30.6428 177.237 30.6252 177.261 30.6066 177.284L30.5778 177.317L30.7269 177.256L30.6588 177.212ZM108.576 145.175C104.758 144.764 100.935 144.85 97.1067 144.961C96.8004 145.965 95.7345 146.822 94.7017 146.854C95.5106 148.089 95.5941 149.76 95.0269 151.069C96.2311 151.55 97.2687 152.414 97.8985 153.644C98.772 155.349 98.6577 157.247 97.7944 158.823C98.5312 159.492 98.966 160.578 98.9224 161.602C98.8738 162.744 98.1953 163.719 97.6315 164.664C97.0222 165.687 97.0018 166.587 96.8146 167.732C96.5408 169.408 95.4139 170.424 93.964 171.059L94.0411 171.363C94.4149 172.822 94.88 174.362 95.9484 175.429C97.3228 176.802 99.4549 176.789 101.271 176.876L101.358 176.881C103.021 176.964 104.683 177.062 106.345 177.156L107.592 177.226C109.506 177.332 111.344 177.344 112.906 176.075C115.457 174.004 117.205 170.576 118.312 167.541C120.635 161.171 120.663 154.181 119.597 147.547C116.021 146.391 112.31 145.577 108.576 145.175ZM76.8293 155.743L76.8574 155.745C77.6434 155.835 78.1834 156.473 78.3756 157.23C78.655 158.331 78.518 159.326 79.19 160.32C79.8814 161.341 80.3065 162.159 80.407 163.421C80.4482 163.941 80.4293 164.459 80.5446 164.967L80.6281 165.323C80.7169 165.703 80.7895 166.069 80.7454 166.477C80.7051 166.848 80.5245 167.138 80.1526 167.257C78.9408 167.646 78.0051 166.75 77.692 165.618C77.4216 164.639 77.7827 163.474 77.4011 162.555C77.1897 162.045 76.7999 161.619 76.5796 161.107C76.3613 160.599 76.2518 160.068 76.2167 159.515C76.1503 158.471 77.0716 157.215 76.5576 156.269C76.4481 156.067 76.5721 155.737 76.8293 155.743ZM60.7322 144.961C61.5528 144.794 62.4838 144.411 63.2931 144.729C63.7091 144.893 63.9146 145.402 63.5632 145.756C62.953 146.369 62.0661 146.403 61.2442 146.548L61.1719 146.561C60.2 146.741 59.2264 146.912 58.2516 147.074C56.4174 147.379 54.579 147.648 52.7341 147.877C50.8392 148.113 48.939 148.322 47.0362 148.48L46.2995 148.54C44.6922 148.669 43.0197 148.766 41.4426 148.519C41.2134 148.484 41.2503 148.149 41.4426 148.09C43.1703 147.566 45.0656 147.425 46.8518 147.203C48.7509 146.967 50.6467 146.717 52.5376 146.421C54.4255 146.125 56.3109 145.808 58.1893 145.457C59.0383 145.299 59.886 145.134 60.7322 144.961ZM90.3429 143.277C89.6227 143.021 88.8305 142.643 88.0502 142.769C86.7045 142.988 85.5069 144.303 84.4417 145.169L84.9765 145.065C87.7131 144.537 91.3371 143.969 93.6343 145.714C93.6402 145.704 93.6447 145.694 93.6513 145.684C93.8368 145.401 94.0516 145.181 94.2861 144.939C94.3085 144.918 94.3302 144.896 94.3515 144.874L94.478 144.739L94.1887 144.638C93.5689 144.419 92.8346 144.135 92.7186 144.093L92.7105 144.091C91.9204 143.822 91.1292 143.557 90.3429 143.277ZM67.8584 85.7464C67.7458 84.2937 70.0001 84.3057 70.1117 85.7464C70.3553 88.8918 69.6496 92.0074 68.1305 94.765C68.1194 94.7851 68.1071 94.8029 68.0953 94.8219C69.0454 95.3177 70.0063 95.7934 70.9886 96.2186C72.2451 96.7627 73.5252 97.2581 74.8283 97.6784C76.007 98.0588 77.4592 98.2089 78.4502 99.0005C80.5398 100.669 79.7547 104.133 79.3528 106.378L79.29 106.732C79.0899 107.888 78.9451 109.073 79.4307 110.182C79.9493 111.366 80.998 112.245 81.9335 113.092L82.1225 113.264C82.9512 114.021 83.8982 114.941 84.5061 115.968C85.061 114.817 85.8175 113.877 86.6173 112.818C87.188 112.062 86.7818 111.813 86.3719 111.075C85.9773 110.365 85.7846 109.608 85.908 108.797C86.1357 107.301 87.3282 106.22 88.5152 105.408C89.9171 104.449 91.4817 103.739 92.9309 102.847C95.9087 101.014 98.8087 98.9187 101.421 96.5916C101.494 96.5273 101.619 96.6116 101.561 96.6995C99.4969 99.8481 97.0768 102.569 94.1026 104.878C92.8966 105.815 91.6297 106.591 90.3543 107.408L89.9877 107.644C89.4756 107.977 88.8369 108.421 88.6053 108.988C88.3723 109.557 88.8692 109.988 89.1366 110.459C89.9858 111.958 89.5761 113.356 88.5693 114.627L88.5224 114.686C87.522 115.922 86.7638 117.072 86.4012 118.652C85.622 122.045 86.7073 125.58 87.8433 128.766L87.8882 128.891C88.5027 130.608 89.1559 132.313 89.6898 134.058L89.8367 134.54C90.3204 136.145 90.7166 137.729 90.1739 139.379C89.9894 139.94 89.2261 140.073 88.9091 139.545C87.7907 137.682 87.512 135.44 86.8109 133.392C86.1277 131.395 85.3432 129.435 84.6833 127.431C83.8335 124.85 83.2648 122.072 83.5735 119.366C83.5644 119.35 83.5543 119.335 83.5468 119.318L83.3304 118.844C82.7406 117.559 82.1708 116.436 81.0981 115.412C79.9792 114.344 78.7647 113.398 77.8843 112.104C75.9719 109.295 77.1546 106.169 77.3856 103.097L77.412 102.72C77.454 102.083 77.477 101.216 77.0616 100.774C76.5943 100.277 75.4985 100.15 74.8784 99.9304C73.2762 99.3617 71.6972 98.6991 70.1933 97.9033C68.7617 97.1459 67.375 96.3092 66.0839 95.3289L65.4295 94.8351C64.3969 94.0538 63.3263 93.2005 62.6342 92.1368C62.5544 92.0144 62.6901 91.8168 62.8347 91.8755C63.9899 92.3457 65.0454 93.0936 66.1263 93.7443C66.1431 93.7046 66.1626 93.6645 66.1848 93.6243C67.5221 91.1968 68.0721 88.5074 67.8584 85.7464ZM104.761 102.378C105.221 101.112 107.319 101.21 107.235 102.714C107.171 103.869 106.682 104.912 106.235 105.962L106.187 106.074C105.725 107.167 105.192 108.194 104.554 109.196C103.334 111.111 101.906 112.888 100.38 114.566C98.9973 116.087 97.1819 117.017 95.09 116.862C94.2086 116.797 93.3189 116.572 92.5466 116.131C91.6292 115.606 90.6329 114.031 89.4626 114.412C89.3494 114.449 89.2438 114.283 89.3416 114.204C90.6928 113.113 92.2263 114.805 93.5199 115.212C95.4691 115.827 97.4694 115.148 98.724 113.567C100.034 111.917 101.239 110.069 102.34 108.273C102.899 107.36 103.41 106.414 103.85 105.438C104.295 104.453 104.396 103.382 104.761 102.378ZM101.619 94.5871C101.562 94.4122 101.779 94.2459 101.932 94.3458C102.82 94.9255 103.589 95.6914 104.408 96.3629C105.317 97.1077 106.232 97.8374 107.161 98.5559C108.516 99.6035 106.945 101.532 105.752 100.388C104.12 98.8222 102.332 96.7752 101.619 94.5871ZM96.7447 88.4596C97.1054 87.0647 99.2386 87.6399 98.9277 89.0186L98.9176 89.0606C98.3288 91.3379 99.1674 93.6563 100.958 95.1326L101.023 95.1862C102.156 96.0953 100.551 97.6845 99.4301 96.7842C96.982 94.8191 95.9636 91.4811 96.7447 88.4596Z" fill="black"/>
<path fill-rule="evenodd" clip-rule="evenodd" d="M117.564 51.99C117.155 48.2169 117.685 40.3303 117.72 39.8512C117.945 36.8222 116.591 24.8609 114.034 25.963C109.743 22.4001 104.028 21.6134 98.6839 21.2376C87.5837 20.4568 75.7752 22.2491 67.204 30.0846C62.9651 34.1537 58.8385 40.072 59.1702 46.2343C55.3189 52.0754 49.8896 60.0878 54.688 66.9165C56.3191 69.0982 58.9115 69.9107 60.9605 71.563C65.0819 75.0498 67.6676 80.0539 71.8282 83.52C82.8509 93.9094 101.567 96.0797 112.397 84.2627C120.772 75.7043 119.418 62.9006 117.944 51.99C116.954 44.6547 118.363 59.351 117.564 51.99Z" fill="white"/>
<path fill-rule="evenodd" clip-rule="evenodd" d="M80.7901 0.968616C83.9709 0.308852 87.2371 -0.101668 90.4854 0.0219067L90.7358 0.0319048C93.1798 0.132307 96.2749 0.354407 98.407 1.81521C98.5296 1.6887 98.7269 1.62377 98.9058 1.71153C101.439 2.95461 104.226 3.85336 106.894 4.74645C109.549 5.63514 112.304 6.22181 115.088 6.45827C116.135 6.54729 117.031 7.70952 116.368 8.75195C116.21 9.00036 116.057 9.25128 115.904 9.50282C116.159 9.47539 116.415 9.44711 116.671 9.42051C117.513 9.33338 118.355 10.2573 118.305 11.1001C118.274 11.6302 118.218 12.154 118.136 12.6716C118.457 12.6647 118.775 12.7141 119.084 12.8479C120.644 13.5251 120.535 15.435 120.418 16.8882C120.256 18.9048 119.523 21.0407 118.16 22.55C119.177 23.636 119.898 24.9329 120.327 26.4732C120.639 27.598 120.812 28.796 120.726 29.9668L120.699 30.3174C120.593 31.5879 120.383 32.9946 119.494 33.9087C119.037 34.3799 118.475 34.5517 117.939 34.4972C118.263 37.4253 118.471 40.3702 118.666 43.3045L118.758 44.707C119.194 51.489 118.844 63.2727 118.758 70.0658C118.678 76.4142 118.196 79.5287 114.408 84.6833C110.958 89.377 106.48 92.5526 100.876 93.8679C97.8561 94.5779 95.0372 94.7 91.9807 94.2476C90.4991 94.0276 88.9393 93.6406 87.5331 93.1086C85.9765 92.518 84.8669 92.0705 83.8195 90.7678C83.3241 90.1499 83.5625 88.8346 84.549 88.9581C86.0408 89.1441 86.3867 89.523 87.8169 89.9765L88.833 90.4511C90.2575 90.9202 91.8162 91.5362 93.3055 91.6849C96.3561 91.9886 99.8463 91.402 102.769 90.4511C107.527 88.9012 111.353 84.899 113.979 80.5592C117.097 75.4152 116.71 67.5064 116.665 61.5915C116.617 55.101 116.412 48.6068 116.076 42.123L116.019 41.0425C115.842 37.706 115.671 34.3674 115.52 31.0287C115.473 29.9815 115.402 28.9259 115.273 27.8807C114.098 27.1728 113.044 26.1967 112.358 24.9924C110.978 25.5789 109.527 26.002 108.193 26.3392C105.101 27.1208 101.89 27.3106 98.7432 26.8211C97.8943 27.1816 97.0285 27.4985 96.1495 27.7712C95.9119 27.8795 95.6743 27.9859 95.4369 28.0902C93.3175 29.0222 91.1678 29.8118 88.9306 30.3899L88.381 30.5308C87.2037 30.8291 85.9248 31.1229 84.6719 31.2151C84.4661 31.2968 84.2439 31.3659 84.0013 31.4267C82.8604 31.7115 81.6763 31.8016 80.5069 31.7011C79.3676 31.6026 78.5444 30.4192 79.172 29.3113C79.6304 28.5028 80.0932 27.6964 80.5598 26.8921C78.9358 27.5875 77.2588 28.1656 75.5675 28.6557C73.8599 29.15 72.1279 29.5668 70.3936 29.9501C69.4665 30.1532 68.5355 30.3334 67.6104 30.5365C66.9481 30.681 72.2929 33.4604 71.7528 33.9087C71.1559 34.4009 70.9868 35.5486 70.7604 36.2566C70.4629 37.1761 70.1837 38.0997 69.929 39.0339C69.4219 40.898 69.0062 42.7893 68.6842 44.6995C68.3623 46.6117 68.1461 48.5429 68.0258 50.4803C67.9058 52.4156 67.9586 54.3634 67.7652 56.2904C67.6611 57.3125 66.5936 57.8382 65.805 57.124C65.7125 57.0402 65.6192 56.9555 65.5269 56.8699L65.3893 56.7407C64.7146 56.1123 64.0605 55.4463 63.5207 54.6965C63.4229 54.5582 63.3292 54.4137 63.2416 54.2671C63.2273 54.2671 63.2151 54.2629 63.2008 54.2524L63.0512 54.1367C61.4032 52.8758 58.6499 51.232 57.043 53.3267C56.5309 53.994 56.2687 54.8436 56.0512 55.6634L55.6693 57.1304C55.4224 58.0881 55.19 59.0512 55.054 60.0311C54.7463 62.2262 54.9012 64.7563 56.3705 66.5157C56.9574 67.2194 57.7664 67.7221 58.6688 67.8541C59.1723 67.9253 59.6695 67.8373 60.1688 67.7724C60.6762 67.7074 61.165 67.8122 61.6726 67.7619C62.4795 67.6802 62.832 68.673 62.5304 69.2972C62.3674 69.6323 62.1757 69.9213 61.9578 70.1664C62.1329 70.3214 62.3002 70.4889 62.4612 70.6649C62.938 70.8219 63.3657 71.1592 63.6858 71.6053C63.9446 71.9655 64.0789 72.3572 64.1015 72.7698C64.1298 72.8725 64.1543 72.9772 64.1769 73.084L64.614 73.8133C64.7102 73.9732 64.806 74.1312 64.9021 74.2862C66.0147 76.0875 67.2497 77.6123 68.7841 79.0491C70.2614 80.4315 71.8648 81.6693 73.2527 83.1522L73.4162 83.3283C74.71 84.7297 76.0739 86.4261 75.5675 88.4638C75.4371 88.9875 74.7257 89.3645 74.2613 89.0105C72.7677 87.8711 72.0156 86.0656 70.7484 84.6833C69.4441 83.259 67.9994 81.9793 66.6914 80.5592C65.4543 79.2188 64.4783 77.7002 63.7429 76.0288C63.4492 76.3619 63.0215 76.5985 62.4286 76.6907C61.4097 76.8478 60.46 76.2341 60.0159 75.3272C59.7305 75.4571 59.4393 75.5743 59.1457 75.6665C57.6011 76.1524 56.6293 74.3868 57.2121 73.0819C57.5237 72.3823 57.9129 71.7749 58.396 71.2639C56.8859 71.0502 55.3495 70.2481 54.3571 69.2469C51.8673 66.7314 51.5249 62.9509 52.0853 59.5892C52.3828 57.8068 52.8961 56.0034 53.5626 54.3299C53.6786 54.0388 53.8031 53.7456 53.9394 53.4565C53.864 53.4544 53.7866 53.4209 53.7377 53.356C53.2873 52.7235 52.7394 52.2061 52.405 51.4982C52.0973 50.8489 51.7552 50.1912 51.5125 49.5147C51.0135 48.1302 50.769 46.5678 50.606 45.1037C50.2697 42.1065 49.3645 36.2566 49.3645 33.9087C49.0283 29.3113 48.4358 23.7724 49.7844 19.2585C49.6371 19.179 49.496 19.083 49.3645 18.9695L49.2996 18.9113L49.194 18.8133C48.4224 18.0955 48.489 16.7502 49.194 16.0232L49.4167 15.7938C49.6987 15.5058 49.9418 15.2777 50.3973 14.9642C50.4645 14.9179 50.5332 14.8744 50.6027 14.8337C50.3643 14.3809 50.2816 13.8514 50.4476 13.2673C51.0263 11.2322 53.875 11.3043 55.6806 12.1917C57.6781 10.3593 59.8931 8.7685 62.2939 7.48038C68.0118 4.41405 74.4772 2.27558 80.7901 0.968616ZM57.9758 57.4827C59.0435 57.1246 60.4617 57.8765 61.4215 58.3289C62.638 58.9028 63.6731 59.751 64.6756 60.6475C65.1749 61.0957 65.2643 61.8288 65.1402 62.455C65.1278 62.5179 65.1158 62.5828 65.1013 62.6477C64.9689 63.3159 64.2435 63.8416 63.6016 63.8227C62.2588 63.785 61.6191 62.5933 60.8589 61.5837C60.7694 61.7471 60.6574 61.8979 60.5186 62.011L60.4249 62.0864C60.1094 62.3333 59.7617 62.5306 59.3449 62.5116C59.0494 62.4969 58.7664 62.4194 58.5054 62.2791C57.8533 61.9251 57.5662 61.058 57.7433 60.3522C57.8533 59.9081 58.106 59.5605 58.4361 59.3196L58.313 59.2331C58.0497 59.0447 57.8096 58.8462 57.6225 58.5532L57.5803 58.4839H57.5966C57.3928 58.1236 57.5254 57.6335 57.9758 57.4827Z" fill="black"/>
<path fill-rule="evenodd" clip-rule="evenodd" d="M95.8769 77.2444C94.6046 76.7238 93.4695 75.8555 92.6395 74.7462C92.351 74.3606 92.2762 73.9534 92.3367 73.581C92.4048 73.1622 92.6518 72.7826 92.9887 72.528C93.3266 72.2727 93.7493 72.1467 94.158 72.2109C94.5131 72.2667 94.8666 72.4617 95.1464 72.8662L95.2048 72.947C95.6982 73.6165 96.3412 74.1659 97.0738 74.5199C97.7799 74.8612 98.5696 75.0205 99.3868 74.9278C100.943 74.7515 102.016 73.9072 103.156 72.7608C103.298 72.616 103.439 72.4667 103.581 72.3151C103.671 72.1776 103.795 72.0892 103.934 72.0428C104.087 71.9913 104.261 71.9942 104.42 72.0499C104.573 72.1036 104.711 72.2054 104.803 72.3408C104.89 72.4696 104.94 72.6286 104.924 72.8115C104.819 73.9997 104.2 75.06 103.32 75.8926C102.343 76.8173 101.048 77.4571 99.8285 77.6814C98.4852 77.9286 97.1164 77.7515 95.8769 77.2444ZM100.462 58.9151C101.891 59.7864 104.069 61.8181 102.532 63.9782C100.722 65.8828 98.1162 63.699 96.8322 62.7114C95.6416 61.946 94.3039 63.9146 95.4086 64.8083C104.687 71.698 108.452 59.1429 101.185 57.8907C100.385 57.7527 100.088 58.6456 100.462 58.9151ZM83.8355 50.9006C83.9934 48.9347 86.9786 48.4883 87.2755 50.4336C87.5414 52.1762 87.2284 53.777 86.4458 55.3459C85.698 56.8447 83.8186 56.1455 83.6765 54.7806C83.4859 52.9511 83.7373 52.1235 83.8355 50.9006ZM106.559 50.0303C106.975 49.4836 107.576 49.1104 108.296 49.3213C110.545 49.9805 109.882 53.1834 109.092 54.7425C108.663 55.5891 107.276 55.8038 106.649 55.0583C105.627 53.8427 105.137 51.415 106.436 50.2176C106.472 50.1557 106.511 50.0933 106.559 50.0303ZM86.4141 42.2985L86.7694 42.2362C87.8686 42.0455 89.2353 41.8623 90.0129 42.7486C90.4253 43.2186 90.5673 44.0922 90.0129 44.5421C89.0378 45.3336 87.9598 45.0269 86.7913 45.0939C85.8284 45.1493 84.9029 45.3092 83.9753 45.5751C81.9404 46.1584 80.2823 47.2233 78.5443 48.3927C78.3162 48.546 78.0834 48.2535 78.1923 48.0396C79.1955 46.0686 81.1398 44.4496 83.0873 43.4627C84.1267 42.936 85.2642 42.499 86.4141 42.2985ZM104.508 41.4157L104.78 41.4715C107.74 42.0919 111.585 43.3314 112.986 46.247C113.04 46.6592 112.983 46.7476 112.938 46.8053L112.922 46.8245C112.884 46.8738 112.854 46.9418 112.676 46.9979C112.627 46.9861 112.577 46.9736 112.526 46.9603C111.884 46.7914 111.376 46.5588 110.884 46.3175L110.35 46.0538C109.731 45.7494 109.107 45.4561 108.445 45.2396C107.032 44.7775 105.58 44.4521 104.105 44.2783C103.785 44.2406 103.477 44.1324 103.234 43.9469C103.004 43.7709 102.827 43.5271 102.747 43.2031C102.643 42.7837 102.673 42.4663 102.897 42.088C103.066 41.8039 103.307 41.6069 103.584 41.4939C103.867 41.3786 104.189 41.3514 104.508 41.4157Z" fill="black"/>
<path fill-rule="evenodd" clip-rule="evenodd" d="M99.7795 67.4798C97.6747 66.529 95.955 67.0077 92.4645 67.8684C88.4794 69.4755 88.1954 69.1907 86.4922 71.1839C85.3746 74.1115 87.9115 73.8414 88.1954 73.8414C90.4665 73.5567 91.5699 72.5937 93.884 72.2343C95.7626 71.9401 97.8017 72.0016 99.5618 71.0005C100.847 71.7095 103.809 71.2852 105.986 71.4751C108.352 71.6584 108.206 72.0916 110.055 71.8483C111.096 71.5635 111.306 70.7977 108.836 68.9035C106.132 66.8304 102.146 66.6281 99.7795 67.4798Z" fill="black"/>
<path fill-rule="evenodd" clip-rule="evenodd" d="M102.229 86.7045C100.388 87.1548 100.638 86.9535 100.431 85.5234C100.27 84.4061 101.316 83.0263 99.012 83.1506C96.7076 83.2749 97.5703 84.1169 97.6872 85.6183C97.763 86.592 98.5553 87.7468 95.6999 88.3708C93.8794 88.3643 93.3557 88.2836 91.4415 87.9296C89.4543 87.9296 86.3482 86.5505 85.5744 90.0792C85.2959 91.3492 87.0376 91.5334 91.4415 91.8747C95.9078 92.7824 105.768 90.5637 108.948 87.1369C109.989 86.0152 110.128 86.3162 110.273 85.5234C110.578 83.8577 107.88 84.5567 105.825 85.1438C104.374 85.9213 103.414 86.4149 102.229 86.7045Z" fill="black"/>
</svg>
