<svg width="351" height="702" viewBox="0 0 351 702" fill="none" xmlns="http://www.w3.org/2000/svg">
<path fill-rule="evenodd" clip-rule="evenodd" d="M75.8094 328.051C75.8454 330.503 76.0906 336.132 76.7043 338.505C69.8664 327.519 59.6204 315.513 58.0622 302.058C58.5478 301.924 60.7025 301.725 61.0787 301.442C64.6165 303.09 63.9471 298.02 64.47 295.675C65.882 290.711 68.8485 285.827 70.1374 280.83C73.5255 279.362 66.7216 278.739 65.7331 278.71C69.8427 274.124 71.733 267.82 74.6591 262.47C78.9586 253.378 82.8094 244.084 86.2477 234.643C86.9992 240.558 87.134 246.537 86.676 252.485C85.2622 277.961 75.7136 302.457 75.8094 328.051ZM313.131 282.797C311.004 283.155 307.459 283.495 305.336 283.669C308.122 282.004 316.358 278.832 311.168 275.981C309.568 275.395 307.85 276.231 306.237 276.489C299.534 277.595 291.259 277.536 284.479 276.979C286.95 274.946 290.204 272.018 292.617 269.913C293.898 268.795 295.141 268.372 293.699 266.702C291.158 264.33 286.613 266.077 283.674 267.119C275.568 271.671 266.415 276.609 257.714 280.111C257.623 278.89 257.679 277.31 256.504 276.489C253.057 274.861 250.518 275.337 246.85 274.903C242.575 274.261 238.775 273.53 234.54 272.397C231.771 270.28 230.082 264.037 225.654 264.735C229.576 254.842 223.598 244.521 221.352 235.048C218.55 225.354 217.078 215.286 217.038 205.207C217.01 189.069 207.684 176.686 194.209 168.406C188.897 164.81 185.33 156.064 178.753 154.312C177.916 151.095 177.865 149.682 177.131 146.441C176.762 145.51 176.488 140.458 175.561 140.629C174.538 135.625 169.327 133.618 164.817 132.57C158.954 131.352 150.771 129.877 145.5 133.313C143.973 134.587 143.303 136.719 143.191 138.623C142.605 141.16 141.387 143.787 139.967 145.987C137.543 145.167 138.915 143.637 136.518 143.281C114.632 140.03 90.3386 156.123 76.1386 171.823C50.3988 198.316 29.8361 234.483 33.2021 272.242C32.2968 272.108 28.2845 271.478 28.3424 272.749C28.5389 278.274 29.5532 282.883 29.8331 288.404C29.5549 295.719 37.1364 296.6 42.6133 298.404C42.2761 319.626 49.9679 340.853 62.007 358.297C64.9318 361.73 69.3205 373.641 74.6591 368.896C75.2883 368.159 70.4092 363.049 69.5412 361.787C66.5772 358.047 58.726 339.529 64.2748 335.831C65.5083 339.828 77.4529 359.049 79.5821 348.14C82.4101 349.785 87.0831 350.907 90.4637 350.737C96.819 354.188 103.003 357.915 109.106 361.787C111.949 367.383 116.119 372.758 119.612 378.131C95.4354 434.108 71.8367 526.24 40.7238 578.963C38.011 582.406 52.9345 588.258 55.5704 589.521C50.5296 597.726 49.8985 607.233 46.0635 616.067C45.3331 615.949 44.5962 616.104 43.9373 616.458C39.2067 619.669 37.4215 631.165 37.1518 636.833C37.3702 639.361 36.4351 643.185 38.476 645.047C38.1907 645.356 37.9778 645.734 37.8262 646.12C36.39 647.241 36.5669 649.717 37.3346 651.253C40.0359 656.872 59.7804 656.351 66.1878 657.553C88.8842 659.48 107.934 659.784 130.627 657.677C133.413 657.093 131.306 652.737 129.931 651.555C130.566 651.168 130.972 650.46 130.694 649.551C125.535 634.763 106.889 635.763 95.6062 627.866C98.573 626.146 96.6582 626.695 94.7942 627.364C92.816 626.118 90.8916 624.715 89.1089 623.166C90.4781 622.319 89.8028 621.759 88.3216 622.468C85.9872 620.592 84.169 617.691 81.1953 616.782C78.2826 616.067 78.2826 614.818 78.2826 614.031C80.016 607.045 81.9095 599.88 82.8827 592.795C83.9208 594.33 92.8777 582.033 94.7942 578.963C102.241 567.142 102.221 555.493 107.432 542.637C118.133 514.641 140.053 455.965 153.421 429.19C184.699 480.278 169.465 549.374 188.76 603.851C189.617 605.488 191.23 611.626 193.463 609.855C194.331 610.059 195.254 610.168 196.081 610.286C195.842 616.241 195.397 622.181 194.41 628.074C193.49 628.317 192.709 628.801 192.304 629.647C190.755 628.507 187.79 645.323 187.536 647.036C187.533 649.246 185.632 654.166 187.368 655.479C184.867 656.505 184.458 660.296 186.217 662.245C191.439 669.28 216.894 667.347 226.284 668.526C238.159 668.231 287.838 672.687 291.287 661.395C291.973 658.818 290.797 655.564 288.407 654.572C289.363 652.333 287.072 650.171 285.671 648.601C277.405 639.983 264.697 638.626 253.692 634.875C254.102 634.454 239.328 626.866 236.125 624.99C236.336 622.442 231.054 624.997 231.039 624.99C228.52 620.528 226.736 613.586 225.048 608.773C228.164 607.804 235.673 606.944 237.065 603.851C241.538 602.347 237.051 595.845 236.125 592.795C209.905 527.036 234.781 444.091 196.081 382.025C203.174 377.952 211.313 369.041 204.306 361.564C202.903 359.767 199.473 354.172 199.529 355.149C198.226 349.821 195.316 340.644 194.41 335.257C191.081 315.478 193.263 296.954 196.081 276.979C199.993 292.01 213.478 304.532 227.196 311.4C232.55 313.614 239.619 318.184 245.497 316.742C250.802 315.169 260.436 304.253 261.572 299.011C277.036 300.854 293.093 299.374 307.871 294.502C309.769 293.783 312.014 293.843 311.427 291.145C310.842 288.854 306.67 289.438 304.877 289.864C307.619 288.34 314.736 287.942 314.682 283.959C314.589 283.129 313.977 282.654 313.131 282.797Z" fill="white"/>
<path fill-rule="evenodd" clip-rule="evenodd" d="M309.044 286.572C304.101 288.68 298.997 290.706 293.61 291.243C292.381 291.367 292.365 293.307 293.61 293.186C298.085 292.75 302.573 292.334 306.99 291.462C307.545 291.352 310.435 290.326 310.596 291.297C309.958 293.621 298.323 295.994 295.736 296.469C280.412 300.265 265.016 297.27 249.63 297.1C248.094 296.642 246.514 296.666 245.035 297.142C244.218 297.168 243.401 297.204 242.585 297.253C245.58 290.837 249.865 285.119 254.939 280.225C258.64 281.919 268.821 276.826 272.641 275.184C279.022 272.398 284.736 266.328 292.212 267.566C288.607 270.81 284.677 273.639 281.011 276.811C280.071 277.631 280.856 279.163 281.992 279.182C289.953 279.731 297.932 279.785 305.815 278.346C311.404 277.273 311.493 277.448 306.677 280.569C304.131 282.198 301.15 283.741 298.03 283.395C296.327 283.348 296.439 285.769 298.03 285.975C302.652 286.141 307.358 286.006 311.925 285.227C310.962 285.855 309.57 286.338 309.044 286.572ZM241.455 300.338C241.39 300.408 241.324 300.475 241.259 300.54C241.228 300.553 241.198 300.566 241.167 300.579C241.295 300.254 241.42 299.932 241.54 299.62C241.544 299.619 241.548 299.618 241.552 299.618C241.47 299.852 241.44 300.095 241.455 300.338ZM204.726 402.822C227.814 466.994 209.273 539.073 235.885 602.172C235.596 602.414 235.383 602.833 235.369 603.282C231.919 603.616 228.559 605.208 225.111 605.815C215.082 608.162 204.762 608.648 194.497 608.768C194.494 608.767 194.492 608.766 194.489 608.765C194.209 608.675 193.801 608.737 193.401 608.773C191.231 600.282 187.951 592.067 186.337 583.412C169.724 472.222 186.627 460.849 109.469 364.403C134.387 381.544 167.551 401.685 197.226 383.899C199.925 390.122 202.535 396.401 204.726 402.822ZM227.632 623.112C228.004 624.113 228.323 625.15 228.877 625.995C217.421 639.273 211.7 632.629 197.931 628.645C198.281 622.59 197.613 616.59 196.546 610.628C205.755 612.055 215.18 611.39 224.304 609.663C224.74 614.28 226.049 618.771 227.632 623.112ZM236.125 624.99C238.439 627.289 240.942 629.445 243.744 631.155C241.95 632.637 237.934 633.713 237.679 636.255C237.72 638.552 241.397 638.739 240.515 636.58C242.067 634.983 244.028 633.844 245.685 632.346C247.372 633.344 249.101 634.241 250.864 635.066C249.221 636.381 246.782 637.414 246.42 639.678C246.293 640.784 247.502 641.298 248.371 641.167C250.612 640.368 251.85 637.683 253.861 636.394C266.038 641.313 280.005 644.346 288.177 655.565C287.883 655.715 287.671 655.935 287.535 656.192C284.347 655.692 281.082 656.93 277.891 657.231C268.023 658.716 258.064 659.609 248.092 659.971C231.34 660.486 214.538 659.534 197.914 657.485C195.505 657.082 193.098 656.445 190.779 655.61C191.242 649.777 191.906 643.841 192.151 637.93C192.426 637.709 192.588 637.325 192.526 636.935C192.334 635.74 192.385 634.031 192.782 632.619C192.844 632.522 192.907 632.426 192.978 632.336C193.798 631.274 195.185 630.976 196.463 631.054C196.567 631.06 196.671 631.073 196.776 631.089C196.95 631.18 197.118 631.287 197.277 631.415C197.345 631.425 197.41 631.432 197.479 631.443C197.525 631.451 197.566 631.464 197.605 631.479C197.636 631.426 197.664 631.368 197.692 631.31C198.484 631.553 199.29 631.88 200.062 631.917C206.264 634.634 212.514 638.064 219.448 636.767C224.725 635.909 227.797 631.353 231.616 628.114C232.967 626.871 234.865 626.292 236.125 624.99ZM288.608 658.746C304.561 670.395 210.229 665.475 205.051 664.922C200.194 664.475 185.063 664.974 187.852 657.028C188.691 657.295 189.639 657.052 190.185 656.495C207.292 666.687 269.892 665.898 288.608 658.746ZM150.058 432.285C148.975 434.356 147.827 436.391 146.763 438.471C146.514 438.958 146.269 439.447 146.026 439.936C145.697 440.429 145.369 440.921 145.046 441.414C139.108 450.565 135.875 461.715 130.955 473.811C118.704 503.933 107.073 539.918 98.2846 565.491C95.0369 572.539 91.4569 579.474 86.9657 585.817C85.9709 587.744 83.4858 589.31 83.3936 591.508C83.3668 591.534 83.3397 591.561 83.3129 591.587C83.1622 591.736 83.0119 591.884 82.8607 592.032C80.5208 590.803 73.9099 590.769 71.5981 589.994C61.6424 588.042 52.019 584.44 43.2423 579.347C66.5366 530.534 90.1468 461.491 109.381 409.982C110.68 406.785 111.964 403.582 113.261 400.384C115.171 395.671 117.305 390.99 118.972 386.185C119.491 384.685 119.875 383.077 119.824 381.483C130.551 397.257 141.789 412.779 151.221 429.387C150.978 430.407 150.52 431.402 150.058 432.285ZM80.702 597.692C78.9316 603.142 77.04 608.615 75.6816 614.185C75.6226 614.44 75.6096 614.68 75.6318 614.903C75.6177 614.94 75.6039 614.978 75.5898 615.015C75.3548 615.633 75.0435 616.163 75.124 616.754C61.7116 622.644 64.1241 629.678 50.1549 619.157C49.6908 618.89 49.1986 618.626 48.6887 618.398C48.7111 618.338 48.7313 618.276 48.7464 618.207C49.0711 616.746 49.2823 615.268 49.3804 613.776C49.8892 611.578 50.3761 609.373 50.9288 607.185C51.6584 605.079 52.398 602.976 53.1035 600.868C53.1761 600.693 53.2483 600.518 53.3217 600.343C54.3913 597.809 55.4255 595.085 55.649 592.338C55.7819 591.806 55.9064 591.273 56.0269 590.739C56.365 590.634 56.5996 590.397 56.7297 590.108C64.7327 592.889 73.1445 595.159 81.6487 595.269C81.3134 596.07 80.9854 596.872 80.702 597.692ZM82.1484 617.824C84.6703 618.491 85.9998 620.98 87.5925 622.985C85.7584 624.255 84.2467 626.088 83.1967 628.074C82.5001 628.72 81.8495 629.409 81.2715 630.156C80.5502 631.24 82.1946 632.511 83.0738 631.55C84.9034 629.138 86.772 626.652 89.3154 624.925C90.5419 626.271 91.8512 627.537 93.2109 628.752C91.981 629.634 90.9129 630.706 90.0661 631.963C88.4557 633.169 87.1516 634.547 87.8196 635.636C88.4683 636.686 89.7122 636.114 90.3179 635.356C91.651 633.491 93.1349 631.636 95.0167 630.311C99.3558 634.006 104.287 636.88 109.644 638.809C116.733 641.45 126.014 643.568 128.739 651.588C116.762 651.734 104.765 651.88 92.79 651.245C75.2935 650.669 57.9811 647.943 40.5673 646.507C40.6797 646.361 40.7166 646.168 40.5865 645.997C40.2273 645.524 39.694 645.312 39.32 644.861C39.7958 642.915 38.9017 639.999 39.2368 638.215C39.1803 632.967 41.048 622.252 41.1607 622.059C42.379 619.964 44.7536 618.555 46.9931 620.066C47.148 620.171 56.8161 629.517 63.2646 627.571C65.127 626.965 66.6732 625.754 68.2934 624.697C72.653 621.876 77.2297 619.521 82.1484 617.824ZM131.095 656.734C100.963 658.467 70.546 658.08 40.7017 653.306C39.7217 653.02 38.8397 652.546 38.1499 651.922C38.0844 651.167 38.0371 650.411 38.0148 649.652C38.0035 649.264 37.7861 647.952 38.2053 647.709C38.4414 647.572 38.6008 647.396 38.6986 647.203C49.3721 650.865 61.0599 651.473 72.215 652.943C91.2962 654.525 110.803 656.224 129.853 654.6C130.371 655.27 130.957 655.931 131.095 656.734ZM38.8112 645.944C38.9308 646.113 39.0675 646.27 39.2227 646.399C39.0739 646.388 38.9249 646.375 38.7758 646.363C38.752 646.271 38.7196 646.181 38.6775 646.095C38.7247 646.046 38.769 645.996 38.8112 645.944ZM52.4633 595.298C52.6468 594.499 52.8587 593.663 53.0507 592.814C52.9155 593.882 52.6453 594.942 52.3028 595.988C52.3558 595.758 52.4103 595.529 52.4633 595.298ZM107.869 363.508C107.899 363.484 107.927 363.457 107.952 363.426C108.194 363.581 108.437 363.735 108.678 363.891C109.45 365.438 110.321 366.969 111.248 368.488C110.118 366.843 109.02 365.147 107.869 363.508ZM79.5513 346.892C79.5034 346.425 79.4255 345.953 79.3333 345.485C79.5877 345.865 79.8662 346.228 80.1632 346.566C80.418 346.856 80.6899 347.128 80.9756 347.385C80.5042 347.212 80.0303 347.045 79.5513 346.892ZM79.6052 347.997C79.609 347.748 79.6003 347.495 79.5822 347.239C79.8436 347.412 80.1068 347.582 80.3729 347.747C80.1108 347.811 79.8545 347.894 79.6052 347.997ZM75.9671 317.282C75.3897 323.78 74.7306 330.477 76.3848 336.868C69.5469 325.678 60.8968 316.757 59.3385 303.052C59.8241 302.916 60.2756 302.713 60.6518 302.425C64.1896 304.103 64.7977 298.939 65.3203 296.55C66.7324 291.494 68.4213 286.52 69.7104 281.43C73.0981 279.934 66.2945 279.3 65.3061 279.271C65.3461 279.238 65.3853 279.203 65.4242 279.165C69.4189 274.463 71.345 268.148 74.2318 262.728C78.5311 253.467 82.3819 244 85.8199 234.385C89.1606 262.45 78.7924 289.636 75.9671 317.282ZM69.6808 343.304C67.9911 341.016 66.564 338.519 65.4666 335.894C65.3041 335.505 64.9343 335.046 64.4423 335.112C61.6526 335.486 60.7344 338.156 60.7855 340.682C62.0196 350.097 66.2613 359.086 71.7158 366.785C54.1897 348.88 47.8998 323.686 43.4984 299.738C48.0358 300.996 52.4989 302.786 57.2021 303.285C59.951 325.702 76.736 332.412 77.2887 348.689C76.494 352.078 70.5389 344.436 69.6808 343.304ZM237.054 274.064C237.013 274.074 236.973 274.088 236.935 274.111C236.9 274.132 236.866 274.154 236.832 274.175C236.768 274.082 236.702 273.992 236.632 273.905C236.773 273.958 236.913 274.012 237.054 274.064ZM256.787 280.058C256.23 280.144 255.691 280.135 255.202 279.97C255.314 279.863 255.423 279.753 255.536 279.647C255.618 279.57 255.822 279.354 256.073 279.118C256.201 279.504 256.451 279.847 256.787 280.058ZM315.311 283.53C315.218 282.685 314.606 282.202 313.76 282.347C311.633 282.712 309.513 282.976 307.39 283.154C310.176 281.458 316.182 278.068 310.992 275.164C309.391 274.568 307.489 275.197 305.875 275.461C299.173 276.587 292.372 277.058 285.591 276.49C288.063 274.419 290.621 272.453 293.034 270.31C294.315 269.171 295.771 267.653 294.329 265.953C291.788 263.536 286.178 265.316 283.24 266.378C275.133 271.014 267.32 275.943 258.62 279.51C258.528 278.266 258.949 276.758 257.774 275.922C254.327 274.263 250.085 274.748 246.417 274.306C242.142 273.652 238.342 272.691 234.108 271.536C231.338 269.38 230.927 263.673 226.499 264.383C230.421 254.307 223.166 244.446 220.92 234.797C218.118 224.923 216.645 214.668 216.606 204.401C216.579 187.966 207.252 175.349 193.778 166.916C193.551 166.73 193.327 166.54 193.103 166.35C192.52 165.735 191.95 165.105 191.393 164.454C190.22 163.083 189.085 161.676 187.894 160.32C187.352 159.473 186.778 158.65 186.107 157.897C185.514 157.162 184.848 156.498 183.995 155.978C183.928 155.937 183.859 155.902 183.791 155.863C182.369 154.889 180.761 154.21 179.06 153.872C178.256 150.767 177.399 147.675 176.7 144.543C176.38 143.756 175.965 138.047 175.104 138.681C174.023 141.424 175.01 166.244 180.283 163.002C180.802 169.457 180.904 178.732 173.802 181.586C161.357 185.471 145.346 157.578 140.194 148.145C141.616 148.695 142.823 145.379 143.427 141.968C143.68 141.16 143.887 140.337 144.056 139.508C144.237 138.622 144.495 137.691 144.289 136.799C144.222 136.507 143.997 136.313 143.735 136.231C143.64 135.692 143.48 135.334 143.244 135.238C143.056 135.659 142.904 136.097 142.771 136.545C142.761 136.562 142.748 136.577 142.739 136.596C142.37 137.306 142.331 138.119 142.178 138.901C142.042 139.449 141.893 139.991 141.703 140.514C141.22 141.845 140.537 143.032 139.871 144.239C138.589 142.847 136.568 142.143 134.659 141.926C132.817 141.716 130.935 141.704 129.084 141.645C127.305 141.588 125.392 141.516 123.661 141.967C123.575 141.989 123.559 142.073 123.593 142.136C85.3462 144.205 46.4885 201.523 37.0523 233.324C33.458 245.752 31.4428 258.882 32.7765 271.813C31.8711 271.677 27.8589 271.035 27.9166 272.329C28.1131 277.957 29.1274 283.521 29.4073 289.145C29.1291 296.595 36.7106 297.493 42.187 299.33C41.8498 320.946 49.5418 342.568 61.58 360.336C64.5047 363.833 70.1089 374.445 75.4476 369.612C76.0765 368.861 75.9334 367.967 75.1625 367.395C73.9037 366.462 73.0102 364.95 72.1425 363.664C69.1784 359.855 60.0023 341.22 63.848 337.452C65.7831 341.595 72.8048 354.01 78.3138 351.269C79.1421 350.536 79.4977 349.548 79.5845 348.457C79.8019 348.511 80.0205 348.562 80.2402 348.606C82.1629 350.314 87.8066 352.839 89.8496 352.662C90.5314 352.998 91.2125 353.336 91.8931 353.674C93.7787 354.739 95.6496 355.828 97.5086 356.936C98.9805 357.915 100.493 358.819 102.03 359.683C102.919 360.234 103.806 360.791 104.691 361.35C105.377 363.136 106.579 364.848 107.525 366.394C108.115 367.359 108.776 368.556 109.567 369.602C110.438 371.015 111.41 372.359 112.408 373.618C113.726 375.282 115.374 376.748 116.544 378.52C117.851 380.499 117.666 382.664 116.978 384.84C116.264 387.098 115.243 389.273 114.337 391.459C113.357 393.823 112.377 396.187 111.397 398.552C109.492 403.149 107.586 407.746 105.681 412.344C104.593 414.968 103.524 417.601 102.471 420.24C102.11 421.143 101.782 422.055 101.472 422.972C81.6027 469.74 60.4095 533.964 38.7586 579.077C36.6199 581.866 46.9788 586.164 52.7013 588.479C52.7269 588.557 52.7492 588.636 52.7724 588.715C51.9162 590.563 51.4906 592.743 50.9959 594.676C50.3746 597.102 49.7396 599.525 49.0905 601.943C48.4409 604.365 47.7925 606.798 47.1708 609.239C46.3331 611.387 45.4898 613.524 44.6021 615.624C44.5674 615.712 44.5312 615.802 44.4956 615.89C43.3537 615.955 42.355 616.439 41.595 617.205C41.5062 617.233 41.4202 617.29 41.3491 617.382C36.9967 623.225 35.552 630.881 35.1869 638.022C35.3904 640.16 34.5723 644.407 36.2356 646.091C35.8249 646.573 35.594 647.188 35.4766 647.863C34.4658 649.118 34.6787 651.302 35.3696 652.71C38.0128 660.467 97.7549 660.757 107.86 660.657C116.101 660.507 124.286 660.02 132.491 659.253C133.763 658.983 134.014 657.914 133.783 656.717C134.035 655.298 133.519 653.45 132.401 652.421C132.641 652.035 132.729 651.545 132.558 650.977C127.399 635.913 108.328 636.932 97.0453 628.888C97.1997 628.797 97.3374 628.714 97.466 628.635C97.7134 628.549 97.9625 628.468 98.2139 628.396C99.3984 628.055 98.8836 626.175 97.7044 626.545C96.7909 626.831 95.9127 627.188 95.0822 627.613C93.5098 626.542 91.9827 625.371 90.5485 624.101C90.9736 623.833 91.4047 623.576 91.838 623.322C92.462 623.207 93.1072 623.146 93.7774 623.142C94.6311 623.137 94.867 622.289 94.5366 621.732C94.6041 621.69 94.6718 621.652 94.7391 621.609C94.6407 621.593 94.537 621.587 94.4304 621.586C94.2794 621.415 94.0623 621.29 93.7774 621.262C91.917 621.079 90.1759 621.514 88.6227 622.354C86.7848 620.543 85.1099 618.369 82.6348 617.598C84.6233 616.871 85.5547 614.665 83.0391 614.027C81.931 613.928 80.7938 614.342 79.7223 614.796C81.2653 608.462 82.426 601.984 83.3491 595.546C83.6122 595.591 83.8728 595.62 84.1283 595.627C85.1698 595.653 85.8702 594.857 86.3747 593.912C86.4309 593.904 86.4867 593.895 86.5401 593.887C88.4306 593.089 89.3069 590.904 90.6128 589.42C94.6978 583.773 98.1343 577.66 101.058 571.336C111.804 540.399 127.827 488.934 140.807 459.716C144.963 450.361 148.673 441.838 152.991 432.547C184.268 484.584 169.034 548.445 188.328 603.934C189.166 605.563 190.724 611.561 192.877 610.159C192.89 610.168 192.902 610.178 192.918 610.187C193.321 610.415 193.725 610.693 194.164 610.844C194.371 610.915 194.556 610.843 194.685 610.71C194.88 611.496 194.836 612.409 194.873 613.177C194.924 614.221 194.952 615.266 194.964 616.311C194.987 618.381 194.936 620.45 194.8 622.516C194.607 624.272 194.383 626.026 194.11 627.776C193.091 627.965 192.152 628.487 191.474 629.333C190.479 630.575 190.127 632.163 189.89 633.703C189.832 634.077 189.784 634.448 189.759 634.81C188.487 639.699 187.264 646.829 187.106 647.922C187.101 650.173 185.201 655.185 186.937 656.522C184.436 657.567 184.028 661.428 185.786 663.414C191.008 670.58 216.462 668.61 225.852 669.811C237.726 669.511 290.597 674.05 294.046 662.548C294.732 659.923 293.556 656.608 291.165 655.598C292.122 653.318 289.831 651.116 288.429 649.516C280.165 640.738 268.061 637.747 257.058 633.927C257.468 633.498 259.953 631.94 259.628 631.537C257.82 631.617 256.066 632.195 254.423 632.987C252.259 632.191 250.11 631.341 248.013 630.369C253.983 625.446 250.494 626.963 246.361 629.572C245.906 629.332 245.45 629.094 244.993 628.856C245.038 628.655 244.992 628.438 244.809 628.266C244.23 627.723 243.476 627.506 242.767 627.177C242.005 626.823 241.266 626.417 240.554 625.971C239.238 625.146 238.131 623.836 236.755 623.15C236.545 623.045 236.329 622.985 236.113 622.957C235.224 622.151 233.073 622.915 232.07 623.655C232.053 623.648 232.039 623.641 232.024 623.635C229.506 619.09 227.628 614.241 225.94 609.338C229.056 608.352 236.069 607.98 237.461 604.83C241.934 603.298 238.687 596.502 237.76 593.395C211.541 526.414 236.535 446.745 197.837 383.525C204.811 379.448 212.608 369.701 206.211 362.137C206.031 361.786 205.835 361.443 205.637 361.113C204.676 359.514 203.64 357.968 202.696 356.36C202.648 356.156 202.605 355.949 202.576 355.736C202.52 355.347 202.277 355.155 201.991 355.109C201.042 353.363 200.199 351.57 199.4 349.749C194.465 326.393 193.136 302.462 196.424 278.724C200.336 294.034 213.046 305.572 226.763 312.567C232.117 314.822 239.186 319.478 245.064 318.009C250.368 316.407 260.003 305.288 261.138 299.948C276.602 301.825 292.658 300.319 307.436 295.355C309.333 294.623 313.03 293.512 312.443 290.763C311.858 288.43 309.086 288.924 307.293 289.357C310.034 287.806 315.365 287.587 315.311 283.53Z" fill="black"/>
<path fill-rule="evenodd" clip-rule="evenodd" d="M198.343 103.242C197.884 99.2075 198.477 90.7741 198.517 90.2617C198.768 87.0226 197.254 74.232 194.39 75.4105C189.587 71.6006 183.189 70.7593 177.207 70.3574C164.781 69.5225 151.562 71.4391 141.967 79.8179C137.222 84.1692 132.602 90.4978 132.974 97.0874C128.662 103.333 122.584 111.901 127.956 119.204C129.782 121.537 132.684 122.405 134.978 124.172C139.591 127.901 142.486 133.252 147.144 136.958C159.483 148.068 180.435 150.389 192.558 137.753C201.933 128.601 200.417 114.909 198.768 103.242C197.66 95.3983 199.237 111.114 198.343 103.242Z" fill="white"/>
<path fill-rule="evenodd" clip-rule="evenodd" d="M160.095 43.7506C163.673 43.0092 167.347 42.5479 171.001 42.6867L171.283 42.698C174.032 42.8108 177.513 43.0604 179.912 44.7019C180.05 44.5597 180.272 44.4868 180.473 44.5854C183.323 45.9823 186.458 46.9922 189.458 47.9958C192.445 48.9944 195.544 49.6537 198.675 49.9194C199.853 50.0194 200.861 51.3255 200.115 52.4969C199.938 52.776 199.765 53.058 199.593 53.3406C199.881 53.3098 200.169 53.278 200.457 53.2481C201.404 53.1502 202.35 54.1884 202.294 55.1355C202.259 55.7312 202.197 56.3198 202.104 56.9014C202.465 56.8937 202.823 56.9492 203.17 57.0996C204.925 57.8605 204.803 60.0068 204.671 61.6397C204.489 63.9058 203.664 66.306 202.131 68.002C203.276 69.2224 204.086 70.6798 204.569 72.4106C204.919 73.6745 205.114 75.0208 205.018 76.3365L204.987 76.7304C204.868 78.1581 204.632 79.7388 203.631 80.766C203.118 81.2955 202.485 81.4885 201.882 81.4273C202.247 84.7177 202.481 88.0269 202.701 91.3243L202.804 92.9003C203.295 100.521 202.9 113.763 202.804 121.397C202.714 128.53 202.172 132.03 197.911 137.822C194.03 143.097 188.992 146.665 182.689 148.143C179.292 148.941 176.121 149.078 172.683 148.57C171.016 148.323 169.262 147.888 167.68 147.29C165.929 146.626 164.681 146.124 163.503 144.66C162.946 143.965 163.214 142.487 164.323 142.626C166.001 142.835 166.391 143.261 167.999 143.771L169.142 144.304C170.745 144.831 172.498 145.523 174.173 145.69C177.605 146.032 181.531 145.372 184.818 144.304C190.17 142.562 194.474 138.065 197.428 133.188C200.935 127.408 200.5 118.52 200.45 111.874C200.395 104.58 200.164 97.2826 199.787 89.9966L199.723 88.7824C199.524 85.0331 199.331 81.2814 199.162 77.5297C199.109 76.3529 199.029 75.1667 198.884 73.9922C197.562 73.1967 196.377 72.0999 195.604 70.7466C194.053 71.4056 192.421 71.881 190.919 72.26C187.441 73.1384 183.83 73.3516 180.29 72.8015C179.335 73.2066 178.361 73.5627 177.372 73.8692C177.105 73.9908 176.838 74.1104 176.571 74.2276C174.187 75.275 171.769 76.1623 169.252 76.8119L168.634 76.9702C167.31 77.3054 165.871 77.6355 164.462 77.7392C164.23 77.831 163.98 77.9087 163.707 77.9769C162.424 78.297 161.092 78.3982 159.777 78.2853C158.495 78.1746 157.569 76.8448 158.275 75.5998C158.791 74.6913 159.311 73.7851 159.836 72.8813C158.009 73.6627 156.123 74.3123 154.22 74.8631C152.3 75.4185 150.351 75.8869 148.401 76.3176C147.358 76.5459 146.31 76.7483 145.27 76.9766C144.525 77.139 150.537 80.2623 149.929 80.766C149.258 81.3191 149.068 82.6089 148.813 83.4044C148.478 84.4376 148.164 85.4756 147.878 86.5253C147.307 88.62 146.84 90.7453 146.478 92.8918C146.116 95.0407 145.872 97.2107 145.737 99.3878C145.602 101.563 145.661 103.751 145.444 105.917C145.327 107.065 144.126 107.656 143.239 106.854C143.135 106.759 143.03 106.664 142.926 106.568L142.771 106.423C142.012 105.717 141.277 104.968 140.669 104.126C140.559 103.97 140.454 103.808 140.355 103.643C140.339 103.643 140.326 103.638 140.31 103.627L140.141 103.497C138.287 102.08 135.19 100.233 133.383 102.586C132.807 103.336 132.512 104.291 132.267 105.212L131.838 106.861C131.56 107.937 131.298 109.019 131.146 110.12C130.799 112.587 130.974 115.43 132.626 117.407C133.287 118.198 134.197 118.763 135.212 118.911C135.778 118.991 136.337 118.892 136.899 118.819C137.47 118.746 138.02 118.864 138.591 118.808C139.498 118.716 139.895 119.831 139.556 120.533C139.372 120.909 139.156 121.234 138.911 121.51C139.108 121.684 139.296 121.872 139.478 122.07C140.014 122.246 140.495 122.625 140.855 123.126C141.146 123.531 141.297 123.971 141.323 124.435C141.355 124.55 141.382 124.668 141.408 124.788L141.899 125.608C142.007 125.787 142.115 125.965 142.223 126.139C143.475 128.163 144.864 129.877 146.59 131.491C148.252 133.045 150.055 134.436 151.617 136.102L151.8 136.3C153.256 137.875 154.79 139.781 154.22 142.071C154.074 142.659 153.274 143.083 152.751 142.685C151.071 141.405 150.225 139.376 148.8 137.822C147.332 136.222 145.707 134.784 144.236 133.188C142.844 131.682 141.747 129.975 140.919 128.097C140.589 128.472 140.108 128.737 139.441 128.841C138.295 129.018 137.226 128.328 136.727 127.309C136.406 127.455 136.078 127.587 135.748 127.69C134.011 128.236 132.918 126.252 133.573 124.786C133.924 124 134.361 123.317 134.905 122.743C133.206 122.503 131.478 121.601 130.362 120.476C127.561 117.65 127.176 113.401 127.806 109.624C128.141 107.621 128.718 105.594 129.468 103.714C129.598 103.387 129.738 103.057 129.892 102.732C129.807 102.73 129.72 102.692 129.665 102.619C129.158 101.909 128.542 101.327 128.166 100.532C127.82 99.8021 127.435 99.063 127.162 98.3028C126.601 96.7471 126.325 94.9913 126.142 93.3461C125.764 89.978 124.746 83.4044 124.746 80.766C124.367 75.5998 123.701 69.3756 125.218 64.3033C125.052 64.214 124.894 64.1061 124.746 63.9785L124.673 63.9131L124.554 63.8029C123.686 62.9964 123.761 61.4846 124.554 60.6677L124.804 60.4099C125.122 60.0863 125.395 59.83 125.907 59.4777C125.983 59.4257 126.06 59.3767 126.138 59.3311C125.87 58.8222 125.777 58.2272 125.964 57.5708C126.615 55.284 129.819 55.365 131.85 56.3622C134.097 54.303 136.589 52.5154 139.289 51.068C145.721 47.6223 152.994 45.2192 160.095 43.7506ZM134.432 107.257C135.633 106.854 137.228 107.699 138.308 108.207C139.676 108.852 140.841 109.806 141.969 110.813C142.53 111.317 142.631 112.14 142.491 112.844C142.477 112.915 142.464 112.988 142.447 113.061C142.298 113.811 141.482 114.402 140.76 114.381C139.25 114.339 138.53 112.999 137.675 111.865C137.575 112.049 137.449 112.218 137.292 112.345L137.187 112.43C136.832 112.707 136.441 112.929 135.972 112.908C135.64 112.891 135.321 112.804 135.028 112.646C134.294 112.249 133.971 111.274 134.171 110.481C134.294 109.982 134.579 109.591 134.95 109.321L134.811 109.224C134.515 109.012 134.245 108.789 134.035 108.46L133.987 108.382H134.006C133.776 107.977 133.926 107.426 134.432 107.257Z" fill="black"/>
<path fill-rule="evenodd" clip-rule="evenodd" d="M184.64 124.561C183.289 123.91 181.744 123.955 180.328 124.386C178.652 124.896 177.168 125.956 175.847 127.084C175.331 127.524 174.841 128.021 174.35 128.521C173.725 129.156 173.098 129.797 172.402 130.317C172.632 128.358 174.004 126.369 175.182 124.93C176.627 123.166 178.64 121.735 180.815 121.043C183.133 120.306 185.523 120.712 187.4 121.908C189.259 123.093 190.613 125.057 190.886 127.458C190.944 127.963 190.708 128.424 190.359 128.774C189.952 129.182 189.38 129.451 188.847 129.451C188.303 129.451 187.82 129.231 187.462 128.881C187.087 128.514 186.847 128.004 186.813 127.451C186.79 126.861 186.653 126.344 186.158 125.722C185.826 125.304 185.201 124.832 184.64 124.561ZM188.073 103.946C187.512 104.15 186.861 104.643 186.672 105.183C186.631 105.302 186.607 105.423 186.605 105.546C186.423 105.175 186.353 104.737 186.377 104.305C186.453 102.93 187.761 101.932 188.876 101.349C189.273 101.141 189.68 101.004 190.085 100.931L191.521 100.675L190.173 100.117C188.93 99.6025 187.764 98.8949 186.723 98.0287C185.729 97.2019 184.81 96.1325 184.271 94.9526C184.028 94.4198 183.836 93.8985 183.702 93.3353L183.666 93.1771C183.601 92.8738 183.529 92.719 183.448 92.5474C183.4 92.4466 183.349 92.3382 183.293 92.1618C183.262 92.0628 183.245 91.9798 183.274 91.9153C183.302 91.8528 183.37 91.8259 183.437 91.8007C183.877 91.6338 184.586 91.7475 184.887 91.8681C185.615 92.1596 186.254 92.7952 186.87 93.3904C187.171 93.6808 187.465 93.9646 187.757 94.2074C189.622 95.7564 191.949 96.6378 194.224 96.8527L194.361 96.8648C194.962 96.9143 195.52 97.1517 195.915 97.5477C196.268 97.9017 196.487 98.3834 196.487 98.9602C196.487 99.522 196.234 100.063 195.842 100.456C195.468 100.831 194.962 101.074 194.412 101.054C194.026 101.041 193.643 101.006 193.262 100.955L191.846 100.765L192.927 101.7C193.142 101.886 193.343 102.099 193.525 102.347C194.51 103.69 194.933 105.739 194.896 107.383C194.889 107.697 194.802 108.021 194.643 108.3C194.503 108.544 194.307 108.754 194.054 108.885C193.752 109.042 193.496 109.126 193.151 109.133C192.776 109.14 192.459 109.022 192.198 108.823C191.872 108.574 191.632 108.207 191.468 107.806C191.249 107.274 191.236 106.712 191.215 106.15C191.2 105.762 191.184 105.373 191.119 104.989C191.027 104.5 190.806 103.876 190.527 103.679C190.116 103.388 189.021 103.612 188.341 103.85L188.073 103.946ZM182.224 108.866C183.831 109.845 186.281 112.128 184.551 114.556C182.516 116.696 179.585 114.242 178.14 113.132C176.801 112.272 175.296 114.484 176.539 115.489C186.976 123.231 191.211 109.122 183.037 107.715C182.137 107.56 181.802 108.563 182.224 108.866ZM170.821 105.758C170.382 105.262 169.954 104.799 169.293 104.535C168.511 104.223 167.563 104.189 166.75 104.423C165.828 104.688 165.098 105.301 164.557 106.083C164.082 106.771 163.754 107.589 163.568 108.396C163.219 108.012 163.056 107.569 162.978 107.118C162.848 106.376 162.94 105.611 163.193 104.883C163.755 103.263 165.109 101.823 166.689 101.204C168.492 100.496 170.723 100.732 172.38 101.729C173.225 102.237 174.199 103.12 174.689 103.983C175.025 104.573 175.044 105.183 174.831 105.708C174.596 106.286 174.09 106.755 173.444 106.99C173.138 107.102 172.823 107.093 172.524 107.014C172.135 106.911 171.772 106.69 171.476 106.434C171.229 106.221 171.023 105.986 170.821 105.758ZM173.515 95.5428C173.145 96.039 172.6 96.2925 172.032 96.3191C171.974 96.3219 171.916 96.3222 171.858 96.3201C171.821 96.3623 171.78 96.409 171.732 96.4638C171.621 96.5903 171.549 96.6734 171.473 96.754C171.2 97.0453 170.913 97.3234 170.614 97.5879C169.948 98.1775 169.231 98.6946 168.455 99.1286C167.096 99.8893 165.605 100.483 164.073 100.766C162.552 101.047 161.051 101.133 159.519 100.913L159.148 100.86C158.263 100.73 157.103 100.56 156.377 100.011C156.663 99.9199 156.953 99.9155 157.236 99.9029C157.422 99.8947 157.607 99.8863 157.787 99.8698C158.644 99.7918 159.477 99.6492 160.307 99.419C161.92 98.9718 163.382 98.3541 164.806 97.4688C166.202 96.6011 167.485 95.4201 168.506 94.1265L168.628 93.9696C168.681 93.9021 168.732 93.8348 168.783 93.7681C169.201 93.2209 169.585 92.6995 170.234 92.3523C170.748 92.0774 171.269 92.0031 171.769 92.0822C172.35 92.174 172.901 92.4669 173.39 92.8768C173.751 93.1799 173.918 93.6163 173.945 94.064C173.976 94.5905 173.816 95.139 173.515 95.5428Z" fill="black"/>
<path fill-rule="evenodd" clip-rule="evenodd" d="M181.456 118.49C179.088 117.422 177.154 117.96 173.228 118.927C168.745 120.733 168.425 120.413 166.509 122.653C165.252 125.942 168.106 125.639 168.425 125.639C170.98 125.319 172.221 124.237 174.824 123.833C176.937 123.502 179.231 123.572 181.211 122.447C182.657 123.243 185.989 122.766 188.437 122.98C191.098 123.186 190.934 123.673 193.014 123.399C194.185 123.079 194.422 122.219 191.643 120.09C188.601 117.76 184.118 117.533 181.456 118.49Z" fill="black"/>
<path fill-rule="evenodd" clip-rule="evenodd" d="M184.211 140.093C182.14 140.599 182.421 140.373 182.189 138.766C182.007 137.51 183.184 135.96 180.592 136.1C178 136.239 178.97 137.185 179.102 138.873C179.187 139.967 180.078 141.264 176.866 141.966C174.818 141.958 174.229 141.868 172.076 141.47C169.841 141.47 166.347 139.92 165.476 143.885C165.163 145.312 167.122 145.52 172.076 145.903C177.1 146.923 188.192 144.43 191.769 140.579C192.94 139.319 193.096 139.657 193.259 138.766C193.602 136.894 190.568 137.68 188.256 138.339C186.623 139.213 185.543 139.768 184.211 140.093Z" fill="black"/>
</svg>
