<svg width="192" height="281" viewBox="0 0 192 281" fill="none" xmlns="http://www.w3.org/2000/svg">
<path fill-rule="evenodd" clip-rule="evenodd" d="M189.698 153.101C188.836 152.852 187.758 152.789 186.814 152.743C183.478 152.546 180.076 154.141 176.804 154.86C175.372 155.215 173.856 155.633 172.324 155.944C170.963 156.129 169.557 156.268 168.143 156.356C167 156.391 165.67 156.303 165.28 157.507C162.983 157.954 160.949 158.14 158.759 157.76C158.964 157.061 159.081 156.329 158.869 155.576C158.976 155.397 159.122 155.156 159.199 154.993H158.936C155.092 153.451 150.936 152.397 147.072 150.799C142.028 148.977 134.601 145.456 128.773 143.051C129.168 140.882 129.315 138.679 129.147 136.536L129.381 136.347C129.458 135.926 129.578 135.422 129.794 135.04C130.069 134.309 130.076 133.311 130.185 132.484C130.413 130.868 130.565 128.434 130.15 126.514C129.969 123.911 128.219 121.905 126.332 120.295C124.015 117.998 121.695 115.756 119.433 113.37C106.914 100.576 105.924 84.461 86.3264 79.5633L86.3168 79.4872C86.1624 79.3145 86.0992 79.1775 85.9233 79.4505C85.2763 79.2019 84.4694 79.2227 83.9275 78.8024C82.9655 77.9227 82.283 76.9071 81.8367 75.7019C81.4929 73.4237 81.7362 69.9123 79.7453 68.4546C77.534 67.1267 65.7849 66.1812 64.7717 69.0846C64.1431 69.6765 63.8571 70.4284 63.6606 71.3491C63.0059 72.5905 62.5929 73.967 61.9335 75.2275C60.5315 78.0546 59.6228 77.428 57.1475 78.0741C56.8788 77.4738 56.0632 77.5947 55.4688 77.6819C48.2705 78.6961 39.4943 81.4637 36.4123 88.2468L36.6746 88.2132C31.3546 98.2336 34.8047 110.977 35.7562 121.596C36.5259 131.035 35.6457 140.519 33.554 149.323C30.9867 158.664 30.8394 169.111 35.9332 177.566C36.4509 178.534 37.0813 179.901 38.1967 179.294C38.8079 179.758 39.4945 180.078 40.4429 180.356C40.7044 180.546 40.9751 180.866 41.2488 181.002C41.2616 181.021 41.7023 180.766 41.7254 180.759C42.5583 181.951 88.2837 185.932 93.0288 186.551C97.2094 187.056 102.733 188.346 106.14 185.323C108.956 184.517 111.902 182.417 114.152 180.333C115.517 200.183 116.272 240.838 117.49 241.121C118.023 241.302 118.743 241.519 119.346 241.692C119.35 243.118 119.456 244.739 119.344 246.141C119.157 247.725 118.683 249.594 118.469 251.259C117.547 251.197 117.276 252.124 117.169 252.753C116.373 257.954 116.397 262.147 116.454 267.863C125.809 273.387 136.773 276.425 147.3 279.996C148.308 280.755 150.493 279.934 151.657 279.728C155.699 278.93 160.291 276.571 159.271 272.244C158.524 268.986 155.388 267.111 152.747 265.194C149.859 263.096 146.814 261 144.158 258.502C142.026 256.489 140.435 254.928 138.658 252.657C137.869 251.6 137.029 249.865 135.968 249.086C137.089 247.754 134.825 249.003 133.968 249.08C133.464 246.701 132.84 244.417 132.091 242.135L132.819 242.168C135.208 239.931 136.547 229.194 136.713 226.008C137.911 205.243 137.882 181.309 133.079 163.821C136.727 166.073 140.728 167.955 144.357 170.183C146.645 171.527 148.967 173.392 151.532 174.044C151.699 174.525 152.31 174.712 152.644 174.241C153.103 174.298 153.695 174.107 153.745 173.897C154.215 172.935 154.895 171.897 154.813 170.851C154.813 170.851 154.183 169.386 154.183 169.386C155.595 169.961 157.129 171.172 158.636 171.283C161.679 181.47 167.674 175.763 173.444 171.798C176.925 169.359 180.734 166.666 184.398 164.065C187.507 161.586 193.577 159.233 190.601 154.322" fill="white"/>
<path fill-rule="evenodd" clip-rule="evenodd" d="M58.916 77.4523C61.8549 76.7362 62.357 69.672 64.1316 70.6779C65.1574 71.5724 63.4794 73.26 63.1825 74.2696L63.0522 74.526C62.4502 75.7019 61.7693 76.8739 60.5827 77.5519C59.82 78.357 57.5402 77.5666 57.8754 78.8489C59.046 82.7134 65.2583 85.3894 68.9196 86.5928C74.6104 88.7361 83.8165 88.0109 85.1535 80.8262C82.0321 80.2532 79.7243 74.6058 81.6481 72.2546C81.7137 74.5386 82.336 76.8956 84.124 78.443L84.2227 78.5338C84.5373 78.8217 84.9447 79.1654 85.3508 79.1014C85.7468 78.5484 86.5156 78.863 86.7419 79.4467C104.514 82.5272 108.474 101.747 119.666 113.06C121.902 115.42 124.239 117.68 126.546 119.969C128.902 121.843 130.569 124.456 130.686 127.525C130.896 129.231 130.792 130.94 130.567 132.649L130.551 132.803C130.446 133.863 130.384 135 129.882 135.941C129.795 136.26 129.83 136.662 129.555 136.887C129.675 138.838 129.561 140.823 129.232 142.767L130.089 143.151C139.525 147.365 149.07 151.336 158.908 154.495C159.749 154.342 159.681 155.322 159.274 155.768C159.381 156.292 159.393 156.837 159.267 157.356C161.068 157.615 162.898 157.399 164.677 157.07C165.239 155.828 166.734 155.894 167.89 155.859C169.326 155.769 170.759 155.628 172.185 155.429C175.697 154.642 179.146 153.607 182.624 152.697C184.952 152.04 187.462 152.072 189.797 152.676C190.194 153.122 190.56 153.598 190.869 154.103C193.004 157.422 190.901 160.463 187.921 162.206C183.141 165.603 178.359 168.996 173.558 172.363L173.209 172.612C167.496 176.712 161.069 181.901 158.018 171.923C156.993 171.802 156.094 171.112 155.139 170.705C155.396 171.903 154.628 173.112 154.099 174.139C153.871 174.723 153.249 174.916 152.674 174.911C152.181 175.395 151.257 175.204 150.935 174.63C148.324 173.88 146.166 172.13 143.854 170.771C140.568 168.769 137.12 167.063 133.785 165.146C139.324 188.139 137.97 212.089 136.496 235.494L136.485 235.706C136.303 239.123 135.521 240.739 132.694 242.834C133.187 244.34 133.627 245.852 133.963 247.401C134.082 247.76 134.628 247.422 134.632 247.916C135.636 247.68 137.677 247.932 136.965 249.325C138.981 251.022 140.347 253.32 142.114 255.254C145.227 258.995 149.295 261.779 153.285 264.522C162.456 269.208 162.982 277.328 152.251 280.101L152.144 280.127C150.666 280.483 148.887 281.298 147.454 280.612C145.311 280.198 143.185 279.361 141.088 278.723C132.647 275.922 124.39 272.643 116.39 268.874C116.1 268.737 115.936 268.424 115.929 268.111C116.018 265.525 115.318 251.353 117.992 251.048C118.589 248.153 118.683 245.164 118.575 242.209C117.707 241.935 116.83 241.671 115.931 241.5C115.059 241.225 113.694 241.163 113.11 240.454C112.9 240.378 112.746 240.19 112.778 239.893C113.25 235.452 113.608 230.999 113.87 226.541C114.765 211.589 114.461 196.591 113.441 181.655C111.341 183.476 108.947 185.071 106.282 185.919C104.812 187.397 102.453 187.714 100.445 187.893C97.8634 188.053 95.327 187.536 92.7789 187.214C88.452 186.668 84.1553 187.152 79.86 187.687L78.3921 187.871C67.876 189.027 56.5111 189.266 46.7098 184.76C44.8644 184.924 42.5735 182.925 41.4223 181.588C40.9139 181.903 40.4145 181.288 40.0094 180.965C39.3408 180.761 38.5825 180.469 37.9758 180.042C36.4367 180.547 35.6064 178.543 35.0218 177.454C25.7425 161.522 36.0765 145.663 35.2992 128.768C35.7699 115.523 29.7441 101.724 35.5679 89.0199C36.7461 83.6441 43.6366 79.9288 48.8231 78.5625C50.4944 78.2858 56.8217 75.9921 57.5184 77.9209C57.8481 77.4868 58.4111 77.4542 58.916 77.4523ZM135.887 249.946C135.018 250.039 134.17 250.093 133.31 250.251C130.173 250.767 127.18 251.985 124.484 253.677C123.611 254.223 122.832 254.91 121.83 255.215C119.771 255.964 117.748 254.103 117.899 252.091C117.325 257.148 117.423 262.351 117.721 267.433C125.774 271.086 134.008 274.343 142.392 277.172C144.28 277.966 146.515 278.22 148.249 279.292C151.205 279.105 154.181 278.064 156.664 276.437C160.783 273.572 158.049 269.027 154.634 267.027C147.118 263.626 140.72 256.744 135.887 249.946ZM119.419 242.467C119.261 243.966 120.397 246.301 120.237 249.289C120.114 250.222 119.824 251.199 119.924 252.136C120.387 255.61 124.139 251.195 125.689 250.711C127.89 249.497 130.282 248.671 132.741 248.219C132.726 247.418 132.197 247.098 132.127 246.307C132.027 245.14 132.032 244.019 131.98 242.842C128.783 244.3 122.81 243.269 119.419 242.467ZM136.645 249.719C136.59 249.756 136.531 249.788 136.47 249.816C136.915 250.356 137.3 250.955 137.827 251.419L137.602 251.069C137.302 250.603 136.995 250.139 136.645 249.719ZM37.3446 125.421C37.1835 126.077 36.8901 126.695 36.4506 127.22C38.7203 145.671 27.0426 161.052 37.7792 178.208C37.9149 178.271 38.0387 178.35 38.1579 178.449C38.221 178.407 38.2842 178.362 38.3461 178.318C43.3785 169.39 50.542 161.688 56.2498 153.144C57.3453 151 59.1488 148.841 59.8393 146.363C48.3689 141.822 43.7871 135.197 37.3446 125.421ZM188.297 153.408C187.811 153.582 187.269 153.438 186.75 153.429C184.908 153.389 183.107 153.871 181.345 154.359C176.219 155.764 171.066 157.009 165.814 157.841C165.708 157.951 165.606 158.064 165.514 158.182C165.605 158.336 165.619 158.53 165.487 158.722C164.695 160.239 165.335 162.097 164.76 163.721C163.926 167.009 161.708 170.718 158.397 171.885C159.501 172.94 160.292 174.297 161.43 175.315C164.225 177.236 167.303 174.373 169.585 172.838C173.929 169.761 178.285 166.706 182.652 163.662C184.609 162.036 188.937 159.987 189.874 157.833C190.474 156.181 189.382 154.572 188.297 153.408ZM158.358 157.6C156.488 161.424 155.408 165.489 154.328 169.594C155.452 169.904 156.486 170.389 157.59 170.716C159.145 171.066 161.341 168.053 162.12 166.857C162.924 165.52 163.487 164.05 163.748 162.51C163.968 161.003 163.733 159.436 164.388 158.04C162.362 158.247 160.307 158.291 158.358 157.6ZM47.1878 149.711C48.9438 149.218 44.9491 153.201 44.719 153.626C42.1216 156.7 39.7418 159.948 37.3802 163.205L36.6643 164.194C36.5955 164.294 36.1214 164.997 36.4643 164.908C36.4956 164.899 36.5103 164.941 36.4853 164.958C34.3013 165.345 46.1346 149.982 47.1878 149.711ZM89.9975 147.831C90.1395 147.402 89.4653 147.218 89.3233 147.645L88.8756 148.996C87.1864 154.103 85.5075 159.217 83.4884 164.205C83.3196 164.623 83.9949 164.805 84.1626 164.392C86.3587 158.964 88.153 153.387 89.9975 147.831ZM109.634 146.043C109.018 148.973 107.462 151.614 106.519 154.415C108.29 154.023 109.655 152.368 110.687 150.944L110.718 150.897C111.206 150.145 111.772 148.971 112.878 149.501C114.558 150.479 113.354 153.948 113.323 155.593C113.11 157.846 112.379 159.955 111.881 162.144C113.161 161.267 113.529 159.537 114.153 158.189L116.555 152.413C118.32 149.988 117.5 157.251 117.409 157.936C117.266 159.442 116.633 160.956 116.881 162.472C117.877 161.398 118.504 160.048 119.031 158.679C119.762 156.774 120.429 154.844 121.125 152.927C121.365 152.313 122.277 152.528 122.145 153.205C122.1 155.381 122.064 157.557 122.029 159.733L122.004 161.365C121.999 161.675 121.846 162.579 122.379 162.329C125.179 159.383 125.896 153.492 125.532 149.534C120.029 149.667 114.415 148.952 109.634 146.043ZM158.604 157.034C158.581 157.105 158.555 157.177 158.529 157.249C158.545 157.253 158.562 157.256 158.578 157.26C158.588 157.184 158.597 157.109 158.604 157.034ZM36.4693 157.034C35.8588 156.581 46.1188 143.373 45.4541 147.186C42.5917 150.582 39.2538 153.557 36.4693 157.034ZM127.079 127.847C117.484 125.587 109.034 134.03 99.3981 132.754C99.5097 135.778 99.6646 138.822 99.6037 141.848C112.4 142.906 110.944 148.367 125.675 147.817C127.578 146.539 128.36 138.704 128.199 136.339C128.322 133.542 125.922 132.287 123.531 131.797C122.668 132.32 121.118 130.759 122.4 130.21C124.089 129.701 125.668 128.9 127.079 127.847ZM56.2924 78.285C52.8788 78.6223 49.4978 79.5552 46.3604 80.9968C34.763 84.3538 33.0907 97.966 34.4853 108.281C35.0631 116.126 37.2942 123.798 41.9849 130.177C54.473 149.273 75.1569 146.249 94.7489 143.723C95.4551 143.23 96.6518 143.58 97.3324 142.929C97.2613 142.905 97.1971 142.871 97.1423 142.829C97.4694 142.573 97.7224 142.124 97.7978 141.647L97.9389 141.661C98.0774 138.7 97.9667 135.796 98.0114 132.858C91.5737 131.088 84.6696 130.183 78.1453 128.42C77.4037 128.938 76.5486 128.341 75.8242 128.06C73.9463 127.259 72.0516 126.498 70.1431 125.773L69.6656 125.593C68.4215 125.126 67.1782 124.646 65.9458 124.146L65.4841 123.958C64.7781 123.668 62.9952 122.597 62.225 123.266L62.2871 123.4C62.7438 124.399 64.3171 128.096 62.383 127.365C60.8126 126.259 59.9983 118.548 58.4428 118.48C57.9079 119.916 57.5247 121.406 57.4371 122.94C57.4056 123.286 56.9529 123.577 56.6809 123.254C54.836 120.818 57.6228 118.164 57.6972 115.593C57.8729 112.603 56.5536 109.806 55.8964 106.944L55.856 106.746C55.4706 104.89 54.8709 102.639 55.03 100.973L55.4127 102.419C55.7967 103.865 56.19 105.312 56.6414 106.738C57.7613 110.3 59.7835 113.969 58.6598 117.78C60.9141 117.855 61.2953 121.423 62.1421 123.053C63.5121 121.27 73.153 125.544 75.353 126.23L75.7773 125.747C82.6673 117.913 87.6412 112.612 98.3201 118.809C96.4754 112.841 96.2971 106.503 95.9824 100.306C96.0903 99.1273 95.4108 96.0176 96.3691 95.3741C96.5353 95.3985 96.6971 95.4488 96.8498 95.5159L96.8496 96.1267C96.8542 97.3099 96.9092 99.272 97.404 99.7176L97.6311 102.06C98.2257 108.153 98.9001 114.24 100.714 120.111C105.069 122.552 109.043 125.609 112.781 128.907L113.207 128.751C117.826 127.055 123.384 124.882 128.106 126.998C128.028 125.803 127.568 124.66 126.926 123.649C125.856 123.383 125.156 122.252 124.39 121.498C121.963 118.883 119.471 116.328 117.099 113.661C106.98 102.744 102.674 84.8181 86.7824 80.5838C85.7319 89.4052 74.4775 90.8128 67.6955 87.7938L67.4381 87.6949C63.2221 86.0632 58.4578 83.6006 56.9772 79.1141L56.9156 78.9842C56.7634 78.6678 56.5818 78.3453 56.2924 78.285ZM58.7937 128.485C58.806 128.471 58.8299 128.49 58.8194 128.505C56.8435 130.991 55.2356 134.382 57.1994 137.353C57.5623 138.021 56.714 138.664 56.171 138.154C53.4454 135.05 56.4694 130.843 58.7937 128.485ZM127.538 129.047C126.452 129.825 125.287 130.471 124.053 130.98C124.057 131.123 123.987 131.275 123.925 131.387C125.549 131.517 127.241 131.938 128.382 133.126C128.437 132.691 128.491 132.255 128.533 131.82C128.638 130.698 128.446 129.695 127.538 129.047ZM52.8234 118.055L52.836 117.995C52.8448 117.927 52.9477 117.923 52.9447 117.995C52.9069 118.884 52.262 119.516 51.7158 120.149C50.9052 121.088 50.0945 122.027 49.2836 122.966C47.9278 124.601 45.9305 126.246 46.3796 128.616C46.3881 129.457 45.3361 129.638 44.9094 129.019C43.2121 125.773 48.5549 123.011 50.3558 120.917C51.2015 120.011 52.5341 119.344 52.8234 118.055ZM78.2624 127.8C78.2877 127.841 78.3058 127.884 78.3154 127.929C78.5999 127.96 78.8833 127.992 79.1666 128.027L78.2624 127.8ZM35.7649 120.209C35.8156 120.548 35.8631 120.888 35.9085 121.228L35.9533 121.568L35.9603 121.539C35.9835 121.45 36.0272 121.374 36.0844 121.312L36.104 121.292C35.9862 120.933 35.8732 120.572 35.7649 120.209ZM113.767 116.698C114.448 116.625 111.363 118.849 111.193 119.125C110.944 119.341 110.654 118.956 110.919 118.768C111.877 118.09 112.822 117.394 113.767 116.698ZM107.766 110.155C108.239 109.96 108.561 110.751 108.112 110.972C106.475 111.775 104.745 112.343 103.237 113.399C103.17 113.445 103.087 113.337 103.15 113.288L103.331 113.144C104.72 112.038 106.108 110.836 107.766 110.155ZM36.33 100.153C36.7874 102.313 39.2623 103.023 41.183 103.598L41.7831 103.827C43.4792 104.478 45.2363 105.211 46.4565 106.586C46.9347 108.138 43.5221 105.435 43.0457 105.298C40.7153 103.849 36.5046 103.603 36.33 100.153ZM86.8523 79.9846C86.8652 80.0944 86.8716 80.2066 86.8748 80.3187C87.0184 80.3187 87.1608 80.3199 87.3044 80.3245C87.1373 80.2262 86.9841 80.1141 86.8523 79.9846Z" fill="black"/>
<path fill-rule="evenodd" clip-rule="evenodd" d="M91.9364 53.6274C91.6985 51.5316 92.0064 47.1511 92.027 46.8849C92.1574 45.2024 91.3712 38.5585 89.8849 39.1707C87.3917 37.1917 84.0709 36.7547 80.9658 36.5459C74.5159 36.1123 67.6545 37.1078 62.674 41.46C60.211 43.7202 57.8132 47.0076 58.0059 50.4304C55.7681 53.6749 52.6133 58.1254 55.4015 61.9184C56.3493 63.1302 57.8556 63.5815 59.0462 64.4992C61.441 66.436 62.9435 69.2156 65.361 71.1408C71.7659 76.9116 82.6413 78.1171 88.9341 71.5533C93.8001 66.7996 93.0133 59.6877 92.1574 53.6274C91.582 49.553 92.4005 57.7161 91.9364 53.6274Z" fill="white"/>
<path fill-rule="evenodd" clip-rule="evenodd" d="M72.084 22.7255C73.9412 22.3404 75.8483 22.1008 77.7448 22.1729L77.8911 22.1788C79.318 22.2374 81.1252 22.367 82.37 23.2197C82.4417 23.1458 82.5568 23.108 82.6613 23.1592C84.1406 23.8848 85.7677 24.4094 87.3253 24.9307C88.8758 25.4494 90.4843 25.7918 92.1094 25.9298C92.7208 25.9818 93.2441 26.6602 92.8569 27.2687C92.7648 27.4137 92.6751 27.5601 92.5858 27.7069C92.7352 27.6909 92.8846 27.6744 93.0341 27.6589C93.5258 27.608 94.017 28.1473 93.9879 28.6393C93.9697 28.9487 93.9372 29.2545 93.8891 29.5565C94.0764 29.5525 94.2626 29.5814 94.4425 29.6595C95.3534 30.0547 95.2899 31.1696 95.2218 32.0178C95.1273 33.1949 94.6989 34.4416 93.9034 35.3226C94.4973 35.9565 94.9178 36.7135 95.1686 37.6125C95.3505 38.2691 95.4517 38.9684 95.4018 39.6518L95.3858 39.8564C95.3241 40.598 95.2012 41.4191 94.682 41.9526C94.4155 42.2277 94.0871 42.3279 93.7741 42.2961C93.9634 44.0053 94.0847 45.7242 94.1989 47.437L94.2525 48.2556C94.5073 52.2142 94.3026 59.0924 94.2525 63.0575C94.206 66.7631 93.9244 68.581 91.7126 71.5897C89.6983 74.3294 87.0834 76.183 83.8116 76.9508C82.0484 77.3652 80.4025 77.4364 78.6179 77.1724C77.7528 77.044 76.8421 76.8181 76.0211 76.5076C75.1122 76.1628 74.4643 75.9016 73.8528 75.1412C73.5636 74.7806 73.7028 74.0128 74.2787 74.0849C75.1498 74.1935 75.3517 74.4146 76.1868 74.6794L76.7801 74.9564C77.6118 75.2302 78.5218 75.5898 79.3914 75.6766C81.1726 75.8538 83.2104 75.5114 84.9166 74.9564C87.6947 74.0517 89.9286 71.7156 91.4622 69.1825C93.2825 66.1799 93.0568 61.5636 93.0305 58.1111C93.0023 54.3226 92.8824 50.5319 92.6867 46.7473L92.6534 46.1166C92.5498 44.1691 92.4499 42.2203 92.362 40.2716C92.3346 39.6603 92.293 39.0442 92.2179 38.4341C91.5315 38.0209 90.9165 37.4512 90.5155 36.7482C89.7101 37.0905 88.863 37.3375 88.0836 37.5343C86.2782 37.9906 84.4039 38.1013 82.5663 37.8156C82.0707 38.026 81.5652 38.211 81.052 38.3702C80.9132 38.4334 80.7745 38.4955 80.6359 38.5564C79.3984 39.1004 78.1433 39.5613 76.837 39.8987L76.5162 39.9809C75.8287 40.1551 75.0821 40.3266 74.3505 40.3804C74.2303 40.4281 74.1006 40.4684 73.9589 40.5039C73.2928 40.6701 72.6014 40.7227 71.9187 40.664C71.2535 40.6066 70.7728 39.9158 71.1393 39.2691C71.4069 38.7972 71.6771 38.3265 71.9496 37.8571C71.0014 38.2629 70.0222 38.6004 69.0347 38.8864C68.0377 39.175 67.0264 39.4183 66.0138 39.642C65.4725 39.7606 64.9289 39.8657 64.3888 39.9843C64.0021 40.0687 67.1228 41.691 66.8074 41.9526C66.4589 42.2399 66.3602 42.9099 66.228 43.3231C66.0543 43.8598 65.8913 44.3989 65.7426 44.9442C65.4464 46.0323 65.2037 47.1362 65.0158 48.2512C64.8278 49.3674 64.7015 50.4946 64.6313 51.6254C64.5613 52.7551 64.5921 53.892 64.4792 55.0168C64.4184 55.6134 63.7951 55.9203 63.3346 55.5034C63.2806 55.4545 63.2262 55.405 63.1723 55.355L63.0919 55.2796C62.698 54.9129 62.3161 54.5241 62.0009 54.0864C61.9438 54.0057 61.8891 53.9214 61.838 53.8358C61.8296 53.8358 61.8225 53.8334 61.8142 53.8273L61.7268 53.7597C60.7645 53.0237 59.157 52.0642 58.2188 53.2869C57.9198 53.6764 57.7667 54.1723 57.6397 54.6508L57.4167 55.5071C57.2725 56.0661 57.1368 56.6283 57.0575 57.2003C56.8778 58.4815 56.9682 59.9583 57.8261 60.9853C58.1688 61.3961 58.6411 61.6895 59.1681 61.7665C59.462 61.8081 59.7523 61.7567 60.0438 61.7188C60.3401 61.6809 60.6255 61.742 60.9219 61.7127C61.393 61.665 61.5988 62.2445 61.4227 62.6088C61.3276 62.8044 61.2156 62.9732 61.0884 63.1162C61.1906 63.2067 61.2883 63.3045 61.3823 63.4072C61.6607 63.4989 61.9104 63.6957 62.0973 63.9561C62.2484 64.1664 62.3268 64.395 62.34 64.6358C62.3566 64.6957 62.3708 64.7569 62.384 64.8192L62.6393 65.2449C62.6954 65.3383 62.7514 65.4305 62.8075 65.521C63.4571 66.5723 64.1782 67.4624 65.0741 68.301C65.9366 69.1079 66.8728 69.8304 67.6832 70.696L67.7786 70.7988C68.5341 71.6168 69.3304 72.607 69.0347 73.7964C68.9586 74.102 68.5432 74.3221 68.2721 74.1155C67.4 73.4504 66.9609 72.3966 66.221 71.5897C65.4594 70.7584 64.6159 70.0114 63.8522 69.1825C63.1299 68.4001 62.56 67.5137 62.1306 66.5381C61.9592 66.7325 61.7095 66.8707 61.3632 66.9244C60.7684 67.0161 60.2138 66.6579 59.9546 66.1286C59.7879 66.2044 59.6179 66.2728 59.4465 66.3266C58.5446 66.6102 57.9772 65.5796 58.3175 64.818C58.4994 64.4097 58.7267 64.0551 59.0087 63.7568C58.127 63.6321 57.23 63.1639 56.6506 62.5795C55.1968 61.1112 54.9969 58.9045 55.3241 56.9423C55.4978 55.9019 55.7975 54.8493 56.1867 53.8725C56.2544 53.7025 56.3271 53.5314 56.4067 53.3627C56.3626 53.3615 56.3174 53.3419 56.2889 53.304C56.0259 52.9348 55.706 52.6328 55.5108 52.2196C55.3311 51.8406 55.1314 51.4567 54.9897 51.0618C54.6983 50.2537 54.5555 49.3417 54.4604 48.4871C54.2641 46.7377 53.7355 43.3231 53.7355 41.9526C53.5392 39.2691 53.1933 36.0361 53.9807 33.4013C53.8947 33.3549 53.8123 33.2989 53.7355 33.2326L53.6976 33.1986L53.636 33.1414C53.1854 32.7225 53.2243 31.9372 53.636 31.5129L53.766 31.379C53.9306 31.2109 54.0726 31.0777 54.3385 30.8947C54.3778 30.8677 54.4179 30.8423 54.4585 30.8186C54.3193 30.5543 54.271 30.2452 54.3679 29.9042C54.7058 28.7164 56.3691 28.7585 57.4233 29.2765C58.5896 28.2068 59.8829 27.2783 61.2846 26.5264C64.6231 24.7366 68.3981 23.4884 72.084 22.7255ZM58.7634 55.7128C59.3868 55.5037 60.2149 55.9426 60.7752 56.2067C61.4855 56.5416 62.0899 57.0368 62.6753 57.56C62.9667 57.8217 63.019 58.2496 62.9465 58.6151C62.9393 58.6518 62.9322 58.6897 62.9238 58.7276C62.8465 59.1176 62.4229 59.4244 62.0481 59.4134C61.2641 59.3914 60.8906 58.6958 60.4468 58.1065C60.3945 58.2019 60.3291 58.2899 60.2481 58.3559L60.1934 58.3999C60.0092 58.544 59.8061 58.6592 59.5628 58.6481C59.3903 58.6395 59.225 58.5943 59.0726 58.5124C58.6919 58.3058 58.5243 57.7997 58.6276 57.3877C58.6919 57.1285 58.8394 56.9255 59.0322 56.7849L58.9603 56.7344C58.8066 56.6245 58.6664 56.5086 58.5571 56.3376L58.5325 56.2971H58.542C58.423 56.0869 58.5005 55.8008 58.7634 55.7128Z" fill="black"/>
<path fill-rule="evenodd" clip-rule="evenodd" d="M80.8925 67.2475C80.1496 66.9436 79.4868 66.4368 79.0023 65.7893C78.8338 65.5642 78.7901 65.3266 78.8254 65.1092C78.8652 64.8647 79.0094 64.6432 79.2061 64.4946C79.4034 64.3455 79.6502 64.272 79.8888 64.3095C80.0962 64.342 80.3026 64.4558 80.4659 64.6919L80.5 64.7391C80.7881 65.1299 81.1635 65.4506 81.5913 65.6572C82.0036 65.8564 82.4646 65.9494 82.9418 65.8953C83.8506 65.7924 84.4769 65.2996 85.1427 64.6304C85.2252 64.5459 85.3078 64.4588 85.3908 64.3702C85.4432 64.29 85.5159 64.2384 85.5966 64.2113C85.6863 64.1813 85.7877 64.183 85.8806 64.2155C85.9701 64.2468 86.0502 64.3062 86.1039 64.3853C86.155 64.4604 86.1839 64.5533 86.1745 64.66C86.1136 65.3535 85.752 65.9725 85.2383 66.4585C84.6679 66.9982 83.9116 67.3716 83.1997 67.5026C82.4154 67.6469 81.6162 67.5435 80.8925 67.2475ZM83.5697 56.5487C84.4042 57.0573 85.6756 58.2432 84.778 59.504C83.7213 60.6157 82.1999 59.3411 81.4502 58.7646C80.7551 58.3178 79.974 59.4669 80.619 59.9886C86.0363 64.0101 88.2348 56.6817 83.9918 55.9507C83.5246 55.8702 83.3511 56.3914 83.5697 56.5487ZM73.8618 51.8706C73.954 50.7232 75.697 50.4626 75.8704 51.5981C76.0256 52.6152 75.8428 53.5496 75.3859 54.4654C74.9493 55.3402 73.8519 54.9321 73.769 54.1354C73.6577 53.0675 73.8045 52.5844 73.8618 51.8706ZM87.1294 51.3626C87.3724 51.0435 87.7232 50.8257 88.1436 50.9488C89.4569 51.3336 89.0698 53.2031 88.6086 54.1131C88.3579 54.6073 87.5478 54.7326 87.1817 54.2975C86.585 53.5879 86.2992 52.1709 87.0579 51.472C87.0784 51.4359 87.1013 51.3994 87.1294 51.3626ZM75.3674 46.8496L75.5749 46.8132C76.2167 46.7019 77.0146 46.595 77.4686 47.1123C77.7094 47.3867 77.7923 47.8966 77.4686 48.1592C76.8993 48.6212 76.2699 48.4422 75.5876 48.4813C75.0254 48.5136 74.485 48.6069 73.9435 48.7622C72.7553 49.1026 71.7872 49.7242 70.7724 50.4068C70.6393 50.4963 70.5034 50.3255 70.5669 50.2007C71.1527 49.0502 72.2879 48.1052 73.425 47.5292C74.0319 47.2217 74.696 46.9666 75.3674 46.8496ZM85.9321 46.3343L86.0909 46.3669C87.8189 46.729 90.0639 47.4525 90.8822 49.1543C90.9134 49.395 90.8805 49.4465 90.8537 49.4802L90.8448 49.4914C90.8227 49.5202 90.8051 49.5599 90.701 49.5926C90.6722 49.5857 90.643 49.5784 90.6136 49.5707C90.2385 49.4721 89.9417 49.3364 89.6544 49.1955L89.3429 49.0416C88.9815 48.8639 88.6169 48.6927 88.2305 48.5663C87.4059 48.2966 86.5577 48.1066 85.6964 48.0052C85.5097 47.9832 85.33 47.9201 85.1882 47.8118C85.0535 47.709 84.9507 47.5667 84.9038 47.3776C84.8431 47.1328 84.8605 46.9475 84.9915 46.7267C85.09 46.5609 85.2309 46.446 85.3927 46.38C85.5577 46.3127 85.7455 46.2968 85.9321 46.3343Z" fill="black"/>
<path fill-rule="evenodd" clip-rule="evenodd" d="M83.1712 61.548C81.9423 60.993 80.9382 61.2725 78.9002 61.7749C76.5734 62.7129 76.4076 62.5467 75.4131 63.7101C74.7606 65.419 76.2419 65.2613 76.4076 65.2613C77.7337 65.0951 78.3779 64.533 79.729 64.3233C80.8259 64.1515 82.0164 64.1874 83.0441 63.6031C83.7944 64.0169 85.5242 63.7693 86.795 63.8801C88.1763 63.9871 88.091 64.2399 89.1708 64.0979C89.7786 63.9317 89.9012 63.4847 88.4588 62.379C86.8802 61.169 84.5531 61.0509 83.1712 61.548Z" fill="black"/>
<path fill-rule="evenodd" clip-rule="evenodd" d="M84.6015 72.7694C83.5263 73.0322 83.6721 72.9148 83.5517 72.08C83.4576 71.4278 84.0684 70.6224 82.7229 70.695C81.3774 70.7676 81.8811 71.259 81.9494 72.1354C81.9936 72.7037 82.4562 73.3778 80.789 73.742C79.7261 73.7382 79.4203 73.6911 78.3027 73.4845C77.1424 73.4845 75.3289 72.6795 74.877 74.7392C74.7144 75.4805 75.7314 75.588 78.3027 75.7872C80.9104 76.3171 86.6677 75.022 88.5243 73.0218C89.132 72.3671 89.2131 72.5428 89.2978 72.08C89.4759 71.1077 87.9008 71.5157 86.701 71.8584C85.8534 72.3122 85.2929 72.6004 84.6015 72.7694Z" fill="black"/>
</svg>
